<svg xmlns="http://www.w3.org/2000/svg" width="32" height="32" viewBox="0 0 328 509.33"><path d="M114.67 505.16C56.369 495.042 5.43 443.503 4.34 382.9c-3.3929-45.402-6.5498-93.465 10.804-136.55C38.156 192.859 73.325 145.75 108.76 100c24.098-25.584 49.804-50.772 80.452-68.315 25.322-6.1739 46.586-24.246 72.012-26.444 20.852 4.3683 25.332 28.687 37.546 43.381 24.686 44.572 26.943 97.627 25.173 147.42-4.534 78.282-30.38 153.71-63.043 224.38-18.8 38.637-51.729 73.571-95.534 81.57-16.631 3.0395-33.815 4.503-50.696 3.1674zm-18.438-46.033c20.361-4.6741 42.616-4.89 61.551-12.904 16.499-17.103 37.523-28.295 52.886-46.213 14.895-17.912 26.105-38.637 33.86-60.564 1.9142-18.377 23.111-30.28 25.06-45.674-8.5918-4.2373 13.346-9.0787-1.1236-13.143-2.6988-19.75 25.302-34.312 9.8637-54.713-17.943 6.8973-19.796 36.961-28.175 54.03-8.6398 34.404-26.999 65.231-38.894 98.488-4.5409 14.508-27.927 41.629-38.905 31.639 1.9115-21.936 18.679-36.645 27.344-56.547 10.798-17.391-8.5712-20.279-7.6354-6.4151 1.7951 11.504-34.179 29.334-16.604 8.5441 10.506-18.064 15.382-41.095 37.482-46.699 13.231-6.4148 8.7761-16.228 4.813-24.986 11.463-15.611 24.12-28.967 30.369-47.621 11.465-16.86 25.604-34.21 23.221-55.95-1.7526-10.971 13.371-34.684 3.5262-37.479-10.521 19.192-1.2043 46.422-21.314 60.412-24.077 9.6438-31.29 37.096-36.875 61.978-.92832 11.567-20.618 29.381-24.875 22.238-13.132 18.557-13.683 42.619-25.49 59.826-11.684 11.686-29.099 26.795-29.472 45.554 7.4698-3.4996 29.439-31.618 26.199-9.9994-7.0311 21.098-45.434 26.672-42.26 48.086 9.6922-3.9177 38.467-17.21 32.616 3.0182-6.9064 11.263-8.858 3.5359-14.488.19078-11.599 6.3143-28.279 15.9-34.368 1.8548-5.0433 2.8447-16.924 9.8406-14.183-2.4126-9.6912 4.6134-45.153 8.9642-21.314-3.7848 5.6509-3.04 12.974-21.812 2.1664-9.9097-5.9911-15.156 27.968-32.273 32.4-16.819 21.391-6.0473 8.4631-37.742 29.111-46.534 19.27-24.398 26.447-55.781 46.945-79.3 12.293-18.554 28.35-30.449 31.413-50.9 12.418-25.844 23.186-52.401 36.183-77.965 5.4607-21.426 17.255-40.292 26.169-60.548 7.3-13.293-15.289-6.984-10.589 5.2258-1.7882 20.062-19.633 27.014-20.534 48.423-6.5853 23.731-17.594 45.694-31.116 66.177-7.6928 20.263-18.952 38.672-30.955 56.654-17.404 12.338 1.5858-17.862 3.996-24.745-4.041-14.683 18.002-37.679 13.98-41.588-15.913 12.419-16.008 33.46-26.268 48.273-11.422 15.537-9.1006 33.929-17.291 51.258-12.676 17.528-19.114 39.12-33.156 56.302-18.631 8.1414-15.13 34.925-31.881 41.602-18.518-4.834 7.0646-30.928 10.362-43.402 2.5712-8.1238 26.337-31.359 9.8063-32.657-9.5584 20.461-25.446 38.365-28.92 61.091-9.9825 4.6103-23.967 8.7228-12.669 21.569 1.0073 11.92-12.93 22.284-10.786 4.6974-15.988-17.219-25.834 21.091-9.9578 28.16 7.0225 19.732 30.666 23.224 48.777 24.185zm-34.036-80.005c19.641-12.697 12.298-38.885 23.053-55.355 13.974-15.625 14.5-36.97 23.742-54.658 8.0063-17.666 15.05-32.8 10.86-52.806 5.0367-8.4526 25.584-27.703 10.409-34.243-16.47 14.485-27.44 35.894-48.295 45.664-2.4646-14.749 19.89-36.82-2.0867-43.922-15.875 11.327 8.7 36.508-9.1747 38.132-.45183 18.81-9.9769 39.396-14.742 59.378-1.6435 12.659-21.896 37.009-4.1985 41.958 4.5081-14.421 5.3159-30.775 13.41-44.461 8.4376-13.718 10.852-31.093 21.93-42.856 9.9795-14.246 33.58-7.0335 18.215 10.141-15.514 27.594-14.836 60.688-29.996 88.462-8.0459 16.286-12.273 33.892-18.058 50.985l2.4971-3.1852zm228.41-157.83c-1.8374-19.613 4.4738-39.112 5.6777-57.959-13.199 13.801-4.0856 35.52-13.175 51.761-2.7513 6.696 1.8176 9.5068 7.497 6.1979zm-186.25-55.5c-4.6466-9.3863 22.148-15.358 5.8144-22.969 4.3969-7.6172-3.4284-36.532-5.504-14.308-1.0928 14.886-22.117 39.343 1.5184 43.245 3.0222-.6009-4.226-5.8511-1.8288-5.9681zm108.42 3.5369c7.3727-11.176 18.636-34.369 14.883-42.21-14.679 3.9067-2.9718 16.692-16.514 25.004-4.778 2.6376-6.3013 23.66 1.6314 17.206zm-45.736-34.655c17.545-9.6988 39.091-43.898 33.834-53.607-15.99 16.299-20.755 40.302-36.964 55.475z" fill="#aa5917"/></svg>