<svg xmlns="http://www.w3.org/2000/svg" width="32" height="32" viewBox="0 0 600.3 491.8"><path fill="#d4a265" d="M305 446c-62 36-139 61-210 35A153 153 0 0 1 3 312c3-44 5-94 39-127 40-44 91-77 143-106C282 28 392 2 502 0c34 7 87 7 98 45 0 31-14 61-24 90-31 74-81 139-133 200-40 43-86 82-138 111Z"/><path fill="#cb824c" d="M306 444c-63 37-142 62-213 35-62-25-103-98-89-164 4-42 2-90 34-123 43-50 101-86 158-117C289 29 393 4 497 1c34 2 69 10 97 31 16 32-11 64-17 95-27 74-77 136-125 196-42 48-91 90-146 121Zm-3-207c28-28 55-57 87-80-31 8-54 34-82 48-36 23-73 47-104 75-2 28 42-12 57-15 15-9 29-18 42-28zm-133 16c58-45 122-82 181-126-22-5-53 34-66 12 23-30 65-28 94-48 12-3 53-35 19-23-56 21-108 52-157 85-42 31-81 69-100 118 12-2 19-13 29-18zm-67 19c9-27 39-62 45-78-32 16-64 46-61 85 5 9 14-3 16-7z"/><path fill="#c97d48" d="M307 443c-61 36-137 62-207 38-67-23-110-99-96-168 4-44 5-94 40-127 42-46 97-81 152-111C291 29 397 3 502 3c32 2 65 9 92 27 14 32-8 65-16 97-32 80-87 150-144 215-37 40-80 74-127 101Zm-19-64c-26 15-61 18-82 41 31-4 58-22 82-41zm96-131c15-14 55-40 47-54-30 9-57 25-78 49-20 29-46 53-79 68-14 4-33 22-47 15 22-19 44-38 64-60 27-26 57-48 85-72-14-20 23-32 19-45-23 21-46-28-14-26-18-12 9-2-2-11 18-17-23-7 4-17 16-10 27-3 11 12-6 15 0 13 8 8 5 12 14 8 12 18 24 5 45 7 59-15 6-17 43-34 25-51-7 22-53 7-27-8 12-8 52-12 47-20-21 7-57-1-66 15-12 11-29-10-27-4-5 9-23 5-11-5l-26-1c-10 14-5 7-16-1-12 12-39-6-24 20 24 23-40-9-6-5-24-26-54 33-20 31-19 3-30 25-40 0-9 30-39-3-59 15-28 17-47 52-85 46-25-4-44 12-39 37-15 24-56 23-64 53-1 24 27 32 34 50-10-11-6-37 11-24-5 18 26 24 28 1 8-21 35-51 45-58-27 6 12-15 10 7-2 19-34 46-15 61 6-10 30-12 24 0-36-15 23 42 8 16 8-7 23 6 33 5-12 7-43 12-24 32-7 19 14-3 23 9 34-1 61-24 90-40 28-16 55-34 82-51zm56-126c-13 1-27-6-7-10 5-20 32-5 7 4l-1 3zm-134 79c19-16-32-8-16-23 11 13 32-3 28 19-3 4-8 5-12 4zM75 254c-29 6 22-31 3-3l-1 2zm106 84c5-18-26-22-12-4-6 9 10 12 12 4zm-34 8c10-16 18-29-8-36-1-16-16-7-27-17-8 19 32 4 14 26-14 0-29-23-44-25 10 10 13 38-9 30 17-8-8-10 0-19-30-13-6 46 19 31 20 3 33-7 52-4 9 1-3 21 3 14z"/><path fill="#c56c34" d="M313 439c-63 38-141 66-214 42A152 152 0 0 1 5 309c3-42 5-89 37-120 39-43 87-74 136-104C271 35 376 9 481 2c41 0 84 9 118 32-6 93-59 173-112 245a610 610 0 0 1-174 160Zm-22-60c13-17-36 17-48 18-14 2-61 28-22 22 27-6 47-26 70-40zm113-84c22-5 51-50 9-36-35 13-51 49-74 74 3 13 28-18 38-20l27-18zm-11-52c30-30 67-51 95-82-8-12-32 21-49 20-48 22-88 57-121 97-22 22-50 39-81 45 41-42 83-85 131-119 49-37 102-71 146-115 0-10-23 7-6-5 21-17 13-36-11-20-33 0 2-14 15-14 21-2 20-18 0-17 23-12-33-11-43-10-44 4-86 21-130 20-39 7-57 56-99 56-37 5-63 38-101 40-21-1-60 31-46 38 13-16-7 27-18 26-27 9-61 43-28 66 26 18-6 64 35 68 31 7 60 23 91 6 34 4 69-4 99-23a7389 7389 0 0 1 121-77z"/><path fill="#bc6633" d="M313 439c-63 38-141 66-214 42A154 154 0 0 1 7 299c4-36 4-78 32-105 38-46 90-79 140-109C280 32 393 3 507 4c32 6 87 7 92 49-6 36-20 72-36 106-35 70-83 133-136 190-34 34-72 66-114 90zm-35-45c47-40 105-66 147-112 33-17-1-48-23-22-43 32-61 90-111 114-30 16-64 26-93 44 28 12 56-11 80-24zm31-81c58-41 108-93 166-134 10-6 32-42 6-22-32 24-73 33-104 60-26 19-53 39-80 57-18 4 21-24 27-31 60-52 129-94 187-149 26-20 36-74-10-73-52-7-101 22-154 19-44 4-81 34-122 49-33 13-63 35-97 45-23 9-46 21-58 42-20 9 3 42-25 42-27 19-6 53 11 66-4 30 11 68 47 56 19 4 30 29 48 9 14-7 46-9 33 12 28 11 59-7 83-20 15-8 29-18 42-28zm-143 58c-3-23-55 0-19 1 5 2 21 12 19-1zm-50-2c4-30-56-11-18 1 5 3 13 4 18-1zm-76-71c13-18-18-18-7 1-1 14 4 8 7-1z"/><path fill="#a7542c" d="M304 444c-59 35-130 57-197 39-31-15-66-30-81-63C6 389-6 350 5 313c-6-11 12-37 7-11-9 14 7 42 24 29 6 41 48 65 86 70a322 322 0 0 0 244-114c11-11 19-11 5 3-27 36-55 76-100 91-33 14-70 23-100 45-30 16-64-20-92 3-28 24 44 59 38 32-16-7-21-23 1-17 50-1 99-13 143-33 49-27 88-69 136-98 34-19 49-53 65-86 24-24 43-52 62-80 21-34 41-68 64-100 26 10-7 48-7 69-31 85-87 157-146 224-38 41-82 77-131 104Zm211-342c16-21 20-54 44-67 3 22-29 47-43 67z"/><path fill="#934829" d="M310 440c-49 28-106 54-163 42 63 6 128-20 174-60-60 31-132 50-198 28 25-9 55-6 81-17 53-14 101-43 140-81 38-29 83-52 108-94 4-38 44-56 59-89 28-40 50-84 80-123 17 19-10 47-10 69a715 715 0 0 1-271 325Zm32-58c-18-14-59 33-21 13 7-4 14-7 21-13zm-68-5c-35 16-73 25-105 48-31 13-67-21-95 4 0 17-13 45-27 18-34-36-56-89-41-138-6-15 13-21 4-4-12 23 18 39 25 31 3 30 35 40 44 64 22 22 55 7 82 3 32-10 65-17 97-26 36-13 66-37 89-66 13-4-18 30-27 37-14 12-29 22-46 29zM530 80c7-11 20-46 28-38-7 14-16 27-28 38z"/><path fill="#863e2b" d="M61 459c-46-38-73-104-51-162-2 14-5 66 16 44 18-21 9 36 30 30 14 13 28 45 41 45-30-1-27 27-32 44z"/></svg>