<svg xmlns="http://www.w3.org/2000/svg" width="32" height="32" viewBox="0 0 584.8 735.5"><path fill="#e89d8c" d="M245 735c-31-15-63-22-97-30-33-9-52-40-65-69C48 567 7 499 1 421c-6-59 15-119 53-164 31-39 75-66 123-75 54-13 110-12 164-11 12-33 28-64 35-98 5-23-13-87 28-70 36 24 4 72-12 99-10 21-43 54-32 74 76 13 155 48 195 117 36 61 36 137 18 203-25 85-83 161-160 205-35 21-78 12-115 29-17 4-35 7-53 5z"/><path fill="#db876c" d="M244 733c-32-17-68-20-102-31-42-16-54-63-75-98C38 547 7 488 3 422c-11-75 28-150 85-197 58-47 136-53 208-54 26 3 57 8 57-28 13-34 30-68 25-106-14-31 25-52 39-20 7 30-10 60-26 85-12 22-38 51-34 74 76 13 154 48 196 116 39 65 37 148 14 218-28 82-87 156-165 195-33 17-72 8-106 24-17 5-35 7-52 4zm150-440c25-5 54 6 75-9-21-22-58-11-86-9-15 0-43 12-12 18 8 2 16 3 23 0zm-83-24c20-4 40-11 63-2 30 0-27-9 4-9 19 2 68 4 69-13-37 1-75-13-111 0l-56-7c-33 5-63-13-95-16-37 4-19 28 8 24 18 22 52 6 76 13-1 17 17-18 30-2 15-2-6 25 12 12z"/><path fill="#f26851" d="M247 733c-34-15-70-22-106-31-48-24-60-80-85-122C26 525 3 466 2 402c-2-49 19-97 46-136 35-45 86-77 143-85 44-7 89-11 134-8 40-7 33-63 51-93 9-24-17-86 29-76 32 30-1 77-20 105-9 22-55 70-6 73 79 16 160 63 189 143 37 102 1 220-67 301-40 44-91 89-154 91-35 0-65 22-100 16zm147-440c21-5 72 11 71-15-33-17-74-5-108 3-9 14 29 17 37 12zm-82-22c25-10 50-4 74-4-21-19 42 4 57-11 27-17-32-13-46-18-33-2-66-2-98-14-22-2-48-10-57-25-27 0 15 4-8 5-27 5-68 0-80 27 14 21 49 18 72 31 24-3 44 13 65-5 11 0 8 27 21 14z"/><path fill="#fb4734" d="M247 733c-35-16-74-21-110-34-43-23-54-74-77-112C31 533 7 476 3 416c-7-50 14-97 38-139 16-44 58-26 85-5 36-4 63 29 98 24 8-1 35-11 26 8 30 0 63-26 90-10 33 6 67-3 100 1 20 2 38-11 25-24 17-5 40 5 48-9 37 12 52 54 62 89 26 112-23 233-107 309-37 34-85 58-137 58-28 6-55 20-84 15zm73-507c-28-2-63-8-81-27-31 1-62 2-93-5 63-23 130-23 195-21 14-35 31-70 38-107-4-22-9-81 30-59 25 31-5 71-21 98-14 25-61 81-4 78 20-1 38 11 37 28 12 0 58 13 23 8-39-3-77 13-116 8l-4-1z"/><path fill="#b56544" d="M247 733c-31-12-60-22-93-27-32-8-53-34-65-63-15-32-35-62-44-95-24-37-31-82-39-125-10-51 9-103 37-146 7-21 45-39 32-3-20 33 9 66 9 101 12 76 29 158 88 213 21 26 52 43 86 41 62-2 108-49 161-72 39-20 73-50 87-92 17-27 14-66 25-91 33-9 59 2 50 39 1 111-63 217-154 278-28 19-62 26-95 27-28 7-56 20-85 15zm73-507c-25-4-70-4-74-27-33 1-67 2-100-5 62-23 130-23 195-21 13-29 24-60 35-90 12-25-15-76 19-82 34 7 25 47 13 70-16 33-41 61-53 96-3 25 61 10 65 32-16 24 44 9 39 23-29-8-48-1-77 3-20 4-41 2-62 1z"/><path fill="#348c64" d="M244 732c-8-1-22-7-34-14-6-4-7-4-16-5-37-2-70-17-87-38a838 838 0 0 1-67-136c-3-1-14-27-17-41l-7-26C4 426 0 385 6 364a357 357 0 0 1 32-79l2-5 3-3 5-6c4-7 12-16 15-17 3-2 10-3 12-3 3 1 2 18-1 26-8 19-9 35-2 44 2 2 7 22 9 38a1338 1338 0 0 0 28 129 289 289 0 0 0 29 59c15 24 52 62 69 71 18 10 54 14 74 9 21-6 49-18 64-28a1222 1222 0 0 1 70-40c43-22 74-51 84-80l4-8c2-3 12-28 15-40 6-16 8-27 8-42 0-16-3-15 27-16 29-1 26-3 27 24 4 74-14 136-62 206-31 45-83 89-125 105-16 6-21 7-40 8-18 1-32 3-44 8-21 8-49 11-65 8zm83-507-14-2-14-2c-19-1-50-11-48-15 4-8 2-8-23-8-22 1-29 0-23-3 13-5 27-6 46 0a198 198 0 0 0 34 6c8 1 46 1 47-1l3-6a549 549 0 0 1 14-35l8-23c23-60 23-59 22-85-2-50 2-58 23-46 19 10 22 25 11 49l-4 10-2 9c-2 5-17 29-23 36l-6 10-6 10a336 336 0 0 0-30 72c-1 2 0 3 4 4l9 3c2 2 6 3 7 3 4 0 13 8 12 10 0 3-29 5-47 4z"/><path fill="#cf2a28" d="M244 732c-8-1-22-7-34-14-6-4-7-4-16-5-37-2-70-17-87-38a838 838 0 0 1-67-136c-3-1-14-27-17-41l-7-26C4 426 0 385 6 364a357 357 0 0 1 32-79l2-5 3-3 5-6c4-7 12-16 15-17 3-2 10-3 12-3 3 1 3 18 0 26-8 19-8 35-2 44 2 2 8 22 10 38l3 24 5 25c2 15 12 58 17 71l2 9c4 14 16 39 22 48l7 11c15 24 52 60 70 70 17 10 51 14 71 9 22-6 50-17 65-27l47-29c3-1 13-10 23-15 43-21 72-46 82-75l6-9 13-40c5-16 2-29 6-44 5-16 0-16 30-16 29-1 29-1 30 26 4 74-16 136-64 206-31 45-83 89-125 105-16 6-21 7-40 8-18 1-32 3-44 8-21 8-49 11-65 8zm82-507c-9-1-14-2-9-2 3 0 6-4 7-9l4-7 2-4 2-2 3-7a542 542 0 0 1 14-35l8-23c23-60 23-59 22-85-2-50 2-58 23-46 19 10 22 25 11 49l-4 10-2 9c-2 5-17 29-23 36l-6 10-6 10a336 336 0 0 0-30 71l-3 5c-4 4-2 12 4 16 7 5 3 5-17 4z"/><path fill="#b40e00" d="M247 732c-28-10-53-23-83-24-41-7-68-44-81-80 39 31 81 60 128 76 29 12 62 13 88-7 27-12 57-15 84-25 49-7 92-33 128-65-7 22-34 42-54 59-31 25-67 51-109 49-35 2-66 22-101 17zm79-507c-22 2 13-23 12-37 13-38 30-76 41-115 5-23-11-58 11-73 38 6 30 48 17 73-21 35-45 68-58 106-6 16-17 36-4 46h-19z"/><path fill="#514913" d="M326 225c-4-1-16-2-7-3 6-7 9-17 14-24l20-50c8-24 19-47 25-71 3-18 0-35 1-53 1-8 0-19 7-23 9-2 18 5 25 10 11 10 9 26 4 38-4 8-6 17-9 25-7 15-17 28-26 41-6 13-14 24-19 37-6 12-10 25-15 37-1 9-10 15-9 24-1 6 16 12 5 12h-16z"/></svg>