<svg version="1.0" viewBox="0 0 203 203" xmlns="http://www.w3.org/2000/svg"><path d="M1430 2021c-9-3-54-44-101-90l-85-83-230-4c-126-1-245-3-264-3-46 0-126-18-248-57-7-2-14-4-17-4s-28-13-56-29c-179-99-320-280-385-496-22-76-27-115-32-248-5-162 4-239 35-327 22-60 72-150 99-178 12-12 27-42 33-65 20-81 159-238 261-297C575 63 646 41 850 9c95-15 343-3 425 21 85 24 221 82 296 126 65 39 170 147 233 243 50 75 108 186 110 210 1 9 9 30 17 46 37 69 62 206 62 330-1 128-25 285-49 319-8 11-14 28-14 37 0 24-48 109-80 144-62 65-90 93-169 167-70 65-94 81-150 99-36 11-84 30-107 40-22 10-48 19-57 19-47 0-12 54 70 107 45 29 54 39 51 60-3 30-36 54-58 44zm-243-246c3-8-11-36-30-63-20-26-39-60-42-75-4-15-11-30-16-33s-7-10-4-15c14-21-99-40-121-20-5 5-20 11-34 13-19 2-32 16-52 58-36 73-36 101 2 129 17 12 34 20 38 17s13-2 19 2 61 6 123 4c84-3 112-7 117-17zm168-46c5-5 17-9 26-9 10 0 26-11 37-25s25-25 30-25c6 0 14-5 17-11 9-13-23-49-45-49-9 0-21-5-27-11-18-18-199-25-218-9-14 12-14 15 3 34 11 12 27 36 36 54 30 58 53 75 94 67 21-4 41-11 47-16z" style="fill:#aa6269;fill-opacity:1;stroke-width:0;stroke-miterlimit:4;stroke-dasharray:none" transform="matrix(.1 0 0 -.1 0 203)"/></svg>