<svg xmlns="http://www.w3.org/2000/svg" viewBox="0 0 352 364.8"><path fill="#d78647" d="M165 364c-28-4-55-17-80-30-40-25-68-67-80-112-12-55-1-114 31-161C55 29 91 5 129 3c35 0 71 3 105 12 18 6 38 11 54 22 34 25 55 65 62 106 11 70-25 140-81 180-30 23-66 39-104 41z"/><path fill="#d26648" d="M165 363c-32-5-62-19-90-36C20 286-9 213 3 146 11 96 36 46 79 19 115-2 158 3 197 8c36 6 73 15 102 38 46 43 65 114 44 174-21 66-77 119-144 138-11 3-22 5-34 5zm32-51c9-6 20-6 25-5 10-6 23-9 22-23 3-11 28-5 11-10-7 0-25-14-9-10 16 5 12-19 12-19 11-7 5-8-4-4-3-5-13-11 0-16 18-8-9-12-16-14-20 9 12-19-8-18-13-6-7 16-1 1 14 8-12 19-15 5-9-9-15 11-16 5-11-5 0 25-13 23 10 11-7 34-5 34 10 4-19 24-1 32-21-4 14 25 18 9 10-17 2 3-1 9zm14-13c-10-8 15-2 0 0zm7-5c1-10 31-14 15-1-5-4-10 0-15 1zm1-10c-8-16 14-6 0 0zm16-3c-7-12 19-10 4 0h-4zm11-19c-9-12 12-9 0 0zm-7-5c-12-14 13-10 0 0zm-27-12c-14-4 12-4 0 0zm7-3c-21-5 2-39 11-15-2 7-14 6-11 15zm35-7c16-11-14-6 0 0zm0-33c15 7 6-26 2-8 5 0-4 7-2 8zm-42-6c8-9-15-7-3 0 0 2 3 2 3 0zm39 0c3-12-17 0-2-1l1 1zm14-31c3-13-12 5 0 0zm-39 1c9-12-13 1-1 0zm9-17c14-5 1-13 0 0z"/><path fill="#d0851d" d="M170 362C75 356-5 266 1 171 2 108 34 41 92 13c50-18 104-6 153 6 53 16 96 64 103 120 11 68-20 141-78 178-28 24-62 44-100 45zm22-16c-2-16-14 7 0 0zm-37 0c12 4-1-9 0 0zm18-2c7-2-11 0 0 0zm52-3c2-22 25-35 42-47 19-10 39-31 29-54-10-22 13-41 6-63-2-21-18-15-30-8-15-26-43 6-23 22-4 22-24-5-35 8-32-3-32 43-38 64-3 23-14 51 5 70 15 3 37-12 44 8zm-25-14c-14 3 4-9 0 0zm25-7c-2-14 11 6 0 0zm48-44c-7-16 14 2 0 0zm5-11c-3-17 16 1 0 0zm-68-33c-4-9 10 0 0 0zm55-39c-13 2 5-12 0 0zm26-2c-9-24 21 7 0 0zm-36-5c0-13 14-1 0 0zm33-6c-13 0 7-7 0 0zm-37 0c-17-13 14-6 0 0zm41-12c-10-9 10-1 0 0zm-91 172c10 5 0-8 0 0zm11-144c12-14-14 1 0 0zm8-7c14-13-14-6 0 0zm13-6c3-18-16 5 0 0zm-7-17c9-3-9-1 0 0zm24-11c6-12-10 3 0 0zm-14-5c17-1-7-14 0 0z"/><path fill="#d06f31" d="M170 362c-29 0-56-14-82-27-41-24-70-67-82-113-11-44-5-92 14-133 18-38 48-73 90-82 29-7 59-1 88 1 46 7 96 24 122 65 29 41 38 94 24 142-10 33-28 64-54 87-6 6-9-4-11 8-4 9-8-11-7 3-2 17-23 9-27 24-16 12-35 17-53 22l-22 3zm55-21c21-43 44-86 54-133 5-16-2-40-23-34-17 0-32-96-48-103C233-114 59 253 61 255c11 12 147 85 164 86zm-15-109c-140-155-70-78 0 0zm78-116c-8-6-1-22-16-16-3-7-3-8-10-7-5-7-20-3-6 0 7 6-11 3 0 9 6 11 20 4 26 6-3 5 0 9 6 8zm-52-25c-157-61-79-30 0 0zm2-5c3-13-12-4 0 0z"/><path fill="#ca5032" d="M170 362c-18 0-35-5-51-13-34-12-64-34-84-65-24-33-37-75-34-116 1-44 19-88 47-122 16-18 38-33 62-37 7-1 29 4 27 0-11 1-17-7-2-5 40 0 82 4 120 19 13 5-10 2 4 7 16 4 31 13 40 25 7 7 14 14 18 24 4-14 9 9 4 10 7 2 8 7 13 12-5-2-2 13-2 11 2-14 7 8 6-3 12 25 15 54 10 82-2 26-14 49-25 72-10 12-17 26-30 36-2 4-12 12-9 2-1 4-10 18-10 6-4-4 0 16-10 17-9 6-10-3-15 9-10 12-27 16-41 21-12 6-25 7-38 8zm22-16c-3-9-18-4-4-2 1 0 2 3 4 2zm-36 0c8-3 26 0 17-8 6-1 7 3 9-4 7-4 9-6 15-1-9-6 20-7 4 2-5 11 6 4 4-4 3 8 12 5 5 0 8 2 11-4 12 11 9-4 7-18-2-15 9-9 32 1 32-14-17 0 13 1 5-10 4-3 17-11 4-7 1-14 19-1 8 6 13 8 1-30 20-19 10-7-15-5-1-12 7-13 5 14 9 1 1-3 7-14 1-13-6 3 8-14-2-17 1-7-9-8-1-10 7-6 5-21-6-14 10 11-9 0 2-5-3-4 3-13 2-3 7 0 20-6 10-12 12 4-8-10 3-13-8-6-10-20 2-10 3-5 6-6-3-9-9-7 12 1 5-9-5 4-6 1-12 5-4-7 18-7 9-15 4-6-7-17-3-19-12 7-10-17-6-3 1-7-4-14 7-7 11 9 2-15 3-13-120-91-242 94-208 227l52 13 4 1zm44-19c-15-11 14-2 0 0zm25-7c6-12 11 1 0 0zm48-44c0-17 16 1 0 0zm5-11c3-6 11-17 6-2-1 2-4 3-6 2zm13-79c-3-8 14-4 1 0zm1-11c-9-9 7-7 0 0zm0-7c-9-13 16 0 0-1zm1-23c-12-8 12 1 0 0zm-10-6c-22-6 13-5 0 0zm33 26c1-17-9 9 0 0z"/><path fill="#c77208" d="M132 352c-9-1-23-9-19-11-19 1-35-13-49-24-42-38-67-94-63-151C4 116 25 66 62 32c18-16 43-26 67-22 13 1 4-1-3-4 18-5 37 0 55 1 27 2 54 6 78 19-11 5 21 7 26 15 12 11 25 23 31 38 5 11 22 19 5 25 2 12-16 4-14 3-11 13-23-2-28-8-12 8-5-12-16-5-5-4-22-13-18-1-9 0-7-23-11-7 2 11-6 17-13 6-4 0 1 12-7 9 6-5 13 10 3 6 1 7-6 29-10 13-2 8-20 7-14 18 9-7 9 6 0 3-6 7 1 17-7 22-1 9-13 5-12 12-11 1-9 11 1 4 13-4 4 5-3 5-3 10-6 26-15 24 7 6 4 12-2 3-1 9-16 20-9 5-13-2-13 16-3 13-2 8-11 11-19 14 3 7 17 6 3 12-7 1 8 17 8 5-10-11 24-6 5-2 0 9-5 14-14 10-9 8-2 1 4 6-7 0-24 8-18 18 9-2 12 1 15-8 8 8-2 12-4 14-2 9 11 11 3 3 11-4 9 18-3 14 1 8 18 1 8 12 7 2-4 6 2 9-3-2-13-13-8-5-5 5 2 3-1 9 0 4 14 9 8 12zm-16-19c7-11-15-18-6-3 1 2 3 4 6 3zm46-141c2-4 12-8-1-7-7 0-2 6 1 7zm45-76c11-7-9-7 0 0zm90-16c-7-11-12 4 0 0zM139 251c4-5 1-20 8-7 10 5-5 0-8 7zm65-109c-3-20 14 0 0 0z"/><path fill="#b5630c" d="M132 352c-9-1-23-9-19-11-19 1-35-13-49-24-42-38-67-94-63-151C4 116 25 66 62 32c18-16 43-26 67-22 13 1 4-1-3-4 18-5 37 0 55 1 27 2 54 6 78 19-19 1 32 13 8 9-6-8-19 0-9 7-11-1-11-19-25-13-10-3-23-4-30 3-7-5 8-5-4-6-11 1-27-10-41-3-3 12-19-2-10-6-6-2-9 11-9 1-15 1-29 2-41 13 0 0-16 1-6 6 2 7-9-3-4 6-5 11-11 7-17 13-4 5-3 10 3 6-2 9-12 9-10 14-8-14-20 15-19 19 10-12 7 10 9 11-7 9 1 22 1 32-4 1 6 3-1 9-3 3-8 14 1 11-11 6 0 35-13 19-14 11-7 31-8 46 0 18 13 32 17 49 7 13 19 23 23 38 8 10 23 15 35 18 3 9 20 4 15 13 3 3 12 7 8 11zm-51-38c-12-1 3-10 0 0zm240-204c-4 3-12-6-3-2-5-7 9-8 2 0 0 0 5 4 1 2zm1-14c-10-6 6-11 0 0zm-5-8c-3-7-17-25-13-26 6 6 18 22 13 26zm-116-7c-4-12 16-3 0 0zm-17-5c-12-6 9-18 1-6-2 3 8 7-1 6zm52-18c3-10-20-3-11-13 3 5 27 8 17 13h-6zm-57-5c-5-8 14-15 2-5-1 2 4 7-2 5zm100-6c-4-2-7-12-1-3 6-7 6 3 1 3z"/></svg>