<svg xmlns="http://www.w3.org/2000/svg" width="32" height="32" viewBox="0 0 100.48 120.32"><path style="fill:#ddbf56;stroke:none;stroke-width:.32" d="M47.459873 22.72C27.800266 22.305793 10.18617 37.0623 4.0117065 55.213855-3.3430013 75.363252 1.0832142 100.19769 16.996814 115.0606c4.399818 4.32349 10.734463 5.06542 16.551684 4.04593 7.844897-.96768 15.828374-1.74519 23.639169-.057 8.591048 1.34992 18.236359 1.20253 25.279617-4.6168 12.46576-9.23534 16.834327-25.554872 17.067836-40.397026.35959-18.338349-7.903721-37.589698-24.071631-47.195584-5.893312-3.726658-13.143892-3.709761-19.838223-3.082358-7.248574-1.805547-2.283601-11.193533-2.469304-16.4028387 2.099029-3.9970325-3.030506-9.4389369-4.019363-3.1669441C48.183239 10.322569 47.797067 16.526607 47.459873 22.72Z"/></svg>