<svg xmlns="http://www.w3.org/2000/svg" width="32" height="32" viewBox="0 0 557.2 746.7"><path fill="#f3f6ab" d="M269 746A296 296 0 0 1 21 560c-41-93-22-193 57-298a546 546 0 0 1 40-50c39-45 147-147 187-177C351 2 395-8 439 6l7 2 33 15c31 15 61 56 72 95 7 29 8 55 4 89-3 18-3 23-3 73a671 671 0 0 1-7 124 815 815 0 0 1-43 177l-20 41c-53 93-117 131-213 124Z"/><path fill="#e0ea84" d="M269 745c-78-6-158-50-206-114-81-108-82-229-3-343a985 985 0 0 1 138-157C321 14 362-10 428 4c18 4 27 8 51 19 55 28 85 102 75 186-3 17-3 22-3 72a670 670 0 0 1-7 124 688 688 0 0 1-43 176c-12 29-32 65-53 90-45 56-102 80-179 74zm70-47c64-16 117-65 142-132 16-42 22-65 31-110l8-51a1028 1028 0 0 0 8-175l3-24c4-39 4-55-1-76-14-54-53-88-115-96-41-6-94 14-108 41-7 14-20 27-43 45a90 90 0 0 0 16 157c8 4 8 4 20 0 44-16 74-4 95 36 48 93 27 208-48 258l-18 14c-14 13-24 18-50 25-43 12-57 41-32 66 17 17 66 29 92 22z"/><path fill="#f3c76e" d="M269 745c-78-6-158-50-206-114-81-108-82-229-3-343a985 985 0 0 1 138-157C321 14 362-10 428 4c18 4 27 8 51 19 55 28 85 102 75 186-3 17-3 22-3 72a670 670 0 0 1-7 124 688 688 0 0 1-43 176c-12 29-32 65-53 90-45 56-102 80-179 74zm50-37 40-9c51-19 85-49 112-98a27365 27365 0 0 0 14-30 549 549 0 0 0 38-151c7-51 9-79 9-123 0-31 1-48 4-80 4-40 4-44 3-57-3-80-59-132-141-132-44 0-71 14-128 64A788 788 0 0 0 78 297a361 361 0 0 0-38 78c-18 51-17 109 2 163 21 61 74 121 129 148 25 12 32 14 69 22 19 3 56 4 79 0zm-47-123c-144-19-167-190-37-274 89-59 138-53 167 19 53 130-19 271-130 255Z"/><path fill="#a4cc79" d="M269 745c-78-6-158-50-206-114-81-108-82-229-3-343a985 985 0 0 1 138-157C321 14 362-10 428 4c18 4 27 8 51 19 55 28 85 102 75 186-3 17-3 22-3 72a670 670 0 0 1-7 124 688 688 0 0 1-43 176c-12 29-32 65-53 90-45 56-102 80-179 74zm50-37 40-9c51-19 85-49 112-98a27365 27365 0 0 0 14-30 549 549 0 0 0 38-151c7-51 9-79 9-123 0-31 1-48 4-80 4-40 4-44 3-57-3-80-59-132-141-132-44 0-71 14-128 64A788 788 0 0 0 78 297a361 361 0 0 0-38 78c-18 51-17 109 2 163 21 61 74 121 129 148 25 12 32 14 69 22 19 3 56 4 79 0zm-47-123c-144-19-167-190-37-274 89-59 138-53 167 19 53 130-19 271-130 255Zm-62-169c22-17 29-20 49-25 30-8 41-22 45-61l2-19c2-15-4-15-37 3-41 23-64 44-77 71-15 30-5 48 18 31z"/><path fill="#70b372" d="M271 744C99 731-33 553 11 392c18-63 60-128 134-207a1896 1896 0 0 1 103-98c52-50 92-76 128-83a154 154 0 0 1 84 12c22 10 25 12 40 24 23 19 43 52 50 83 7 32 7 55 1 94l-1 62a685 685 0 0 1-12 161 917 917 0 0 1-33 126l-8 22-19 37c-50 89-115 126-207 119Zm32-32a203 203 0 0 0 175-120l5-11 5-10c11-20 30-96 36-148 8-62 10-80 10-125 0-31 2-78 4-88 21-101-37-181-134-184-48-1-75 12-134 64A833 833 0 0 0 76 298C9 396 8 511 72 600a260 260 0 0 0 156 107l31 5h43zm-35-128c-106-15-153-135-87-224 39-52 132-98 172-85 54 17 83 132 54 215-23 67-75 103-139 94Zm-58-168c22-17 29-20 49-25 30-8 41-22 45-61l2-19c2-15-4-15-37 3-41 23-64 44-77 71-15 30-5 48 18 31z"/><path fill="#8b3f28" d="M275 584c-134-14-169-173-57-260 92-71 154-68 184 8 50 129-18 264-127 252Zm-65-168c22-17 29-20 49-25 30-8 41-22 45-61l2-19c2-15-4-15-37 3-41 23-64 44-77 71-15 30-5 48 18 31z"/><path fill="#4e1f13" d="M272 583c-88-11-140-96-112-181 23-71 145-147 198-124 39 17 68 102 57 172-13 89-70 142-143 133Zm13-34c81-13 125-105 99-206-18-67-45-79-110-48-62 30-103 72-113 119-18 79 45 148 124 135z"/></svg>