<svg xmlns="http://www.w3.org/2000/svg" width="32" height="32" viewBox="0 0 345.1 360.6"><path fill="#f9dd56" d="M218 306c-49 25-99 52-155 55-21-4-50 5-62-16-5-19 20-23 29-33 19-16 41-29 64-37 59-23 120-54 154-109 15-25 25-52 32-80-2-21-3-55-25-62-15-18 19-34 29-16 11 19 16 38 25 57 10 16 30 22 34 42 7 27-3 55-11 81-21 52-68 88-114 118z"/><path fill="#f9d41d" d="M221 303c-52 27-106 55-166 56-17-4-44 5-54-16 1-20 31-23 45-33 24-11 49-20 74-29 37-16 74-37 103-66 22-27 38-58 47-92 6-18 15-37 10-58-2-13-8-27-14-39-23 2-13-33 6-25 15-3 9 24-1 8-11-1-7 14 3 8 23 2 24 28 31 45 9 19 37 27 35 52-3 40-6 83-34 115-24 29-53 54-85 74z"/><path fill="#d7a601" d="M221 303c-52 27-106 56-166 56-17-4-43 5-53-14-6-20 26-15 37-27 43-23 91-33 133-58 39-25 78-56 95-100 17-40 23-89 1-129-7-8-26-13-12-25 7-10 36-1 22 8-8-7-15-5-19 3 19-2 40 7 40 29 3 20 20 33 34 47 7 17 2 38-1 56-5 21-1 44-14 63a314 314 0 0 1-97 91z"/><path fill="#c89700" d="M221 303c-35 18-70 37-109 47-18 2-37 4-56 8-17-3-45 7-53-13-12-16 25-17 28-13 14 17 34-12 52-10 26-7 51-18 76-26 20-12 39-23 58-36 12-15 33-22 44-38 14-11 13-31 24-42 9-16-22-24-4-36 16-10 12-34 33-38 14 3 13 24 13 36-2 26-11 52-26 73-14 23-33 43-54 60-7 4-32 25-12 11 31-20 57-47 81-75-2 12-15 23-23 33a286 286 0 0 1-72 59zm83-207c-11 0-25 2-21-14-5-21-5-53-28-59-5-7-2-14 3-5 17-4 39 3 40 24-1 17 20 29 15 46-5 2-2 10-9 8zm-27-81c-4-14-24 6-21-10 7-8 40-1 21 10z"/><path fill="#b58c05" d="M220 304c-30 15-61 32-93 42-11 1 12-9-3-8-7-6 23-13 11 1 16-11 37-11 52-23 37-18 72-41 101-70 10-7-9 13-13 17-17 15-36 28-55 41zm-105 27c-16 4-30 10-42 20-17 9-36 7-53 5-19 4-29-31-5-22 11-4 5 18 20 14 18-5 36-10 55-17 10-2 23-7 33-6l-8 6zM296 91c-22 5-11-31-21-43-1-13-12-24-21-27 13-6 29-4 39 7 7 14 4 33 14 46 6 5-4 19-11 17zm-18-76c-5-13-26 5-22-10 7-8 39-1 22 10z"/><path fill="#967109" d="M18 355c-18 7-24-36-5-15-4 10 21 8 7 15zM295 84c-19-8-14-37-23-52 11-4 3-7-1-12 16-1 25 8 19 25-1 13 15 28 5 39z"/></svg>