<svg xmlns="http://www.w3.org/2000/svg" width="32" height="32" viewBox="0 0 165.8 300.8"><path fill="#a2b26c" d="M104 129c-5 0-9-4-8-2-2-6-1-13-2-20l-1-17-3-14c0-4-1-8-3-11-1-4-1-8-3-11-2-5-3-10-3-16-1-6-5-11-4-17 1-7 1-14 4-20 7-5 7 7 7 12 0 12 0 25 2 38l4 16 5 25 3 16c1 5 4 11 4 17 2 1 1 6-2 4zM38 30c-8-11 4-10-6-5-1 1-7 3-4-1 1-5 0-11-1-16-1-4-4-9 2-8 4-1 7 0 6 5 1 5 2 11 5 16 2 5 5 14-2 9z"/><path fill="#6f7a8a" d="M76 147c1-3 2-4 6-7 6-3 14-10 14-2l14-5c10-3 21-2 30 7 5 4 2 26 5 31 5 10 4 46 7 57 3 13 5 39 6 49 0 17-14 16-22 18-18 3-46-52-48-62-1-9-12-43-13-53 0-4-2-29 1-33zM2 67c1-4 0-12 5-13 2-9 4 52-5 13Zm73 24c-4 13-3 43-5 53-1 15-29 57-38 55-10 0-22-18-23-30-3-36-1-59-2-118-1-11 10-13 11-23 4-4 7 0 12-2s4-17 7-4c12 7-9 5 11 8 6 4 2-1 10 3 15 10 7 17 20 23 1 7 0 9-2 15-1 3 5 3 3 9z"/><path fill="#0e100f" d="M128 297c-9-4-13-13-19-19-7-10-9-22-15-32-4-3-12-11-3-12 0 9 6-8-1-4-5-8-11-19-11-29 6-8-7-12-3-21-14 3-3-26-11-15-3 11-9 21-17 29-4 9-14 8-22 8-10-4-14-14-18-23-4-6 6-8 1-15 1-10 0-21-5-30-3-10 11-15 2-22-2-8 16 1 8-7-7-2-10-7-3-9-3-4-4-9 0-11-3-3-12-13-7-13 9 9-3-11 7-6 5 2 17 5 12-6-6 3-15 5-15-5 1-3-4 0-1-5 4-9 5 18 7 3 7 2 2-11 10-5 8 1 20-13 19 1 5 3 16 5 15-3 6 1 15-7 14 4-4 2-16 13-5 13 0 11 11-5 11 7-3 0-8 1-2 4 3 5-9 0-5 8 5 3 12-12 9 0-1 12-4 23-7 33-1 10 1 20-2 30-2 9 1 5 5 0 3-4 9-3 2 0-6 5 6 8 5 11 5-2 7-7 2-8 4-9 10-17 12-28 6 0 11 8 11 11 7 6-6 16 5 14 2 8 13-2 12 5 6-2 7-22 14-9 11 7 8 24 13 35 0 9-5 21-2 27 6 4 0 15 4 22l6 29c6 11 0 23-1 35-3 7-13 5-16 8-5 0-11 4-15 0zm17-5c1-8-6-12-10-5 6 0 9 4 6 6l4-1zm-21-16c8 2 12-6 3-4-1 0-6 5-3 4zm26 0c-5-3 12-2 2-6-4-1-10 8-2 6zm-38-6c2-6-6 3 0 0zm7-4c11-2-2-8-3 0h3zm19-3c14 1-2-13-4 0h4zm12 0c-2-3-3 3 0 0zm-44-5c1-6 18 0 8-6-4-4-14 5-8 6zm42-4c8-2-2-2 0 0zm-19-4c-2-8-15 5-3 2 2 0 4 0 3-2zm-26-3c-3-3-5 3 0 0zm33-1c5-3-3-10-3-2-5 3 1 3 3 2zm18-2c-3-2-4 3 0 0zm-49-1c4 1 21 2 11-4-5 5-11-7-14 3l1 1zm40-2c-2-4-3 6 0 0zm-20 0c13-1-9-8-1 0h1zm-14-8c12 1 3-10-2-2-1 1 2 4 2 2zm20 0c14-3-9-10-2 0zm-25-3c-1-8-16 2-4-1 2-1 3 3 4 1zm18-3c-4-4-6 3 0 0zm-10-4c6 0 9-4 2-6-4-1-8 9-2 6zm26-1c-3-3-3 3 0 0zm-43-3c-4-9-10 7 0 0zm32 1c8-9-15-2-1 0zm-20-3c-4-7-12 8 0 0zm13-6c9-8-17 2 0 0zm-22-1c9 0-6-11 5-13-7-6-14 4-5 7-3 3-9 9 0 6zm9-3c-2-2-3 3 0 0zm22-2c-3-6-3 6 0 0zm-43 0c11 0-2-10-4-1 1 0 3 2 4 1zm34-1c13-3-8-14-2 0h2zm-2-3c2-4 1 3 0 0zm-13 0c3-1 14-3 4-5-5-3-9 11-4 5zm37-4c-2-4-3 6 0 0zm-35-4c12-7-14-12-5-2 3-1 5 6 5 2zm13-2c11-3-7-8-2 1l2-1zm-80-1c-3-3-4 3 0 0zm-10-1c8-8-18-3-6 1l6-1zm64-1c10-6-7-8-2 0h1zm-78-2c3-8-6 3 0 0zm65-1c-2-4-3 6 0 0zm51 0c-1-4-2-6 0-10-4-1-9-7-9 0 8 0 2 13 9 10zm-91-2c7-3-3 0 0 0zm64-3c-6-3 8-7-2-9-7 0-10 9-2 8-1 2 4 6 4 1zm9 0c12-3-8-8-2 1zm25-1c-2-5 0 4 0 0zm-121-1c13 1-6-4 0 0zm15 0c8 0 5-7-1-2-2 1-2 4 1 2zm-21-2c1-6-6 2 0 0zm78-1c2-10-17-2-3 1h1zm-43-2c-4-3-5 2 0 0zm-18-2c-3-9-18 3-4 1 1 0 3 1 4-1zm48-2c12-9-11 0 0 0zm44 0c6-9-8-11-4-3 1 1 2 5 4 3zm-28-2c-4-7 9-4 3-11-9-4-12 9-3 11zm-56-2c1-8-14 4-1 1zm74 1c7-11-11-17-8-3 3 1 8 0 8 3zm-59-2c-2-8-22-4-8 0 2-4 6 4 8 0zm-31-2c-3-7-15-3-5 0h5zm105-3c11-5-3-8 0 0zm-97-1c-1-7-11 4-1 0h1zm33-1c-3-3-2 2 0 0zm-25-1c13-4-6-7-5 0h5zm17 0c-2-3-3 2 0 0zm-43-2c2-8-6 1 0 0zm128-4c-5-13-6 8 0 0zm-119-1c-3-7-13 1-4 1 1 0 4 1 4-1zm7-2c16 0-7-11-5-1 2 2 4 1 5 1zm32 0c-2-5 0 4 0 0zm7 0c-2-5-1 4 0 0zm30-2c12-5-6-11-5-1 0 4 3 3 5 1zm-56-3c17-1-10-3 0 0zm-27-1c-2-8-7 4 0 0zm20-1c10-6-13-11-5-3 1 0 5 5 5 3zm-25-3c2-7-6 0 0 0zm16-1c-4-7-16-1-5 2 1 0 4 0 5-2zm41 1c-2-4-2 3 0 0zm-54-6c-2-8-4 4 0 0zm41 0c10-6-13 2-1 0zm-10-1c-2-7-14 0-4 1h2zm-36-3c-2-5 0 4 0 0zm23 0c-5-8-11 1-2 1l2-1zm-11-2c-2-8-8 3 0 0zm25-3c9 4 11-7 2-5-3 0-9 7-2 5zm-7-1c-4-5-12-2-3 0h3zm30-4c-2-5-1 5 0 0zm-49-1c6 4 14-4 4-5-2 1-14 6-4 5zm19-1c13-4-9-11-3 1h2zm22-4c11-10-21 2-5 1l5-1zm-31-6c-4-6-11 5-1 2 1 0 2-1 1-2zm41 0c-3-5-4 7 0 0zm-18-2c3-5-17-1-4 0h4zm-21-4c6 1 14-5 4-6-3-1-9 6-4 6zm29 0c-2-5-1 4 0 0zm-33-2c-5-6-14 0-3 0h1zm25-6c13-4-12-4-5 1 1 0 5 1 5-1zm13 0c-3-4-5 3 0 0zm-49-1c4-8-5 3 0 0zm7-2c-5-5 11-4 2-9-10-4-7 14-2 9zm20-4c-2-7-18-2-6 0 2 1 5 3 6 0zm-28-5c7-5-10-6 0 0zm28-4c7 3 13-7 4-7-4 0-13 7-4 7zm-10-1c-3-6-7 2 0 0zm28-7c1-10-16 1-3 1 2 2 4 2 3-1zm-26-4c3 0 9-2 3-5 2-6-7 0-9 0-3 4 3 8 6 5zm84 83c-7-3-1-3-1-9 9-14 3 5 1 9zM3 63c4-7 3 4-1 0zm68 0c3-2 4 3 0 0zm5-3c-4-3-6-6 0-6 2 1 2 9 0 6zM11 45c-1-5 6 1 5-6 3-3-1-8 5-5 11-3 21-9 30 1-6 5-20-3-28 5 1 8-5 5-11 7h-1zm47-4c1-5 1 5 0 0zm-46-2c2-4 5 0 0 0z"/></svg>