<svg xmlns="http://www.w3.org/2000/svg" viewBox="0 0 387 405"><path fill="#76b5fa" d="M67 285c-10-2-35-12-18-19-1-4 15-14 3-26-6-16-14-33-35-29-8-7-7-14-14-20 0-17 7-31 16-45 8-14 23-34 39-37 13-10 23 23 34 29 6 8 35 1 17 17-10 6-18 17-20 30-5 23-11 49 2 71 4 9 21 19 22 24-13 8-32 7-46 5zm178-40c1-20 2-47-6-67-3-15-15-26-26-34 4-15-1-37 8-53 8-20 28-30 47-37 16-1 32-4 47 4 15 6 30 17 40 31 7 15 7 22 15 25-7 22 18 30 6 43-6 16-1 36-15 49a75 75 0 0 1-42 28c-16 7-36 7-55 6-5-2-15 9-19 5z"/><path fill="#527bcd" d="M165 305c-20-3-43-10-55-27-13-11-26-26-27-44-2-21 3-41 8-61 5-11 16-17 23-26 20-11 44-16 68-14 24 1 45 18 58 37 8 26 20 59 6 85-11 15-21 33-41 38-14 3-27 13-40 12Z"/><path fill="#213b7e" d="M248 401c-24-1-52 0-68-21-15-15-18-37-19-57-3-23 24-20 36-30 20-3 32-19 44-34 5-19 18-25 38-21 18 2 36-5 50 8 26 14 44 46 37 76 0 26-24 41-43 55-12-6-22 4-36 9-12 3-25 12-39 15ZM114 147c-13 0-31-9-40-23-13-15-15-37-14-55 2-21 16-34 32-45 17-8 31-23 50-20 15-2 31 2 46 9 22 8 34 34 30 56 4 22-12 40-27 52-10 21-35 9-53 18-8 2-18 9-24 8z"/><path fill="#132241" d="M253 403c5-18 24-16 42-21 6-4 25-13 23-2-16 11-36 14-53 23h-12zM148 280c-14-4-41-2-38-26-8-15 8-24 1-39 1-18 20-22 32-10 15-17 46-1 39 20 4 14 1 25-7 35 18-12-2 23-10 21-6-6-14-4-16 1l-1-2zm-122-9c-1-16-32-18-24-41 6-12-12-34 8-36 0 22 28 9 35 26 1 18 27 30 8 46-1 5-19 8-27 5zm332-122c-11-8-4-11-13-18-7-13-21-19-17-37 6-10 15 5 25 1 12 9 39 12 28 33-3 7 1 19-9 14-7-1-9 14-14 7zM32 127c-4-20-16-40-7-60 3-13 13-22 17-34C52 17 70 7 90 9c9-5 32 5 12 11-15 9-33 20-37 38-9 19-2 39 2 57-4 7-28 13-35 12zm66-48c-11-10-17-32-1-40s37-22 49-2c-1 15-9 36-26 43-7 0-16 2-22-1Z"/></svg>