<svg xmlns="http://www.w3.org/2000/svg" width="32" height="32" viewBox="0 0 899 918.6"><path fill="#e5daa1" d="M408 919c-10-40 10-108-52-104-18 1-34 97-29 37 9-21 10-70-13-27-13 18-30 76-26 19 6-30-3-33-16-6-29 36 24-49-9-61-36-43-75 85-59 12 22-32-10-64 2-96-41-18-85-34-117-67-21-13-82 43-78 21 38-26 71-68 49-115-20-44 13-118-54-126-28-20 58 14 58-23 26-44 33-95-7-134-11-12-27-46-1-17 7 21 78 54 54 14-15-19-18-35 5-8 32 34 59-32 86-46-4-21-38-57 0-26 26 22 53-20 82-20 4-18 43-21 31-50-4-19-10-90 5-39 8 32 22 69 59 41 22-3-31-91 7-39 11 18 41 53 32 8 2-18-19-103 5-49 5 23 41 93 60 57 1-27 6 36 29 11 7-19 12-76 16-22-4 57 43-21 55-39 19-12-22 59-9 79 21 40 46-57 38-1-1 42 38-9 40-30 15-17-8 44-3 56-5 20 27 39 39 8 12-17 34-49 18-9-30 59 59-26 56-9-22 33-80 70-23 99 20-10 83-34 35-3-31 5-27 37 0 40 18 0 107-37 54-5-40 11-60 74-19 92 22 8 89-12 86 0-31 11-102 36-31 36 21 0 61 6 14 10-24 11-83-4-72 37-6 19 58 20 14 18-30-4-20 50 11 44 15 16 65 27 30 32 4 13-79-22-32 6 16 10 82 45 28 27-21 2-67-33-73-9 23 1 63 9 18 13-55-3-44 54-10 75 17 17 25 38-3 15a43 43 0 0 0-78 31c13 15 77 38 56 50-14-8-86-40-45-4 31 36-42-16-59-7-45 13 1 43 8 61-24-18-52-45-76-12-40 14-1 57 5 84-21 2-34-58-59-53-46-7 5 95-27 39-5-41-44-13-27 17 5 22 8 67-6 21-2-22-29-76-41-42 19 35-3 12-16-2-7 28-4 70-15 90z"/><path fill="#a08a2d" d="M409 912c-9-38 10-103-50-98-23-6-36 91-29 28 14-22-2-58-16-20-13 12-28 75-24 24 4-24 0-48-16-13-10 18 18-86-39-63-20 5-44 72-29 17 27-32-15-60 4-92-40-21-88-35-120-70-21-14-77 38-75 21 35-26 68-66 47-112-10-34-11-69-11-104-12-19-84-35-24-28 49 6 62-70 59-107-8-22-41-58-40-71 14 15 66 69 70 29-11-15-23-37 1-12 32 30 57-35 85-48-2-23-33-49 4-22 25 8 67-20 84-32 40-15 21-61 21-96 15 30 20 90 65 58 33-2-30-91 11-37 12 25 41 44 32 1 0-21-17-94 5-37 11 23 26 73 60 57 35 26 34-25 39-41 2 19-2 67 24 32 13-10 51-81 33-30-10 21-22 79 16 66 7-19 22-39 12-6 12 45 39-21 46-33-10 26-18 103 26 75 12-12 38-57 22-15-28 59 87-49 43 3-27 27-55 60-8 84 19-8 76-33 31-4-47 23 13 59 41 31 20-7 47-13 13 4-43 12-56 89-5 94 21 2 63-5 70-2-16 10-101 28-43 34 20 3 78 6 24 11-32 0-88 14-57 50 21 5-24-4-10 19-7 32 40 34 55 49 37 13-23 14-39 6-17 5 39 29 53 39-1 13-70-28-88-13-3 16 68 8 20 16-41-7-61 45-23 65 10 12 44 52 8 24-32-35-78-11-81 32 9 15 75 39 54 47-23-10-85-37-39 3 18 29-53-32-69-5-43 10 42 69-2 41-20-28-80 1-74 30 4 21 36 82 2 38-8-30-51-54-60-15 6 24 7 51-6 13-14-40-43 8-27 31 3 16 8 52-4 14-8-20-19-72-46-46 17 32 5 19-12 1-8 25-8 69-14 85zM288 743c85-22 145-91 215-140 49-39 99-81 131-136 14 15 45 32 15 3-112-103-229-202-342-305 7 22-60 23-77 47A356 356 0 0 0 74 481c-3 83 51 164 131 189-23-33-60-64-70-107-49-150 69-330 229-336 74 69 152 136 227 204-13 44-63 84-100 118-61 44-115 98-183 133-28 31-88-27-84 30 0 33 40 37 64 31Z"/><path fill="#936429" d="M409 903c-8-33 9-91-42-88-28-25-39 75-35 20 33-31-55-56-31-18 33-13-8 24-7 39-2-19 1-68-21-24-1-7 14-69-29-64-25-7-51 70-36 15 9-19 2-51 29-27 51 21 100-11 143-36 35-26 71-52 104-80 54-43 109-87 152-140 2-37 44 13 24-21-12-22-82-53-40-71-14-32 8-32 8-15 20-8 43-29 31-33 4-15 24-23 27-38-11-16 0-21 9-33 7-11 5-27 13-36-20-1 12-9-4-12 7-10-3-14 1-25-25-1-71-23-28-46-19-14 47-73 21-29-11 43 82-44 34 10-33 25-30 57 7 69 20-9 68-29 26-2-33 5-14 43 8 39 17 0 86-29 41-2-16 14-50 30-28 29-23 52 35 75 77 60 66-8-67 21-36 31 17 6 88 6 36 13-35 4-75 7-59 52-22 32 14 44 26 53-18-3-71-17-27 0 16-2 91 24 36 17-20-1-46 1-14 15 14 11 66 36 21 22-16-3-78-28-60-1 25 1 38 6 5 9-53 2-29 62 1 82 29 42-49-48-65-4-16 20-28 55-46 16-36-35-20 28 10 23 21 15 66 27 70 49-18-5-86-40-48-3 34 40-52-32-68 6-24 16 43 61-5 30-33-20-89 28-56 64 14 24 12 38-7 8-7-38-75-44-58 2 9 53-14-56-38-7 0 19 14 94-4 38-3-21-24-57-43-33 16 30 3 14-11 0-9 21-7 66-14 77zm342-309c-14-16-47-63-41-13 12 8 28 11 41 13zm-68-33c-16-7-59-46-57-11 19 0 40 10 57 11zM208 691c-43-18-88-35-120-70-24-3-63 32-71 25 35-27 67-68 45-114-9-33-9-68-10-102-10-17-76-33-23-26 47 3 53-64 61-98-5-25-40-64-39-76 14 15 59 62 67 25-29-44 25 24 35-16 26-20 63-54 42-73 25 27 51-11 78-14 35-8 27 20-2 21A366 366 0 0 0 60 458c-4 82 40 167 116 201 14 11 49 18 20-5-92-79-90-228-18-320 42-61 112-105 187-105 73 70 151 134 225 202-4 35-46 62-70 90-53 49-113 92-171 136-35 27-83 49-123 20-10-11-10 20-18 14zm347-372c-38-16 56-58 21-28-9 7-3 42-21 28zm-67-17c-31-3-28-57 5-28 28-32-15 25-5 28zm127-22c-19-17 30-61 22-14 0 13-12 25-22 14zm-83-36c-25-14 8-65 2-94 1 24 34 85 2 95l-2 1zm-57-67c-26-11 11-62 10-82-8 29 50 93-10 82zm121-16c-31-1 15-74 12-66-9 19 25 71-12 66zm37-18c-26-5 34-91 14-41-6 10 9 52-14 41zm-316-38c-2-19-10-80 5-31 12 17 23 56-4 42l-1-5zm242-3c-59-1 23-58 23-68-14 14-3 72-23 68zM420 81c4-18-16-103 6-47-1 24 58 62 7 56-7-1-20 8-13-9z"/><path fill="#7a592c" d="M409 891c12-45-24-91-68-82-20-25-54-3-63 8-1-29-25-66 21-53 17-3 50 14 23 29 31-5 48-47 79-34 41-25 84 10 100 44-30 15-15 42-19 66 2-22-29-70-46-39 2 4-28-11-21 16-1 14 3 32-6 45zm177-54c-9-48-78-50-74-13-7-31 19-72-28-71-5-52 76-72 104-32 38 10-67-47-7-59 36-12 47-38 80-56 27-40 73-17 106 1 26 38-26-7-38 27-13 26-41 38-55 6-40-8 3 42 25 40 21 0 75 45 27 27-20-10-30-4-15 14-20 2-78-29-70 20 20 33-28-11-42 15-41 17-17 62-9 84zM258 690c-35-24-76 11-108-26-32-24-69-51-109-34 26-22 32-59 26-93 19 64 73 116 137 134-9-34-57-55-63-97-42-103 2-225 87-292 38-31 86-52 136-53 70 68 146 131 219 196 7 56-60 80-89 118-57 48-115 95-178 135-18 9-38 15-58 12zm489-104c-22-32-84-74-67-109 16 2 76-3 29-9 1-25 48-46 78-41-19-4-30-34-1-46 24-13 5-53 40-33 14 14-24 31 9 31 50 11-26 15-41 14 21 22-13 77 25 96 12 10-69-35-43 4 15 8 83 3 63 15-30-6-33 17-6 24 33 27-76-19-44 15 3 6-48 33-39 42l-3-3zM56 441c-2-16-36-42-1-40 11-12 26-38 15-7-5 16-6 32-14 47zm28-94c20-28-5-65-12-90 43 27 84-18 114-44 13-39 50-45 83-58 49-2-16 23-30 30A448 448 0 0 0 84 349zm678-68c-9-36 72-27 21-5-4 4-18 19-21 5zm-75-70c-27-21 40-60 18-17-1 8-8 23-18 17zm-208-34c-15-18 12-78 15-28 12 15 9 36-15 28zm76-77c-42-7 41-70 13-23-4 7 3 32-13 23zM421 72c-4-20-5-53 11-19 19 15-5 62-11 19z"/><path fill="#8c3b28" d="M409 891c8-20-24-84 6-74 19-7 33 40 7 7-11 17-4 53-13 67zm178-54c-15-13-49-67-14-45-2 8 30 64 14 45zm149-127c-21-2-66-25-29-26 14 2 73 44 29 26zm-479-21c-18-2-43-33-48 0-25-10-22-10-42-19-6-13-33-10-7-16-18-13 65 39 50 10a229 229 0 0 1-58-285c39-82 118-146 210-150 31 24 59 55 90 81 46 42 96 81 140 125-26 44-65 80-104 114-61 45-117 100-186 134-14 6-30 10-45 6Zm-135-40c-23-34-55-33-86-13 23-27 45-63 28-103-3-22 15 44 19 43-4 13-3 24 5 28 14 11 21 37 33 35-8 5 11 8 1 10zm723-106c-15-2-59-6-44-22-22-30 60 29 44 22zm-29-150c-20 0-12-53-14-47 24 1 37 3 27 15-53 19 72 20 13 29-9 0-19 7-26 3zM99 323c6-15 6-16-7-17-2-18-49-76-5-42 31 24 31-9 60-15 24-23 59-53 63-73 27 9 56-39 87-17-20 5-13-7-26 2-11 1-23 9-30 20 0-8-38 21-27 12-2 18-36 30-51 52-15 11-26 34-41 39-6 16-13 20-17 32-5-5 2 13-6 7zm672-41c-39-18 38-37 30-27-10 9-17 24-30 27zm-84-73c-19-8 8-40 21-41 0 1-1 51-21 41zm-208-34c-10-22 7-85 14-31 9 21 19 34-14 31zm80-77c-3-14-30 3-9-19 9-17 36-47 20-8-7 5 1 35-11 27z"/><path fill="#6c1b12" d="M258 689c-51-17-92-58-113-107-37-80-19-179 35-246 0 20 2 44 18 60 33 33 84 36 128 30 57-9 109-36 151-75 18-17 33 16 48 24 22 20 45 39 66 60-24 41-60 75-95 107L357 651c-29 19-62 43-99 38z"/></svg>