<svg xmlns="http://www.w3.org/2000/svg" width="32" height="32" viewBox="0 0 400 452"><path d="M138 499.3c-21.6-1.3-35-21-32.3-41.6a39.7 39.7 0 0 1-27.9-45.1C75.9 399 43.6 409 42 387.4c-13-17.8-3.3-39.3 5.8-53.8a44 44 0 0 1-17.6-58.3c8-15.8 30.5-22.8 47.5-18.3 19.7 17.9 20.2-21.7 37-25.4 21.2 1 31-14.3 29.4-34.2 4-21.2 4-42.9 7.5-64-7.4-16.5-34.3-9-49.5-15.9-26-1.7-51.9-6.1-77.6-9.3-24 2.3-29.2-28.5-22.3-42 19.3 10.9 41.3 7 62.2 9.5 24.6 9.6 50.8 13 76.7 17 18.4 3.6 43.9 13.4 49.7-10.3 5.4-23 30.1-42.3 53.4-30 20.4 13 40.4.5 61-3.2 21.3-.8 44.5-.5 64.2 8.6C376 65 401.6 73 396 81.3c-19.9-2.6-38.2 10.4-58.4 7.7-21-.7-42.8-2.2-62.5 6.8-11.7 1.8-45.3 18-16.7 20.6 21.3 8.9 44.6 11.5 65.1 22.2 23.3 5.3 47.8 7.5 70 16.9 12.6 10.3 9 43.5-13.2 29.6-33-8.3-67.3-13-98-28.5-20.1-5.4-40-11.9-60-17.3-19-5.4-39.3-6.6-56.4 4.6-4.6 18.3-10.6 43.9 2.7 59.5 14.3 7.8 36.4 33.4 47.8 11 18.4-10 38 9 46.3 24.2 9.6 17 5.6 41.2-13.1 47-16 3.5-21 9.2-11.2 23.8 9 21.9-7.5 45.6-25.6 52.6 16.3 5 33.4 25.8 25.8 39.3 9.9 7-9.5 38-27.7 38.9-10.3 3-17.4-7-23.5 2.8 13.2-8.6-1.8-36.2-5-39.4 3.7 15 3 31.4-14.2 20.2-16.5 8.3 18.5 16.1 13 31.7 6.7 23.8-18.5 52.5-43.3 43.8zM185.4 287c29.3-3.5-7.4-24.8 6.4-41 18.3-15.7-17.8-29-28.5-37.6-20.3 13.8 1.1 34.7 6.4 50.4 3.4 10.1-3.5 34.3 15.7 28.2z" style="fill:#a2c575" transform="translate(0 -48.6)"/><path d="M135 497.4c-21.2-2.5-29.5-23-29-41.4a38.3 38.3 0 0 1-26.4-47c-13.7-5.6-39.6-10.6-41.2-34-12.7-20.8 27.5-39.2-.4-51-16.3-17.5-16.2-53.4 10-61.5 15-13.8 31.1 2.6 45-.5 7.3-15.2 18-33.3 37.7-32 20-8 12.8-39 18.1-57.2-2.9-15.6 15.3-44.8-6.4-49.6-27.6-6-55.7-8.8-83.8-11.6C39 106.9 14.4 110.3.4 93.8c0-12.5-5.8-36 13.2-21.4 21.9 6.2 45.3-.8 66.3 9.7 24.6 8.2 51 8.8 76 15.5 14-.1 31 7.7 34-11.5 8-16.4 18-38.6 40.7-35.3 34.5 5.9 61.9 33.6 98 33.6 19.8 2.1 40-5.5 58.7-7.1-26.1 12.3-55.3 11-83.3 9.7a131.3 131.3 0 0 0-58.4 21.2c-1.7 12 28 12 38.6 18.4 21.5 3 39.6 17.1 61.6 17.6 16.3 7.4 48.2 3.4 53.8 21.3 1.3 12.4 3.3 28.6-13.7 19.3-35-8.6-71.3-13.6-103.7-30-22.7-4.6-43.9-15.6-67-17.9-16.8-6.2-49.6-5.8-53.4 16-1.6 19.2-8.7 45.7 12.7 56.5 6.2 5.8 26.5 23.4 8.2 10.3-9.8-9.2-28.5-23.5-28.4.6-2 22.4 21 37.4 16.4 61.4 6 17 43.8 1 22.7-13.6-12.2-14.8 15-31.9 2.1-40 15 15.2 18.9-23 39.4-13 25.8 5.5 41 40.3 24.5 61.9-8.3 13.2-41.3 8.3-23.5 28.9 10.2 21-2.2 51.8-27.5 52.8-12.3 4.5-28-13.5-35-9.6 9.2 26 37 5.4 52 21.5 19.2 11.2 5.7 26 13.2 42.3-.8 18.8-32.2 35.7-44.1 19.4 7.3-12-13-25.8-10.2-39.3-10.3 8.7 6 44-13.7 28.2-27.1 10 19.3 19.2 11.1 39.3.1 23.3-23.5 44.2-46.7 36.9zm10-99c20.7-5.8 10.2-41.3-9.7-24.3-20 8.7-5.7 29.1 9.7 24.3zm-45.7-46c7-18.4 36.3-18.5 47.7-35-3.6-10.9-22.5 18-36.5 10.2-19-8.8-26.8 6.6-14.8 19.8-8.7-1.3 1.7 12.8 3.6 5zm40.5-83c23.4-12.5-7.1-47.3-17.5-19.3-4.6 10.1 8 23.7 17.5 19.3z" style="fill:#609509" transform="translate(0 -48.6)"/><path d="M134.7 496.9c-21.3-2.5-28.2-23-28.7-41a38.5 38.5 0 0 1-26.7-45.5c-7.6-10-35.8-6.1-38-27.8-12.4-17.4 3.4-36 7.8-49.7-19.2-10.2-28.6-35.2-17.6-54.8 7.2-16.5 30.9-25 47.2-18.5 16 17 20.9-19.9 34.7-24.8 20.1-2.2 35.3-13.6 31.8-36.1 3.6-24 9.8-51.2 5-74.1-27-5-53.8-10.3-81.2-11.8-18.9-3-38-4.2-56.4-9.5-16.9-3.2-14-28-10.6-35.5 17.5 9.5 38.5 8.3 57.7 8 22.8 8.4 46.5 14 70.7 16.3 16 7.7 39.7 1.8 52 11.6-6 20-25.4 32-21.9 55-3.7 23.2-2 46.3 20.5 57.6 10.4 5.2 13.3 13.6 1.7 3.4-9.4-8.2-28.5-24.2-28.5 0-3.4 22.6 21.8 37.6 16.5 62 6 17 43.8 1 22.7-13.6-12-14.5 15.3-32 2.1-40 15.6 16.2 18.9-26 39.9-13.7 23.2 9.1 39.2 39.4 25.2 62.3-8.2 12.6-42.5 8.7-24.8 28 12.2 22.3-3.7 54.7-30.3 53.8-11.2 3.6-26-14-32.1-9.4 8.9 25.6 35.2 5.8 50.3 20.3 18.8 10.8 10.2 30.4 13.4 47.5-1.7 20.2-48.2 33.7-40 6.8-11-4.6-9-27.6-13.5-29.4-8.8 8.8 6.2 43.5-13.3 26-28 11.2 18.2 17.8 11.2 38.4.6 23.6-23 45.9-46.8 38.2zm10.3-98.5c20.7-5.8 10.2-41.3-9.7-24.3-20 8.7-5.7 29.1 9.7 24.3zm-45.7-46c6.2-16.8 31.5-18.8 44.5-30.8 11-21.2-16 8.6-25.6 5.9-12.8-4.3-42-2-23.1 15.3 2 2-9.7 16.9 4.2 9.6zm40.5-83c23.4-12.5-7.1-47.3-17.5-19.3-4.6 10.2 8 23.7 17.5 19.3zm257.8-82.3c-38.6-9.8-79.3-14.5-115.3-32.6-20.3-5.2-40.2-12-60.3-17.2-12 1.3-33.7-6.8-13-15.5 16.1-10.8 30.8-15.3 47.3-4 20.1 8.4 42.7 10.5 62.3 20.7 20.3 6.5 42.2 7.5 62.5 14.6 22.6 1.3 22 14 16.5 34z" style="fill:#9f2c2f" transform="translate(0 -48.6)"/><path d="M134.7 496.9c-12.3-3.4-22.7-10.4-22.7-15.3 0-.4-.9-2-2-3.6-1.6-2.2-2-4.7-2.2-12.5-.3-9.8-.3-9.8-4.3-11-12.8-3.8-17.6-8.9-23-24.3-2-5.7-2.2-7-1.2-15.3 1.2-10.7 1-10.9-7.8-10.9-13.9 0-21.8-4.9-27.5-16.7-9.7-20-8.8-32.7 3.6-47.1 4.4-5.2 4.4-5.4-2-10.1-17.9-13.2-23-29.7-15.4-48.7 3.6-9 6.3-13.1 9.2-14 1.2-.4 2.9-1.3 3.8-2.1C52 257.6 78 254 78 260.5c0 1.2 8.3 4.5 11.5 4.5 2.4 0 7.3-5.6 8.5-9.7a44.7 44.7 0 0 1 10.3-17.1l5-3.5c3.5-2.5 12-4.7 18.4-4.7 6.1 0 8.3-.7 8.3-2.6 0-.8 1-4.3 2.2-7.7a73 73 0 0 0 2.8-14.2c.4-4.4 1.5-12 2.5-17s1.9-13.6 2-19.3c.2-5.7.7-11.7 1.1-13.5 1.9-7.8 2.9-28.4 1.5-30.1-.6-.7-3.3-1.6-5.9-2a191 191 0 0 1-12.2-2c-15-3.2-31.9-5.7-47-7a453.1 453.1 0 0 1-48.5-6.7 26 26 0 0 0-7.8-.3 7 7 0 0 1-5-.9c-1.2-.7-4.6-1.7-7.6-2.1-4.1-.5-6.4-1.5-9.5-4.2-2.2-2-5-3.7-6.3-4C0 95.8 0 95.6 0 80.7c0-15 0-15 2-12.9C3.2 69 4.7 70 5.5 70c.8 0 5.6 1.4 10.7 3.2 9.2 3.2 9.5 3.2 27.2 3 10 0 18.7.3 19.6.8a313.9 313.9 0 0 0 50.2 13c2.5.7 7 1.3 10 1.5 6.4.3 21 3.2 25.8 5.1a68 68 0 0 0 15.5 1.8c15.6.6 18.1 1.3 17.7 5.2-.4 4-6 16-8.4 18.1-1.1 1-2.8 3.4-3.8 5.3-1 2-3 4.2-4.4 5-2 1-2.5 2-2.4 4.4.1 1.7-.6 8-1.6 14.1-3 17.7-2.5 40.4.9 51 .4 1.5-.1 2.6-2.3 4.2-7.2 5.3-9.1 27.7-3 34 2.1 2.2 3.8 4.5 3.8 5.2 0 .7 1.3 3 2.8 5 7.8 10 7.2 32.3-1.2 42-6 7.2-6.7 16.3-1.6 23 2.3 3.1 3.6 2.1 5.4-4.2 1.9-6.4 6-11.1 9-10.3 1.1.3 2.9.6 3.8.6 3 0 2 1.8-2.1 4.4-2.8 1.8-4.1 3.5-4.6 5.8a14 14 0 0 1-1.8 4.6c-5 6.2-.2 25.2 6.5 25.2 1.3 0 3.7.8 5.4 1.9 1.6 1 4.8 2.1 7 2.5 5.8 1 8.6 1.4 11.6 2.2 4 1 7.3-.2 8.5-2.8 1-2.2 10.3-6.8 16.3-8.2a7.7 7.7 0 0 0 4.1-3.4c4.8-8.6 8.8-2.9 4.5 6.4-9.7 21-41.8 24.8-56.7 6.8-.8-1-2.1-1.3-4-.9-3.3.7-5.2-2.1-6.3-9.5-2-12.7-4.5-17-7.8-13.3-4 4.6-5 8.5-4.3 15.2.4 3.6.8 9.5.9 13 .1 6.2.3 6.6 3 8 1.7 1 5.7 3.3 9 5.5 6.4 4.2 8.2 3.7 6.4-1.6-.6-1.6-.8-3.2-.4-3.5 1-1 10.1 10 10.1 12.4 0 1.4.7 2.8 1.5 3.3 1.3.8 1.3 1.3.1 3.1-1.7 2.8.6 4.9 5.2 4.9 2.2 0 2.8.4 2.3 1.6l-.6 2c0 .2-1.2.4-2.8.4-4.4 0-7 2.5-8.1 8-.6 2.8-2 7.8-3.1 11.1-1.9 5.4-2 6.3-.6 7.8 5.9 6.6 1.8 15.6-4.4 9.6-4-3.9-4-3.9-6.2-1.8a38.5 38.5 0 0 1-5.5 3.9c-4.1 2.3-4.2 4.9-.4 6.2 39.6 13.8 13.4 76.4-27.2 65zm10.9-97c6.2-3 12.3-12 12.4-18.1 0-1 .9-2.2 2-2.8 2.3-1.2 2.7-3.8.6-4.6-.8-.3-1.1-1.5-.8-3 .6-3-3.8-5.5-6.3-3.4-1.3 1.1-2 .8-4.9-1.9-3.2-3.1-3.4-3.2-6.7-1.8l-6.2 2.6c-1.6.6-3.1 2-3.4 3a6 6 0 0 1-2.9 3c-1.3.6-2.4 1.7-2.4 2.5 0 .7-.7 2.7-1.5 4.2a43.7 43.7 0 0 0-.9 18.8c.8 2 3 2 3.8 0 .5-1.4.9-1.4 2.3-.3 1.7 1.5 6.9 3.6 9.2 3.8.8 0 3.4-.8 5.7-2zm-67-17c.3-.5 2.7-.9 5.4-.9 4.6 0 11-2.5 11-4.3 0-.4 1.2-1.9 2.6-3.2 1.7-1.6 2.8-3.9 3.1-6.7.4-2.4 1.3-4.8 2.2-5.4 1.3-1 1.3-1.5-.3-3.9-2-3-1.4-6 .9-5.1 2.2.8 2.7-.9 1-4-1.7-3.4-1.4-3.9 3.8-6.6a159 159 0 0 0 11.6-7c4-2.6 8.1-4.8 9-4.8 6.4 0 20-12.5 18.6-17-1-3-2.2-2.5-7.7 2.6a36.3 36.3 0 0 1-35.7 9.5c-13.2-4-19.9 2.4-12.6 12 5.3 7 3.6 12.7-2.6 8.8-5.5-3.5-28.6 1.6-30.6 6.7-.3.8-1.4 1.4-2.5 1.4-1.5 0-1.9.6-1.6 2.5a4 4 0 0 1-1.7 3.9c-1.6 1.2-1.8 1.7-.8 2.7.7.7 1.3 2.8 1.3 4.6 0 2 .6 3.6 1.4 3.9.8.3 1.6 1.8 2 3.3.3 2 1.6 3.2 4.5 4.6 2.3 1 4.1 2.2 4.1 2.6 0 1 13 .8 13.6-.3zm5.6-92c1.5-1.6 3.4-2.9 4.2-2.9 1 0 1.3-1 .9-4-.5-3.6-.3-4 2.1-4.6 1.5-.3 2.4-1.1 2.1-1.8l-1.1-2.9c-.4-1-1.4-1.7-2.3-1.7-1 0-2.1-.3-2.5-.8-.4-.4-2.6-.7-4.9-.8-3 0-4.4-.6-5.5-2.2-6-9.2-25.7 2-24.7 14.1.7 9 3 13 4.9 8.2.7-2 2.6-2 2.6.1 0 1.2.6 1.5 2.4 1 1.7-.4 2.6-.1 3 1 1.2 3 15.4 1 18.8-2.7zm60-24.2c1.8-1 2.8-2.6 2.8-4 0-1.3.7-3.8 1.6-5.6 4.6-9.2-9-23-18.1-18.2-6.5 3.5-13 15.4-9.6 17.5.4.3.6 1.6.4 2.8-.3 1.7.4 3 2.7 4.8l5.2 4.3c1 1 3.3 2 5 2.3 1.7.2 3.3.6 3.7 1 .3.3 1.3-.3 2-1.3 1-1 2.8-2.6 4.4-3.6zm55 171.3c-6.6-2.9-4.2-7.7 8.4-16.2 26.9-18.2 35.7-19.4 29.6-4-5.6 14-26.6 25.1-38 20.2zm-6.7-19.8c-6.4-15.7-7-26.4-1.4-29.8 1.5-1 3.9 1.6 3.9 4.1 0 4.3 1 5.5 4.7 5.5 2.2 0 4.1.7 5 1.8 1.2 1.6 1.4 1.6 2.3 0 .6-.9 2.5-2 4.3-2.3 7.8-1.7 12-14.9 5.9-19a9 9 0 0 1-2.8-5.5c-1.3-8.3-7.2-8.8-8.1-.7-.6 4.8-5.2 12.1-5.2 8.2 0-1.1.6-3.1 1.3-4.5 1.2-2 1.2-2.9 0-5.2-1.7-3.4 1.6-7.8 5.8-7.8 11.3.1 36.5 24 27.8 26.3-1.3.3-2.2 1.7-2.6 3.7-1.5 7.3-38.8 30.4-40.9 25.2zm41-103.5c-.8-1.3-2-3.6-2.5-5.2-.7-2-2.4-3.6-5.3-5a152 152 0 0 1-9.8-5.3 25.4 25.4 0 0 0-13-3.9c-17.5-1.4-20.6-7-5.9-10.9 6-1.5 6-3 .6-10.4-5.8-7.8-8.3-15.5-6-18 1-1.2 1.3-2.7.8-4.4-.5-2.2 0-3.3 3.2-6.3 3.9-3.7 3.9-3.7 4.4 1.3.5 5.3 3.7 10.4 6.3 10.4 1.6 0 6.7 5.8 6.7 7.6 0 4.5 16.3 7.2 23.7 3.8a17 17 0 0 1 4-1.4c4 0 2-14-3.6-24.4a34 34 0 0 1-3.1-7c0-4.1-11.7-10.3-17-8.9-7 1.8-5-6 2.4-9.7 25.2-12.2 57 26.1 43.8 53a25.2 25.2 0 0 0-2.2 5.8c0 .7-.7 1.2-1.6 1.2-1 0-3.6 1.7-5.9 3.9a40 40 0 0 1-19.3 8.6c-5.8 1-6 2-1.6 10.5 5.3 10.3 6 22.5 1 14.7zm164-127.6c-.2-.4-2.6-1.1-5.2-1.5A241 241 0 0 1 375 182l-29-6.5c-9-2-20.6-5-25.5-6.5a118 118 0 0 1-27.3-9.7 144 144 0 0 0-35.7-11.5 63 63 0 0 1-11.4-3.4c-3-1.3-6-2.4-6.8-2.4-.7 0-3.1-.9-5.3-2a45.6 45.6 0 0 0-15-3c-6.1-.5-12-1.5-13.2-2.3-1.3-.8-4-2-6-2.6-6-2 20.8-19.1 29.7-19.1 1.2 0 3-.9 4-2 2.1-2.3 4-2.6 5.2-.6 1 1.8 6.7 4.6 9.2 4.6 1 0 2.2.4 2.5.9.3.4 2.4 1.1 4.7 1.5a43 43 0 0 1 9.4 3.1 28 28 0 0 0 6.7 2.5 146 146 0 0 0 20.4 5.6 89 89 0 0 1 20.4 7c8.4 4.2 19 7.4 24.4 7.4 2.7 0 6.4.8 30.1 6.1 5 1.1 13.6 3.6 19.3 5.5A84.1 84.1 0 0 0 398 158c2 0 2 .7 2 15 0 13.5-.6 17-2.4 14.1z" style="fill:#33241f" transform="translate(0 -48.6)"/></svg>