<svg xmlns="http://www.w3.org/2000/svg" width="32" height="32" viewBox="0 0 566 524.6"><path fill="#eee332" d="M423 295a116 116 0 0 1-78-49l-5-7-7-11a1178 1178 0 0 0-8-20c-7-18-5-61 4-83 11-26 42-62 53-62l6-3 9-4 5-2a114 114 0 0 1 103 9c12 6 13 8 34 29a120 120 0 0 1 24 53 124 124 0 0 1-140 150zm44-8c10-4 17-11 17-17 0-4 0-4 5-1 19 14 69-43 52-59-4-5-4-5 0-5 5 0 9-3 12-8 9-19 4-60-8-60-4 0-5-2-3-6 6-10 1-23-15-40-16-16-27-22-37-18-5 2-6 2-7-2-6-28-76-25-76 4l-1 3c-4 0 11 38 24 64 6 12 6 12 4 17-3 6-13 4-46-11l-25-11c-16-7-19-10-16-20 6-20 35-45 49-42 5 0 6-1 3-3-20-11-68 45-52 60 3 3 3 4 1 4-12 0-19 16-18 39 1 20 6 30 17 30 3 0 5 1 2 3-14 8-2 36 24 54 17 13 18 13 26 9 7-4 9-3 10 3 2 12 40 21 58 13zm-29 0-11-3c-20-6-21-17-5-50l17-36c0-4 9-5 12-2l22 45c10 26 10 34-4 41-9 5-24 7-31 5zm-56-22c-21-14-34-30-34-44 0-12-2-11 60-32 20-7 19-7 24-2 5 4 5 5-2 19-12 22-18 37-22 46-2 8-3 10-8 14-7 6-7 6-18-1zm109 1c-4-3-7-10-11-21-1-5-7-18-13-30-13-26-13-25-11-28 5-4 7-4 15-1l47 17c13 3 20 7 22 12 8 16-36 62-49 51zm-147-65c-9-3-15-29-10-44 7-22 10-23 51-4l27 11c9 3 13 5 14 9s0 4-20 11l-45 16c-6 2-14 3-17 1zm181-2c-20-6-60-21-62-23-2-4 1-7 8-10l8-4c10-5 56-22 62-22 10 0 16 18 13 39-4 24-7 26-29 20zm-66-38c-5-6-5-6 2-20l24-54c6-19 30-11 48 17 14 21 11 27-20 39l-30 12c-21 9-21 9-24 6zm-18-10c-2-2-9-15-13-25l-8-19c-10-24-12-30-9-37 6-11 29-19 46-14l8 2c7 1 17 12 17 20 0 5-6 18-24 56-8 18-11 21-17 17zm-319 86c-17-3-36-9-46-15-10-7-24-9-33-5-10 5-21 0-28-14-5-11-5-17 5-28 2-4 4-6 4-9 0-6 1-11 4-14 3-2 3-2 3-14C29 29 174-42 259 27c7 7 8 7 18 8 16 1 21 4 25 13l4 8c6 6 5 13-2 18-7 4-10 14-12 34a126 126 0 0 1-62 106l-5 4c-15 12-72 23-103 19z"/><path fill="#f37d34" d="M399 491c-87-9-135-117-82-186l6-9c3-4 6-5 8-3s2 5-3 10c-32 38-32 100-1 141 44 58 135 50 168-15 5-10 13-10 9 0-11 30-48 57-84 62h-21zm-5-17c-15-3-26-11-26-19 0-5 5-19 14-34l13-22c8-17 10-19 13-10a416 416 0 0 1 15 77c0 8-13 11-29 8zm46-16c-9-3-11-5-12-16l-3-18c-21-62-19-70 13-48 37 26 52 43 46 55-10 19-30 32-44 27zm-96-11c-9-5-14-20-14-37 0-11 1-13 12-18l12-6 14-6 16-7c20-9 16 8-12 50-15 23-21 28-28 24zm-16-65c-10-2-16-18-10-29 2-5 17-5 34 0l30 7c7 1 10 9 3 9l-22 7c-22 7-28 8-35 6zm49-28c-14-3-40-11-48-16-7-3-7-6-4-13 9-21 13-21 31-7l37 28c6 4 6 4 3 7-3 4-7 4-19 1zm61-67-11-3c-20-6-21-17-5-50l17-36c0-4 9-5 12-2l22 45c10 26 10 34-4 41-9 5-24 7-31 5zm-56-22c-21-14-34-30-34-44 0-12-2-11 60-32 20-7 19-7 24-2 5 4 5 5-2 19-12 22-18 37-22 46-2 8-3 10-8 14-7 6-7 6-18-1zm109 1c-4-3-7-10-11-21-1-5-7-18-13-30-13-26-13-25-11-28 5-4 7-4 15-1l47 17c13 3 20 7 22 12 8 16-36 62-49 51zm-147-65c-9-3-15-29-10-44 7-22 10-23 51-4l27 11c9 3 13 5 14 9s0 4-20 11l-45 16c-6 2-14 3-17 1zm181-2c-20-6-60-21-62-23-2-4 1-7 8-10l8-4c10-5 56-22 62-22 10 0 16 18 13 39-4 24-7 26-29 20zm-112-41a502 502 0 0 1-50-21c-18-8-20-13-12-28 12-24 54-46 54-29 0 4 17 46 25 62 6 12 6 12 4 16-3 6-4 6-21 0zm46 3c-5-6-5-6 2-20l24-54c6-19 30-11 48 17 14 21 11 27-20 39l-30 12c-21 9-21 9-24 6zm-18-10c-2-2-9-15-13-25l-8-19c-10-24-12-30-9-37 6-11 29-19 46-14l8 2c7 1 17 12 17 20 0 5-6 18-24 56-8 18-11 21-17 17z"/><path fill="#04a93d" d="M110 523C-21 502-41 315 83 266l26-7a146 146 0 0 1 55 3c30 6 67 37 83 68 48 96-32 209-137 193zm40-10c97-23 133-139 64-208-98-98-254 20-189 143a125 125 0 0 0 86 64c7 2 31 3 39 1zm-31-4c-22-12-24-30-8-78l3-12c-1-4-19 29-25 44-10 26-29 26-48-1-13-18-13-29 1-37 13-9 42-21 56-25 12-3-9-3-37 0-40 4-50-7-41-42 7-24 14-26 37-9l32 21c20 11 31 23 24 27-1 1-2 2 0 2l4 3c4 3 7 4 8 2 2-3 6 6 14 30l12 33c11 25 9 35-9 39l-10 3c-8 3-9 3-13 0zm55-27c-7-3-38-60-41-74-1-5 3-7 8-2a194313 194313 0 0 0 47 39c12 9 15 13 15 21 0 13-17 22-29 16zm43-39c-6-1-14-5-37-19l-30-17c-12-6-12-6-12-12 1-9-5-13-15-9-7 3-5 4-18-11-10-13-22-25-30-32-14-12-16-15-16-26-1-27 34-44 52-26 6 6 6 6 9 50 1 31 2 32 5 7a1529 1529 0 0 1 6-41c2-15 4-21 7-24 17-10 47 4 49 24 1 5-1 9-8 17a1034 1034 0 0 0-44 59c2 0 29-27 36-35 24-31 45-32 52-2 5 21 3 23-41 33-18 3-35 9-35 10 0 2 3 2 23 1 54-4 53-4 60 0 21 13 10 57-13 53z"/></svg>