<svg xmlns="http://www.w3.org/2000/svg" width="32" height="32" viewBox="0 0 527.3 450.2"><path fill="#ed6786" d="m320 447-8-6-8-5c-29-11-38-19-49-45a115 115 0 0 1-6-15l-4-9c-1-5-4-7-4-5 0 9-32 43-52 55-9 6-11 7-34 7l-22 2c-2 1-5-1-6-3 0-2-2-3-3-4l-6-3-6-5c-27-15-38-81-19-120 14-31 33-49 57-56 6-1 7-4 6-18-2-14 4-43 10-48 5-5 0-5-6-1l-9 4c-40 13-72 8-93-14-7-8-7-8-12-8-6 0-11-2-11-6 0-5-3-9-7-9-3 0-6-1-6-3l4-1c6 0 8-5 4-8-3-3-6-2-8 4 0 2-2 3-2 3-2 0-3-1-2-2l4-5 4-4 2-2 3-6c4-7 3-38-2-38A129 129 0 0 1 0 58l1-39c1-1 15 5 24 10s16 7 19 7l5 2c3 2 3 2 11-6l17-14c46-31 131-20 131 17 0 7 6 11 18 11s12 0 16 3l10 7c6 4 23 21 25 25 3 4 5 6 9 7s7 4 8 9l8 10 7 10a921 921 0 0 0 8 19l13 10a398 398 0 0 0 51 40 391 391 0 0 0 110 66l18 10 14 10c4 2 4 2 4 24 0 26 0 26-9 20l-13-5c-10-2-17-6-23-11l-14-10-16-9c-25-17-49-24-59-17-5 3-5 3 2 11 13 15 19 32 19 57-1 36-22 75-50 91-9 5-16 10-19 14l-5 5-6 5c-5 4-8 4-14 0zm3-192c9-1 12-9 6-17l-2-5-2-10-3-11-5-22v1c2 10 2 37-2 49-5 20-6 18 8 15zm41 0c1-2 4-4 6-4 4-2 6-5 7-13 1-10-3-13-27-30l-16-11-8-6 1 4a3435 3435 0 0 1 8 53c1 7 3 8 24 9l5-2zm-163-33c10-21 25-45 49-75 4-5 4-7 2-7a307 307 0 0 0-51 82zm64-114 4-2c23 0-13-44-37-46-10-1-12 0-10 4s5 17 5 26 0 11 2 11l9 3c12 5 23 7 27 4z"/><path fill="#ae8e6e" d="m320 447-8-6-8-5c-26-9-48-29-45-38 0-1 0-3-2-5l-2-7-2-2c-2 1-3-3-2-7 0-2 0-3-1-2-2 1-2-1-5-8-1-5-4-7-4-5 0 9-32 43-52 55-9 6-11 7-34 7l-22 2c-2 1-5-1-6-3 0-2-2-3-3-4l-5-3-6-4c-6-3-19-18-17-20l-2-4c-4-10-8-30-6-31v-4c-2-4-2-18 0-20v-2c-1-1 0-2 1-5 3-5 3-5 0-6-4-1 3-25 7-26 2-1 2-3 3-7l3-7 3-5 1-3c3 0 6-3 4-4-1 0 0-2 4-6l5-7c0-3 15-10 17-8l5 1 8 2 10 2h7l-3-2-3-6c0-3 0-3-4-3h-5c0-2 3-4 3-3 2 2 3-3 2-13l-1-14c0-14 7-38 12-43 4-4-1-4-7 0l-9 4c-40 13-72 8-93-14-7-8-7-8-12-8-6 0-11-2-11-6 0-5-3-9-7-9-3 0-6-1-6-3 0-1 6-1 8 1l8 2c4 0 5 0 4 2 0 2 2 4 4 4 3 0 4-2 2-5l-2-6-1-4-2-2-2-5c-2-4-2-6 0-7 3-1 4-4 2-5v-2c0-2 0-2 1 0 1 3 1 3 3 1 1 0 2-1 1-3l-2-4v-3h-4c-3 0-6-4-5-7 1-2 2-2 3 0 1 3 4 3 5 0l2-2c3 0 5-3 5-6s0-3 2 0 4 3 4 0c1-3 3-3 6 0s4 3 3-1c-1-3 2-4 5-1 3 2 3 2 1 3-3 1-9 8-6 8l12-6 4-3 2-2c-1-1-3 0-4 1-2 2-4 2-6-1l-3-3c-2 0-2-2 0-5l3-4 3-1c1-1 3-1 3 1 0 4 5 3 5-1 0-3 2-3 4 0l2 2c1 1 2-3 0-4l-1-4c0-2-1-2-3-3-3 0-3 0-1-1 3-2 2-4-1-4s-3 0-2-1c0-2 0-3-2-4-3-1-4 2-1 5 4 5 3 7-3 6s-6-1-9 2l-6 3c-4 0-4 0 2-6l1-4c-1-1 0-3 1-4 3-3 5-8 4-10s0-3 1-3c2-1 2-4-1-3-3 0-3-3 0-3l5-4 9-4c4-1 6-2 7-4s8-7 11-7l2-2c0-1 2-3 5-3l7-1c6-3 13-2 18 2 5 3 5 3 9 1 5-2 5-2 7 2 3 3 11 7 14 6v-3c-2-1-2-2 0-2 5-2 7-4 4-6-3-1-4-3-1-3 18 0 40 18 40 33 0 8 7 11 18 11 12 0 12 0 16 3l10 7c6 4 23 21 25 25 3 4 5 6 9 7s7 4 8 9l8 10 7 10a921 921 0 0 0 8 19l13 10a398 398 0 0 0 51 40 391 391 0 0 0 110 66l18 10 14 10c4 2 4 2 4 24 0 26 0 26-9 20l-13-5c-10-2-17-6-23-11l-14-10-16-9c-25-17-49-24-59-17-5 3-5 3 2 11 13 15 19 32 19 57-1 36-22 75-50 91-9 5-16 10-19 14l-5 5-6 5c-5 4-8 4-14 0zm-59-78-1-2c-5-8-5-16-1-13 3 2 5 2 6-1 0-3 4-4 5-2l2 1-1-1-2-3c0-2-2-4-4-5-3-1-3-2-1-5l2-3c0-3 9-12 11-12 3 0 3-3 0-3l-3-2-3-2c-3-2-5 0-4 3 0 2 0 3-2 2-1-1-2 0-2 1-1 3-2 3-4 1-1-2 1-5 4-5v-1c-3-4-6 0-10 17-7 23-3 40 8 35zm5-66 2-2c0-2 6-5 8-4l6 1c6-1 5-3-1-3-5 1-6-1-3-4 2-1 3-2 6-1 7 1 11-3 12-10l2-5 1-2c0-5 12-8 18-5l6 1c2 0 3 2 1 4v1c3 0 5-2 5-5v-3c2 0 2 2 3 6 0 3 0 4 2 5l1 3c0 2 3 4 5 4l-1-8c-2-15 2-21 14-20 7 2 7 1 11-1 1-2 4-4 6-4 4-2 6-5 7-13 1-10-3-13-27-30a1540 1540 0 0 1-24-16 625 625 0 0 0 10 65l-1-1-4-15-2-2-2-6-2-10-3-11-5-22v1l1 20c1 18 1 16-6 42-1 4-3 7-8 8-15 4-41 31-41 42l1 2 2-2zm98-13c4 0 6-1 7-6 1-3 1-3-4-1-3 1-2-1 1-4 2-3 2-3 1-7l1-7c1-1 1-1-1-2-6-2-18-1-18 0a208 208 0 0 0-4 20c-1 2 9 9 12 8l5-1Zm-156-23 1-5c0-4 11-4 12-1l2 1 2 2 3 1c1-1-5-6-6-6l-3-2c-3-4-11-4-19 1l-6 4c0-2 5-8 8-10 4-2 0-7-6-7-3 0-2-1 5-17 15-35 26-53 45-75 9-10 10-13 7-13-2-1-2 0-14 15-17 21-32 49-42 74-6 14-6 14-10 13-7-2-9-1-7 4 2 3 2 5 2 8-1 4-1 4 9 9l10 6c1 3 5 2 7-2zm57-159 4-2c23 0-13-44-37-46-10-1-12 0-10 4s5 17 5 26 0 11 2 11l9 3c12 5 23 7 27 4zM32 74l-3-1A129 129 0 0 1 0 58l1-39c1-1 15 5 24 10s15 7 19 7c7 1 9 6 3 12-4 5-9 16-9 20-1 5-5 9-6 6Z"/><path fill="#ee4e65" d="M322 446c-21-16-53-20-63-49-6-11-14-55-25-24-19 31-54 53-92 50-21 2-41-22-50-41-7-17-5-36-4-53-1-18 8-38 17-56 10-6 13-26 30-26 6 0 40 13 26 0-4-10-13-4-4-12 0-23-3-50 13-69-18-1-40 15-62 12-21-1-42-11-55-28-14-4 1-20-12-31 0-6 1-18 6-13 5-8-21-20-3-15 7-8 8-11 14-10 4-6 10 8 10-4 16 0-14 19 5 11 8-6 17-11 3-7-13-7 4-20 9-13 2-10 13 8 5-10-4-2-2-10-11-10 11 13-11 12-19 14 6-9 17-26 9-32 20-7 32-24 52-27 17 2 30 9 45 12 2-19 40 1 39 19 6 25 42 5 53 30 6 6 31 28 20 29-16-14-32-48-56-31 3 21-1 48 28 48 17 10 35-22 43-11 16 17 18 41 40 53 47 31 87 73 141 93 18 12 51 17 51 43 2 15 5 40-16 23-24-6-41-25-63-36-15-7-52-27-58-5 15 17 26 38 24 61 0 40-23 78-58 96-10 4-20 27-32 19zm-61-77c-11-13 1-18 11-17-18-10 0-23 6-32-9-14-18 12-17-1 3-10-14 18-11 27-1 8-2 28 11 23zm5-66c3-10 32-4 10-9 6-8 23-3 22-19 8-22 30 6 31-6 0-7 12 31 10 7-10-31 41-6 39-37-2-25-34-32-49-48-9-5-9-41-12-34-1 8 11 44-5 25 9 23 5 49-2 72-15 16-44 25-46 51zm98-13c8 1 10-12 1-8 16-14-5-30-15-15-4 12-5 26 14 23zm-156-23c-1-21 34 9 11-10-8-10-36 15-17-5 7-4-15-9-2-19 13-32 31-63 55-88 6-21-19 7-22 15-18 25-31 53-44 81-20-5-6 25 9 26 3 3 7 6 10 0zm46-32c8-11 4-37 21-29-11-14-14-54 1-57-8-17-20 21-16 31 4 26-9 49-11 74 1 8 3-20 5-19zM30 72C7 68-4 50 1 28c5-17 31 13 46 11 3 9-10 25-13 34z"/><path fill="#dd374b" d="M322 446c-23-17-59-24-65-56 9-5 16 4 26-2 27-1-6-43 16-43 12 6-12-20 7-20 7-16 25 5 19-11 13-5 7-31 20-17 4-6 25-2 36-6 12 5 0-29 14-12 31 39 17 99-17 131-19 8-36 38-56 36zm-194-25c-16-10-47-34-10-38-3-7 13-35 1-30-10 18-5-22-2-28 20-24 55 17 73-9 7-10 25-13 20-26-29 3 15-17 10-15 16 16 14-30-7-20-12-2-18 7-8-5-17-15 10-41 16-59 8-20 30-34 35-53-18 6-26 29-37 43-11 19-21 39-30 59-24 7-41-17-32-39-1-16 25-47-4-32-31 13-70 13-94-12-11-8-18-14-2-20-5-18 15-7 21-21 14 6 10-40 28-44 2 19 18 6 6-5 12 3 19-23 33-4 5-7 25-44 17-16-1 14 10 5 8-2 10 0 13-26 0-18-4-30 39-15 35 9 14 20 43 8 57 31 11 4 27 40 9 19-8-19-51-47-48-10-5 26 27 44 48 31 25-27 34 14 46 31 23 20 49 37 72 56 30 24 64 43 100 58 27 9 44 31 37 60-19 9-45-17-63-27-22-11-46-31-71-22-18 7-49-14-49 18-11-12 5-33 20-23 32-15 3-49-20-56-18-5-28-46-26-43 2 7 9 40-5 23 8 26 11 67-15 82-25 13-38 39-44 65-6 10-2 45-5 39-16-14-20 29-38 32-21 21-52 24-80 24l-1-1-1-2zm126-186c3-13 13-33 19-32-14-18-4-46 0-58-24 13-6 47-15 68-3 9-13 40-8 40l4-18zm-72 57c-13-4-6-29-16-18-10-4-23-11-8-11 8-18 11 5 12 4 8-13 32 3 25 17-7-14-6 14-13 8ZM30 72C8 72-11 38 6 23c13 3 39 14 41 21-6 9-5 25-17 28z"/><path fill="#de2830" d="M322 446c-14-13-50-20-52-36 10 2 22 9 21-3 18 11 18-12 29-20 1-18 18-1 23-15 9 15 4-10 19-6 5-14-18-3-22 1 2-12-11-5-19 0-2 1-2-8-8-9 3-11 18-25 30-24 7 4 19-17 28-12 11-8 26-21 25-38 10-1 18 35 16 51 0 35-22 66-48 87-16 1-26 32-42 24zm-194-25c-8-5-40-30-11-17 6-5 18-14 17-25-15-1 8-15-4-25-8-7-23-27-2-32 14 4 26 10 43 4 14-4 25 12 27 16 19 6 14-23 28-32 16-10 0-20 13-32 2-6 17 8 6-4-3-14 5 6 4-8 1-20 8-49 18-61 16 6-8-20 0-31 0-11-2-26 9-25-9-17-20 23-16 33 3 24-3 48-27 57-11 23-50 9-29-13 11-30 30-57 51-81 7-21-19 7-22 15-18 24-31 52-43 80-21 3-40-9-33-33 0-15 7-32 12-43-21 6-43 16-67 13-16-1-43-11-44-27 0-8 9-7 7 1 12 6 5-25 11-5 13-7 10-21 27-10 13-4 31-6 35-22 12 11 21-47 24-15 2 5-11 17 3 7 11-4 11-6 11-13 12-3 31-19 17-31 17 4-2-33 12-14 14-1 37-3 49 13 7 6 34 29 24 32-16-14-32-48-56-31 3 21-1 48 28 48 18 8 31-16 43-13 13 17 16 40 36 52 37 25 70 56 109 78 25 16 56 23 79 43 11 9 13 43 4 47-23-7-42-20-62-33s-43-27-67-22c-3 14-25-1-28-6 30-14 4-43-17-52-23-6-27-37-30-50-1 10 12 47-5 28 9 23 6 50-3 73-17 12-37 24-46 44-12 21-15 46-15 70-9-23-18 21-31 26a96 96 0 0 1-75 28c-3-2-13 5-14-2zm104-159c-23-12 25-26 15-3 1 8-12 10-15 3zM30 72C7 68-4 50 1 28c5-17 31 13 46 11 2 6-9 32-17 33z"/><path fill="#625429" d="M322 446c-15-14-49-19-53-37 18 12 43 2 52-14 13-2 21-13 28-14 14-8 18-28 25-39 9-17 17-37 22-56 0-13 17 19 14 26 6 30-2 61-21 84-11 21-35 27-50 44-6 2-10 14-17 6zm-194-25c-8-5-40-30-12-17 22 7 40-5 54-20 18 0 19-28 35-31 10-19 15-40 32-55 4-17 6 28 12 5 0-10-15-32 0-24-2-24 5-48 14-70-2-12 20 5 8-9-7-17-8-48 5-53-16-8-17 31-16 44 7 28-18 40-35 55-14 16-39-5-21-20 11-30 30-57 51-81 7-21-19 7-22 15-18 24-31 52-43 80-21 3-40-9-33-33 0-15 7-32 12-43-21 6-42 16-65 13-17-1-45-10-46-27 14 8 24-8 38-10 9-8 27-5 37-15 11-15 32-13 45-26-9-7 17-9 17-21 14-3-10-20 3-18 11-6-8-28 7-12 14-1 37-3 49 13 7 6 34 29 24 32-16-14-32-48-56-31 3 21-1 48 28 48 18 8 31-16 43-13 13 17 16 40 36 52 37 25 70 56 109 78 25 16 56 23 79 43 11 9 13 43 4 47-23-7-42-20-62-33s-43-27-67-22c-3 14-25-1-28-6 30-14 4-43-17-52-23-6-27-37-30-50-1 10 12 47-5 28 9 23 6 50-3 73-17 12-37 24-46 44-12 21-15 46-15 70-9-23-18 21-31 26a96 96 0 0 1-75 28c-3-2-13 5-14-2zM30 72C7 68-4 50 1 28c5-17 31 13 46 11 2 6-9 32-17 33z"/><path fill="#9a1924" d="M327 440c-19-5-43-10-57-27-7-10 19 8 26-1 18-6 27-19 44-27 9-1 19-12 26-23 3-18 17-29 20-49 11-9 6-50 19-19 12 35 7 77-18 106-13 17-34 28-52 38-2 1-6 5-8 2zm-197-18c-4-11-43-29-14-18 18 5 38 0 49-16 21-3 21-24 38-34 12-13 14-39 30-52 8-21 7 7 13 7 11-1 6-41 5-20 4 32-19-25-2-9 3 0-3-22 4-19 0 16 3 18 5 1 6-14 4-43 10-49 9 14 18 52 31 23 3-10-23-24-5-22 6 7 1-32-7-9-25 4-19-33-18-49 1-6 23 11 12-5-17-7 12-27-5-22 9-5 12-12 10-19 16-9-3 11 11 12 7-2 15 15 1 15 19 1 20 39 18 47-12-4 6 24 0 34-2 16-2 40-20 45-7 6-17 11-24 19-7 9-16 31-20 48-5 6-1 41-5 33-9-7 5-41-5-32-4 19 2 38-17 52-18 19-40 42-69 39-9-1-19-2-26 0zm389-108c-24-5-42-22-63-34-19-10-41-26-63-19-10 10-23-1-29-3 28-13 9-44-12-52-16-7-34-24-26-41 8 9 17 20 24 17-11 6 17 2 18 13 22 10-11-13-13-20-10-8-33-13-32-25 22 9 40 26 59 40 29 22 60 44 94 57 17 11 48 16 48 41-2 5 7 37-5 26zm-309-63c-27-8 3-36 7-52 12-22 27-43 46-59 1 14-6 37-4 55 7 29-22 37-37 54-3 2-9 6-12 2zm-28-11c-18-1-28-7-24-26-3-18 8-37 12-51-21 6-42 17-65 14-18-1-40-9-49-26 12 4 24-4 35-10 13-7 27-8 41-15 9-16 30-13 42-25 4-1-3-12 10-9 8-11 22-18 9-32 18 7-3-32 12-12 8-4 3 11 15 14 5 20-2 47 27 49 8-3 16 20 14 4 6-13 25-5 9 6-21 15-38 35-50 58-15 18-20 47-34 62zm20-96c8-4 41-2 16-10-8-16-39 20-16 10ZM25 70C9 67-4 48 5 36c7 11 25 14 9 0-7 5-19-16-3-9 11 16 25 2 35 17-10 6-7 32-21 26Z"/><path fill="#601110" d="M313 437c-10-4-45-17-16-12 20 0 31-12 49-19 10 13-23 13-16 22-13 1-3 12-17 9zm-184-16c-25-24 25 2 35-11 14-4 24-24 36-24-2-17 15 6 23-11 8-6 17-41 17-15-9 22-30 38-48 53s-43 5-62 10zm265-37c-17-4 10-23 5-37-2-16 9-33 6-50 10 29 9 63-9 88h-1l-1-1zm-149-27c-3-21 4-41 8-61 0-7-5-40 1-30 1 24 9-28 10-37-1-18 6-22 11-3s18 30 25 7c7-11 9-48-9-42-10 25-30 2-24-16 0-12 0-29 16-16-2-10-13-22 0-31-18 4 15-9 2-18 17-9-2 10 12 12 7-2 15 15 1 15 19 1 20 39 18 47-11-3 6 27 0 38 1 24-12 41-33 50-25 21-34 56-36 88h-1zm274-43c-24-5-42-22-63-34-19-10-41-26-63-19-10 11-42-5-17-13 12-25-20-37-36-49-13-5-19-24-14-34 8 9 17 20 24 17-11 6 17 2 18 13 22 10-11-13-13-20-10-8-33-13-32-25 22 9 40 26 59 40 29 22 60 44 94 57 17 11 48 16 48 41-2 5 7 37-5 26zm-313-67c-16-11 10-36 13-51 12-21 26-41 44-56 0 15-6 39-4 58 5 25-26 24-37 41-7 4-6 14-16 8zm-29-10c-30 0-19-37-14-56 7-10 14-25-5-15-25 9-56 16-80 3 15-8 35-4 49-9-11-9 21-3 20-18 15-16 40-22 50-41 11-12 15-37 15-45 22 10-2 51 30 53 13-4 12 14 21 11-7-15 27-16 7 1-22 16-39 38-53 62-14 16-16 46-33 56h-3zm25-93c8-4 41-2 16-10-8-16-39 20-16 10ZM25 70C9 67-4 48 5 36c7 11 25 14 9 0-7 5-19-16-3-9 11 16 25 2 35 17-10 6-7 32-21 26Z"/><path fill="#2f2115" d="M249 321c5-36 13-72 17-109 5 6 24 31 10 39 3 11 23 3 21 1 8-6-16-5-1-9 14-1 10 20-4 21-21 14-34 38-43 60zm270-7c-20-5-36-16-52-27-22-12-45-31-72-27-9 13-44-3-19-12 11-23-17-36-33-47-14-5-23-25-17-36 8 9 17 19 24 17-10 6 17 1 18 13 20 12-4-13-11-15-5-14-35-15-34-30 19 7 34 23 51 34 19 16 41 30 62 44 20 11 41 19 61 29 25 8 31 30 28 54 1 7-2 8-6 3zm-205-94c2-21-13-42-34-44-10-4-17-13-8-22 10 9 16 2 6-7-11-7 15-23-2-18 9-5 12-12 10-19 16-9-3 11 11 12 7-2 15 16-1 15 21 3 19 30 22 48-15-11 2 20-2 28 1 8-3 26-2 7zm-152-32c2-18 14-34 32-42 7-6 37-1 32-9-14-3-20-10-9-21 2-27 24-5 39-2 1 13 8 4 7-2 22-14 9 13-3 17-17 6-23 39-42 32-19-2-43 1-50 20-2 1-2 11-6 7zm95-25c-25 1 16-39 6-14-3 3-1 15-6 14zM25 70C9 65-3 53 4 35c6 10 26 16 10 1-7 5-19-16-3-9 14 14 20 5 36 15-9 7-8 32-22 28Z"/></svg>