<svg xmlns="http://www.w3.org/2000/svg" width="32" height="32" viewBox="0 0 848.3 692"><path fill="#c97289" d="M543 691c-69-6-130-60-144-128a152 152 0 0 1-244-111c-31-12-69 26-106 10-51-3-61-65-26-95 47-50 117-72 183-84 25-10 81 2 87-9-47-68-101-139-105-225 1-45 59-63 88-30 37 30 54 75 74 116 30-34 73-53 116-63 41 4 84 13 117 39 39 29 62 77 63 126 35 1 75-16 111 6 85 37 118 154 66 231-22 34-58 60-99 68-16 40-24 87-62 112-33 28-77 41-119 37z"/><path fill="#b3777b" d="M534 689c-65-9-121-62-133-127-38 25-84 41-129 28-60-14-113-69-113-133-27-26-72 23-109 4-41-2-66-50-37-81 40-53 106-77 168-92 38-9 77-12 116-8-45-68-102-136-107-221-9-58 65-77 95-32 36 26 37 79 72 105 26-32 67-46 105-60 39 3 79 13 112 34 43 29 71 79 70 130 29 11 69-18 102 4 91 32 131 155 75 234-21 37-60 61-102 69a164 164 0 0 1-185 146z"/><path fill="#b80429" d="M540 689c-67-7-127-61-140-129-55 45-141 45-193-5-35-25-46-76-55-109-42 6-87 32-127 5-43-26-14-78 17-100 72-55 167-77 257-69-42-65-94-128-107-206-8-35 14-89 58-71 49 19 70 72 91 115 12 37 41-25 67-27 41-24 87-22 130-5 59 21 107 81 104 146 23 21 65-17 95 4 97 25 141 155 84 236-23 35-60 61-102 67-9 49-31 99-76 124-30 20-67 29-103 24zm-68-119c35-29 55-73 73-114-13-56-88-8-99 29-16 25-16 89 26 85zm-51-251c-14-53 11-105 15-157-22-54-92 6-94 46a83 83 0 0 0 62 108c5 2 11 3 17 3z"/><path fill="#94012b" d="M548 690c-38 2-103-36-105-55 34 15 100 23 107-24 23-50 84-1 110-43 28-37 40-86 19-130-10-33 19 27 28 36 35 9 75-36 86-69-13-26 27-90 34-47-21 5 37 7 12 27-13 10 19 29 2 49-19 55-66 98-123 108a162 162 0 0 1-170 148zm-257-97c-29 0-85-32-84-41 45 20 101 15 136-22 34-30 60-74 59-121-1-21-24-71 16-46 93 27 200-46 204-144 3-33-6-66-25-93 40 25 37 96 55 116 18-10 57-9 22 12-34 33-56 78-62 125-52-22-106 5-156 9-39-9 1 28-24 42-31 33-30 77-34 119-13 42-70 44-107 44Zm-57-105c-35-7-37-52-13-74 30-20 74 5 59 43-4 26-33 21-46 31zM50 461c-51-1-63-73-21-98 61-58 148-80 230-83 20-1 55 9 27-18-39-57-82-116-94-186-8-35 14-89 58-71 47 18 69 69 90 112 23 31-20 57-18 92-10 27 9 66 4 84-45 5-94 12-126 47-38 25-29 85-57 106-30 10-61 20-93 15Zm389-322c-45-36 15-83 53-60 54 20-9 62-41 60h-6z"/><path fill="#284f1e" d="M552 662c-30-38 22-93 63-74 22 6 27 28 9 35-4 18 22 36-11 25-23-13-12-2-13 11-16 17-54-33-42 5l-6-2zM236 488c-41-3-29-63-13-57-25-34 70-28 57 10 6 35-28 37-44 47zm13-26c37-29-49-30-16 0 5 2 11 3 16 0zm-199-1c-51-1-63-73-21-98 61-58 148-80 230-83 20-1 55 9 27-18-39-57-82-116-94-186-8-35 14-89 58-71 45 17 66 65 87 105 27 32-14 59-15 94-11 28 7 70 4 89-46 2-93 12-125 46-28 27-44 64-45 103-34 12-69 24-106 19Zm761-20c-27-23-24-84 7-97 27 10-16 16 13 24 37 4-23 25 13 30 3 12-23 24-21 42l-4 2zM439 138c-25-21-15-59 14-60 21-13 1 28 17 0 21-15 65 29 26 44a87 87 0 0 1-57 16z"/><path fill="#5c101b" d="M552 662c-30-38 22-93 63-74 22 6 27 28 9 35-4 18 22 36-11 25-23-13-12-2-13 11-16 17-54-33-42 5l-6-2zM236 488c-41-3-29-63-13-57-25-34 70-28 57 10 6 35-28 37-44 47zm13-26c37-29-49-30-16 0 5 2 11 3 16 0zm-195-1c-50 0-67-68-26-95 50-51 124-72 193-83 21-6 72 7 75-8-45-66-98-135-106-218-3-47 58-73 87-34 35 31 54 76 72 118-32 42-40 102-18 151-45 3-93 10-127 43-29 27-47 66-48 105-32 14-67 23-102 21Zm31-5c43-2 88-28 81-76-18-15-67 18-70 8 35-20 81-19 106-53 34-30 81-44 125-43-5-29-9-59-23-86-16-33-35-66-48-102 21 29 48 88 64 98 18-36 28-75-4-107-20-35-66-113-110-67-24 46 6 96 26 137 22 41 51 80 75 120-33 15-74-1-109 11-64 12-132 35-175 86-39 43 19 87 62 74zm726-15c-27-23-24-84 7-97 27 10-16 16 13 24 37 4-22 24 12 30 4 13-22 24-20 42l-4 2zM439 138c-24-21-16-59 16-60 19-9-2 24 16-1 32-9 61 37 18 50-15 9-33 11-50 11z"/><path fill="#1f1c14" d="M554 661c-34-45 39-100 76-62 23 24-30 12-10 23-8 17 26 32-4 24-25-14-22 2-20 14-18 7-52-35-39 2l-2-1zM235 485c-25 4 13-31-16-14-26 2-5-61 11-29-31 19 51 36 25-2-21 0-56-23-17-30 47-9 57 76 5 68 7 1-4 14-8 7zM54 461c-50 0-67-68-26-95 50-51 124-72 193-83 21-6 72 7 75-8-45-66-98-135-106-218-3-47 58-73 87-34 34 31 54 74 71 116-23 5-23-51-45-64-16-33-68-92-99-43-20 52 13 103 36 147 21 36 46 71 67 106-33 15-74-1-109 11-62 12-128 33-171 82-46 42 17 95 63 77 20-1 46-18 61-15-30 15-63 24-97 21Zm757-22c-13-20-15-18-9-37-18 23 0-76 19-51-28 25 5 19 20 21-1 14-24 23 3 30-26 5-7 42-33 37zM90 391c26-10 75-36 89-27-22 24-61 14-89 27zm223-168c-16-32-53-100-53-112 17 37 64 79 55 117zm128-88c-12-16-24-37 3-49 8-4 23-16 15 4 15-1 19-33 33-7 46 14-6 51-32 51-6 1-13 2-19 1z"/></svg>