<svg xmlns="http://www.w3.org/2000/svg" width="32" height="32" viewBox="0 0 114.6 181.2"><path fill="#ee6e8d" d="M36 181c-5-5-12-2-18-2-9-3-8-13-7-20-6-6-13-12-11-21 1-9 9-17 18-16 1-9 5-18 12-22-4-5-9-11-5-19 2-6 12-10 5-17-5-10 1-23 12-26 2-7-6-14-2-22C43 4 58-4 69 2c6 6 14 6 21 9 11 6 14 23 5 33-8 8 8 4 11 8 13 8 10 32-4 36-5 5-16 0-18 2 1 8-6 16 2 22 5 7 3 17-5 21-6 6-17 7-23 2-2-3-6-13-8-5-3 4-14 5-7 12-1 8 2 15 8 20 3 8-2 18-11 19h-4zm-8-36c5-11-15 1-2 0h2zm-12-9c3-7-15 1-3 1l3-1zm52-19c2-6-12 0-3 1l3-1zm-31-4c4-10-15 1-3 1l3-1zm18-1c7-4 1-17-6-12-7 3 1 10 5 13v-1zm14-23c3-9-12 3-2 1l2-1zm-6-10c4-1 13 0 8-7-1-8 9-16 8-21-4 0-13-7-13-6 2 8 5 18-1 24-5 2-14 10-7 13 2 0 3-2 5-3zm-22 2c-1-5-9 0-2 1l2-1zm47-17c5 4 8-8 2-3-2 1-7 4-2 3zM45 51c8 1 5-13-2-7-4 2-4 9 2 7zm27-27c8 4 8-15 0-6 0 1-4 9 0 6zm-17-8c7 2 8-15 0-7-1 2-9 11 0 7z"/><path fill="#eb5161" d="M34 180c-7-7-19 4-23-8-1-7 3-16-6-19-9-9-4-26 9-29 11-1 3-14 11-18 6-3 8-7 2-11-5-7-2-17 5-22 5-6-5-11-3-17 0-8 5-15 12-17 7-6-6-15 0-23C44 5 58-4 68 3c6 5 14 6 20 9 8 3 14 12 12 21 0 6-10 12-7 16 8 1 18 5 20 14 3 10-2 22-12 25-5 6-21-5-18 6-1 6-4 14 3 18 5 8 0 19-8 23-7 3-18 4-21-4-2-3-6-9-6-2-3 4-15 5-9 12 1 8 1 16 8 20 4 7-1 18-8 19h-8zm5-5c4-6-6 1 0 0zm-18-9c3-7-12 1-3 2l3-2zm9-10c1-7-8 1-1 0h1zm-2-9c10-3-5-15-8-6 2-4 2-7-2-2-5 6 5 10 10 8zm-11-8c8-9-15-9-9-1 3 1 6 2 9 1zm53-10c8-2-7-4-2 1zm12-2c3-5-5 1-1 1zm-44-1c4-6-8-2-1 1zm-4-8c8-2 5-16-4-10-5 3 1 8 2 9-2 3-1 3 2 1zm35 0c4-9-15-4-6 1 2 1 5 0 6-1zm-15-5c7-4 6-15-3-14-9 2-3 10 2 14zM42 94c2-5-4-1-2 1l1-1zm-8-6c-2-6 14-5 5-11-5-1-5 7-10 6 0 2 7 4 0 5-5 0 9 7 5 0zm37 3c7-11-18-4-6 1l6-1zm-11-9c3-4 17-1 12-10-3-8 10-15 8-22-5 0-13-6-15-5 3 7 6 16 0 22-5 5-17 11-7 16h1zm36-5c2-6-8 4 0 0zm-5-12c8-1 1-10-4-5-6 3-3 8 2 5h2zm-40-2c-2-6-6 5 0 0zm-3-11c9-3 2-16-5-9-8 4-3 13 5 9zm34-15c2-5-11 0-3 1h1zm-5-13c8-7-4-14-7-5-5 7 2 9 7 5zm-19-7c3-2 7-1 4-5 1-5 7 2 5-4-6-6-16 0-18 7-1 6 7 4 9 2z"/><path fill="#ea324c" d="M35 180c-6-8-19 4-23-7-2-8 3-17-6-20-7-5-4-17 5-13 4 3 0 10 6 13-4 4 5 4 6 5-2-2 0-9 2-5 0 8 8 3 9-2 8-6-2-11-7-14-7-1-10-8-18-5-5-4 5-10 9-10 6 0 2-10 8-5 4 1 4 7 9 2 9-3 6-16-4-13-3 1-10 6-5 0 4-2 10-6 3-10-7-6-4-17 3-22 5-5-2-9-1-14-4-5 0-18 8-18 5-1-7 11 2 12 7 1 16-7 13-14-3-4-6-2-4 1-4 0-10 0-6-4-2-8-6-16-2-24C46 3 60-3 69 4c6 7 16 4 22 10 10 6 11 20 4 29-3 3-6 7 0 7 10 0 18 7 19 17 2 10-8 19-17 22-4 3-13-5-14 2 2 7-7 14 2 20 6 7 2 18-5 23-6 4-18 5-23-2-2-3-5-12-7-3-4 4-16 6-8 13 0 8 0 16 8 19 2 2 1 12-2 8-2 3 3 9-4 10l-9 1zm5-5c2-10-9 5 0 0zm-19-8c5-10-16 0-2 1h1zm17-12c5-2-1-10-2-2-1 1 0 4 2 2zm32-25c10-4-9-5-2 1l2-1zm12-2c5-5-1-8-3-1-1 2 2 2 3 1zm-42-2c2-2 10-12 2-7-2 2-14 5-8 8 2 1 5 1 6-1zm-13-1c-2-5-7-1-2 0h1zm38-3c8-1 7-12-2-10-5 2-6 9-1 10 1 2 2 2 3 0zm-10-10c4-3 7-9 2-12-4-6-17 3-9 7 1 2 4 9 7 5zm18-10c2-4-7-9 0-11 3-10-14-9-13 0 0 4-5 1-2 5 1 7 9 5 13 8h1zm-10-4c-3-8 8 3 0 0zm17 2c3-10-12 2-1 1h1zm-37-6c2-9-10 5-1 1zm-9-1 7-6c4-7-3-14-10-8-5 2-2 7-4 10 1 4 7 1 3 4h4zm24-10c4-5 20-1 14-12-2-8 11-15 8-21-5 0-13-7-15-6 1 8 5 18-1 25-6 4-15 9-7 15Zm38-5c4-7-10 1-1 1zm-7-12c7 3 10-11 1-7-6-1-13 10-3 8h1zm12-6c-6-3-1 9 1 3l-1-3zm-50 4c4-7-10 1-2 0h2zm-17-8c-1-8-5 4 0 0zm47-18c6-6-12-3-3 1l3-1zm-6-12c7-1 9-16-1-12-8 2-11 17 0 12zm-15-7c2-5 16-10 5-14-7-3-16 3-17 10 0 6 8 6 12 4zM18 153c-2-6 6 0 0 0zm11-1c-2-6 10-6 3-1l-3 1zM2 137c1-7 7-3 3 1-1 1-3 1-3-1z"/><path fill="#e11c28" d="M35 180c-6-8-17 2-22-6 0-10 8 7 9-2 0-4 2-11-5-10-4 0-6 2-4-2 0-4-13-10-4-10 4 3 5 7 10 6 4 5 9 8 14 3 6-6 15-5 18 4 3 6-9 7-2 12-2 5-9 5-14 5zm6-4c3-10-11 2-1 0h1zm3-12c-3-5-5 5 0 0zm-4-17c-4-10-16-14-27-17-8-5 6-11 10-5 4-2 6 5 9 7 3-1 4-5 9-5 1-5 6 5 7-2-2-5 4-11-3-11-2-6-9-9-12-12-1-3-4-10 1-4 2 4 5 3 3-1 5 1 10-2 6-7 2-6-1-14-7-16-3-1-8 6-4 0 5-5-2-10 0-15 1-6 4 3 5 5 5-6 13 6 17-1 3 5 7-2 4-4 0-4-11-3-2-6 1-6 4-16-6-16-11-1-10-15-8-23 0-3 9-10 6-3-4 3-7 9 0 9-4 8 8 6 9 7-3 1-8 3-2 5 6-1 6-11 9-16 1-3 12-8 6-3-8 2-6 14-8 19 6 4 15 0 18-6 2-7 12-16 17-6 5 8 2 19-5 26-4 7 10 3 13 7 7 5 13 16 7 24-5 8-14 15-24 12-7-5-7 2-5 7-4-1-2-7-6-5-2-8-11-13-17-5-6 5-6 18 4 15 4 4 8 7 13 3 6-1 9 8 10 13 2 8-6 19-13 18-6 4-14 3-17-3-2-4-5-12-6-4-5 5-16 6-9 14 0 1 2 10-2 5zm33-14c6-5-9-14 1-17 0-4-9-3-12-4-8 3-5 18 0 18-4-4-1-7 3-4 1 4 3 9 8 7zm10-5c5-4-4-10-4-3-6-1 3 8 4 3zm-27-16c7-4 3-14-4-14-5 1-10 6-5 10 2 2 6 9 9 4zm3-29c3-5 17 0 14-9-4-9 7-16 8-24-6-2-12-2-16-7-1 7 6 16 0 24-3 6-16 7-10 15 1 1 3 3 4 1zm38-4c6-8-15-4-5 1 2 1 4 0 5-1zm6-1c0-6 8 4 7-3-11-1-4-15-11-20-5 4-13 2-18 6-3 5 0 16 7 12 5 1 4-8 10-6 6-1 1 10 5 11zM64 38c3-5-10-1-2 1h1zm18 0c7-7-14-4-5 1 2 1 4 1 5-1zm11-1c-7-6-2 7 0 0zm-8-8c5-7-4-2-3 2l3-2zM4 148c-6-9 14 0 3 1l-3-1zM86 15c1-3-10-3-2-5 1 0 6 5 2 5z"/><path fill="#b21d23" d="M35 180c-5-7-15 1-20-4 7 5 11-2 11-8 1-6 9 0 12-7 3-9 13-3 13 4 0 3-9 7-3 8 2 7-8 7-13 7zm6-4c4-7-11-4-4 0h4zm3-12c-3-5-5 5 0 0zm-32-2c5-4-11-12-3-8 5 4 16 0 13 9-3-3-7-1-10-1zm52-25c-9-3-11-13-12-21 2-5 10-8 9-15 5-3 9 6 3 6 6 6 18-7 21 5 6 9 0 19-8 24-7 1-2-14 4-6 6-1 2-13-1-7-1 7-6-4-9-4 6-3 4-7-1-7-4 1-7-2-10 1-4-4-4 9-3 12 0 8 12 6 13 12h-6zm-41-7c-4 0-9-10-3-5 3 3 9-3 10 4 1 4-6 4-7 1zm72-41c-3 2-13-2-5-2 7 2 12-6 18-6 4-3 2-8-2-7 1-7-4-9-3-15-1-6-7-6-11-2-5 3-8-8-10-1-1 8-5-2 0-4 8-4 19-3 26 3 6 7 10 18 2 25-4 4-9 9-15 9zm-8-4c-10-10 14-1 2 1l-1-1zm-13-7c-2-3-1-16 0-7 0 1 4 8 0 7zM31 65c1-2 0-11 4-7 1 3 1 10-4 7zm43-1c-2-5 8-5 4 0-1-4-3 2-4 0zm-2-16c-6-2-4-6 1-2 2 1 2 3-1 2z"/></svg>