<svg xmlns="http://www.w3.org/2000/svg" width="32" height="32" viewBox="0 0 486.8 584.8"><path fill="#e19baa" d="M362 583c-29-13-16-48 1-64 25-11 8-47-10-18-13 21-46 23-54-4-7-33-32 9-50-14-17-12-37-37-60-22-14 20-35 62-65 38-20-8-9-43-4-42-13-3 6-47-19-30-15 12-45 20-23 41-6 43-60 22-67-8-15-10 1-38-1-34-1-23 35-35 38-60 13-19 19-57-10-63-27 0-35-32-31-54 2-21 10-49 6-62-7-15 14-36 21-53 14-22 30-42 40-66 13-24 31-44 48-64 5 8-17 43 6 24 4-10 39-31 39-19-26 5-20 58 4 42-4-30 22-64 55-46 20 6-24 22 3 32 17-2 22-49 44-25-9 19-39 31-32 58 3 24 34 41 53 25 23-25-5-67 23-89 28 5 7 45 1 65-3 9-8 41 7 23 5 32 32-6 23-24 2-19-20-57 4-64 20 24 12 55 12 83-2 31 7 63 1 94-1 20-9 59 13 65 23-19 15-53 11-79 24 13 25 45 8 64-19 17-28 37-15 61 7 21 14 42 12 64 4 34 44 49 47 83-19 31 15 49 38 57 22 25-12 61-39 47-14 28-49 37-78 38zm76-89c8-30-23 0 0 0zm-294-94c23-20 27-61 57-71-2-24-46-6-46-37-23-23-39 22-33 41 5 21 31 30 20 55l1 6zm-60-17c5-25-31-9-11 0h11zm294-22c27-28-52-17-19 2 6 3 16 7 19-2zm-305 4c31-1 5-60-5-23-3 7-11 27 5 23zm35-37c19-17 10-69-17-36-5 10 0 44 17 36zm200-12c-6-17 0-46-19-55-4 20-20 56 14 56 1 8 7 4 5-1zm35-26c17-16-6-41-16-15-10 15 2 32 16 15zm-123 2c27-12-22-57-12-19 3 6 1 20 12 19zm112-31c28-11 3-45 17-64-11-7-17 46-31 16-24-6-12 47 6 53l4-1zm-167-16c21-7 11-24-6-15-12 5 0 13 6 15zm19-75c0-13 34-45 2-33-13 5-19 29-2 33zm162-15c7-24-32-4-8 3 4 2 9 4 8-3zm-33-9c28-10-19-34-8-3-4 7 6 11 8 3zm-51-13c16-22-44-61-29-21 6 11 17 18 29 21zm-81-3c33 5 18-64-2-28-5 8-18 30 2 28zm102-5c20-18-32-21-8-2 2 2 5 4 8 2zm-191-1c10-15-24-32-11-9 4 2 4 14 11 9zm95-40c25-13-13-26-8 2 2 3 7 0 8-2z"/><path fill="#7686b0" d="M366 583c-27-2-20-42-4-51 27-5 18-64-6-36-11 22-43 30-53 2-11-33-39 7-56-18-17-16-42-37-64-17-8 24-34 58-61 32-18-11-1-35 2-40-10-10-6-52-26-25-19 4-38 21-21 39-2 39-57 21-52-4-29-1-17-44-6-53 16-17 24-46 51-28 25 7 1-21 20-22 20-5 4-16 5-21 23-24 45 13 48 35-2 16 7 34 15 9 2-16 20-22 26-30-21-20 31-9 22-35-6-21-33 7-42-17a39 39 0 0 0-51-22c-20-16-27 4-23 22-3 19-32 42-31 52 7-24 4-60-28-49-11-3-25-25-7-26-25-6-10-44-2-55 14-8 10-48 2-15-14 24-20-19-2-22-25-10 17-27 12-23-9-18 12-63 32-41 9 13 14 42 21 48 4-21-19-38-20-61-7-24 10-44 24-61 8-12 27-44 31-40-15 13-8 50 14 26 3-8 29-37 28-25-24 13-20 56 12 45 15-11-11-52 16-48 8 26-4 51-6 76 15-20 37-2 28 18 10 25 46 41 38 72-12 17-8 51 5 60-6-31-12-68 6-96 12-14 1 23 17 27 20 14 38 36 23 57 9 15-16 21-10 17 3 24-19 44-12 67 6 12 32 13 30 27 1-20-21-72 17-65 28-16 20-69 23-83-11 29-45 16-49-10-21-14-42-49-6-58 2-21-38-9-37-9-5-27-41-19-34-3-8-34-12-69-18-103 18-10 36 16 12 23-6 34 31 11 31-9 6-19 33-10 16 7-25 14-40 52-12 71 21 19 58 12 55-20 7-22-11-51 9-67 29-3 4 39 2 55-11 21-5 57 25 53 18-2-5-25 5-38 5-22-6-53 1-69 21 14 8 47 12 69 2 53 1 106 0 158 0 25 19 19 25 2 15-12 4-41 11-52 27 22-3 46-19 63-15 18 3 40 4 59 8 26 8 55 20 79 12 21 42 36 36 64-18 25 19 37 35 49 30 23-6 52-32 47-19 15-39 32-65 35l-12 2zm73-89c9-14-10-29-12-8 1 5 7 8 12 8zm-131-8c22-35-27 7 0 0zm78-21c11-31-29 12 0 0zm-1-28c22-8 3-20-4-4l1 2zm-223-13c14-23-28 14 0 0zm47 0c30-9-24-11 0 0zM59 407c4-30-32 16-3 2zm42-11c14-29-26 5 0 0zm127-18c22-19-25 1 0 0zm61-8c5-31-26 12 0 0zm89-7c36-28-47-31-24-2 6 7 18 10 24 2zm-134-10c3-19-34-20-8-4-2 2 9 11 8 4zm84-10c22-11-18-50-7-15 1 6 2 12 7 15zm-106-28c15-16-12-21-6-4l3 2zm112-18c36-15-3-60-11-14-2 7 1 22 11 14zm-110-5c5-10 33-34 4-29-5-18-29-22-22 2 1 10 4 28 18 27zm-112-38c26-33-32 2 0 0zm54-9c17-6 16-26-4-16-17 4-8 15 4 16zm21-36c30 3-11-22-7 2 3 1 5-1 7-2zm-123-1c26-20-22-6 0 0zm70-27c1-14 30-1 7-13-8-4-18 27-7 13zm78 4c18-16-13-31-9-8 2 3 4 10 9 8zm-25-5c-10-20 15-32 23-32 19-33-38-13-40 8-3 11 8 20 17 24zm-64-8c21-35-21 10 0 0zm224-12c8-35-39-2-1 2zm-37-10c31 0 7-47-5-17 0 5-5 22 5 17zm-141-11c25 3 62-52 24-51-14 11-34 31-24 51zm-77-14c-7-16 19-35-6-33-16 7-14 36 6 33zm27-19c-4-11 25-41-2-28 0 3-6 38 2 28zm-18-31c23-17-21-1 0 0zm15-10c24-15-15-14 0 0z"/><path fill="#666c93" d="M369 583c-30 1-27-38-11-50 20-3 28-35 14-46-22 1-28 44-56 23-13-4-26-27-5-29-27-1-65 21-78-17-23-23-61-1-69 26-8 39-74-9-41-33 7-2 1-18 0-24-7-5-16-20-27-6-10 16-40 13-20 33 11 37-52 45-47 6-35-3-21-62 12-60 23 8 20-6 13-23 20 8 33 5 32-19 11-6 23-9 11-23 24-21 45 14 43 37-1 22 17 25 19 3 11-17 27-22 30-40 15-3 30-30 10-30-30 21-39-28-63-34-14 3-30 4-42-3-1 24-24 70-36 73 12-19 20-51-15-40-17 1-32-18-25-29-21-20 11-46 12-68 5-8 1-35-1-10-2 23-25 15-12-4 10-8-6-28 15-25 1 10 3-24 5-32-1-25 25-30 32-6 13 17 9 63 36 33-22-6-34-31-36-54-5-25 7-49 25-65 10-9 16-35 28-36-17 11-11 49 12 28 13 17 49 35 53 1 29 7-28 58 9 38 34-3 5 58 45 56 22 17 4 46 3 68-6 15 22 53 11 17-6-28-6-58 11-82 11 6 9 38 29 45 24 10 13 44 4 52-23-18 1 23-12 34-13 23-7 49 18 57 17 20-1-26 1-36-5-30 39-13 41-44-3-25 10-45 4-70 0 18-27 42-39 13-8-24-50-33-28-61 26-17 30-48 25-77-5-15 8-57 20-36-3 30-13 59-18 89 22 32 59-2 41-32 4-17-10-50 2-58 12 18 7 43 9 64 0 29-3 59 0 88l1 82c15 19 33-24 35-39 4-28 16 14-1 18-29 21-32 57-10 84 11 28-20 32-37 39-5 25 39 15 41 9 7 31 36 49 49 77 0 17-26 51-2 57 16-23 50 13 46 34-8 28-50 6-63 35-10 16-36 15-53 22Zm13-114c32-20-30-16 0 0zm3-28c21-4 8-31-3-13-1 5 1 9 3 13zm-224-10c27-29-30-11 0 0zm49-7c30-23-35-3 0 0zm-108-29c5-30-23 16 0 0zm238 3c27-16-18-8 0 0zm-116-16c19-9 7-24-6-9-2 4 3 7 6 9zm166-10c-8-24-9 23 0 0zm-107 2c23-12-3-22-10-5 2 4 7 4 10 5zm-41-17c10-5 18-37 3-14-10-5-25-10-10 4 3 2 3 11 7 10zm91-13c13-27-23-47-12-8 1 4 6 11 12 8zm-110-30c11-25-23 0 0 0zm112-17c40-15-8-61-12-13-2 8 2 23 12 13zm-116-3c20 0 37-53 11-33-9-16-36-15-23 8 1 9 0 24 12 25zm-118-42c18 15 19-29 0-9-19-26-6 28 0 9zm63-6c11-6 39-5 13-17-14-9-36 13-13 17zM49 223c19 1 34-44 6-27-20-18 15 34-16 21-4 6 6 8 10 6zm135-12c20 14 23-31 2-9-4 1-14 14-2 9zm-49-30c1-13 28 2 12-15-8-8-28 32-12 15zm78 4c0-15 11-35 9-44-12 4-32 46-9 44zm-25-5c-15-25 51-33 21-52-27-3-60 41-21 52zm-67-3c20-23-10-19-6 0l3 1zm227-17c14-28-41-15-11 0 4 2 10 8 11 0zm-37-10c18-3 25-31 2-27-11-4-15 40-2 27zm-136-13c21 1 46-34 28-50-21-2-52 40-33 51zm-81-13c-11-15 21-35-9-35-3-11 22-36 2-15-15 10-20 54 7 50zm26-12c-10-14 32-52 0-43-6 13-11 31 0 43zm-13-41c-1-21-19 20 0 0zm9-5c19-5 7-25-5-9 0 4 2 7 5 9zm109 43c-4-35-13-69-15-104 16-8 32 5 11 16-15 25 17 31 25 9-4-20 42-34 21-10-29 9-24 55-34 65-12 2-1 18-8 24zm63-2c-11 4-45-11-15-5 3 1 19 0 15 5zM144 35c-8-16 40-44 16-19-6 5-9 14-16 19zm42-7c-12-13 5-28 4-6-1 3 0 15-4 6z"/><path fill="#5e555e" d="M360 580c-25-8 4-37 2-48 33-7 9-73-12-32-9 38-75-10-39-19-14-17-54 31-68-7-18-27-72-25-70 13-12 26-64 16-57-15 19-29 28-64 47-93-3-21 39-13 23-33 25-1 29-52-1-31-26-13-47-51-80-37-6 3-13-17-14 1 2 21-9 41-30 29-31 8-51-26-48-53 8-14 32-63 17-63-2 10-17 41-16 14 13-21 34-61 52-63 7 13 16 22 6 2 6-6 14 31 1 38-3 15-26 8-27 5 1 14-13 49 14 30 14-16 34-46 45-52-36-15-44-63-28-94 15-15 43-54 43-59-13 14 2 61-31 45-15 8-3 28 4 8-21 10-29 66 6 54-9-16 17-33-11-34 7-11 34-26 23-2 0 13 8 35 14 11 9-21 19-53 47-33 11-1 28-9 13 6-18 20 7 16 19 10a92 92 0 0 0-38 45c-2 13-28 45-4 27 12 4 19 45 29 15 15-28 7 45 27 13 16-18 7-66-23-48-8 9-29 12-7 1 20-14 48-12 59 12 13 29-17 62 4 90 18 11 0-30 2-38-5-14 22-45 17-41-1 29 36 15 37 45 5 14-5 33-16 31 1 25-6 48-13 70 4 12 37 35 35 32 4-16-6-46-4-54 18-11 63-36 32-57 16-5 10-48 19-42 7 24-1 49 4 74 1 23 22 38 25 60 4 26-39 31-39 46 15 18 56-14 54 26 14 25 55 48 26 80-7 12 5 43 14 17 26-2 50 32 34 54-18 14-45 0-56 27-15 16-42 22-62 17zm27-113c17-29-34 1-7 1h3zm-144-8c0-16-46-24-18-6 5 4 11 7 18 6zm144-17c27-6-6-38-6-10-1 4-2 19 6 10zm-224-14c16-33-35 16 0 0zm187 4c-2-20-31-6-6-1zm-142-5c28-3-7-44-7-10-3 5 0 17 7 10zm78-3c-23-2-27-45-30-49 2 17 4 55 30 49zm55-24c35-30-33-2 0 0zm-118-13c24-3 2-41-4-14 0 4-4 14 4 14zm167-13c0-37-19 19 0 0zm-103-1c26-21-34-8-5 3zm-43-16c15-6 13-41-3-16-8-8-34-23-14-1 6 5 8 16 17 17zm88-12c9-21-10-52 17-65 4-42-48 11-31 34 1 10 0 32 14 31zm-109-29c18-31-34-6 0 0zm42-2c13-20-33-6-4 3l4-3zm-40-21c24 0 27-62 2-31-2-33-32-7-22 14 1 9 10 20 20 17zm140-5c17-27-24-6 0 0zM85 264c2-21 45 5 33-21-13-2-17-7-9-13-10 2-63 36-24 34Zm79-15c15-4 38-12 11-22-15-10-34 22-11 22zm33-35c13-10 14-35-6-19-18 10-15 25 6 19zm-46-28c18-30-41-9-18-3 10-23 15 11 18 3zm-30-7c19-5 14-46-3-20-4 6-8 20 3 20zm29-47c12-7 10-26-3-9-3 6-3 24 3 9zM47 492c-21-2-10-40-36-35-11-21 10-54 35-44 24 2 14-42 40-24 12 16 23 0 10-8-28-10 21-30 13-42 27-1 36 30 34 52 6 30-23 49-41 34-15 11-48 17-27 41 3 16-12 33-28 26zm281-286c-25-15-32-56-1-67 22-14-29-17 0-29 17 2 39 42 28 41-7-19-45-8-19 8 28-1 9 46-8 47zm-33-41c-2-10 11-51-10-28-6 8 4 33-4 10-2-28 44-45 32-78-1-17-7-64 14-57-3 39-16 77-19 116l-13 37zM40 146c-19-21 40-36 13-10-3 3-6 15-13 10zm319-37c-4-27-4-54-1-81 6 26 6 54 1 81zM224 96c-10-37 22-68 49-88-24 22-36 55-46 78-1 1-2 11-3 10zm-95-38c-5-11 2-27 15-12-23-4 1 15-15 12Zm84-34c-1-17 33-22 9-5-1 3-8 13-9 5z"/><path fill="#9f162b" d="M369 582c-28-5-9-46 3-53 11-13 13-60-13-36-12 19-54 29-52-1 22-33-31-8-43-4-28-1-22-62-52-47 24 29-31 2-35 28-5 23-30 45-48 22-22-10 5-41 9-60 9-22 20-45 32-65 11-4 36-3 17-19 19-2 37-43 8-35-29 13-58-37-29-54-16 25-74 33-75-4 14 13 39 4 27-16-19 2-11-6 0-13-18 3-66 33-29 43 5 19 0 54-25 39-31 8-48-21-50-47 2-33 38-32 56-49 5-17 29-38 33-42-27-21-47-64-26-96 14-24 38-41 49-67-25 8 1 69-33 50-12 2-13 30-3 10-13 20-28 49-1 64 12 28 8-22 11-30 11-22 16-6 17 9 18-16 15-56 46-50 13 4 38-5 19 13-12 26 16 4 22 7-25 17-46 39-48 71-23 18 16-13 16 13 0 20 11 33 17 7 12-30 21 13 5 21-8 18-45 39-34 56 20 7 39-10 22-26 19 13 24-23 35-37 13-19 15-72-19-54-13 6-33 18-12 1 27-22 76 8 59 42 0 21-7 51 12 66 8-12-12-43 8-57-27 17 4-33 5-26 3 10 6 25 12 14 17 9 34 32 18 42 4 12 0 31-12 12 2 26 3 56-16 76-9 8-34-4-17 13 18-2 64-2 44 28-13 6-36 31-15 36 12-18 21-45 47-32 19-5 25 33 4 12 13 35 65-22 67 23 5 28 45 41 36 72-9 10-20 42 0 42 8-28 42 4 44 23 6 39-44 15-59 42-15 12-34 23-54 23Zm32-89c-2-24-25 9 0 0zm-18-20c14-15 3-40 19-55 6-16-9-27-13-6-2 17-29 53-6 61zm-225-36c24-10-1-35-9-13 0 4 3 19 9 13zm193-3c6-15-33-33-2-40-13-30-36 48-2 41zm-146-1c31 0 4-55-4-18-2 5-5 18 4 18zm83-6c-11-13-32-17-27-40-3-14-12-27-5-4 3 17 8 49 32 44zm-64-40c12-19 32-36 35-59-18 21-41 0-36-23 1-18 49-45 16-54-16 13-25-32-33 1-6 26 11 50 13 76 31 14-17 46 5 59zm167-9c9-36-30 3 0 0zM141 193c35-7-16-50-13-9 7 5 22-22 13 1 0 1-4 10 0 8zm-16-18c26-9 0-47-9-14-5 8-3 31 9 14zm25-41c15-7 5-33-3-9-4 6-3 24 3 9zM50 492c-27 5-3-35-31-29-25-19 7-67 33-48 10-18 35-36 47-13 14-4 11-39-5-23-5-28 34-56 44-19 7 22 9 56-13 67-13-10-17-8-30 2-23 5-36 24-20 43 1 14-13 22-25 20zm309-151c-33 2-28-40-13-58 24-21-21-31-23-4-11 15-4 45-11 54 4-18-1-39-4-53 15-16 53-25 44-52-13-13 7-35 5-54 10 22 2 47 6 70 1 23 13 42 23 62 6 18-5 43-27 35zm7-52c11-17-11-23-10-3 2 2 7 3 10 3zM30 218c5-19 2-72 35-54-22-6-3-39 7-14 15 23-14 53-27 41-2 10 3 33-15 27zm-15-2c-10-18 28-38 10-9 1 5-3 16-10 9zm312-11c-29-16-21-55 3-72 13-8-27-10-5-23 21 0 33 35 34 42-10-15-49-14-24 7 3 21 22-8 14 11-4 13-4 35-22 35zm-33-42c-7-12 21-41-7-36 31-19 25-59 25-89-8-17 22-42 14-12-5 30-15 60-16 90-2 17-8 33-16 47zm-7-3c-14-7-4-41-3-10 0 3 14 17 3 10zM37 142c-5-15 33-32 10-12-10 17 26-13 5 7-3 2-14 16-15 5zm322-33c-4-27-4-54-1-81 6 26 6 54 1 81zM224 96c-10-37 22-68 49-88-24 22-36 55-46 78-1 1-2 11-3 10zM85 91c-2-19 49-25 17-9-5 4-12 6-17 9zm44-33c-9-11 14-28 17-10-32-23 5 14-17 10Zm84-34c-1-17 33-22 9-5-1 3-8 13-9 5z"/><path fill="#34364a" d="M369 582c-28-5-9-46 3-53 11-13 13-60-13-36-12 19-54 29-52-1 22-33-31-8-43-4-28-1-22-62-52-47 24 29-31 2-35 28-5 23-30 45-48 22-24-13 11-46 13-67 10-22 19-45 38-61 22 6-1-36 27-28 16-22-15-31-31-23-26-5-25-51-11-52-16 19-50 29-69 9-5-10-9-24 2-9 21 6 33-31 7-23 16-13 8-14-5-5-15 6-42 32-11 36 14 26-21 45-43 40-25-2-31-35-31-55 9-35 60-25 66-60 6-29 46-9 53-26-5 15-8 25 8 12 1 32 15-14 19-24 23-3-1 44 26 25 3-9 12-29 13-7 0 29-29 42-44 65 0 21 45-7 48 23 11 22 4 51 19 70 18 15-20 46 6 54 6-18 35-40 25-55-32 25-42-37-16-51 28-12 5-36-15-33-11-8-53-5-35-24 24-11 32-43 42-65-3-13-1-34 12-15 16 26-10 60 7 89 21 22-1-22 10-33 9-12 10-55 15-23 13-1 39 13 32 31-13-1 3 42-18 19 2 25 3 55-16 75-8 8-34-2-15 14 18 1 57-9 46 24-11 10-44 34-16 40 10-17 9-46 37-32 20-4 31 24 14 16 20 19 71-18 69 29 20 21 47 54 20 82-7 20 16 28 19 10 23 2 45 30 33 52-20 12-49 8-64 31-13 11-31 13-46 16Zm32-89c-2-24-25 9 0 0zm-18-20c14-15 3-40 19-55 6-16-9-27-13-6-2 17-29 53-6 61zm-225-36c24-10-1-35-9-13 0 4 3 19 9 13zm193-3c6-15-33-33-2-40-13-30-36 48-2 41zm-146-1c31 0 4-55-4-18-2 5-5 18 4 18zm83-6c-20-7-30-55-34-53 3 18 6 61 34 53zm-47-33c9-10 1-28-6-8-1 3 1 16 6 8zm150-16c9-36-30 3 0 0zM50 492c-27 5-3-35-31-29-25-19 7-67 33-48 10-20 35-33 48-14 22-11-8-33-7-30 12-18 18-45 39-19 16 22 16 57-3 76-18-9-34-7-47 8-34 8 16 54-26 56zm309-151c-33 2-28-40-13-58 22-16-8-35-19-13-7 10-6 32-18 12 11-20 49-22 47-50-7-11-17-11-6-26 8-13 9-37 12-10 4 31-2 62 0 93 21-21 30 29 22 45-4 10-16 12-25 7zM32 216c-10-16 22-34 13-9 0 3-12 20-13 9zm-17 0c-10-18 28-38 10-9 1 5-3 16-10 9zm312-11c-24-8-30-72 6-48 19 11 19 45-6 48zm-272-8c-17-16-5-38 7-38-10-38 35 23 3 30l-10 8zm37-32c-4-14-25-38-14-47 10 4 20 39 19 9 11-11-12-27 10-32 5-22 11 36 17 3 16-10 13-61 41-35 8 14 24 31 40 16-15 21-48 26-58 51-5 17 24-6 11 14-4 11-25 18-24 0-13 8-25 24-42 21zm144-87c-31-7 13-14 0 0z"/><path fill="#191612" d="M362 579c-18-23 28-47 32-50-27 4-17-48 7-36-18-17-3-34 13-33-14-8-23-19-10-31 7-40 62 14 26 28-17 26 17 51 38 37 34 16 0 66-29 47-14 30-48 35-77 38zm-34-67c-33-2 14-51-22-40-20 17-60 15-60-18-31-1-34-60 1-55-10-10 5-46 8-16-7 17 25 65 33 34-34-12-35-60-26-90 16-25 64 5 25 16-15 13-16 61 12 53-29-13 17-58 34-39 19 22-3 48-13 68-6 15-8 12 1 1 12 2 41 25 34-2-23-18 8-69 31-45 18 31-21 61-15 94-12 12-21 44-43 39zm-186-10c-24-18-18-64 15-66 30-2 7-45 14-64 5-17 33 2 21-20 9-29 46 11 25 28-19 21-16 58-11 73-31 0-35 33-51 49-4 2-9 2-13 0zm-93-11c-25 3 9-43-22-28-17 5-17-32-5-12-1-21 11-43 34-37 12-13 40-33 44-2 4 29-57 23-27 55 3 14-10 29-24 24zm69-65c-10-20-15-49-15-67 21-37 46 13 38 37 4 17-12 25-19 26 2 4-2 12-4 4zm241-87c-26 8-33-48-9-34 21-38 57 27 20 36-4 0-7 0-11-2zm-126-5c-19-9-2-57 9-25 4 8 7 34-9 25zm-49-23c-36 0-33-51-5-61 25-6 38 30 29 50-4 9-15 16-24 11zm-146-6c-16-7 0-33-18-37 2-34 40-44 61-63 13-19 30-41 46-10 13 0 12-25 15-2 15-1 21-58 29-21-3 25 20 17 21-2 12-5 5 32-10 27-1 24-40 35-25 61-12 39-61 2-30-22-18 3-3-25-19-8-9 4-39-1-24 16-16 1-30 36-4 25 24 17-2 47-24 33-6 2-12 6-18 3zm218-6c-31-19 23-45 9-70-27-25 21-32 20-52 10 4 22 21 11 22 2 13 3 19-6 6-11 28 7 63-14 88-5 5-13 6-20 6zm-30-51c3-22-51 0-24-22-8-38 55-42 47-2 7 28-23-17-17 8 8-9 5 28-6 16zM34 217c-11-16 21-35 8-11l-8 11zm295-12c-29-4-20-71 8-41 5 13 15 23 0 38-1 2-5 4-8 3zM56 194c6-14-27-27 3-30 22-2 7 27-3 30zm181-7c-28-22 32-18 0 0zM64 160c-16-12 5-22 9-5-2 4-6 4-9 5zm44-1c-19-30 28-51 31-81 8-38 49 0 33 22-10 16-44 12-31 35-5 14-23 16-33 24Zm-2-47c-9-18 16-18 6-2l-2 1z"/></svg>