<svg xmlns="http://www.w3.org/2000/svg" width="32" height="32" viewBox="0 0 93 141"><path style="fill:#4f3d4b;fill-opacity:1;stroke-width:0;stroke-miterlimit:4;stroke-dasharray:none" d="M39.5 139.47116c-2.2-.79257-5.267084-1.44782-6.815741-1.4561C28.230218 137.99124 16 129.49506 16 126.42471c0-.69422-1.575-2.7478-3.5-4.56351-1.925-1.81571-3.500355-3.76477-3.5007889-4.33125-.0004339-.56647-1.3504339-3.88285-3-7.36974C4.349645 106.67333 3 102.53739 3 100.96923c0-1.568158-.4005559-3.098753-.8901241-3.401323C-2.5712415 94.674817.5197795 70.251586 6.57115 62.31783 7.9070175 60.566418 9 58.67578 9 58.116412c0-.559367.5688028-1.376892 1.264006-1.816722.695204-.439829 3.057704-3.195405 5.25-6.1235 4.567233-6.100131 13.451223-13.800957 18.279505-15.845053 1.811431-.766885 3.547076-2.055117 3.856989-2.862737C37.960413 30.66078 38.775122 30 39.460966 30c.685844 0 2.547865-1.2375 4.137824-2.75 6.328394-6.020087 8.636915-7.25 13.6081-7.25 4.81833 0 4.81833 0 7.161381-5.25C70.939551.0259398 70.957562 0 74.610127 0c3.843744 0 4.24202.9188422 1.481248 3.4173067-1.049744.950005-2.458632 3.1572494-3.130864 4.9049875-.672231 1.7477378-2.06335 5.0072818-3.091375 7.2434298C67.361672 21.019933 67.503012 22 70.797052 22c5.665451 0 12.18044 9.779785 12.197371 18.309726.0031 1.54535 1.900432 8.29535 4.216365 15 4.456924 12.902839 6.319946 36.819717 3.177099 40.786579-.611661.772032-1.42843 2.753695-1.81504 4.403695C82.627886 125.87229 57.388851 145.91585 39.5 139.47116Z"/></svg>