<svg xmlns="http://www.w3.org/2000/svg" width="32" height="32" viewBox="0 0 53.439999 75.839996"><path d="M23.448589 75.63267c-.296787-.05076-.870738-.212216-1.275446-.3588l-.735835-.266515-3.135596-.024775c-3.786784-.02992-4.354943-.133732-5.547249-1.013567-.242826-.179188-.883002-.621982-1.422614-.983987-1.6346518-1.096626-3.131665-2.623089-4.2240542-4.307151-.4448244-.685755-2.9704084-5.367806-3.9552023-7.332345C1.7695524 58.586538.7837658 55.968106.4905772 54.274724c-.834192-4.818083-.120992-10.043598 1.8769284-13.751987.3820846-.709197.5999152-1.058745 2.2333742-3.583851.9139805-1.412891 2.1658484-3.094303 3.5427861-4.758396 1.8712441-2.261486 3.8747551-5.52881 6.3189211-10.304892 1.43676-2.807534 2.048855-3.757342 3.666542-5.689501 1.05068-1.254926 2.779786-2.897002 3.880054-3.684759 1.054313-.754856 2.723033-1.615571 3.691223-1.903911 1.143106-.340431 1.643774-.9229028 1.54078-1.7925246-.102781-.8678303-.527063-1.6026702-2.421345-4.1936736-.678129-.9275464-.681434-.9351686-.68295-1.5750443-.0028-1.163851.651931-2.06865 1.929357-2.66643 1.134488-.530891 2.367519-.4754122 3.114269.140123.354345.2920807.743414.918934.743414 1.1977591 0 .080121.192332.3259416.427404.5462688 1.000434.9376825 1.268351 2.1182338.737585 3.2501001-.143651.306337-.55104.8604238-.920858 1.2524493l-.663233.703062.06521.5548538c.171171 1.4563982.931989 2.2314594 3.075973 3.1335604 2.513815 1.057711 2.97574 1.325406 4.155925 2.408446 1.4866 1.364233 2.4845 2.520528 3.530613 4.091021 1.449716 2.176408 2.773804 5.024531 4.065318 8.744528.813746 2.343864 1.516578 3.749707 4.071097 8.143234 4.131327 7.105484 5.007767 9.747654 4.877439 14.703821-.09006 3.424926-.900456 6.662667-2.523603 10.082473-1.062753 2.23911-1.484342 2.845846-3.742838 5.386553-2.637047 2.966561-4.222467 4.792628-5.799829 6.680173-1.555536 1.861427-2.036742 2.28634-3.262028 2.88043-1.069886.518744-1.825152.733949-3.156131.899308-.895064.111201-2.764051.05262-3.564489-.111729-.926505-.190229-2.271661-.113168-4.091221.234378-2.005738.383108-2.99257.47295-3.757679.342103z" style="fill:#bccc52;fill-opacity:1;stroke:#bccc52;stroke-width:0;stroke-miterlimit:4;stroke-dasharray:none;stroke-opacity:1"/></svg>