<svg xmlns="http://www.w3.org/2000/svg" width="32" height="32" viewBox="0 0 317 283"><path fill="#e0d3a2" d="M143 281c-25-1-50-8-72-18-23-11-39-32-52-53-17-27-18-61-17-93 3-21 6-45 18-64 4-16 16-30 31-37C67 2 90 4 110 2c17 1 32 8 48 10l57 23c17 7 32 17 46 30 15 11 31 24 41 40 8 16 14 35 13 53 1 19-12 33-23 46-11 15-23 30-38 42-14 8-28 18-43 24-17 3-32 11-49 11h-20z"/><path fill="#bac156" d="M137 280c-22-2-43-9-63-17-23-10-40-31-53-52-17-27-18-59-17-89 1-25 7-49 18-71 7-21 26-34 45-43 17-2 34-6 51-4 21 6 42 9 62 18 28 10 57 23 79 43 20 15 41 32 49 56 6 18 10 39 2 57-10 16-22 30-33 44s-24 26-41 33c-16 12-35 16-54 22-14 4-30 4-45 3zm54-150c21 7 18-22 6-30-14-9-31-13-45-24-12-6-17 11-24 17 11 2 3 19 17 21 15 2 24 13 38 16h8z"/><path fill="#c9a359" d="M137 280c-22-2-43-9-63-17-23-10-40-31-53-52-17-27-18-59-17-89 2-23 6-46 17-66 5-16 14-31 30-39C64 6 82 5 98 5c16-6 32 3 48 6 21 4 39 13 58 21 19 7 37 16 51 30 16 11 30 23 42 38 14 21 21 50 14 75-9 17-22 32-35 47-10 15-24 26-41 34-18 12-40 17-62 23-12 1-24 2-36 1zm67-84c1-7 17 4 23 0 7 2 3-9 10-12 3-10 22 10 15-5-6-5-19-22-22-18 12 3 5 23-3 11-4-7-10-13-8-1-7 7-16-28-16-10 6 5 1 22-5 9 0-5-12-27-10-10 0 7 7 33-2 16-5-6-7-27-10-24-3 13-7 39 9 43 0-14 7 8 16 3 2 1 8 1 3-2zm-48-11c20-7 2-31 10-47 4-22 26 5 39-9 10-12-7-36-23-37-14-3-30-23-41-17-10 8-27 22-8 32 7 13 34 7 31 24-2 8-4 35-16 25 1-5-1-24-5-10 0 8-18 30-16 10 0-8 17-33 2-17-10 3-17 19-24 18-7-11 16-24 15-29l-30 20c-4-4-9-12-6-1 2 10 19 1 18 14 12 5 26 5 34 17 8 1 10 11 20 7zm119-20c-5-11-27-20-31-17 7 8 21 16 31 17zM52 88c9-4 31 2 33-4-13-1-26-5-38-9-1-14 17-3 25-3 6 2 23 11 22 6-5-2-23-16-8-10 12 2 12-12 5-16 11-7-14-22-21-16 3 9-12 14-11 2-2 2 0 10-5 3 3 13-30 10-20 18 6 2-8 14 6 13 2 1 3 17 12 16Zm131-29c9-3 12-11 2-12-8-8-12 19-2 12Zm-67-7c-7-5-18-29-26-16 10 6 21 12 29 21l-3-5Zm55-1c12-9-14-20-15-5 9 0 4 18 12 6l1-1zm-35-5c1-8-13-31-15-15 5 4 13 24 16 18zm-12 2c-5-6-18-28-22-18 6 5 19 18 22 18Z"/><path fill="#acab4f" d="M137 280c-21-2-42-8-61-17-16-8-29-20-40-34-8-13-18-26-23-40 7-14-11-33 8-38 9-5-5-8-7-1-13 3 23-26 3-18 0-5 22-10 10-22-11-7-8-20-5-29-4-18 2-39 15-52C51 19 64 7 82 6c15-1 30-4 45 1 35 8 70 20 102 37 18 11 35 25 51 39s28 32 31 52c5 18 4 39-9 54-14 20-30 38-47 55-15 9-30 18-46 25-19 3-37 13-56 11h-16zm67-84c1-7 17 4 23 0 7 2 3-9 10-12 3-10 22 10 15-5-6-5-19-22-22-18 12 3 5 23-3 11-4-7-10-13-8-1-7 7-16-28-16-10 6 5 1 22-5 9 0-5-12-27-10-10 0 7 7 33-2 16-5-6-7-27-10-24-3 13-7 39 9 43 0-14 7 8 16 3 2 1 8 1 3-2zm-48-11c19-6 3-27 9-42 1-9 8-15 15-7 12 4 20 0 31-5-2-16-8-37-27-39-16-6-30-19-47-23-5 7-12 19-18 22 3 8 12 16 8 26 2-8 14 5 13 5-6 16-22 24-32 36-10-7 6-22 13-29-5 2-23 11-29 20-5-2-11-15-8-2 2 10 19 1 18 14 12 5 26 5 34 17 8 1 10 11 20 7zm-28-21c-2-15 7-34 19-42 7 10-5 24-8 35-3 3-7 12-11 7zm22-5c-5-8-1-33 9-29 3 9 5 32-9 29zm125 6c-5-11-27-20-31-17 7 8 21 16 31 17zM52 88c9-4 31 2 33-4-13-1-26-5-38-9-1-14 17-3 25-3 6 2 23 11 22 6-5-2-23-16-8-10 12 2 12-12 5-16 11-7-14-22-21-16 3 9-12 14-11 2-2 2 0 10-5 3 3 13-30 10-20 18 6 2-8 14 6 13 2 1 3 17 12 16Zm131-29c9-3 12-11 2-12-8-8-12 19-2 12Zm-67-7c-7-5-18-29-26-16 10 6 21 12 29 21l-3-5Zm55-1c12-9-14-20-15-5 9 0 4 18 12 6l1-1zm-35-5c1-8-13-31-15-15 5 4 13 24 16 18zm-12 2c-5-6-18-28-22-18 6 5 19 18 22 18Z"/><path fill="#a4a623" d="M136 279c-19-1-38-8-56-15-26-12-45-34-58-58-12-11-5-26-9-39-4-10 9-16 11-20-3 0-17 6-9-3 4-2 14-20 2-11 6-9 22-14 8-25-8-8-7-18-1-26-5-14-4-28 5-41 7-16 24-24 39-31 16-4 34-6 51-5 23 6 47 11 70 22 24 8 47 19 66 37 24 17 48 37 54 66 7 22 5 48-12 64-14 19-28 37-46 52-18 9-35 22-56 26-18 5-37 9-56 7zm61-79c10 3 7-6 7-7 11 6 27 1 33 2-5-11 9-18 15-7 11-10-18-20-10-26 6 4 22 21 24 11-10-11-27-16-35-30 10 2 19 20 34 19 4 3 14 7 8-3-3-5-23-10-18-15 5 4 28 10 15-1-15-8-33-9-44-22-7-7 14-8 2-16-9-3 4 8-7 7-16 3-14-20-30-21-9-7-33-7-27-23-3-8 12-18 10-5-5 11 6 10 7 0 9-9 9 10 9 7 7-7 21-1 7 5-6 4-7 18 2 7 4-7 26-16 17-2-13 12 10-2 14-5 8-3-5-12-6-10-6 11-2-12-14-7-7 3 3-8-9-6-6-7-15-3-19-14-5-6-15 4-15-8-8-11-12 12-7 10-12 10-11-8-8-14-8-3-21 2-24-7-12-2-8 27-15 10-10-11 9-3 9-14-5-1-8 7-13-2-10-5-18 18-24 2-8 3-9 20-19 18 7-13-13 6-17 11-5 8-20 1-20 15-2 9 7 14 7 19 8 3 14 18 25 10 15-4 37 8 47 2-6-3-14-8-2-4 9 2 28 19 10 19-7 0-17 7-4 4 17 1-14 19-18 12 3-6 11-13-2-11-12 2-25 6-38 5-10-13-13 14-1 9-3 14 15 13 18 26 8 5 25 2 22 16 14 0 29 5 42 13 10 14 32 10 35-8 5 0 4 29 17 26 3 1 6 4 10 3zm-5-50c-10-19 27 1 14 2-6-7-9 0-10 2l-4-4zm-61 1c6-7 8-29 17-25-4 7-8 24-17 25zm-15-8c1-8 16-25 21-19l-21 19zm-28-1c5-11 25-17 31-20-7 9-20 19-31 20Zm23-58c-8-4-27-12-10-19 8-4 28 12 12 13 9 5 9 10-2 6zm-23-1c-13-3-35-2-41-13 15-4 30 6 44 13 10 2 1 2-3 0Zm188 53c-8-11-32-13-38-10 11 7 25 12 38 10zm-5-13c4-15-30-6-23-4 7 1 15 8 23 4zm-7-12c4-12-18-4-24-6-13 4 13 1 16 6h8z"/><path fill="#975e1d" d="M136 279c-19-1-38-8-56-15-26-12-45-34-58-58-12-11-5-26-9-39-5-10 11-16 11-20-4 1-17 6-9-3 5-2 15-21 2-11-1-11 19-7 12 3 5 5 16-2 8 8-3 5-11 12-1 7 4 17 16-13 25 2 9 11 21 17 34 22 13 2 23 11 36 17 16 3 31 15 47 18 12 6 27 2 40 6 26 0 55-2 74-22 7-3 11-24 16-20-5 19-22 33-33 49-11 11-21 24-36 30-16 10-33 18-51 20-16 8-35 6-52 6zm170-116c4-10-3-32 2-35 3 10 11 32-2 35Zm-74-40c-21-4 12-17 10-2-2 4-6 3-10 2zm-137-3c1-12 35-12 14-2-4 1-11 9-14 2zm117-9c-6-13-18-21-31-25-7-1-27-12-13-18 5 12 17-9 16 7 0 11 12 14 21 6 9-3 0 16 13 9 9-2 17 6 5 9 2 6-2 16-11 12zM86 101c-12-10 28-8 18-2-6 2-12 3-18 2Z"/><path fill="#734f22" d="M136 279c-16 0-30-7-44-11-16-3-17-21-13-33-2-11 11-10 11-8 0-16 8 3 9 7 1-5 0-12 5-4 0 6 1 19 6 6-2-7-19-20-8-24 0 8 4 13 10 16 1-9 13-12 8 0 1 1 18 8 6 10-16-1 9 11 8-2 10 2-7 13 6 18 11 6 15-8 6-12-1-9 2-15 7-4 3 8 11 9 5 0 0-7 6-9 1-1 11 13 26 4 39 14 12-6-17-5-1-12 7-6 10 7 14-3 3 12 25 5 35-2 15-10 7 20-6 17-14 10-30 19-47 21-17 7-34 8-51 7h-3zm-43-20c-13-5 2-23 4-7 2 21 11-15-2-10-1-10-11 1-15 4-3 9 8 4 9 13l2 1zm121-151c-12-8 0-27 12-16 9 4-9 7-4 14-1 3-6 7-8 2zm-39-25c-5-3-18-12-7-15 2 15 18-9 16 7-1 4-5 11-9 8z"/></svg>