<svg xmlns="http://www.w3.org/2000/svg" width="32" height="32" viewBox="0 0 465.9 503.5"><path fill="#d5d8c5" d="M2 496c-9-23 18-40 28-58 9-23 45-29 42-57a209 209 0 0 1 2-199c37-61 110-93 180-90 24-3 49 10 73 5l64-50c21-11-5-10-4-20 25 1 40-17 62-25 27-11 15 20 1 28-20 18-47 30-57 56-13 21-28 45-17 70 9 21 20 40 25 63 9 23 8 49 6 73-3 47-31 88-62 121-16 18-39 26-58 39-50 24-111 16-156-13-24-9-42 21-64 30-14 15-24 44-51 31l-14-4z"/><path fill="#cbd0ac" d="M2 495c-7-26 23-43 34-64 11-20 50-31 33-59-23-45-28-98-12-146 10-42 37-78 74-100 50-33 114-41 172-29 28 12 43-17 63-30 11-9 51-29 22-37 8-9 33-2 42-19 11-2 46-23 33 4-18 22-45 35-63 57-12 25-35 48-27 77 9 27 24 51 30 79 8 26 4 52 2 78-7 36-27 67-50 95-23 24-52 43-83 56-46 17-99 8-140-19-25-10-41 21-63 28-16 15-24 47-52 33-5-1-10-1-15-4zm342-153c16-8 11-28 24-39 10-20 12-45 11-65-6 30-24 55-32 84 0 3-7 23-3 20zm-107-38c7-9 11-19 23-26 4-27 23 4 22 9 2-8 26-33 19-15 18 10-6 38 2 43 14-18 15-46 14-67-1-24-23-35-24-58-11 3-21 7-17 22-12 12-18 33-25 46-3 14-16 24-18 37-8-4-14-4-21-10-14 11 11 15 11 16 2 8 8 9 14 3z"/><path fill="#c8cc94" d="M2 494c-7-24 20-39 31-58 8-23 47-29 39-58-21-41-31-90-19-136 6-25 12-51 29-71 34-46 89-74 146-78 30-4 59 3 89 6 26-2 40-31 64-42 11-9 33-24 6-27 12-6 33-6 44-20 12-1 45-23 32 4-18 24-48 36-65 61-12 25-36 50-24 79 9 23 22 45 27 69 10 29 6 61 2 91a210 210 0 0 1-100 127c-51 35-122 30-172-3-26-7-46 23-68 34-11 20-27 39-52 26-2-1-7 0-9-4zm302-99c21-14 32-35 49-52 12-15 15-31 21-50 12-13 7-42 8-63 0-10-9-33-10-10 2 18-2 36-13 49-4 23-15 16-35 19 0-10 11-16-2-10 3-11 6-21 1-35 0-15-18-25-19-43-3-17-27-23-28-4-12 7-5 20-17 24 1 10-11 23-14 9-6 4-6-8-12 1 7-10-11-11-1-25-11-9 24-42-5-44-13-4-20-1-14 13-3 28-29 36-41 59-15 1-12 24-1 12-3 19 11 20 20 10 1-8 13-29 15-14 7-3 27-15 23 4 8 7 18 32 1 18-9-13-31-3-19 11-19 4-11 24-3 30-8 15-7 28 10 29 7 12 16-18 21-14-5-9 20-12 18-27 5 10 9 11 13 7-5 8-7 12 2 23 20 5-4 28-4 35 6-16 46-9 25 4-4-17-2 4 0 9 0 8 11 12 0 21 0 6 8 7 11 4zm11-26c-17-9 16-3-1-14-13-13-17-30 0-39-1-16 5-4 11-11 5 2-3 23 12 27 1 12-25 21-9 34-1 5-10 7-13 3z"/><path fill="#bac6a4" d="M2 494c-7-24 20-39 31-58 8-23 47-29 39-58-21-41-31-90-19-136 6-25 12-51 29-71 34-46 89-74 146-78 30-4 59 3 89 6 26-2 40-31 64-42 11-9 33-24 6-27 12-6 33-6 44-20 12-1 45-23 32 4-18 24-48 36-65 61-13 25-37 52-23 81 10 23 20 45 27 69 5 21 7 42 3 63 1 23-8 47-19 67-16 28-35 55-61 73-27 16-54 34-86 36-39 5-79-8-112-28-25 1-46 25-67 39-11 28-32 33-58 19Zm289-89c20-10 35-30 49-47 14-13 24-29 28-46 9-21 14-35 15-59 0-19-2-42-10-58-4 15 0 37-11 53 7 14-7 36-14 37-7 4-37 4-18-8-5-2-12 4-5-7-3-10 5-26-5-36-6-14-17-29-18-45 1-20-18-28-18-7a75 75 0 0 0-19 34c-7-1-12 33-20 13-15 1 6-19 8-22 6-10 7-25 6-40 0-11-10 7-11-7-8-11-30-5-27-20-23-14-36 7-46 22 20-7 42 15 20 30-14 12-27 23-39 39-14 5-28 9-11 23 4 12-3 23 5 33-8 4-17 26 0 13 17-2 42 22 53-2 15 9-5 29-18 28 7 13-7 35 7 34 12-2 21-11 27-23 4-2 8 12 11-5-4-13 17-8 7-18 16 1 18-35 29-11 6-11 3 4-1 5 0 16 29 22 5 30-1 16-22 20-33 32-22 3 9 19 6 18 14 4 15-32 35-29 7-5 8 9 6 11 17 17-9-23 12-22 11 7-6 18-5 6-4 16 13 25 3 41 1 4-17 14-3 10zm28-47c-14-10-24-29-8-40 5-2 3-20 9-9 12-14 2 14 12 19 10 11-10 26-13 30z"/><path fill="#b7c592" d="M4 496c-11-25 23-45 33-65s45-28 35-55c-32-57-31-130 0-187 22-41 61-71 105-85 43-15 90-14 134-5 27 5 40-26 62-36 12-9 44-27 14-34 22-1 40-17 60-24 24-17 20 13 4 22-21 20-49 33-60 61-17 23-28 54-11 81 14 27 23 56 27 86-1 22 0 44-7 65-6 29-25 53-42 77-27 29-61 51-98 63-42 9-89 4-126-21-21-14-40 16-59 23-22 7-23 46-50 38l-21-4zm287-91c26-8 45-25 59-45 15 2 7-17 21-8 7-21 7-44 14-66-1-27 5-54-5-80-9-32-11 13-12 24 0 13-8 14-13 13-13 16 2-13-10-11-6 3-13 13-15 1-9-7 15-8-2-9-6 8-20-12-8-14 1-17-6 7-11-9-10-11-10-45-25-27-9 6-17 22-25 21-2-15 4-37-9-31-8-14-30-11-32-26-22-9-34 8-43 24 20-6 42 15 20 30-14 12-27 23-39 39-14 5-28 9-11 23 4 12-3 23 5 33-8 4-17 26 0 13 16 0 36 13 52 11-9 15-21 16-15 36-5 9 1 20 12 10 10 5 15-25 28-17 10 0 32 5 35-7-9-16 19-11 2-4 10 4 10 1 2 12 3 15-23 22-34 30-8 14 21 30 26 6-3-15 19-21 21-5 18-5-3 16 11 22 12 6-15 14 1 11z"/><path fill="#c6c96b" d="M4 496c-12-23 20-42 30-61 10-22 50-32 37-61-15-29-23-62-23-94 1-34 10-68 27-98 32-51 90-83 150-88 32-5 63 3 95 6 26-8 43-35 68-49 11-7 22-19 1-20 3-9 33-3 40-20 11 0 45-24 33 4-19 23-47 36-64 59-12 25-36 51-24 81 8 21 20 41 25 65 7 21 10 43 6 65 1 36-17 69-37 98-13 19-30 36-50 48-22 13-45 29-72 31-42 9-85-6-121-28-21 3-37 22-56 32-17 14-25 48-54 33l-11-3zm286-88c22-2 23-12 44-15 7-6 19-7 15-20 17-3 28-14 30-29 6-27 10-56 10-84-2-25 1-51-14-73-6-18-15-12-13 4-7 12-25 30-36 12-15-5-24-19-33-37-8-16-27-3-41-7-12-6-36-6-28-22-15-3-41-21-50-4 14-2 5 14 2 11-4-1-11 29 10 18 30 0 16 33-2 40-17 11-27 35-50 39-6 6 17 7 11 23-3 10-11 20 3 16 9 11-20 18-3 28 13-18 25 14 30 13 13 2-5 15 10 20-4 10 1 19 6 22 11-2 28 10 24-3 4-8-17-1 1-7 14-3 7 13 20 8 0 9-18 16-12 4-22 9 7 22 11 30 17 5 32-26 39-8 9 4-3 29 16 21z"/><path fill="#acb889" d="M4 496c-12-23 20-42 30-61 10-22 50-32 37-61-15-29-23-62-23-94 1-34 10-68 27-98 32-51 90-83 150-88 32-5 63 3 95 6 26-8 43-35 68-49 11-7 22-19 1-20 3-9 33-3 40-20 11 0 45-24 33 4-19 23-47 36-64 59-12 25-36 51-24 81 8 21 20 41 25 65 7 21 10 43 6 66 1 32-14 63-32 89-13 21-31 40-51 54-24 14-47 31-76 33-42 9-85-6-121-28-21 3-37 22-56 32-17 14-25 48-54 33l-11-3zm285-88c22-1 22-12 42-14 8-7 22-6 18-21 17-3 28-14 30-29 6-27 10-56 10-84-2-25 1-51-14-73-6-18-15-12-13 4-7 12-25 30-36 12-15-5-24-18-29-38-10 0-12-14-24-4-22 2-22-18-43-16-11-14-45-27-56-12 14-2 5 14 2 11-6 3-2 31-17 35-10 11-13 26-4 33 3 13-13 30-19 14-18 19 25 31 4 52-8 10-15 55 5 29 13-16 25 15 30 14 12 2-4 15 9 21-1 12-27 43-1 26 12-13 36 8 33-9-1-6-16-1 0-6 14-3 7 13 20 8 0 9-18 16-12 4-22 9 7 22 11 30 17 5 32-26 39-8 9 3-3 29 15 21z"/><path fill="#b5c26a" d="M4 495c-8-27 23-42 33-63 11-20 50-32 33-61-25-46-27-101-11-150 18-66 81-113 147-124 33-6 67-5 100 3 28 8 43-23 64-35 15-10 46-28 19-38 24 4 38-17 59-22 25-15 17 14 2 22-21 20-50 34-61 63-17 22-26 54-10 80 14 26 23 56 28 85-1 25-1 50-9 74-9 19-17 45-38 51 9 18-25 36-37 48-26 16-52 33-82 35-39 5-79-5-111-26-25-6-45 23-67 33-11 22-28 40-54 27l-3-2Zm282-86c23 3 41-8 62-14 4-13 14-29 26-28 10-25 13-53 16-79s0-52 1-78c-5-10-18-42-28-34-2 22-29 43-44 19-21-4-16-31-32-36-15 0-36 4-43-14-16 2-24-11-39-16-9-19-35-11-49-1-11 5-39 22-10 19 12 5 35 14 19 27-13 8-21 31-10 38 3 13-13 30-19 14-18 19 25 31 4 52-8 9-15 54 3 29 23-9 28 26 39 36 0 9-13 25-10 31 12-13 42-15 47 7 12 7 16 23 34 13 23-6 15 14 33 15z"/><path fill="#aeba6e" d="M4 495c-8-27 23-42 33-63 11-20 50-32 33-61-25-46-27-101-11-150 18-66 81-113 147-124 33-6 67-5 100 3 28 8 43-23 64-35 15-10 46-28 19-38 24 4 38-17 59-22 25-15 17 14 2 22-21 20-50 34-61 63-17 22-26 54-10 80 14 27 25 57 26 88-1 21-1 40-4 52 0 5-13 24-8 24 3-10 10-20 4-3-4 8-18 30-20 28 10-30 13-62 15-93-5-24 7-52-10-74-6-11-21-32-21-6-8 14-27 32-39 10-17-3 0-19-15-21 0-15-5-40-26-29-18-8-44 5-53-14-22 10-29-24-50-12-17 1-35 14-46 26 14 1 32 4 37 18-12 10-32 30-35 39 16 5-9 18-18 21 1 10 10 28 22 36 2 10-8 39-14 34-3 8 12 22 5 34 15 1 13-39 34-16 4 13 29 34 13 40-12-3-19 41 3 24 7-26 55-3 27 13-11 21 22-20 26 6 15 4 43-8 45 13-6 7-32 18-7 12 18-14 41-10 61-18 14-5 24-12 26-28 12-6 28-14 13 3-16-2 1 16-16 23-17 22-41 34-64 48-50 26-113 20-160-11-25-6-45 23-67 33-11 22-28 40-54 27l-3-2H4z"/><path fill="#a9b450" d="M4 494c-8-24 19-38 29-57 9-23 45-29 41-57-19-39-31-83-22-126 5-29 12-59 32-83 32-45 86-72 141-76 29-4 57 0 85 5 27 5 40-25 60-35 13-9 47-28 18-37 24 2 39-17 60-23 24-14 17 14 2 21-21 20-50 35-61 63-16 23-27 53-12 79 7 10 20 39 3 17-4-14-19-26-28-9-5 9-18 25-26 6-15-2-23-21-25-34-16-7-38-2-57-6-14 3-12-18-29-11-8-18-32-13-48-10-12 13-45 16-43 35 17-13 44 8 20 20-8 5-17 30-5 28 4 16-21 12-24 24 8 7 9 25 23 31-2 21-27 36-7 55-9 15 6 22 15 25-21 19 19 26 22 41 15-5 35-2 34 16 18-5 44 8 55 22 13 7 37-9 52 4 9-3 31-20 34-12-16 20-41 29-62 42-48 22-107 13-152-16-24-6-41 23-62 31-15 17-26 45-53 31l-10-4z"/><path fill="#96ad4c" d="M4 494c-8-24 19-38 29-57 9-23 45-29 41-57-19-39-31-83-22-126 5-29 12-59 32-83 32-45 86-72 141-76 29-4 57 0 85 5 27 5 40-25 60-35 13-9 47-28 18-37 24 2 39-17 60-23 24-14 17 14 2 21-21 20-50 35-61 63-13 21-27 47-14 71 1 9 19 33 12 33-12-14-23-45-44-29-5 11-19-21-21-2-8-26-35-27-58-27-25 3-45-13-69-15-18-7-36 6-52 15-25 5-28 37-4 45-4 11-10 25-19 14 0 14-7 34-20 44-7 12-18 38 6 25 22 14 2 43 1 62 11 9-13 34 11 30 14 10 39 14 37 35 8 11 39-16 28 10 7 11 24 4 31 8 8-5 35 12 27 24 23 1 44-20 62-3 10-2 36-19 36-15-21 18-46 32-71 43-48 17-100 3-142-22-24 1-42 24-63 35-11 22-28 40-54 26l-4-1-1-1z"/><path fill="#a4ab36" d="M4 494c-8-26 22-41 33-62 10-20 48-30 35-58-25-46-30-103-13-152 15-56 62-98 115-116 42-15 88-16 131-7 29 10 43-21 65-33 13-11 49-30 19-38 25 1 42-18 64-25 30-1-12 33-23 40-20 14-36 33-46 56-17 16-8 44-27 57-8 6-14-23-18-2-11 3-14-35-35-19-21-4-48 5-67-4-9-7 8-15-11-13-21 2-41-3-61 4-18 14-43 18-55 39-19 18 11 17 15 23-27 7-5 32-28 45 1 14-18 48 9 34 22 14 2 43 1 62 11 9-13 34 11 30 14 9 38 14 37 35 10 9 31-8 32 14 10 9 26-2 30 15 7-2-10-16 7-9 12 2 21 15 19 22 18 6 38-6 53 0 7-2 41-17 19-1-23 14-46 30-75 31-30 5-62-2-90-15-22-23-48-7-67 11-27 4-28 44-54 42-9-1-17-2-25-6z"/><path fill="#96a92f" d="M4 494c-8-26 22-41 33-62 10-20 48-30 35-58-25-46-30-103-13-152 15-56 62-98 115-116 42-15 88-16 131-7 29 10 43-21 65-33 13-11 49-30 19-38 25 1 42-18 64-25 30-1-12 33-23 40-20 14-36 33-46 56-17 15-7 46-27 55-13-11-29-3-37-21-21 3-43 1-66 0-6-1-31-5-16-13-21-4-44-2-64 0-18 6-37 18-53 29-13 11-25 27-5 32 26-1-21 13-5 28-14 18-18 39-27 60-4 18-14 43 3 56 13 9 8 33 15 46 16-7 19 14 37 3 16 10-16 38 13 30 21 2 36 27 60 19 11 18 39 19 58 13 15-3 38 0 50-9-25 17-52 35-83 36-29 3-60-4-87-16-22-23-48-7-67 11-27 4-28 44-54 42-9-1-17-2-25-6z"/><path fill="#76964f" d="M4 494c-8-26 22-41 33-62 10-20 48-30 35-58-25-46-30-103-13-152 15-56 62-98 115-116 42-15 88-16 131-7 29 10 43-21 65-33 13-11 49-30 19-38 25 1 42-18 64-25 30-1-12 33-23 40-20 14-36 33-46 56-14 8-9 45-22 41-12-17-27-15-50-12s-47-8-70-8c-23-3-47-2-68 0-18 6-37 18-53 29-10 9-26 27-9 31-12 9 15 6-3 15-9 14-25 33-25 53-1 23-18 51-5 72 7 18 19 35 20 57 14 1 19 4 25 14 10-9 6 28 25 17 19 10 38 26 62 26 15 4 25 18 42 11 9 6 25-7 20 5 6 9-33 12-48 14-33 0-65-10-93-27-25-9-43 22-65 30-15 17-26 45-54 30l-5-1z"/><path fill="#96a11a" d="M6 496c-13-23 20-42 29-61 9-22 47-28 38-56a206 206 0 0 1 6-199c17-28 43-49 72-63-7 19-40 24-48 47-6 10-29 36-11 31 24 9-9 30-7 46-1 24-16 50-9 74 9 20 21 39 23 62 14 1 19 4 25 14 10-9 6 28 25 17 19 10 38 26 62 26 15 4 25 18 42 11 9 6 25-7 20 5 0 10-45 15-63 13-29-2-56-12-81-28-25-4-42 24-64 33-13 18-26 43-53 29l-6-1zm359-354c-14-17-27-19-50-14-17 5-53-5-57-10 13-1 34-7 50-9 24-4 38-25 57-39 11-10 42-24 35-37-26-9 23-2 27-18 10-2 43-26 35-2-18 23-45 35-63 58-13 23-30 45-32 72h-1z"/><path fill="#8c9811" d="M6 496c-13-23 20-42 29-61 9-22 47-28 38-56a206 206 0 0 1 6-199c17-28 43-49 72-63-7 19-40 24-48 47-6 10-29 36-11 31 22 7-3 32-13 40 6 20-8 45-8 67-1 20-6 47 13 59 5 20 15 36 31 49 4 10 31 9 22 19 21 2 45 9 62 15 24-7 39 18 62 7 16 0 18 3 2 7-44 12-93 4-131-22-24-9-41 22-63 29-17 17-28 48-57 32l-6-1zm359-354c-12-21-32-18-53-14-15 4-51-5-54-10 13-1 34-7 50-9 24-4 38-25 57-39 11-10 42-24 35-37-26-9 23-2 27-18 10-2 43-26 35-2-18 23-45 35-63 58-13 23-30 45-32 72h-1z"/><path fill="#8c6542" d="M6 496c-13-23 20-42 29-61 9-22 47-28 38-56a206 206 0 0 1 6-199c17-28 43-49 72-63-7 19-40 24-48 47-6 10-29 36-11 31 21 5-1 33-12 36-11 19-6 46-14 68 1 26-2 54 13 77 13 20 27 39 46 54 19 16 48 15 65 29 29 4 59 1 86-7-27 12-59 14-88 8-26-2-46-26-71-26-20 15-44 25-60 44-10 25-27 25-51 18zm359-354c-11-23-32-18-53-14-15 4-51-5-54-10 13-1 34-7 50-9 24-4 38-25 57-39 11-10 42-24 35-37-26-9 23-2 27-18 10-2 43-26 35-2-18 23-45 35-63 58-13 23-30 45-32 72h-1z"/><path fill="#6f912e" d="M6 494c-4-9 16-2 9-18 9-14-1-16-7 1s-3-12 8-17c16-18 26-40 47-53 25-17 1-44-4-64-18-53-9-113 18-161 17-28 44-51 74-65-7 19-40 24-48 47-6 10-29 36-11 31 21 5-1 33-12 36-11 19-6 46-14 68 1 26-2 54 13 77 13 20 27 39 46 54 19 16 48 15 65 29 29 4 59 1 86-7-27 12-59 14-88 8-25-3-45-21-68-27-23 14-49 26-66 47-7 21-26 21-40 12-3 1-3 7-8 2zm359-352c-11-23-32-18-53-14-15 4-51-5-54-10 13-1 34-7 50-9 24-4 38-25 57-39 11-10 42-24 35-37-26-9 23-2 27-18 10-2 42-26 35-3-17 23-44 36-62 57-13 24-31 46-33 74h-1z"/><path fill="#728a11" d="M6 494c-4-9 16-2 9-18 9-14-1-16-7 1s-3-12 8-17c15-18 26-40 47-53 24-17 4-42-2-63-22-60-9-132 31-182 6-7 40-37 19-16-18 19-34 40-43 64-7 18-10 27 4 34 7 23-10 46-6 70-2 27 5 55 23 77 15 18 29 39 52 48 24 7 41 17 64 21 11 1 43 1 15 3-31 0-62-11-88-27-27-7-47 24-70 34-10 18-27 40-44 22-6-3-6 8-12 2zm326-377c-1-25 25-41 43-54 12-8 34-24 25-34 14 1 41-28 24-2-13 3 1 13 2 1 8-6 21-4 17-17 8-13 33-10 14 6-11 13-31 33-42 24-6-9-25 29-4 12 20-12-12 14-14 21-14 14-19 53-39 47-4-12-22 10-26-4z"/><path fill="#5c691d" d="M6 494c-4-9 16-2 9-18 9-14-1-16-7 1s-3-12 8-17c15-18 26-40 47-53 23-13 5-43 1-55 14 30 33 58 59 79-20 10-38 25-58 36-13 17-28 45-47 25-6-3-6 8-12 2zm50-165c-12-47-5-100 19-143 8-17 35-44 43-47-16 18-36 34-45 57-19 41-26 88-16 132 5 7-2 4-1 1zm309-209c6-30-17 1-28-8 4-9-9-10 4-20 17-23 47-32 62-56-14-10 17-10 22-16-1 13-28 7-5 14 6-1 15-10 23-5 9-8 9-19 10-25 25-4-7 26-15 32-11 9-21 6-27 4-12 7-13 28 3 11 14-5-21 18-20 28-10 12-16 37-29 41z"/><path fill="#52351d" d="M24 496c-6-3-14-18-6-20 5 28 21-1 35 0 8-23-16 3-25-2-25-4 8-35 15-49 13-13 34-22 33-44 8 8 21 31 33 41 25 15-23 24-30 36-20 6-27 35-42 39-3-10-10 9-13-1Zm321-387c-1-26 22-41 41-54 10-5 25-30 28-19-20 13-9 37-28 54-4 9-16 27-19 8-8 1-15 15-22 11z"/><path fill="#2b5f0a" d="M60 464c-5-12-21-4-14-19-2-11-15-6-2-20 13-13 33-22 32-44 7 7 21 31 33 41 25 14-22 23-30 36-5-1-17 18-19 6zm285-355c-1-26 22-41 41-54 10-5 25-30 28-19-20 13-9 37-28 54-4 9-16 27-19 8-8 1-15 15-22 11z"/><path fill="#222012" d="M60 464c-5-12-21-4-14-19-2-11-15-7-2-20 13-10 30-26 35-36 6 18 18 25 27 39 25 2-16 19-22 27-5 0-22 20-24 9z"/></svg>