<svg xmlns="http://www.w3.org/2000/svg" viewBox="0 0 288.2 405.4"><path fill="#c14339" d="m123 401-8-6c-1-1-4-2-9-2-23 0-41-42-22-54l-4-4c-12-7-16-16-16-30l-1-11c-8-5-12-25-7-36 2-5 11-15 13-15 4 0 5-4 5-13l3-15c2-7 2-7-5-7l-8-2c0-1-4-2-11-2-33-2-47-50-17-59 1 0 0-3-5-8a45 45 0 0 1-11-44c2-4 1-4-1-7C3 75 0 70 0 57c0-44 66-44 69 0 1 13 5 14 5 0-2-38 42-56 67-27 4 5 6 6 7 5 13-9 13-9 25-9s12 0 14-5c12-33 66-25 66 9 0 7 0 7 6 8 29 4 31 60 2 61-3 0-3 0 0 4l2 13c0 9 0 9 6 12 32 15 22 57-14 54-8 0-8 0-5 6 12 22-6 49-31 49-8 0-8 0-5 6 7 11 4 28-6 37-5 4-5 4 0 5 31 9 32 57 2 69-6 2-7 3-6 6 2 7 0 20-5 26-8 14-24 20-35 13-3-1-4-1-9 2-8 6-23 6-32 0z"/><path d="m123 401-8-6c-1-1-4-2-9-2-23 0-41-42-22-54l-4-4c-12-7-16-16-16-30l-1-11c-8-5-12-25-7-36 2-5 11-15 13-15 4 0 5-4 5-13l3-15c2-7 2-7-5-7l-8-2c0-1-4-2-11-2-33-2-47-50-17-59 1 0 0-3-5-8a45 45 0 0 1-11-44c2-4 1-4-1-7C3 75 0 70 0 57c0-44 66-44 69 0 1 13 5 14 5 0-2-38 42-56 67-27 4 5 6 6 7 5 13-9 13-9 25-9s12 0 14-5c12-33 66-25 66 9 0 7 0 7 6 8 29 4 31 60 2 61-3 0-3 0 0 4l2 13c0 9 0 9 6 12 31 15 23 55-12 55-9 0-9 0-6 5 10 23-7 49-32 49-8 0-8 0-5 6 7 11 4 28-6 37-5 4-5 4 0 5 31 9 32 57 2 69-6 2-7 3-6 6 2 7 0 20-5 26-8 14-24 20-35 13-3-1-4-1-9 2-8 6-23 6-32 0zm33-2c21-14 18-55-3-60-25-5-33-2-42 12-18 30 17 68 45 48zm30-1c17-7 24-41 8-42-10-1-15-4-22-12-6-6-7-7-10-6l-5 1 4 4c13 12 15 35 4 50-5 6 9 10 21 5zm-75-7-3-6c-6-14-2-33 10-43 8-7 6-10-4-5-7 3-9 3-18 3-24-1-24 40-1 50 4 2 16 3 16 1zm99-38c18-8 26-30 18-47-10-23-39-29-38-8 1 16-5 28-17 35-6 4-6 4 0 11 8 10 25 14 37 9zm-96-18c10-4 12-7 8-12-7-11-8-27-3-38 2-5 2-8 0-8l-4 6c-6 16-28 24-44 17-6-3-6-3-6 6 0 25 26 40 49 29zm53 0c14-7 22-19 22-34 0-12 0-13-7-13-11 0-22-9-27-20-3-7-15-5-27 6l-6 4c-1-1-1-1 0 0l-2 7c-14 31 18 63 47 50zm-69-36c18-9 25-27 11-29-13-1-28-13-32-24-1-5-1-5-6-3-22 11-21 46 0 56 7 3 21 3 27 0zm100-14c21-9 25-39 6-50-6-4-6-4-10-2-5 2-20 2-24 0-6-3-15 12-15 24 0 22 22 36 43 28zm-67-19c17-8 28-34 20-49-1-3-2-7-4-9-7-15-29-22-39-12-5 7-13 11-21 12-13 2-15 31-4 46 11 14 32 20 48 12zm103-33c22-10 25-44 5-56-12-8-12-8-19-7l-12 2c-6 0-6 0-1 5 11 13 11 34-2 48-6 6-6 6 0 9 8 3 21 3 29-1zm-39-2c24-11 25-48 1-60-14-7-20-6-22 2-2 7-11 16-19 19-6 3-6 3-6 10 0 23 25 38 46 29zm-98-28c13-6 20-17 15-26-2-5-3-8-3-16 1-12-1-15-12-20-8-4-11-5-14-1-4 5-15 9-22 9-9 0-14 8-14 23 0 26 26 43 50 31zm-42-6c-11-13-13-34-4-45 4-4-11-8-17-4-25 14-12 55 18 55 8 0 8 0 3-6zm103-8c18-10 22-41 6-46l-11-7c-12-11-30-5-39 11a32 32 0 0 0 44 42zm117-12c23-17 11-49-17-49-13 0-15 1-15 11 0 9-3 16-9 22-5 5-2 11 8 16l5 4c-2 3 23-1 28-4zm-54-8c3-2 5-2 6-1 2 1 2 1 2-1-1-2 1-4 3-6 16-12 7-55-11-51l-9 1c-4 0-4 0-4 4 0 14-15 29-29 29-6 0-7 1-4 7 9 17 29 25 46 18zM74 145c24-11 30-50 11-68-27-27-67-7-65 33 2 29 29 46 54 35zm43-4c5-7 13-12 22-12h6l-2-6c-2-6-3-17 0-22 3-8-7-13-16-9-5 2-10 3-16 3-12 0-14 1-14 12l-2 15c-5 15 13 31 22 19zm73-2c12-6 23-28 14-28s-25-13-29-24c-6-18-32 2-32 25s26 38 47 27zm64-12c12-2 9-28-3-28l-8-2c-3-1-4 0-7 3l-7 6c-4 2-4 2 3 9 4 3 7 8 8 11 2 4 2 4 5 3l9-2zm-28-21c22-10 26-44 8-59-30-25-73 7-56 43 8 17 30 24 48 16zm40-11c24-12 18-53-7-56-5-1-6 0-8 4l-5 8c-4 3-4 4-2 9 4 8 3 22 0 29s-3 8 9 8l13-2zm-138-5c27-14 27-56 0-69-20-10-45 0-51 21-4 10-3 25 2 28 5 4 14 14 15 17 2 7 22 9 34 3zM29 79c8-11 16-15 30-15 11 1 13-9 5-23C43 7-12 32 3 69c3 6 15 18 19 18l7-8zm128 4c4-3 10-4 12-4 4 0 4 0 4-7 0-13 7-24 19-31 7-4 5-8-6-13-15-6-42 5-38 15 2 6 1 21-1 28-3 7-3 9 1 14 2 2 1 2 9-2zm93-40c15-29-29-57-54-33-6 6-12 18-8 18l6 5c5 4 6 4 16 4 11 0 20 4 27 12 6 5 8 4 13-6z"/></svg>