<svg xmlns="http://www.w3.org/2000/svg" width="32" height="32" viewBox="0 0 872.3 868.6"><path fill="#e9d9ce" d="M410 868a498 498 0 0 1-156-38l-13-6C49 737-48 491 23 275 74 121 190 17 328 2a504 504 0 0 1 371 116c73 58 119 119 151 201a440 440 0 0 1 6 249 404 404 0 0 1-201 245c-74 40-160 59-245 55Z"/><path fill="#f08971" d="M403 866a466 466 0 0 1-225-82c-26-20-30-24-47-40a463 463 0 0 1-42-595c38-53 94-99 147-122C301 1 386-6 466 10a549 549 0 0 1 117 38 501 501 0 0 1 273 293c19 66 20 151 3 213a418 418 0 0 1-132 208 453 453 0 0 1-324 104zm172-110c134-15 232-87 275-199 12-33 15-49 16-89 1-72-6-115-29-167-14-31-30-58-52-88-13-17-12-16-34-40A587 587 0 0 0 473 16l-45-7a356 356 0 0 0-270 72c-59 45-99 159-92 257 7 96 40 173 108 251a498 498 0 0 0 401 167zm-77-63c-86-15-100-21-108-51-5-20-1-33 27-87a586 586 0 0 0 49-127c3-15 4-16 10-20l6-3 7-2c4-2 4-2 7-1l7 2c6 1 9 7 6 14l-1 8c0 2 0 2-2 0l-1-5c0-3-1-4-3-6l-3-4c-1-6-4-6-7 0l-2 4c-3 0-6 8-6 15 1 12 5 16 17 17 7 1 7 0 8-8l1-7 1 3a201 201 0 0 1 15 40 294 294 0 0 1 12 39l5 16 6 21a5079 5079 0 0 0 29 101c10 40-14 53-80 41zm110-4c-14-5-21-15-28-45a836 836 0 0 0-16-60 542 542 0 0 0-16-54 1561 1561 0 0 1-35-106c-1-7 11-16 23-16 10 1 10-1 1-9-7-5-9-8-7-11s4-2 9 2c7 7 11 10 13 10s1-3-6-9c-8-8-14-19-10-20h21c133 5 193 4 224-2l8-2 5 3 7 7 4 8c7 14 7 14 9 27 12 58 4 95-26 109-11 6-12 5-31-5l-23-13a380 380 0 0 1-49-27 1165 1165 0 0 0-13-5c4 2 20 11 23 14 4 4 17 11 30 18l14 7a229 229 0 0 0 25 14c1 2 4 4 7 5 7 4 8 11 2 30-14 40-32 45-60 18l-8-7-9-8a305 305 0 0 0-36-34 1280 1280 0 0 0-54-45 5202 5202 0 0 1 71 66l41 39c12 9 16 25 9 38-5 10-48 52-59 57-11 6-50 10-60 6zm-63-239c2-2 2-2 1-6-2-5-1-9 3-11s4-2 0-6c-9-10-27-5-22 5 8 14 15 22 18 18zm35-25c3-2 2-5-3-7l-7-5c-10-9-18-6-18 7 0 8 18 11 28 5zM333 641c-9-3-21-11-38-25-62-51-72-61-80-78-5-12 2-24 13-24a633 633 0 0 0 74-41 405 405 0 0 0 44-25 4751 4751 0 0 1 75-45c17-11 27-15 32-12 1 1 3 0 6-1 9-3 12-1 9 6l-4 15a299 299 0 0 1-30 88 2134 2134 0 0 1-48 107c0 21-32 42-53 35zm109-199c4 0 4-3 1-3-5 0-5-2 1-8 14-12 14-24 0-24-12 0-18 6-22 18-2 5-1 5 8 13 8 5 8 5 12 4zm-240 71c-15-3-27-15-37-40a406 406 0 0 0-11-25l-18-35c-20-31-13-77 13-86 8-3 42-1 61 2l18 2 48 6 97 9c45 3 58 5 65 11l10 8c9 6 13 16 6 16l-11 4-10 5-2 2-8 5-32 19a1794 1794 0 0 1-111 59l-43 26c-18 11-19 12-25 12h-10zm221-134c14-6 13-13-1-15-24-4-34 0-28 11 5 9 17 11 29 4zm196-13c-86-1-90-1-97-11-6-8-6-9-1-11s5-2 12-8l13-8 20-18a819 819 0 0 1 58-51 1701 1701 0 0 1 50-40c31-26 66-14 89 29l19 42c21 47 15 68-18 74-10 2-84 3-145 2zm-55-12 10-2c12-2 14-17 2-21-10-4-36 7-36 15 0 7 10 10 24 8zm-131-8-6-1-12-2c-14-2-33-4-82-6-21-1-35-2-71-7l-86-8c-42 0-62-24-52-61a205 205 0 0 1 26-57l21-36c19-23 49-24 73-2 3 3 4 1 0-2-13-16-16-32-9-48 4-9 7-12 35-31l28-19c15-10 21-13 29-16 22-6 63 3 68 15l2 3c2 2 8 24 14 56a1641 1641 0 0 0 29 128 544 544 0 0 1 16 75c-3 3-13-5-13-11-1-5-3-6-9-6-4 1-20-9-42-27l-41-32c-36-30-55-44-56-43l15 14a2695 2695 0 0 1 60 50 1916 1916 0 0 0 74 60l2 2-3 6c-3 7-4 8-10 6zm-4-8c6-5 1-12-13-20-14-7-24 3-13 12 7 5 12 8 23 10l3-2zm74 1c-5-1-4 0-7-6s-1-13 12-46a376 376 0 0 0 10-30 3092 3092 0 0 0 43-137c5-15 18-19 34-11l5 2c9 0 62 31 76 43 26 24 17 43-42 91l-46 36a594 594 0 0 0-44 40c-2 0-8 4-13 8-18 12-19 12-28 10zm-24-17-7-1c-6 0-10-3-11-10a532 532 0 0 0-17-67 328 328 0 0 0-8-37l-4-22-18-86c-4-24-5-26-2-31l2-5c0-13 36-11 100 6 34 9 46 24 40 52l-3 17-9 31a876 876 0 0 0-17 50 17004 17004 0 0 0-35 94c-5 10-6 11-11 9Z"/><path fill="#e65a46" d="M409 865a445 445 0 0 1-258-104 460 460 0 0 1-18-660c4-3 4-3-4 7a208 208 0 0 0-16 23 366 366 0 0 0-21 332 504 504 0 0 0 446 297 325 325 0 0 0 317-213 242 242 0 0 0 13-61 405 405 0 0 1-266 348 444 444 0 0 1-193 31zm100-172a2192 2192 0 0 1-56-10c-47-10-62-23-62-55 0-18 2-23 28-74a563 563 0 0 0 51-136c0-4 8-11 13-11l5-2c6-3 9-3 6 0l-3 5-4 5c-9 8-4 33 6 33l1 2c1 2 1 2 3 1 2-2 4-2 7-2 4 1 6 0 6-5 1-6 2-5 9 15a515 515 0 0 1 24 79 1148 1148 0 0 0 22 75c12 39 13 45 13 55 0 24-25 33-69 25zm98-6c-13-5-19-16-26-48a265 265 0 0 0-8-30 742 742 0 0 0-27-92l-7-19-15-47c-10-31-10-28-2-36l4-5h8c14 2 16-3 5-12l-7-7c0-3 2-3 6 1 8 7 11 9 14 10 5 1 6 2 2 7-2 1-3 4-4 6 0 4-4 5-11 5s-16 4-16 7c0 4 16 27 19 27s7-5 6-7c-2-8-1-13 5-13l2-2c0-3 0-3 11-3 10 0 14-1 19-5l2-2 9 5a2725 2725 0 0 0 174 103c11 7 0 45-17 59-11 9-23 2-57-30a1889 1889 0 0 0-103-94c-1-3-7-9-10-11l-10-9c-7-6-9-7-10-4 0 4 24 27 28 27a327 327 0 0 0 49 49 2047 2047 0 0 1 62 59c38 34 38 38-9 84-20 19-24 23-37 25l-14 2c-10 2-29 2-35 0zm-275-48c-7-3-21-12-34-23l-26-21c-58-48-70-68-45-79a392 392 0 0 0 59-32 3703 3703 0 0 1 48-27 772 772 0 0 0 79-47c13-11 30-18 38-18 5 1 8 1 10-1 7-2 8 0 5 6l-2 6a323 323 0 0 1-33 98 2074 2074 0 0 1-46 101c-9 31-29 45-53 37zm114-197c2-1 0-4-3-5-2-1-2-1 3-5 19-16 9-34-14-24-7 3-15 17-12 22 5 9 21 17 26 12zm325 80a2976 2976 0 0 1-77-43l-6-3a1779 1779 0 0 0-83-48 189 189 0 0 0-25-14 724 724 0 0 0-25-16l-8-9c-8-7-13-19-8-17l45 2 81 2c56 2 93 0 117-5 9-2 16 2 19 10l3 7c7 10 13 40 13 74 1 36-26 71-46 60zm-570-11c-14-3-24-15-35-38l-6-15-4-8-6-14-12-23c-28-44-8-92 36-86a1147 1147 0 0 0 73 8l29 4a890 890 0 0 0 79 7c59 5 75 7 81 12l10 7c5 4 10 10 10 12l-3 2a447 447 0 0 0-65 36 1601 1601 0 0 1-110 60l-56 33c-6 3-13 4-21 3zm223-130c15-8 15-17-2-19-27-4-38 1-29 15 6 9 18 10 31 4zm214-16-32-1c-34 0-75-2-77-3-7-4-11-16-5-16l8-5 9-7c6-3 14-10 27-23a282 282 0 0 1 38-33 3230 3230 0 0 1 64-53c17-14 21-16 36-16h12l9 5c21 9 34 29 56 85 17 41 12 59-18 64-8 2-126 4-127 3zm-67-11 7-1c5 0 10-11 7-17-6-11-33-8-45 5-9 11 12 20 31 13zm-137-10-9-1-11-2c-14-2-32-4-83-6l-53-5a2374 2374 0 0 0-119-11c-19-4-29-12-33-28-6-21-2-35 26-87s50-64 80-44a430 430 0 0 1 61 50 438 438 0 0 0 41 34 792 792 0 0 0 61 51 1835 1835 0 0 0 27 25c-10-8-22-8-25 0-2 6 3 12 15 18 15 7 27 1 20-9l-2-4c2 0 14 8 14 9l-5 12-5-2zm72-7c-13-1-13-8 4-50a376 376 0 0 0 10-30 2668 2668 0 0 0 43-136c5-19 16-19 55 0 47 22 69 40 68 58 0 20-11 32-89 93l-26 22-9 8-11 10-6 6-20 12c-10 7-12 8-19 7zm-57-14c-4-3-5-5-5-7 0-6-4-9-10-8-4 1-3 1-22-12a844 844 0 0 1-62-49 69403 69403 0 0 1-82-63c-14-9-32-33-34-45-3-19 3-29 28-46l42-29c21-14 33-16 59-12 17 3 30 8 30 13l2 4c4 5 6 13 14 51a1271 1271 0 0 0 15 69 1777 1777 0 0 1 19 79c9 36 9 36 6 38l-3 1 3 1c2 0 3 1 4 8 3 11 2 12-4 7zm25-4c-7 0-12-5-11-11l-1-4-4-12-2-11c-4-13-6-21-5-23 0-2 0-3-2-4l-3-10a286 286 0 0 0-9-41l-4-20a1225 1225 0 0 1-19-115c7-14 14-15 53-8 19 3 59 13 66 17 15 7 23 24 19 40l-2 13c-2 15-4 23-9 36a498 498 0 0 0-18 54 8853 8853 0 0 0-27 75 73 73 0 0 1-11 21c-2 4-3 4-11 3z"/><path fill="#e2673c" d="M409 865a445 445 0 0 1-258-104 460 460 0 0 1-18-660c4-3 4-3-4 7a208 208 0 0 0-16 23 366 366 0 0 0-21 332 504 504 0 0 0 446 297 325 325 0 0 0 327-242 399 399 0 0 1-139 244 439 439 0 0 1-166 86c-42 13-102 20-151 17z"/></svg>