<svg xmlns="http://www.w3.org/2000/svg" width="32" height="32" viewBox="0 0 91.3 91.1"><path fill="#cbaca1" d="m48 91-1-1-1-1v-2c3-2 2-4-2-3l-2 1v2l1 2-1 1h-2c-1 1-3 0-3-1v-1c-2 0-2-1 0-2l-2-2-6-8h-2c-1 2-3 2-5 3l-1 1-1 2c-1 0-1 0 0 0l-1 2c0 2-2 2-2 1l-1-2-2-2c2-1 0-3-2-4l-1-1v-1l-2-6-1-1v-5c0-7 1-11 4-13l2-2h-2l-2 1-7 4c-2 2-2 2-3-1 0-2 0-3 2-3l13-6h-3l-3 1-1 1-4 2-3 1v-2c0-2 1-3 4-3l2-1 2-1 2-1 2-1 3-1 4-2 4-2a795 795 0 0 1 41-22l2-2 3-4 2-3c2-2 6-3 7-3 2 1 2 3 0 4-2 0-3 7-2 10l1 5 1 5 2 1 2 2c8 2 11 21 5 28l-7 4c-2 0-2 2-1 4v3h-1c0-1-1-2-2-1h-2v-1c3-3 2-5-1-6-5-1-7-4-8-14-1-9 1-14 5-17l3-3V12c0-4 0-4-4 1l-6 5-4 2-4 2-2 2-1 2-1 4v2l1 2v2l2 7v2l1 3v1c0 2 1 2 1 1h1l3 2c10 2 16 17 9 24-2 2-1 3 1 3l1 1h-3l-1 1-1 1-2 2v-3l-1-2-3-1-4 2c-1 2-2 3-4 3-2 1-3 3-1 3l1 1 1 1v2h-5l-1 1zM32 55c4-2 4-7 1-14v-3l-1-2-4 4v10l2 5h2zm21-2 1-1v-3c-1-7-2-9-2-5l-1 10 2-1zm-5 1c2-1 3-13 2-16v-5l-1-3-1-3-3 2-2 1a95 95 0 0 0-5 2c-2 0-2 1-2 2l-1 1v1l1 3v3l1 4c1 4 1 5 3 6l2 2h6zm-23-8c1-5 1-5-1-4l-3 1c-3 2-3 5 0 5 4 0 4 0 4-2z"/><path fill="#d3738b" d="M48 89h-2l1-1c3-3 1-5-3-4l-2 1c-1 0-2 1-1 2 2 2 2 3 0 2h-3l-1-2v-1c2 0 1-1-2-2-2-1-4-3-5-7-1-3-2-3-3-1l-5 3-2 1v1c-1 0-2 1-1 2v1h-2l-1-1c-1 0-2-1-1-2s0-4-2-4l-2-1v-2l-1-3-1-3c-2-2 0-13 2-16l1-1 1 1h4l-2-1-1-1v-3L4 52c-3 2-3 2-4 0 0-2 1-3 2-3a98 98 0 0 0 14-6h-4l-2 1-2 1-7 2c-1-1 1-3 3-4l3-1a163 163 0 0 1 15-7l4-1 4-3a131 131 0 0 0 21-11l7-3 4-2 3-2 1-2 1-1 3-3 2-3c1-2 4-3 6-4 2 0 3 3 1 3-3 2-3 4-2 15 0 5 0 5 2 6 2 2 1 3-2 3l-2-1v-4c1-1 1-11-1-13 0-1-2 0-5 4l-5 4-4 2-4 3-2 2-1 2c-1 2-2 4-1 5v3l1 2a64 64 0 0 0 2 9v3l1 2 1 1h1l3 1 4 2 2 2c6 4 8 15 3 20-2 2-2 3 0 3l1 1h-3l-1 1-1 1-1 1v-2c0-3 1-3-2-3h-3l-3 2-4 3c-3 1-3 3-1 3l1 3h-2l-2 1-1-1zM32 56c4-2 4-6 2-13l-1-6c-1-3-5 1-6 4l1 11 1 2c1 3 1 3 3 2zm21-2c2-2 2-2 1-9l-2-4v5a953 953 0 0 1 1 8zm-4 0c1-1 3-13 1-17v-5l-1-3c0-3-1-3-4-1l-3 2-6 3-1 2-1 1 2 6a103 103 0 0 0 3 10l1 2h2l2 1 5-1zm-24-6 1-5c0-2 0-3-2-2l-3 2c-4 2-4 5 1 6a111 111 0 0 1 3-1zm54 17h-2c-1 1-3 0-2-1 2-2 2-6 0-6s-7-3-7-5l-1-3c-1-5 0-9 1-11l2-2c-1-1 1-2 2-2l2-1h4c1 0 3-4 2-5s1-3 2-2h1c3 0 7 7 7 12l1 4c2 7-3 15-10 15-2 1-3 2-2 5l1 3-1-1z"/><path fill="#9e935a" d="M48 89h-2l1-1 1-4h-4l-2 1c-1 0-2 1-1 2 2 2 2 3 0 2h-3l-1-2v-1c2 0 1-1-2-2-2-1-4-3-5-7-1-3-2-3-3-1l-5 3-2 1v1c-1 0-2 1-1 2v1h-2l-1-1c-1 0-2-1-1-2s0-4-2-4l-2-1v-2l-1-3-1-3c-2-2 0-13 2-16l1-1 1 1h4l-2-1-1-1v-4a64 64 0 0 0-13 7c-1-1 0-3 1-4h2l4-2c7-3 8-4 7-5l-3 1-3 1-2 1-6 1 3-3 3-1 3-1h1a187 187 0 0 1 15-7l5-3a1891 1891 0 0 1 35-19l2-2 3-4 1-2c2-2 7-4 8-3l-1 2c-3 2-3 4-2 15 0 5 0 5 2 6 2 2 1 3-2 3l-2-1v-4c1-1 1-11-1-13-1-1-1 0-5 4l-6 4-3 2-4 3-3 2v2c-1 1-2 3-1 5v3l1 2a64 64 0 0 0 2 9v3l1 2 1 1h1l3 1 4 2 2 2c6 4 8 15 3 20-2 2-2 3 0 3l1 1h-3l-1 1-1 1-1 1v-2c0-3 1-3-2-3h-3l-3 2-4 3c-2 1-3 2-2 3l2 3h-2l-2 1-1-1zM32 56c4-2 4-6 2-13l-1-6c-1-3-5 0-6 4l1 11 1 2c1 3 1 3 3 2zm21-2c2-2 2-2 1-9l-2-4v5a953 953 0 0 1 1 8zm-4 0c1-1 3-13 1-17v-5l-1-1v-4c0-1-2-1-4 1l-3 1-2 1-2 1-2 2-1 2v3l1 3v2l2 7 1 2 1 2h2l2 1 5-1zm-24-6 1-5c0-2 0-3-2-2l-3 2c-2 1-2 1-2 3-1 2 0 2 3 3a111 111 0 0 1 3-1zm-4-7 2-1 3-3-3 1-3 1-1 2h2zm58 24h-2c-1 1-3 0-2-1 2-2 2-6 0-6s-7-3-7-5l-1-3c-1-5 0-9 1-11l2-2c-1-1 1-2 2-2l2-1h4c1 0 3-4 2-5s1-3 2-2h1c3 0 7 7 7 12l1 4c2 7-3 14-10 15-2 1-3 2-2 4l1 4-1-1z"/><path fill="#b9495b" d="M49 89v-1l-1-2c0-3-1-4-4-2h-2c-1 0-2 2-1 3l1 1h-3l-1-2c1-1 0-2-2-3-3-1-4-2-6-6-1-3-1-3-3-1l-5 2-2 2-1 1v3h-1l-2-1v-2c1-1-1-3-3-4l-1-4-1-2c-3-4-2-5 3-5h6l2-1 1-1 2-3 2-2v-1h1l1-1v-1l1 4 1 4 3 1c3 1 3 1 3 5 0 8 1 9 9 9 5 0 6-1 6-3l1-1v-2l1-3 1-2c-1-1 0-6 1-6l1-2c0-1 1-1 2 1s2 2 3 2 2 0 3-3l4-3c5 7 5 14 1 19l-2 2-1 2c-2 2-2 2-1 0 0-2 0-2-2-2h-3c-2-1-2-1-4 1l-2 3-4 3v3h-1l-1 1zm30-25-2-1v-2l-1-3c-3 0-8-4-6-5l2-1h3v-1l2 1h1l1 1 2-1 1-1v-2l1 1 2-1 1-2V36h1v-5l3 9v3c1 3 0 8-2 11l-7 4c-2 0-3 2-2 5v1zM1 52l1-3h2l4-2 4-2h3c0 1 0 2-1 1a45 45 0 0 0-13 7v-1zm0-6 4-3 3-1 2-1h1a187 187 0 0 1 15-7l5-3a1891 1891 0 0 1 35-19l2-2 3-4 1-2c3-3 7-4 8-3l-1 2-1 1-5 5-4 3-6 5-3 2-4 3-3 2v2l-2 3c0 2-1 2-1-1 0-2-2-2-5 0l-3 1-2 1-2 1-3 2c0 1 0 2-2 2l-3 2-4 3a367 367 0 0 0-3 0l3-3-3 1-2 1-5 2-2 1-2 1-3 1-2 1-6 1z"/><path fill="#675b30" d="M41 88h-2l-1-2c1-1 0-2-2-3-3-1-4-2-6-6-1-3-1-3-3-1l-5 2-2 2-1 1v3c-1 1-1 1-1-1l-1-1c-2 0-2 0-1-1s-1-3-3-4l-1-4-1-2c-3-4-2-5 3-5h6l2-1 1-1 2-3 2-2v-1h1l1-1v-1l1 4 1 4 3 1c3 1 3 1 3 5 0 8 1 9 9 9 5 0 6-1 6-3l1-1v-2l1-3 1-2c-1-1 0-6 1-6l1-2c0-1 1-1 2 1s2 2 3 2 2 0 3-3l4-3c5 7 5 14 1 19l-2 2-1 2c-2 2-2 2-1 0 0-2 0-2-2-2h-3c-2-1-2-1-4 1l-2 3c-4 1-4 2-5 3 0 2-1 2-2 0s-2-2-4-1h-2c-1 0-2 2-1 3l1 2-1-1zm37-25-1-3-1-2c-3 0-8-4-6-5l2-1h3v-1l2 1h1l1 1 2-1 1-1v-2l1 1 2-1 1-2V36h1v-5l3 9v3c1 3 0 8-2 11l-7 4c-2 0-3 3-2 4l1 3-2-2z"/></svg>