<svg xmlns="http://www.w3.org/2000/svg" width="32" height="32" viewBox="0 0 907.7 878.2"><path fill="#dcc59c" d="M583 876c-91-14-182-59-235-136-20-28-72 14-107 12-90 20-189-31-222-118-31-69-24-151 13-216 23-50 61-92 83-143 44-10 101 16 151 6 47-8 97 1 132 35 41 44 4-38 6-57-4-17-16-83 10-39 11 29 46 59 41 5 3-26 0-95 28-45 27-15-15-100 30-65 49-21 2-91 2-114 35 23 51 70 83 91-3-21-7-41 12-12 21 20 28 73 54 75 1-28 17-40 22-5 9 43 40 75 78 95 64 34 122 88 138 161 22 74-18 154-82 194-42 16 0 64-12 98-1 114-117 195-225 178z"/><path fill="#d7a56d" d="M587 876c-92-13-184-59-239-137-21-31-74 16-110 12-78 14-165-19-204-90-42-70-44-161-5-232 22-55 63-98 87-152 45-11 103 17 153 5 49-10 100 5 135 40 33 36 0-40 3-57-7-20-17-86 11-38 4 24 40 49 37 9 6-22-1-109 24-52 34-6-9-103 33-68 47-20 13-83 4-112 35 18 53 83 84 85-8-26-3-28 11-5 20 19 28 74 54 72 2-35 17-29 23 1 7 48 50 74 88 96 49 29 94 67 115 121 31 68 14 156-45 204-24 22-63 34-41 72 20 102-56 212-161 226-19 3-38 3-57 0zm-121-83c21 0 69-21 20-15a97 97 0 0 1-119-58c-17-15-33-69-24-63-25 40 12 82 35 113 23 21 57 27 88 23zm161-24c72-10 138-71 137-147 8-53-26-100-72-122-20-14-48-24-15-1 36 25 80 55 78 105 1 58-26 121-83 142-25 18-113 25-104 26 20-1 39 0 59-3zm-200-62c27-37 4-102 39-143 9-19 51-68 36-77-22 42-72 51-94 92-32 34-17 73-2 110 5 10 6 32 21 18zm180 2c15-27 69 19 57-30-1-25-28-78-18-85 22 22 41 91 79 54 2-18-33-60-1-27 14 49 29-41 2-51-49-58-128-88-163-160-24 7-25 73-34 102 11 38-22 79 20 109 35 23-34 34 2 57 22 5 31 39 56 31z"/><path fill="#9b784c" d="M598 876c-82-8-163-43-221-103 41 29 98 28 140 5-42-6-95 15-127-24-28-32-46-90-41-120-27 41-15 91 19 125 4 21-21-33-31-33-73 22-157 46-228 6C6 679-27 535 26 435c25-58 67-106 94-162 49 4 100 18 151 9 44-8 91 3 125 34 23 27 30 18 18-13 1-25-27-85-8-93 12 22 49 79 50 22 6-24-4-103 26-50 31-11-12-100 31-66 55-17-2-102 6-111 32 21 51 79 82 86-6-20-7-34 8-9 21 21 28 72 56 76 1-25 14-41 20-8 8 45 40 77 80 98 77 39 144 115 141 206 0 69-50 126-107 159 4 35 14 74 5 110a192 192 0 0 1-206 153Zm2-103c79-2 160-59 166-142 9-54-21-105-69-129-49-30-107-51-140-100-27 32-56 64-91 89-46 40-88 92-97 154 13 38 6 89 41 116 38 20 81 0 121 12h69zm-97-41c-9-43-55-75-36-123 2-18 43-98 35-70-16 42 14 85-1 127-7 19 7 60 2 66z"/><path fill="#944826" d="M591 875c-77-9-152-43-208-96 36 20 81 24 119 7 30-21 71-6 109-13 76-3 149-62 156-140 9-55-22-109-71-133-49-29-106-51-139-100-28 32-56 65-91 89-47 39-85 92-98 152 6 42 6 99 45 124 23 16-38-16-35-35-31-37-30-89-14-132 11-37-18 33-22 47-20 25 3 64-9 81-74 24-159 45-230 2C26 683-10 585 6 500c37-29 74-62 109-94 29-35 74-58 117-33 34-14 56-59 85-80 41-7 75 21 105 44-6-43-20-86-22-130 16 19 53 88 57 26 5-23-1-55 9-71 21 55 36-20 28-44-2-21 31 17 36-14 26-28-13-84-10-97 32 21 49 79 82 86-12-51 28 24 37 41 6 25 35 40 32 1 10-7 43 71 10 54-60 53-150 58-203 120 34-20 88-51 108 2 22 26 50 45 80 39 45 2 83-34 117-59 77 9 125 89 123 162-1 68-49 125-106 158-2 40 16 88-1 131a193 193 0 0 1-208 133z"/><path fill="#89381d" d="M601 875c-79-7-157-40-216-95 43 24 96 22 138-3 63-3 137 3 189-42 56-45 76-134 34-194-50-61-142-71-185-139-32 20-59 66-97 87-47 38-83 91-97 150-6 14 15 74 0 45-2 24 29 55 26 70-23-38-51-80-35-126 2-13 25-80 4-35-13 41-47 85-23 129-41 17-88 27-134 31-83 4-163-53-188-132-8-40-36-103 10-129 40-33 77-69 118-100 35-47 66 22 78 51 8 24 24 58 23 75-18-22-40-44-60-62 9 28 17 76 13 60-15-17-26-37-46-55-3-23-5 32 10 48 11 17 15 47-2 14-15-18-51-82-46-71-3 29 5 94 1 91-14-18-22-83-34-76-13 45-9 93-16 139 63 19 132 14 194 41 37 18 89 1 95-43 23-58 63-107 110-147 0-52-27-104-75-128-35-24-24 5 1 19 23 16 14 43-7 14-15-8 46 54 8 21-15-16-80-71-34-28 14 17 37 88-1 44-27-14 3 64-19 19 6 19 24 84 2 30-6-20-24-21-20 0-21 0 18 76-13 24-20-18-55-40-33 3 4 18 30 77 1 30-26-40-50-83-63-129 14-6 43 25 38-12 28-16 44-69 77-36-30-16-16-44 18-33 29 1 59 37 77 38-8-42-20-84-22-126 16 19 53 88 57 26 5-23-1-55 9-71 21 55 36-20 28-44-2-21 31 17 36-14 26-28-13-84-10-97 32 21 49 79 82 86-12-51 28 24 37 41 6 25 35 40 32 1 9-8 43 71 10 54-64 55-162 60-213 132 32-8 77-63 104-24 17 25 53 61 80 57 2 27 9 92-24 65-7-18-23-6-32 4 51 49 125 70 168 128 35-3 70-34 95-61 34-36 34-93 4-131-8-14-51-51-24-12 18 11 17 79-2 33-11-34-13 62-32 23-22-26-25 61-39 9-8 9-16 29-22 19 0 12-7 26-5 5-1 45-29-40-23 10-5 16-25-51-13-7 13 46-6-6-17-15-4 23-7 40-14 6-4-24-20-94 16-73 37-17 71-54 107-63 26 6 22 27 39 18 77 45 94 158 41 229-13 39-75 51-77 87 24 81-7 177-83 219-34 20-74 31-114 28zM45 601c7-32 4-94 3-107-16 28-11 93-3 107z"/><path fill="#6c2e1e" d="M587 874c-73-10-147-42-199-92 44 25 98 16 140-6 72 1 159 0 207-63 39-48 48-126 8-176-49-58-136-68-180-132-22-11-43 51-71 62-59 43-113 102-126 176 9 28 0 72-10 27-3-42 12-84 29-122 33-54 86-91 132-132 25-23 48-60 65-82 33 15 30 45 32 77-14-13-17 8-24-23-3-23-12-42-21-9 1 47 62 70 96 95 47 29 93 62 120 111 68-24 126-99 104-173 0-27-45-73-34-84 61 57 67 163 12 226-18 38-93 43-65 94 12 51-3 101-29 145-39 59-117 89-186 81ZM188 752c-86-2-163-73-177-157-1-32-7-88 28-91-5 33-5 98 2 113 17-37 6-79 12-118 8-23 38-46 19-5 8 44-30 104 14 132 28 51 93 42 136 73 34 24 88-7 113 11-9 36-78 29-111 41-12 1-24 2-36 1zm-73-214c-5-32-48-83-3-97 0 31 1 73 3 97zm167-25c-30-41-53-86-69-134 26-14 49 37 44 61 3 15 36 79 25 73zm-125-3c-14-20-56-78-20-85 10 26 15 69 20 85zm36-9c-19-23-68-80-31-97 19 11 10 76 20 67-8-57 21 52 11 30zm30-12c-26-32-24-62-46-99 19-29 43 65 48 90 1 3 12 25-2 9zm91-13c-16-36-52-65-57-105 29-11 46 56 53 84 0 4 8 21 4 21zm27-30c-20-35-49-68-63-105 43 17 55 64 66 104l3 9c1 8-15-26-6-8zm336-1c-6-27-19-69-5-91 38 15 7 77 5 91zm50-6c-13-20-49-81-10-84 13 15 39 93 10 84zm46-18c-11-28-9-66-15-94 33 16 32 78 15 94zm-26-7c-10-16-30-98 5-57 8 17 8 45-5 57zm-380-10c-24-24-57-60-68-86 38 14 78 64 75 92zm437-8c-5-25-24-69-16-83 20 15 37 89 16 83zm-272-14c-8-19 37-79 37-53-6 13-22 70-37 53zm-27 2c-2-33 28-73 54-72-24 19-32 53-54 72Zm336-5c-12-16-48-65-27-71 9 13 46 74 27 71zm-396-6c-33-31-28-79-39-120-5-17-14-68 9-29 6 28 46 56 42 9 5-23-1-55 9-71 21 55 36-20 28-44-2-21 31 17 36-14 26-28-13-84-10-97 32 21 49 79 82 86-12-51 28 24 37 41 6 25 35 40 32 1 9-8 43 71 10 54-62 53-154 59-208 124-25 27 64-30 17 8-17 8-31 61-45 52zm-75-13c-12-20-52-34-52-54 31 1 75 42 79 57-5-2 7 19-11-2-54-45 28 41-16-1zm119-8c-21-9 21-54 50-55 45-8-26 24-50 55z"/><path fill="#314025" d="M265 476c-24-21-35-62-44-89 26-8 25 57 42 77-1 1 11 21 2 12zm172-118c-29-35-24-87-36-130-8-65 43 79 55 15 5-26 0-61 10-81 21 55 36-20 28-44-2-21 31 17 36-14 26-28-13-84-10-97 32 21 49 79 82 86-12-51 28 24 37 41 6 25 35 40 32 1 11-11 31 61 22 54-34 6-72 46-113 55-54 20-104 54-134 104-3 1-4 13-9 10z"/></svg>