<svg xmlns="http://www.w3.org/2000/svg" width="32" height="32" viewBox="0 0 802.7 818.4"><path fill="#9fc48b" d="M582 817c-9-3-19-14-28-29l-6-11c-5-8-5-8-3 2 8 35-17 32-31-3-4-11-15-43-17-53-2-7-3-8-5-3l-5 6-5 7c-4 7-12 8-16 3-4-4-5-6-9-33-5-33-10-48-19-61-3-3-5-8-6-10l-4-9c-13-18-18-53-12-81 4-19 3-27-1-32-12-13-16-46-9-69l18-45c3-8 3-8-2-10-9-4-11-19-5-33 5-10 10-17 12-18l3-3 5-7c6-6 2-79-4-79-15 0-38 61-38 99 0 17-6 32-13 30-5-2-8-46-4-70 1-5-1-4-10 10l-16 23c-3 4-4 7-5 17-2 24-12 46-28 63l-8 10-10 12a81 81 0 0 0-16 28l-8 19c-13 39-26 44-25 10 1-14 0-15-4-10l-7 9-12 16c-13 17-27 34-34 39-1 2-3 3-3 5s-4 9-11 16c-3 4-6 4-11 3-3-1-3-2-6-17-2-9-2-9-11-4-23 13-45 18-55 13-19-10-40-42-44-66-1-5-2-5-4 0l-7 7-8 7c-4 3-4 3-7-1-7-8-7-17-2-49 4-20 4-23 2-27l-2-7-4-11-2-7-4-15c-21-59-21-77-1-111 2-3 2-3-1-10-19-36-12-85 16-116l3-6 26-29c4-5 4-6-1-9-22-12-28-36-12-43 10-5 12-8 10-17-1-11 4-18 16-20 10-3 33-9 46-15 18-7 31-7 39 0 7 6 11 7 19 3 20-11 37-9 39 4 1 4 3 5 13 8 10 2 10 2 10-5-1-13 13-26 30-30 52-12 119 31 153 99a278 278 0 0 1 27 87c3 23 3 22 10 20 46-13 118-1 162 28l21 11c51 24 72 22 87-8 4-7 7-8 14-6 11 4 13 10 7 23s-12 19-27 26c-6 3-7 4-5 5l10 9c16 16 34 29 42 30 9 1 17 12 17 20 0 9 2 12 5 14s3 3 3 7 0 4-6 9c-4 3-3 5 7 14 8 7 8 7 7 11v6c2 3 0 7-4 7-1 0-2 0-1 2 0 3-2 6-4 6l-5 2-8 3c-6 1-6 2-2 11 22 49 22 83-1 135-3 5-7 20-11 35a291 291 0 0 1-12 41c0 3-7 20-13 33-7 14-13 33-15 47-3 26-12 34-19 16-5-14-11-15-15-1-2 6-21 35-30 47-23 28-27 29-36 14-3-4-14-3-17 2-6 10-16 14-27 10zM463 304c2-14 32-26 68-27 16-1 16-1 20-6 9-13 21-14 33-5 13 11 12 11 11 1-2-20-2-19-6-21-46-23-93-29-130-15-9 4-8 2-4 34l3 32c1 15 3 18 5 7zm-66-51c5-9 16-21 26-28s9-6 9-12a261 261 0 0 0-53-136 177 177 0 0 0-38-35c-12-15-62-27-77-20-13 7-14 15-2 13 34-5 59 6 59 24 0 4 0 4 6 6 32 9 56 45 48 74-6 19-6 19 0 26 6 8 10 15 11 20l3 11c2 9 4 32 3 48-1 18-1 18 5 9z"/><path fill="#8cb364" d="M584 816c-11-2-20-12-33-36-9-16-11-17-8-5 4 17 0 33-8 29-12-8-22-30-36-79-4-12-4-12-9-5-13 19-17 22-24 15-4-4-4-5-10-42-3-23-8-39-16-50l-7-12-6-10c-7-11-12-28-12-47-1-12 0-16 3-38 3-17 2-22-2-26-20-20-16-58 10-116 3-6 3-6-3-8-13-5-9-38 6-49l5-6 5-6c5-4 3-42-3-74-1-9-2-9-9-2-17 13-32 60-33 96 0 15-7 34-11 29-6-5-8-52-3-70 2-11-4-3-23 26l-6 8c-4 5-4 6-5 15-2 24-12 49-27 63l-7 9a213 213 0 0 1-18 22c-3 4-15 30-19 41-3 12-9 22-13 27-7 8-9 6-9-17 0-19 0-19-6-11l-8 10-11 15c-10 14-21 26-30 35-4 4-7 7-7 9s-7 12-12 16c-2 3-3 3-6 2-4-1-5-2-8-17-2-9-3-10-9-6-15 9-35 17-46 17-21 0-53-39-53-65 0-3-3-11-4-11s-5 6-5 8c0 3-15 17-17 15-2-1-8-10-8-11 0-2 6-11 10-16l6-6c6-10 7-11 6-13 0-2 0-4 4-8l32-49c3-6 3-7 3-16-1-8 0-11 1-14 1-4 1-7-1-7l-1 1c0 12-25 51-38 59l-10 7c-4 3-5 3-5 0l-1-5-3-9c-5-18-7-25-14-43-15-46-15-67 4-98 2-3 2-3-1-10a107 107 0 0 1 15-115l6-8c3-5 24-29 26-30 4-2 4-4-1-6-20-9-30-35-16-43 12-6 14-9 13-17-2-13 2-18 17-21 10-2 25-6 38-11 23-9 25-9 34-7 4 0 7 2 11 5 7 6 9 7 20 2 21-10 33-9 36 3 1 5 2 6 14 9 11 3 11 3 11-5-1-8 0-10 8-18 18-20 57-18 95 2a174 174 0 0 1 54 46 279 279 0 0 1 51 126c3 23 2 22 11 20a186 186 0 0 1 86 0c30 5 55 14 76 28 53 35 93 36 110 2 2-5 3-5 6-5 27 0 17 31-16 48-6 3-8 6-4 7l9 8a126 126 0 0 0 46 31c10 4 14 9 15 22 1 9 1 10 4 12 6 3 1 15-5 15-3 0 0 5 8 12 9 10 9 9 7 12-2 2-2 3 0 5 2 4 2 4-2 6-3 1-3 2-3 4 1 3-8 8-17 10-6 1-6 2-1 11 21 48 22 82 1 130-5 12-9 24-13 40a305 305 0 0 1-26 75c-5 10-12 33-14 46-2 25-10 33-16 18-7-18-13-18-18-2l-21 34c-21 31-35 41-41 30-3-6-4-6-14-6-4 0-5 0-7 4-4 9-13 13-24 10zm134-164c7-4 13-10 17-20l7-12c4-7 2-9-8-5-13 4-24 4-37-2l-7-2-5-3-15-8c-1 0 0 5 2 9l7 12c16 29 28 38 39 31zm-177-9 14-11c8-8 8-8 10-5 4 5 5 4 9-2 11-19 24-50 24-57 0-4-1-6-2-2 0 2-6 7-8 7l-4 5a3375 3375 0 0 1-58 40c-1 0-4 0-6 2l-5 2c-3 0-2 3 3 7l7 10c7 9 8 9 16 4zm171-49c23-2 27-3 29-11l2-9c2-9-4-14-19-17l-14-4-30-15c-4-3-5-3-8 2-4 6-15 17-20 20-6 3-6 6 0 14l6 9c7 13 10 13 54 11zm-168-13c9-3 19-8 31-16 7-5 11-6 11-2l2 1c2 0 4-4 3-5h4l-3-6-1-3c-1-3-9-15-14-20l-8-10c-7-9-5-9-17 2a269 269 0 0 1-47 37c-10 6-11 10-5 15 3 3 6 5 17 8 5 2 18 1 27-1zm97-27a157 157 0 0 1 3-27c0-2-8-10-13-13l-5-3-3-3-9-6c-6-5-6-4-3 2a330 330 0 0 1 14 30 262 262 0 0 1 12 31c1 2 4-6 4-11zm-140-24 15-11c26-22 32-31 29-40-4-10-7-17-11-34s-4-16-11-8c-17 17-30 56-31 84 0 10 2 12 9 9zm239-1c0-8-16-33-33-50-10-10-12-8-16 16l-5 14c-6 14-6 14 2 16 25 6 52 8 52 4zm-81-23c5-5 8-11 11-26l3-11c2-8 2-26 0-28l-1-17c-1-16-1-17-11-21l-5-3-5-3-11-4c-7-3-8-3-15 1-10 7-21 9-36 6-25-6-17 31 16 70l13 17c18 23 30 29 41 19zM267 390a130 130 0 0 0 31-35l6-9c12-13 11-46-1-48a287 287 0 0 1-31-9c-9-4-17-6-29-7-13-1-13-1-15-11-1-11-8-14-9-4l-2-7c-1-5 0-5 1-5h14c4-1 14 2 34 10 16 6 36 13 40 13 9 0-4-38-21-62a599 599 0 0 1-16-23c-2-5-4-4-5 0-6 16-30 31-52 31-13 0-12-1-10 15a433 433 0 0 0 29 99c3 4 5-7 3-15-1-5 2-7 8-4 6 2 11 3 34 6 16 2 27 7 24 10-3 4-24 16-42 24-11 4-11 5-9 14 2 7 3 13 2 15-5 5 8 7 16 2zm-155-9c11-7 40-34 40-38l-7-3c-10-3-17-7-21-10l-5-3-1-1 2-1c2 0 2-4 0-5l-6-2c-5 1-10-5-15-14-4-9-4-9 6-3a132 132 0 0 0 37 14l13 4 10 2c2 3 8-1 13-8 4-6 4-6-1-19a158 158 0 0 1-10-25 541 541 0 0 1-46-4c-11-2-16-2-23 0l-8 2c-6 2-9 36-5 66 2 12 3 18 2 26-1 19 11 30 25 22zm350-71 2-5c1-7 3-9 12-14 21-10 32-13 56-13 16 0 16 0 20-6 7-10 19-13 26-8a189 189 0 0 0 15 11c3 3 5 2 4-2a683 683 0 0 1-3-24c0-2-3-3-8-5l-15-7c-8-4-26-10-40-13-33-7-83 4-80 17l6 57c1 14 1 16 5 12zm-64-57c5-8 15-20 24-25 11-8 11-9 11-16a238 238 0 0 0-38-114l-7-11-5-7-9-10a144 144 0 0 0-34-31c-19-16-63-26-78-17-9 5-14 16-6 15 38-6 63 4 63 23 0 5 0 5 7 7 34 9 57 46 47 77-5 12-4 14 1 22 6 7 11 17 11 20l2 9c3 12 5 36 4 52-2 18-1 19 7 6zm-285-4c13-3 31-5 37-5 8 0 9-1 6-4-8-10-13-23-14-39-1-9-1-9-6-5-10 8-11 10-29 34-12 17-15 27-6 23l12-4zm107-64a37 37 0 0 0 11-5c12 0 49-55 41-61l-7-7c-5-6-7-7-6-4v2l-2-2c0-2-5-5-7-4l-1-1-6-4c-5-2-6-3-6-5 0-3-3-5-4-3 0 1 0 0 0 0 1-5-22-9-34-5-8 3-10 4-13 9l-3 8c-3 5-3 12-1 17l2 8c0 3 2 6 7 18l10 27c5 15 7 16 19 12z"/><path fill="#728d3c" d="M581 815c-9-3-22-19-33-40-6-14-9-14-6 0 3 13 1 30-4 30-2 0-12-11-18-20-3-4-14-36-20-58-4-14-5-15-7-11l-12 15c-3 6-10 9-14 5-4-5-4-5-11-45a142 142 0 0 0-10-38l-5-10c-4-4-7-10-8-13l-4-8c-14-18-17-46-11-86 3-18 3-23-2-27-2-2-4-4-5-8l-3-7-4-20c-2-15 6-44 22-78 4-9 4-9-2-10-13-4-9-40 6-49l4-5 5-7c5-4 5-19 1-54-2-16-5-27-6-27-9 0-28 31-34 56l-6 42c0 17-9 40-12 30-6-20-6-47-2-67 2-10-1-10-9 2a2290 2290 0 0 1-22 33c-2 2-3 4-4 15-3 25-12 48-26 60l-7 9-14 17-10 14a527 527 0 0 1-13 32c-13 38-23 41-21 7 0-16 0-17-7-8a463 463 0 0 1-22 28c-7 11-26 32-30 35-2 2-4 4-4 6s-3 6-6 10c-11 13-15 13-19-4-3-16-2-15-14-8-16 9-33 15-43 15-19 0-50-39-51-62a42 42 0 0 0-2-13c0-6-5-3-7 4-3 8-3 8-16 17-4 3-10-11-6-14 6-5 7-7 7-9l2-4c5-6 11-17 10-19l3-6 23-33c6-10 7-9 4 5a135 135 0 0 0 3 51c2 11 53-21 53-34l2-11 7-57-9 5c-18 13-20 14-30 14-14 1-18-2-17-14 0-9 3-11 9-6 8 8 13 6 30-7a305 305 0 0 0 50-54c10-11 10-13 4-26-5-10-8-19-11-32-5-18-6-21-9-23-9-8-15-24-15-42-1-9-3-19-3-11l-9 10c-45 44-57 85-48 155 2 11 0 17-7 37-9 23-20 39-33 46l-8 5c-3 3-5 3-5 0l-1-3-7-23a193 193 0 0 0-9-30l-5-13c-11-29-9-53 6-80 5-7 5-7 1-13-17-36-12-83 14-113l5-8c7-10 28-33 30-33s2 1-1 11c-6 18-15 56-14 58 1 1 3 0 9-4 13-9 46-23 57-25 16-3 18-5 18-14s4-22 10-33c7-14-1-23-20-23l-13-2c-3-2-8-2-13 1-4 2-7 4-18 16-11 11-16 11-28 0-15-12-17-26-5-33 8-5 14-11 13-13-6-14 2-25 18-24 21 1 39 4 59 10 27 9 33 10 44 9 18-2 24-1 30 2l14 5c11 2 13 3 17 9l6 5 5 3c1 2 22 4 23 2l-1-2 1-2 2 1 2 3c2 1 2 2 0 2-9 3-6 12 3 13 7 0 8 3 2 9-5 4-9 3-29-5-16-8-16-8-14-14 2-5-29-11-44-7l-11 2c-12 0-15 17-7 36l2 9 6 15c9 19 16 42 16 50 0 5 0 5 3 5s15-4 18-7c28-20 29-20 40-19 8 2 8 2 16-5 5-6 8-8 11-8 5-1 7-4 2-6-2-1-2-2-2-6 1-7 0-11-5-16l-4-6-1-3-2-4c1-2 1-2 2 0l8 9c2 0 5-10 5-18 1-10 1-10 4-10 3-1 1-7-2-7-1 0-3-1-3-3l-3-1c-3 3-7 0-5-3l1-4c-1-6 1-4 17 13 7 7 7 7 7-4 0-8 0-8 4-6l28 20c11 9 10 9 14-1 3-10 5-12 6-12s2 1 7 10c5 10 7 25 5 35-6 24-6 21-1 27 7 10 11 17 12 24l3 13c1 6 2 13 2 35l1 28 9-13c5-8 15-18 25-26 10-7 9-5 6-32a257 257 0 0 0-69-137l-12-11-10-6c-5-4-24-14-32-16-20-6-37-7-45-2-7 3-14 13-11 17 1 2 0 5-3 5-13 0-15-14-3-27 16-16 45-19 73-8l9 3c37 11 85 65 103 117a361 361 0 0 1 17 74c2 10 2 10 9 8 46-14 119-2 163 27a249 249 0 0 0 60 26c24 6 38 0 52-26 4-9 21 0 19 10-1 5-9 20-12 22-8 7-9 7-28 17-5 3-21-1-20-4s-4-4-7-2l-6 2c-3 0-4 0-4 2-1 4-3 4-6-2-4-6-8-8-17-9l-12-3-6-2-12-6c-14-6-14-7-13 5v13a709 709 0 0 0-4 22c-7 13-2 17 23 16 17 0 21 1 35 6 11 3 21 2 13-2a583 583 0 0 0-18-10c-3-2-3-5 0-3 12 9 26 12 36 9 7-2 17-1 31 2 7 2 15 3 22 3 9 1 12 1 17 4l10 3 6 3c4 5 6 11 6 15 0 8 2 12 4 14 6 2 5 8-1 12l-5 4c0 2 4 7 10 13 8 6 9 8 6 11-1 1-1 1 1 4 2 4 2 4-3 6-3 1-4 2-3 4 2 2 1 4-1 4l-7 3-7 3c-7 0-8 2-3 12a142 142 0 0 1-2 136l-9 34a314 314 0 0 1-13 41c0 3-9 25-13 33-5 10-12 31-14 43-4 28-10 36-16 20-6-17-13-18-19-2l-9 17a1167 1167 0 0 0-18 27c-26 30-27 31-33 21-4-6-4-6-11-7-9 0-9 0-12 5-4 9-16 13-26 9zm21-25c1-1 7-5 11-10l15-13c5-5 7-7 4-7-8 0-21-12-22-21-3-12-4-12-18 1l-11 9c-5 0-4-2 10-15 10-11 10-11 8-15-7-9-16-24-23-37-10-21-10-21-16-16-15 12-24 13-37 4-7-5-9-4-4 2l5 10a204 204 0 0 0 34 59c3 3 5 7 6 10 3 4 4 4 7 2l4-2-1 3c-3 3-1 11 5 21 9 15 15 19 23 15zm60-56 9-6 9-10c9-9 9-10 12-23 3-10 3-8-7-22l-11-14c-5-9-6-9-11 0a622 622 0 0 0-32 51c-16 21 4 37 31 24zm-33-31 15-25 6-9c14-18 15-24 5-41l-14-29c-17-39-16-39-23-21a458 458 0 0 1-32 62c-3 6-3 7 3 16l7 12a374 374 0 0 0 25 38c2 4 2 5 8-3zm94-43c6-6 11-15 15-25a442 442 0 0 1 9-22l3-11c4-13 5-17 4-26 0-9-1-12-6-33-5-22-19-45-38-64-13-13-14-13-18 7-8 33-25 64-41 73-7 4-6 9 1 17l3 6 4 7 7 13a260 260 0 0 0 36 54c1 3 10 9 15 9l6-5zm-164-7 6-10 8-15 13-24c17-37 17-38 11-49-4-6-14-20-20-26-10-11-27-40-32-52l-13-45c-1-6-5-4-14 8-24 31-33 78-25 122 2 6 3 15 3 20 2 9 4 22 7 30 1 4 9 15 14 20l6 7c13 17 27 22 36 14zm82-90 1-8 2-13c3-18 1-22-12-29l-4-3-5-5-9-6c-5-5-6-5-7-3-1 1 0 4 13 30l14 34c3 9 4 9 7 3zm-523-15 10-5 11-5 16-8c21-9 20-8 14-15l-10-12-17-26a1247 1247 0 0 1-40 33c-3 2-3 3 0 14 3 7 3 11 3 17 0 12 1 12 13 7zm538-36c6-3 10-8 12-12 15-45 14-92-1-107-4-3-4-5-2-6s1-2-1-4c-3-2-3-2 0-1l2 2 4 1c8 2 26 29 28 43 1 6 0 6 8 7 10 1 23 6 30 11 20 16 24 17 25 8l1-12c1-7-2-21-9-35a149619 149619 0 0 1-13-31c-4-12-21-23-35-21-16 2-27 7-28 14 0 4-3 7-7 8-3 1-10-3-9-6s-6-6-11-6c-3 0-4 0-5-2l-2-1-9-13c-3-4-5-6-10-9l-10-8c-6-6-7-6-17-7-11-1-25 3-29 7-6 5-14 7-13 2l-1-4c-2-1-2-2-1-4 2-3 0-5-7-8-2 0-6-3-8-5-5-4-6-4-13-1-6 2-11 2-16-1-5-2-27-6-30-5s-2 2 2 3c11 2 11 3 11 39 0 34 0 37 7 46 8 10 13 9 31-9l6-4 6-9c7-11 10-12 5 0-3 7-3 7 0 7 4 0 4 1 2 5-1 4 0 5 5 2l5-4c0-3 1-3 7-5a3149 3149 0 0 0 44-9h3l5 2-5 1c-12 0-13 3-5 9 3 2 4 5 4 6 0 6 3 6 12 0 12-8 33-10 34-4l-1 3-11-1c-12-1-16 0-22 6-6 7-19 10-29 7-19-5-21-4-22 13-1 19 6 36 25 57a159 159 0 0 1 18 23c14 19 29 27 40 22zm-455-5c12-7 36-37 46-57 5-11 5-13-6-23-11-9-14-11-17-7l-21 23a83 83 0 0 1-41 21c-2 2 31 46 34 46l5-3zm-44-64c59-24 71-41 56-81l-5-17c-6-28-4-27-15-14l-16 17c-30 31-28 28-32 53-5 43-4 48 12 42zm111-51c6-3 14-8 18-12 3-2 16-21 21-31 8-15 9-31 4-77-3-19-6-28-22-57l-3-6c1-1-2-5-4-6l-6-12c-1-2-10-10-12-10l-1 5c2 17-24 35-52 36-12 1-12 1-12 5a399 399 0 0 0 28 104 367 367 0 0 0 11 30c8 34 12 39 30 31zm194-82 2-5c1-5 4-9 10-12 39-20 68-18 105 7a97 97 0 0 0 13 8l4 3c3 0 4-17 2-25l-1-9c3-17-3-30-14-35l-14-7-12-4-16-5c-22-6-60-5-81 3-11 4-11 4-9 16 3 17 5 43 5 54 0 12 2 16 6 11zm-98-55 1-10 2-7c6-10 7-46 2-54-12-18-27-31-42-39-26-13-34-14-28-2 3 6 3 7 3 19 0 14 4 23 17 38l17 22 12 20c13 25 12 24 16 13z"/><path fill="#526a27" d="M581 814c-9-3-21-19-32-40-9-18-13-19-9-1 3 11 3 17 1 24s-3 8-8 2a83 83 0 0 1-22-39 1432 1432 0 0 0-16-47c-3 0-11 9-14 15-2 7-9 11-11 8l-3-2c-3-2-4-6-6-19l-4-23c-3-22-9-38-16-50l-7-12-4-8c-13-19-17-46-11-83 3-19 3-26-2-31l-6-8-2-6c-10-16-3-53 18-98 4-9 4-9-1-11-15-3-13-31 4-49 16-16 16-19 10-68-4-27-4-28-12-22-11 9-23 31-29 54l-6 44c0 22-8 36-12 21-4-16-4-43 0-61 1-7 1-8-1-8s-5 4-14 17a444 444 0 0 1-14 20c-3 10-4 1-1-21 1-13 2-16 6-29a1241 1241 0 0 0 13-46c5-11 6-46 1-54-16-25-53-51-73-52-5 0-5 1-3-7l2-13c1-11 7-10 9 2 0 2 2 4 5 5l8 7 6 4 4 3 6 4 27 20c19 15 26 35 27 75l-1 26c-1 12 3 11 11-3 5-9 14-19 23-26 13-9 13-8 12-16a248 248 0 0 0-38-115l-7-11-5-7a203 203 0 0 1-14-16l-8-9-13-10-7-4c-8-10-50-25-67-23-14 2-23 8-25 20-1 7-9 4-10-4-3-23 37-38 72-27a115 115 0 0 1 33 14c40 22 95 102 95 140l2 6 4 24c3 22 3 24 8 22 6-3 38-9 39-8l16 1a152 152 0 0 1 39 6c26 5 54 15 71 27 9 6 37 20 44 21l15 4c26 7 43-1 53-25 4-8 20-2 20 8-1 11-14 26-29 34l-9 5c-2 2-18 0-18-4 0-3-8-5-12-2-4 2-12 0-20-4l-12-4c-9-1-20-5-33-11-11-6-12-5-10 3 1 8-4 41-6 34-3-16-5-27-6-42l-2-9c-3-2-31-15-38-16-24-7-28-7-41-8-42-3-68 6-65 23l6 50c0 19 6 25 9 10 2-6 4-9 13-13 11-5 14-4 7 2-11 11-12 15-4 16 6 1 7 5 5 40-1 15-1 18 3 34 3 11 3 13 7 16 7 7 17 4 30-9 12-11 14-7 2 4l-8 9c-2 2-18 17-23 20-12 8-19 18-22 29l-4 14c-2 9-2 39 1 58 3 21 9 44 13 48l3 11a117 117 0 0 0 29 50c22 30 37 33 49 11l5-10c7-11 30-59 31-67 1-6-10-24-24-39a201 201 0 0 1-44-93c-4-14-4-15-2-22 3-10 11-20 19-24 5-3 6-2 7 9a121 121 0 0 0 11 42c2 8 5 13 15 28a1649 1649 0 0 1 14 18l7 9 4 9c15 31 21 46 23 54 3 10 6 12 9 6s6-34 4-47c0-3 0-3 5-3 11-2 18-8 23-21l4-10c2-5 5-22 5-34 0-11 2-16 7-14l4-1c3-1 6 2 5 8 0 5 0 5 5 8 10 5 12 7 20 16 8 8 19 24 19 26l3 7 4 13 3 11 1 7c0 4-3-1-8-14l-4-8-4-7c-4-12-29-40-38-43-2-1-4 3-7 13a82 82 0 0 1-6 19l-3 9c-5 9-6 13-5 14 6 4-13 33-29 45-2 2-4 3-4 5l-1 5c-1 4 0 6 5 14 3 4 6 8 6 10l9 18 11 17c13 22 31 42 40 43 7 1 8 2 9 3 1 2-3 6-6 6s-3 1 0 4c4 4 8-2 10-14 2-10 4-17 7-23 15-27 29-58 35-82 6-23 3-77-5-96-3-5-3-7-2-14 2-24 0-34-12-60l-7-16-4-10c-1-3-1-3 2-6 12-10 16-13 16-16 2-4 18-16 20-14 3 3 6 10 7 19 0 6 1 8 2 9 7 5 7 9-1 13-6 4-2 12 11 21 2 2 3 6 1 6s-2 3 0 6c3 3 3 2-4 5a634 634 0 0 1 0 6l-8 3-9 4c-7 1-7 3-2 13 14 33 19 63 14 88-2 13-4 20-11 37-6 13-12 33-14 45a215 215 0 0 1-27 69v2a240 240 0 0 1-11 35l-3 13c-1 25-10 34-14 16-2-9-11-17-14-12l-3 3-3 7-8 16-12 18c-7 13-29 38-33 38-2 0-5-5-7-9-3-6-19-5-22 1-5 9-16 13-26 9zm21-22 13-10 11-11c13-10 15-13 9-13-10 0-22-9-24-18-1-7-3-10-5-13l-3-3c0-1-1-4-4-7l-22-36c-11-22-11-22-14-19-16 13-25 14-38 5s-20-5-14 7l4 10 7 12a32336 32336 0 0 1 28 40c7 7 19 26 19 28s14 22 17 24c6 6 10 7 16 4zm50-50a542 542 0 0 1 22-15l9-10c8-7 8-8 11-21 3-12 3-10-14-32l-5-7-5-6-5-6-10-22-11-23c-1-5-17-37-19-38s-3 2-9 17c-6 16-19 41-28 56-7 11-8 14-5 21a207 207 0 0 0 37 59c2 3 2 4 2 8-2 13 18 27 30 19zM170 572l-3-10c-3-16-4-17-12-12-27 19-53 21-67 5-23-24-29-35-29-53 1-16-2-21-9-19s-16 15-13 19c2 3 3 3 6 0l3-2-2 4c-8 7-12 9-15 7-4-5-4-6 2-12 4-4 5-6 5-8l6-12c4-5 6-10 6-11l6-10 13-19c7-12 8-12 6-4a143 143 0 0 0 2 46c3 15 11 18 27 8 20-12 31-24 34-38 2-14 3-15 6-9 8 20 80-26 86-55 1-4-3-13-9-21-4-7-7-14-10-27-6-25-4-25-23-4a224 224 0 0 1-18 20c-36 39-75 58-82 40-4-10 1-16 8-9s11 7 20 1c7-4 9-5 20-18l14-16c8-8 25-28 31-37 6-8 5-9 0-21-5-10-8-20-11-32-3-14-7-22-9-24-9-6-15-24-15-43 0-16 0-16-3-19-10-14-9-35 2-59l6-10 5-8c9-18 32-34 38-25 1 2 1 2-4 3-8 1-19 12-23 25-3 6 0 17 7 33 13 25 25 65 26 84a315 315 0 0 0 18 83l5 15c5 11 13 37 22 62 5 18 6 20 15 20 14 0 14 6 8 82v8l1-3c0-4 9-24 16-37l7-15 10-44c4-18 10-38 17-49 6-10 10-23 11-35 0-10-2-14-3-7-1 3-1 3-4-1-3-3-3-6 1-13 2-4-1-21-6-31l-5-14a299 299 0 0 0-20-46c1-2 13 12 20 23l7 11c15 22 18 75 7 126a236 236 0 0 1-10 36c-4 13-12 32-21 50-14 28-17 36-20 44-5 16-14 33-17 33-2 0-3-7-2-23 0-21-1-21-13-4l-5 7-10 12a347 347 0 0 1-37 44c-2 10-17 23-20 18zm-47-24a405 405 0 0 0 37-18c17-7 18-8 11-15l-24-33c-5-8-7-9-11-5-4 5-19 17-34 28-7 4-7 4-2 18 4 11 4 12 2 23-1 4-1 4 2 6 4 2 6 2 19-4zm78-39c16-8 51-56 51-69 0-5-9-15-20-22-6-3-7-3-12 3-10 14-32 29-55 39-10 4-10 4-7 8 5 10 35 44 38 44l5-3zM31 439l-1-3-3-8c-4-17-7-25-13-43-16-45-16-65 0-92 5-9 5-10 2-17-13-24-13-63-2-85a203 203 0 0 1 22-36c2-3 19-23 24-27 4-4 5-3 2 5a305 305 0 0 0-13 63c3 2 0 15-7 33a380 380 0 0 0-12 60l-1 11c-9 14-9 47-1 82 11 46 10 44 18 37 5-5 5-5 4-41-2-80-3-74 12-93l8-13c6-10 8-10 6 0-6 19-7 39-5 58 3 21 3 24 2 33v14c1 4 0 7-3 14l-4 13c-1 8-13 24-20 28l-9 5c-5 4-5 4-6 2zm15-164c0-21 14-48 37-72 6-6 31-19 37-19l5-1c6-2 1 3-8 8-14 7-33 24-43 38a195 195 0 0 0-24 46c-2 8-4 8-4 0Zm156-55c-2-2 1-5 7-8 12-5 14-7 17-10l6-4c6-2 14-8 16-11 4-6 11-9 13-5 8 16-22 40-50 40-5 0-9-1-9-2zM57 114c-14-10-18-18-17-28 0-7 1-7 7-10 11-7 12-8 12-20 0-18 20-24 25-6 2 7 3 7 6 8 6 1-2 8-12 10l-4 3c-2 4-8 10-10 10-4 0-4 1 0 5 4 5 7 6 19 6l9 1c0 2-19 20-24 22-6 2-7 2-11-1z"/><path fill="#39501f" d="M468 733c-3-1-4-2-10-41l-9-36c-2-6-3-8-9-15-10-15-10-28 1-53l7-17c5-10 11-21 13-21 1 0 3 2 7 14l10 24c23 45 29 60 25 67-6 9-9 23-8 38 0 13 0 14-3 11-2-3-3-2-4 4 0 3-2 6-4 9l-4 8c-1 3-3 6-5 7-3 3-3 3-7 1zm136-167c-3-10-14-26-24-37a259 259 0 0 1-37-63c-13-48-13-49-4-62 5-7 13-14 15-14s2 1 3 17a91 91 0 0 0 9 32c4 11 6 15 17 31a2114 2114 0 0 1 14 18l7 9 3 7a2594 2594 0 0 1 19 45c-1-3-3-1-11 11-9 13-9 13-11 6zM461 464l1-34c3-46 2-61-6-57l-14 9c-1 2-10 3-17 2-13-2-8-39 6-46l4-5 6-7c4-4 4-4 3-25a450 450 0 0 1 2-36c3-14 8 9 8 34 0 15 1 16 12 12 4-2 5-2 11 0 8 1 8-1 6 42-1 20 4 42 12 49 5 5 8 5 14 3 5-3 8-3 7-2 0 2-15 15-21 18-15 10-20 18-26 42l-7 21-1-20zm-221-78-6-5c-3-2-5-4-8-9l-5-8c-4-5-7-13-11-30-4-16-5-17-8-17l-7-4-7-4-3-3-8-16-10-33c0-4-5-18-7-19-8-3-16-27-15-44 1-15 1-15-1-17l-1-4-2-4c-8-10-7-28 3-50 8-15 11-15 8 0-4 20-5 25-5 42 0 10 1 11 8 4 6-5 12-13 15-19s3-6 12 18c8 24 12 37 14 54a568 568 0 0 0 37 139l5 20c-1 1-1 4 1 4 1 0 4 6 3 7l-2-2zM56 112C39 99 35 84 46 77c12-6 15-10 14-19-2-14 5-20 17-15 4 2 5 2 6 8 0 2 1 5 3 6 2 3 1 5-6 7-5 1-6 3-11 8l-7 7c-5 0-5 3 0 8 5 6 7 7 18 7 10 0 10 0 6 4-16 17-22 19-30 14zm188-74c-13-5 7-29 26-32l8-2 2 3 2 4V8l2 1 2 1h2c1 3 3 1 4-2 1-4 1-5 5-3h2v2h3l1 1v2c-2 1-2 3 0 3l3 1 3 1c1 0 3 0 3 2l1 2 2 2c0 2-1 2-8-1-30-9-51-4-58 13-2 5-2 6-5 5z"/></svg>