<svg xmlns="http://www.w3.org/2000/svg" width="32" height="32" viewBox="0 0 597.5 838"><path fill="#d2d2a9" d="M130 837C45 828-9 747 7 652a417 417 0 0 1 59-149c9-8 9-11-1-16-45-24-76-91-61-130l2-12a410 410 0 0 1 68-160c2-5 17-23 22-28 27-25 48-36 71-36 10 0 15 2 35 9 19 7 18 7 16-1a182 182 0 0 0-5-20l-3-9c-2-5-2-13 0-52 1-27 1-27-2-37l-3-9c1-2 8-3 11-2l5 1c5 0 6 2 6 14 0 14 3 21 17 37 10 10 16 19 16 22l1 3 5 8c5 8 8 13 22 29a357 357 0 0 1 19 27 262 262 0 0 1 29 42l12 24c4 9 4 9 7 9 7 0 20-3 25-4 56-20 119 15 157 86a572 572 0 0 1 42 111c7 17 8 21 11 34 16 61 6 115-26 140-6 4-21 11-25 11-9 0-22 6-32 14a97 97 0 0 1-80 22c-35-9-64-33-87-72-3-7-4-6-2 9 5 33-7 74-33 114a354 354 0 0 0-20 45l-7 14c-11 23-24 42-39 57a155 155 0 0 1-34 26c-17 12-46 17-75 14zm135-386 3-8 3-7c1-3 1-4-2-10l-4-14c-3-10-3-10-11-1a68 68 0 0 1-22 21c-9 5-9 5 3 9l17 9c11 6 11 6 13 1zm66-227 6-3a120 120 0 0 0-11-33c-3-11-12-25-28-46-28-34-30-37-51-68-12-18-11-18-16-11-6 9-2 32 15 84 2 7 4 10 9 11 36 8 60 29 68 61l2 6 6-1z"/><path fill="#c4b253" d="M129 836C64 830 13 772 7 708c-6-57 13-114 36-166 8-23 54-52 10-65-40-30-62-87-44-135 14-65 42-127 83-179 25-27 65-51 103-34 32 6 44 22 73 35 30 7 50 33 56 61 29-6 61-16 92-16 65 2 111 60 131 116 17 47 38 93 47 143 6 43 1 99-42 121-35 3-57 34-91 40-55 11-101-34-124-79 0 20 4 72-16 99-24 41-38 88-66 127-26 37-69 65-116 60h-6zm148-376c-1-16-6-53-19-56-10 20-56 34-14 43 10 1 28 23 33 13zm-37-276c-2-33-63-35-38-1 13-1 26 3 38 1z"/><path fill="#b29c4b" d="M132 835c-60-3-111-52-122-111-13-61 8-123 33-179 4-21 39-45 33-62-28-7-17-51 8-28 23 31 47-23 77-20 30 2 56-9 64-40 14-34 16-72 37-104 15-30 39-59 74-67 33-8 68-21 102-13 52 15 89 62 108 111 16 46 36 90 46 138 7 43 5 96-32 124-31 8-58 26-87 41-50 18-101-16-125-58-6-12-21-33-12-6 11 61-31 109-52 162-22 54-67 111-130 113l-22-1zm145-375c0-15-6-55-19-56-7 18-58 33-18 41 11 1 29 25 37 15zM54 360c24-24 37-57 55-86-11 32-24 66-52 87h-2zm-9-67c17-40 44-75 71-110 6-8 28-28 10-6-30 37-55 77-81 117z"/><path fill="#a26f49" d="M128 834C62 830 12 769 7 706c-4-59 15-118 41-170 7-18 32-40 31-52-23-3-25-49 2-29 27 35 55-23 88-20 44-14 80 18 116 37 4-8-16-44-19-63-19-55-11-122 30-164 36-26 82-33 126-36 57 5 98 55 119 104 19 45 35 92 49 138 10 43 10 95-25 127l-100 49c-53 12-102-28-124-73-16-20 2 27-4 35-4 53-39 95-57 143-23 52-70 105-132 103l-20-1zm-13-207c12-32 20-66 26-100-15-18-22 31-29 41-5 11-20 69 3 59zm358-270c10-30 4-70-30-80-32 9-6 65 12 79 6 4 13 4 18 1z"/><path fill="#9e4325" d="M185 816c-4-38-19-90-66-90-25-4-62-13-76 16-9 29 13 56 32 74-62-37-80-120-61-186 17-75 56-153 129-186 47-20 103-6 138 30 21-5-15-38-11-54-17-57-21-128 25-172 10-11 53-28 48-21-9 5-49 20-36 23 22-8 60-15 70-27-34-4 23-13 34-13 48-2 90 32 113 72 30 51 46 109 64 165 11 43 12 96-21 130-32 17-66 29-96 48-53 16-106-23-128-69-21-30 1 35-9 47-8 46-38 84-54 127-19 41-48 83-93 98-3-3-1-8-2-12zm-69-189c13-31 20-65 27-98-17-31-30 27-36 42-5 13-20 66 9 56zm358-268c11-30 5-70-27-84-38-4-18 47-8 66 6 13 20 23 35 18zM111 803c-41 12-60-57-15-63 35-15 88 44 42 62-9 2-18 1-27 1zM78 480c-32-8-4-49 13-16 3 8-3 22-13 16z"/><path fill="#943325" d="M110 802c-34 10-58-43-23-58 28-13 72 7 68 41-4 21-29 18-45 17zm317-177c-53-12-82-63-101-109-19-30-49-56-53-93-17-46-22-100 4-143 9-22 32-29 53-34l72-23c26 9 59-18 78 14 23 19 40 44 56 68 20 50 40 100 53 152 10 43 7 98-33 125-25 11-52 19-75 36-16 10-36 9-54 7zm-66-210c37-8 3-54-21-46-16-6 13-3-7-10-12-7-35-33-42-25 10 5 46 27 15 21-13 0-17-23-12 1 8 25 23 56 51 60 6 1 11 0 16-1zm117-58c25-26 7-73-24-86-40-15-37 36-25 59 6 17 32 44 49 27zM74 477c-28-9 2-41 15-15 5 10-5 26-15 15z"/><path fill="#6f2920" d="M92 800c-21-5-30-34-14-48 22-23 66-10 76 19 6 15-7 31-22 31-14 1-27 0-40-2zM79 478c-15 2-26-31-5-25 15 4 22 17 5 25z"/></svg>