<svg xmlns="http://www.w3.org/2000/svg" width="32" height="32" viewBox="0 0 647 660.1"><path fill="#f9c841" d="M127 659c-56-11-83-76-56-133 18-38 63-87 90-98l11-4c11-6 19-32 11-36-51-26-57-122-11-174l5-6 4-5c9-11 8-30-3-53-7-15-9-22-9-35-1-16-1-15-7-15-11 2-15 6-27 24-23 35-30 68-36 180-5 92-9 116-29 181a4948 4948 0 0 0-28 91c-1 7-7 6-7-1l-6-14c-38-86-39-237-2-327 29-69 87-132 129-139 13-2 12-2 12-12 0-19-8-49-16-57l-8-23c0-3 0-3 7-3 8 0 9 1 16 17 5 11 10 20 15 26 6 6 6 5 7 31 1 44 7 63 22 63l7 1c19 6 40 8 80 8 87 0 149 14 192 42 12 8 21 16 35 29a580 580 0 0 0 99 80c8 4 25 19 23 21-1 0-50 2-72 1-42 0-104-17-148-39-13-6-55-31-91-53l-59-34c-32-18-43-25-53-34a5898 5898 0 0 1 21 26 627 627 0 0 0 97 89c9 8 10 8 20 7 33-5 79 12 101 37 46 51-4 130-65 101-33-17-59-66-57-109 0-19-6-31-23-42-8-5-7-6-7 23 1 52 1 51 9 58 28 21 47 76 42 119-12 89-130 82-130-8 0-34 32-98 55-109 12-6 14-12 16-47 1-25 1-33-5-43l-3-8-33-36-51-55c-23-25-29-29-21-14 8 14 8 14 10 35 2 13 4 18 12 21 24 10 51 42 62 75 20 62-9 116-63 116l-12 1v8c0 12 3 21 11 35 11 19 20 59 22 96 5 78-44 135-105 124z"/><path fill="#f7ae0f" d="M133 658c-58-6-89-73-61-131 18-37 62-87 89-97 17-7 23-14 25-28 2-12 2-12-4-16-32-18-47-62-37-105 7-32 17-55 29-66l4-7 3-4c10-5 8-32-2-55-7-14-9-20-10-36-1-18-10-20-22-7-18 20-33 53-38 84a839 839 0 0 0-10 115c-5 87-9 112-29 178a13912 13912 0 0 0-30 93c0 24-29-60-34-100-18-139 6-247 73-325 23-27 63-58 69-54 1 1 9 0 16-2 5-1 7-10 4-29-2-14-10-35-15-40-2-3-9-23-8-24l6-1c7 0 9 2 15 16 5 11 10 20 15 26 6 6 6 5 7 30 0 40 7 62 18 64l10 2c21 5 37 7 92 8 112 2 162 19 218 72l56 50c12 8 40 28 43 28 5 2 21 19 19 20l-19 1h-20c-7 5-69-2-107-11-43-12-65-22-137-65-49-30-65-39-88-51-27-15-43-26-51-34-5-5-7-6-7-4a1384 1384 0 0 0 102 104l22 16c13 11 12 10 26 9 35-3 80 15 100 40 42 51-11 123-68 94-24-12-44-42-53-81l-2-23c0-23-8-37-26-46-7-4-7-4-6 13l1 37c0 27-1 24 14 39 31 30 45 96 30 134-26 68-122 45-122-29 0-33 31-95 53-107 9-5 15-13 16-22 5-33 3-66-3-71l-2-5a2520 2520 0 0 1-110-117c-3 0-2 1 7 20 3 5 3 7 4 18 2 20 5 25 14 30 89 42 87 191-3 188-12-1-12-1-11 14 1 11 2 13 10 30 10 20 11 24 18 58 6 35 7 69 1 88-15 51-51 79-94 74zm-28-58c2-4 2-5 1-14a388 388 0 0 1 14-97c7-17-9 8-19 31-6 13-6 13-8 14-3 0-3 1-5 10-1 11-2 12-3 12-6 0-7 3-1 11 5 5 6 11 1 12-4 0-1 5 5 7 4 2 4 2 5 6 3 16 5 18 10 7zm158-107 2-6c0-2 1-3 3-5s2-2 1-6c-1-3 0-5 1-9 2-4 2-6 1-12-1-5-1-7 1-9v-6c-1-3-1-4 1-11 2-5 2-8 1-9-1-3-1-8 1-10l5-19c0-3-3-2-5 2l-5 5c-1 0-6 8-6 10l-4 7c-9 11-12 17-11 20l-1 5-1 11-2 11c-2 4 0 8 4 9 6 2 8 6 8 14s3 12 6 8zm155-90-4-5-4-7-1-3-4-5-4-7c-3-3-4-7-4-12 0-6-5-14-9-14-3 0-4-1-1-2 1-1 0-3-6-8l-8-10-15-17c-2 0-1 14 1 19s2 5 1 7c-2 2-2 3 3 13l4 11 3 4 3 5c0 2 2 4 4 6l3 4 7 12c3 5 6 5 6 1s2-4 6 0c6 6 19 11 19 8Zm-236-39c4-3 5-12 1-16-4-3-4-11-1-15s2-13-2-19c-2-2-3-5-3-7l-2-15-2-28c0-17-1-18-4-3 0 5-1 7-3 9-3 2-3 3-3 9l-1 10c-2 2-2 7-3 15l-2 14c-1 4 0 5 5 12 4 4 4 5 4 9-1 7 0 8 8 10 9 3 9 4 5 11-3 3-3 3-1 4h4z"/><path fill="#fa8d01" d="M139 658c-54-6-86-51-75-107a230 230 0 0 1 111-128c6-3 10-11 11-22l2-10-6-5c-48-27-54-118-10-168l6-9 3-5c10-9 9-32-2-55-7-14-9-20-10-36-1-18-10-20-22-7-18 20-33 53-38 84a839 839 0 0 0-10 115c-5 87-9 112-29 178a13912 13912 0 0 0-30 93c0 24-29-60-34-100-18-139 6-247 73-325 23-27 63-58 69-54 1 1 9 0 16-2 5-1 7-10 4-29-2-14-10-35-15-40-2-3-9-23-8-24l6-1c7 0 9 2 15 16 5 11 10 20 15 26 6 6 6 5 7 30 0 40 7 62 18 64l10 2c21 5 37 7 92 8 112 2 162 19 218 72l56 50c12 8 40 28 43 28 5 2 21 19 19 20l-19 1h-20c-7 5-69-2-107-11-43-12-65-22-137-65-49-30-65-39-88-51-27-15-43-26-51-34-5-5-7-6-7-4a1384 1384 0 0 0 103 104l20 15c13 11 14 11 23 10 9 0 11 2 3 4-3 0-10 7-12 12l-4 3-3 1c-1 2-3-1-3-4 0-8-15-27-26-32-7-4-7-4-6 13l1 37c0 26-1 24 13 38 7 7 13 15 12 15l-4-5c-6-8-22-14-30-11-3 2-8 2-13 1-2-1-2-1 0-2l3-2 5-6c4-5 4-6 5-13 5-33 3-66-3-71l-2-5a2520 2520 0 0 1-110-117c-3 0-2 1 7 20 3 5 3 7 4 18 2 15 5 26 9 27l3 2 8 4c84 43 76 190-11 185-9-1-9-1-9 3-1 8 2 23 7 34l12 28c8 23 15 80 14 100-6 59-48 104-92 99zm19-40-1-6-2-4-1-3c-2-1-1-3 1-2 3 0 4-3 2-4h-2l-2 1c-2-2-4 2-2 4v4c-2 2-2 4 0 4s3 1 3 3c-1 4 2 9 4 9v-6zm-56-9 4-7c3-4 3-5 3-11-3-29-2-43 10-87 6-23 6-24 4-24-4 0-21 30-28 48-1 3-2 4-4 4s-3 2-5 13c-1 9-1 9-4 10-5 2-5 6 0 11 5 6 5 9 2 11-5 2-1 11 5 11 2 0 3 2 5 9 3 12 6 17 8 12zm60-17-1-4-3-2c-2 0-2-2-1-4l1-2s0-2 2-3l2-5c0-2-3-2-4 0l-2 4c-3 3-3 15 0 13l2 2c2 3 5 4 4 1zm9-2-5-10c-5-3-8 4-3 6l4 4c2 2 4 3 4 0zm11-78 3-1c3 0 4-1 4-3 0-3 0-3-2-3-4 0-10 7-8 9 1 2 3 0 3-2zm9-34 2-2c2-1 2-4-1-5-2-2-2-2-1-6 2-7-1-10-4-4v4l1 3c-1 1 0 2 1 3 2 2 2 4 0 5-1 0-2 1-1 2 0 3 2 2 3 0zm-7-113 2-4 1-6c0-4 0-5-2-8-3-4-4-10-1-13 2-3 2-4 2-8a1237 1237 0 0 1-4-12l-3-8-2-15c-2-9-2-15-2-30l-1-19c-1 0-6 12-6 18l-4 8c-2 3-3 4-3 10l-1 10c-2 2-2 7-3 15l-2 14c-2 4 0 7 5 13 4 5 4 5 4 10-1 7 1 10 12 12 4 1 4 2 1 7-5 6 2 12 7 6zm171 53a267 267 0 0 0-12-37l6 14c3 7 9 27 8 29l-2-6z"/><path fill="#599813" d="M32 565C8 513-3 438 2 354c6-93 37-166 96-223 17-17 46-36 50-34 1 1 9 0 16-2 5-1 7-10 4-29-2-14-10-35-15-40-2-3-9-23-8-24l6-1c7 0 9 2 15 16 5 11 10 20 15 26 6 6 6 5 7 30 0 40 7 62 18 64l10 2c21 5 37 7 92 8 112 2 162 19 218 72l56 50c12 8 40 28 43 28 5 2 21 19 19 20l-19 1h-20c-7 5-69-2-107-11-43-12-65-22-137-65-49-30-65-39-88-51-27-15-43-26-51-34-5-5-7-6-7-4a1384 1384 0 0 0 103 104l20 15c13 11 14 11 23 11 10-1 10 0 1 3l-9 6c-7 8-11 10-11 6 0-8-15-27-26-32-7-4-7-4-6 13l1 37c0 25 0 25 7 32 5 4 4 4-3 3h-13c-11 0-11 0-5-7 4-5 4-6 5-13 5-33 3-66-3-71l-2-5a2520 2520 0 0 1-110-117c-3 0-2 1 7 20 3 5 3 7 4 18 2 16 5 26 9 27 6 2 2 6-4 7h-14c-12 1-14 0-8-6 10-9 9-32-2-55-7-14-9-20-10-36-1-18-10-20-22-7-18 20-33 53-38 84a839 839 0 0 0-10 115c-5 87-9 112-29 178a13912 13912 0 0 0-30 93c0 6-1 4-8-11zm172-128-28-9c-7-1-8-2-4-4 9-4 13-11 14-24 2-10 2-10 8-8 4 2 4 2 4 10 0 11 2 19 7 28 4 9 4 10-1 7z"/><path fill="#25700f" d="m39 566-1-19c-3-26-3-93 0-85l2 3c2 3 3 0 0-5-3-9-3-24 3-57l3-16 1-6 2-15a403 403 0 0 0 4-26c2-1 2-4 3-14 0-9 1-15 3-23a1195 1195 0 0 0 16-66c1-8 5-22 8-26l3-7c2-12 19-48 32-68 11-16 27-32 18-17-11 16-18 31-22 45-5 16-6 25-11 63l-6 81a574 574 0 0 1-38 208c-14 46-20 60-20 50Zm-10-10c-33-74-36-212-8-299 18-55 59-115 96-141 13-9 18-9 10 0a270 270 0 0 0-47 90c-2 2-4 7-4 11a197 197 0 0 1-8 27l-3 10-2 10c0 5-1 7-4 8v1c3 0 3 3-1 15-2 6-4 15-4 21l-3 16-3 14a1028 1028 0 0 1-11 83 460 460 0 0 0-4 54c-1 5 1 55 2 77 1 16 0 16-6 3zm169-125-22-5c-2 0-2 0-1-2 4-3 27 3 27 8l-4-1zm366-114a418 418 0 0 1-198-74l-97-56c-27-15-49-30-46-33l11 3 33 9c9 1 14 2 23 6 4 2 9 3 13 3l12 3a5684 5684 0 0 1 47 16l6 2a152 152 0 0 1 42 20c0-3 11 1 37 14l16 8a188 188 0 0 1 36 17l25 11a536 536 0 0 0 44 21l20 12a394 394 0 0 0 39 16c0 2-52 4-63 2zm65-7a230 230 0 0 1-58-25l-10-4-10-5-11-6-11-6a862 862 0 0 1-65-31 714 714 0 0 0-65-30l-3-1-14-5a243 243 0 0 0-53-20 761 761 0 0 0-51-14c-5 0-35-8-45-12-20-7-34-17-15-11l11 3 17 3 56 2c82 1 130 10 168 31a222 222 0 0 1 58 44c33 31 69 60 95 75 6 3 13 10 13 12h-7z"/><path fill="#1d6612" d="M41 563c-5-20-5-106 0-93l16 23c2 0 2-1-5-12a98 98 0 0 1-11-25c-2-5-2-17 1-39 2-12 4-19 4-13l1 3a456 456 0 0 1 22 63c3 0-1-18-10-47a144 144 0 0 1-7-27c-3-9-2-49 1-49h1a561 561 0 0 0 11 40 590 590 0 0 0 14 43 251 251 0 0 1-6-28 893 893 0 0 1-15-88c2-9 3-9 4 0 2 12 9 42 11 44s2-3 0-13a931 931 0 0 1-10-52c2-9 2-9 4-9 3 0 3-2 1-7-1-3 4-29 5-29l3 7a9441 9441 0 0 0 15 44l-3-15-4-17c-6-17-8-32-5-44 4-12 3-12 12 10 4 12 5 8 1-5l-3-14c2 1 2-4 0-9-2-9 24-63 37-76 4-4 4-2 1 3-11 17-19 46-23 77l-2 23c-3 23-5 51-6 85a646 646 0 0 1-55 246zm-12-10C12 512 3 461 3 393c0-66 9-116 28-160 7-17 14-30 17-31l5-5 33-22c4-2 5-1 2 5l-5 14c-4 13-5 13-23 22-14 8-22 13-22 15s1 1 6-2l8-4 13-5c10-5 10-5 7 6a290 290 0 0 0-8 25c-2 3-2 6-2 10 0 7 0 7-7 10-12 7-41 30-41 34 0 2 4 0 12-7 19-17 33-25 33-20 0 7-6 21-10 23-11 7-34 32-32 34 1 1 5-2 13-11 22-24 24-24 20-5-4 20-7 27-31 59L6 396c1 3 27-28 34-42 6-9 6-9 4 7-5 41-4 38-13 49-8 10-10 13-12 21-3 11 0 9 6-3 4-9 10-18 11-17 2 2-2 16-7 26-6 10-9 18-9 23 0 4 3 1 5-6l5-12 3-7v10l-2 23c0 13 0 52 2 80 1 15 1 16-4 5zm531-237c-18-2-53-9-73-15-41-13-63-24-129-63a3802 3802 0 0 0-79-47c-43-24-65-39-46-32l16 4c9 2 9 2 9 6 1 3 1 4 3 4l6 3c13 11 25 19 15 9-20-20-18-23 10-10l8 3 6 6c8 13 21 24 35 31 10 4 9 2-2-5-12-8-20-16-26-25-6-8-8-8 16-1 3 0 6 2 7 3 2 3 3 3 5 2 7-3 19 4 19 11 1 7 1 7 12 23 5 7 27 30 32 33 6 4 5 1-4-8a225 225 0 0 1-31-39c-5-7-3-13 3-10l11 5c17 6 24 12 32 28a151 151 0 0 0 43 52c5 5 2 0-5-7a200 200 0 0 1-40-59c2-2 42 17 43 19l2 9c5 15 14 31 26 43 7 7 9 8 4 2-15-19-31-54-24-51 3 0 25 10 28 12 1 0 3 4 4 9 6 17 14 28 34 42 9 8 9 4 0-4-15-12-26-28-28-38-1-5-2-5 13 3 13 6 13 6 12 8-3 3-2 5 1 4 3-2 13 6 13 10 0 2 20 22 23 24 6 3 3-2-11-16l-16-18 15 6 9 4 7 3c1 2 5 4 7 5l8 5 9 4c21 9 26 11 23 12-4 1-45 2-55 1zm68-8-7-2-10-4a143 143 0 0 1-40-19l-35-17 11-2 12-3c2-1-13-2-24 0-6 1-45-15-47-19 0-2 18-3 36-2 8 1 12 0 5-2l-8-2c-9-2-27-2-35 1-7 2-7 2-22-5l-16-7 11-2a974 974 0 0 1 56-5c7-2-5-5-15-4-56 7-60 7-67 4l-12-6c-7-3-7-3-3-6 10-5 16-5 43-5 20 0 26-1 26-2 0-2-2-2-18-3l-17-1c-4-6-47-4-56 3-2 2-2 2-7 0a883 883 0 0 0-36-16c1-2 37-6 53-6 14 0 17 0 12-3a225 225 0 0 0-67 5h-14a326 326 0 0 0-18-6 207 207 0 0 1 31-16c1-3-6 0-22 7l-15 8-13-3c-15-4-15-4-5-9 11-4 12-4 12-6 1-2-7 0-17 4-12 5-26 4-52-5-5-2-7-7-2-7 14 3 22 3 58 4 103 1 153 13 204 49 8 5 8 5 31 26 38 37 68 60 93 74 8 5 15 12 10 11l-4-1zM405 205c-12-4 5-11 25-9 7 1 7 1-4 4l-12 4c-4 3-4 3-9 1zM51 194a288 288 0 0 1 72-81c2-2 5-3 5-1l-3 4c-5 5-21 30-30 47-2 4-3 6-5 6-6 2-35 21-37 25h-2Z"/></svg>