<svg xmlns="http://www.w3.org/2000/svg" width="32" height="32" viewBox="0 0 936.9 653.6"><path fill="#e9f5da" d="M274 653c-65-4-126-29-182-61-25-30-42-65-62-98C3 445 2 387 0 332c3-74 15-155 67-210 59-48 144-41 212-17 47 16 89 42 132 66 41-69 90-146 173-167 45-9 92 2 136 11a314 314 0 0 1 216 286c5 78-15 167-83 212-63 51-144 80-225 75-33 9-69-15-96-12a393 393 0 0 1-258 77z"/><path fill="#b4dd84" d="M267 651c-63-6-123-30-177-63-26-37-49-78-71-119a441 441 0 0 1 27-317c36-64 120-72 185-58 65 13 124 45 179 79 20-25 34-59 57-84C509 36 574-11 645 4c110 3 212 74 258 173 46 93 49 215-14 301a333 333 0 0 1-263 109c-32 7-66-13-92-16-58 52-137 72-213 79-18 1-36 2-54 1zm345-82c71-13 114-78 137-140 38-101 42-219-8-317-32-54-90-107-158-91-76 19-125 89-160 154-5 15 30 31 15 4 12-34 34-67 63-89 15 43 25 89 40 132 19 29 19 89-22 43-11-16-59-55-23-17 30 30 52 66 68 105 14-39 36 31 44 50 13 41 43 81 42 124-20 31-75 26-80-4-12 17-40 39-1 43 14 3 29 6 43 3zm53-61c-28-55-50-113-73-170-1-25 40 20 56 24 25 24 82 34 76 76-10 24-28 78-59 70zm52-114c-40-26-82-50-121-78 19-26 64-23 93-37 30-11 79-23 70 28-3 29 2 86-35 90zM597 291c-1-38 42-67 58-100 21-21 52-106 78-51 15 35 46 106-12 118l-122 35zm-15-29c11-71 21-141 35-211 27-26 83 24 80 57-25 47-59 89-89 133-4 4-25 37-26 21zm-17 1c-19-56-42-112-49-171 5-33 55-59 85-48 5 40-10 80-13 119-10 30-3 83-23 100zM446 568c48-5 106-22 120-75 24-99-32-197-101-263a430 430 0 0 0-298-129c-50 1-111 31-113 87-12 90 41 173 97 238 66 70 151 134 249 142h46zm-55-18c-29-7-92-9-86-60 5-43 16-86 20-130 32 18 37 65 59 95 7 28 56 72 25 94l-18 1zm62-7c-34-20-43-64-64-96-9-23-48-76-34-83 56 41 114 81 167 127 35 34-44 59-69 52zm-188-40c-36-15-71-43-89-79 11-34 59-42 87-61 25-21 69-20 51 22-8 39-11 79-24 116-6 8-17 4-25 2zm264-24c-56-35-109-76-161-118-25-30 40-2 54-2 42 10 86 19 127 33 13 19 23 107-20 87zm-376-79c-26-24-74-68-58-103 55-2 110 12 164 22 39-1 46 26 5 34-35 14-67 37-103 48zm372-26c-54-12-108-23-162-37-9-34 57-38 80-56 44-29 74 20 90 54 7 12 19 45-8 39zm-248-61c-60-13-121-19-181-32-31-18-31-64-22-95 33-22 71 33 103 47 37 27 76 50 111 79 3 5-10 0-11 1zm69-3c-13-37 23-76 30-113 26-28 70 27 87 50-13 35-72 39-103 62-4 2-11 5-14 1zm-62-14c-63-40-125-82-184-128-16-33 57-69 73-29 41 53 84 105 123 160-3 3-9-3-12-3zm18-5L173 127c6-27 65-6 88 0 20 38 23 83 37 124-2 5 20 57 4 40zm20 0c-18-39-23-84-35-126-21-59 58-12 78 6 8 37-23 74-33 110-3 2-4 18-10 10z"/><path fill="#6dc549" d="M271 650c-64-4-126-28-180-62-26-37-49-75-69-115-24-78-26-162-7-241 13-59 46-126 113-138 94-19 189 23 268 72 33 21 38-49 63-64C499 50 558-6 629 3c79 3 161 28 215 90 75 79 109 196 82 302-10 48-35 93-78 119-63 51-146 78-227 72-39 13-79-39-106 1-71 46-160 67-244 63Zm343-80c64-11 105-70 131-125 38-95 46-206 11-304-25-59-76-120-145-124-77-1-132 65-170 124-18 22-30 49 6 62 48 40 92 89 116 149 29 62 38 150-18 200 9 18 49 20 69 18zm-165-2c48-4 105-23 118-75 18-72-8-147-51-205a467 467 0 0 0-296-186c-55-8-126-2-156 52-33 72 2 153 42 214 65 95 160 177 275 199 22 3 45 3 68 1z"/><path fill="#4eb747" d="M276 650c-66-3-130-28-185-62-27-39-52-79-72-122C-7 366-4 255 43 162c10-20 44-64 62-53-40 24-61 70-54 117 6 85 58 159 115 219 72 70 165 133 269 126 53-3 118-21 134-78 11-36 12 21-4 34-24 23-24 48-56 64-69 43-152 62-233 59Zm359-64c0-9 55-25 67-46 76-76 103-190 96-294-7-91-46-189-133-231-39-18 31-4 44-1a307 307 0 0 1 223 262c9 72-2 153-51 210a336 336 0 0 1-246 100zm-87-252a481 481 0 0 0-314-231c-28-10-74 1-92-8 75-15 151 16 217 50 67 36 126 88 171 149 4 10 25 35 18 40z"/><path fill="#039648" d="M275 649c-66-3-129-28-185-63-24-38-50-75-68-117-9-24-22-89-12-93 6 34 27 47 39 75 1 29 28 54 31 78 11 24 42 21 42 46 12 18 51-9 46 6-26 0 35 24 10-3 38 6 9-46 48-31 38-14 66 13 101 21 66 22 137 18 202-6 25 2-36 38-50 45-63 30-134 46-204 42zm362-64c28-12 60-34 81-59 78-97 101-233 69-352-19-71-64-137-133-167 72 2 144 36 193 90 92 98 119 261 44 377a341 341 0 0 1-208 109c-15 1-31 3-46 2z"/><path fill="#166531" d="M637 585c28-12 60-34 81-59 78-97 101-233 69-352-19-71-64-137-133-167 72 2 144 36 193 90 92 98 119 261 44 377a341 341 0 0 1-208 109c-15 1-31 3-46 2z"/></svg>