<svg xmlns="http://www.w3.org/2000/svg" viewBox="0 0 240 177.6"><path fill="#fcdb9d" d="M89 177c-11-5-23-6-35-7-16-5-31-15-39-31-8-9-11-21-13-33-1-13-3-27 0-39 4-10 7-20 13-29 6-11 14-20 26-25 6-9 22-3 26-5-12-4 8-5 12-7 13-4 25 9 38 0 8-6 16 6 20 4 2-7 14 0 19-2 11 6 24-1 36 4 11 3 22 9 28 20 7 10 14 21 15 33 6 11 4 24 5 35-5 11-3 23-9 32-6 11-11 22-21 30-11 9-26 15-40 16-11 9-25 0-36 1-10 6-21-4-31 3H89zm3-63c-3-3-4-22-9-13-2 7 7 21 12 19l-3-6zm60-1c2-6 4-18 6-20-9 5-7 18-9 26 2-1 3-4 3-6zM87 89c-1-9 2-16 4-23-6 7-12 17-8 27 2 4 3-3 4-4z"/><path fill="#fdca65" d="M90 176c-12-6-26-5-39-9-14-4-28-14-33-28-7-9-13-17-13-29-5-7-1-12 2-19-5-8-7-20 0-28 1-12 9-20 15-29 0-12 14-18 24-21 7-9 23 4 28-7 5-6 23-6 24 2s4-6 10 0c6 7 18 5 14-5 14-6 8 13 10 15 2-6 17-16 18-8-3 5-4 13 1 4s16-3 24-6c10-2 20 2 29 6 11 4 17 15 22 24 7 15 13 31 12 48 2 11-5 20-4 31-2 11-11 19-15 29-8 12-22 18-35 23-13 0-24 10-37 6-9-7-17 1-26 0-12-7-19 5-31 1zm10-46c-2-13-11-23-13-36 5-11 7-24 12-34-7 2 7-22-4-14-5 14-17 25-17 41-1 13 3 25 8 37 6-8 11 13 14 6zm38-5c0-4 0-19-3-17 1 5-3 17 3 17zm15-4c2-7 15 6 11-6 1-3 8-2 3-8-7-8 9-16 2-21-8 2 2-9-5-6-3-3-12-9-10-1-6 4 8 11 0 15-3 9-9 22-7 30 3 0 5-1 6-3zm-48-78c1-9 5-21-5-26-4-3-18-4-9 3 1 3 8 13 5 3 11 3 4 21 7 26l2-6zm17-7c0-5 5-18-2-17 2 7-2 22 1 25l1-8z"/><path fill="#fbb252" d="M92 176c-11-3-20-10-32-7-11-3-22-7-31-15-9-7-10-20-19-27-5-8 1-17-7-24-1-5 9 2 5-5-1-5 2-7-3-11-5-10 0-17 4-26 1-11 7-22 18-25-10-11 10-19 18-21 9-6 21-2 29-2C74 1 91 2 97 8c3 3 8 14 0 7-3-8-20-4-10 2 5 6 15 18 9 24-7-1-2 14-9 18-9 11-13 26-9 39 0 9 4 22 7 27 10-3 14 16 15 15 5-17-12-31-12-48 0-7 10-19 11-6 2 12 4 23 8 35 6 3-3-11-2-14 0-11-4-22 0-33 2-5 1-16-3-6-3 11-7-3-3-7 6-10 9-23 9-32 1 5 4 11 3 2 0-7-12-18-6-22 12 1 16 15 14 26-1 4 0 22 3 9s2-26 5-39c10-1-1 15 2 22-1 4 3 14 4 4-2-9 3-22 14-22 4 6-8 18-3 21 3-10 10-20 22-18 9-4 19-5 28 0 10 3 19 6 25 15 10 13 14 29 18 45 0 13 3 28-5 39 7 13-10 21-12 33-6 11-19 17-30 21-13 5-25 9-38 10-9-1-14-7-23-1-10 2-20-6-28 2h-9Zm46-43c-1-10 3-24-1-32-5 8-3 19-2 28 0 2 1 4 3 4zm-14-2c-1-5 0-21-5-18 1 5-2 20 5 18zm29-9c4-6 17 9 14-5 11-2-5-20 6-24 4-7-8-9-4-13-6-2-13-8-18-6-4 1 4 14 2 20-2 10-9 21-6 31 2 2 4-2 6-3z"/><path fill="#fda90a" d="M91 173c-4-3-13-3-15-6-13 5-25-1-36-6-12-5-17-17-23-28-6-5-10-10-8-19 0-5-8-12 1-11l1-13C1 85 7 71 9 63c2-10 6-23 17-25 6-2 9-7 1-6-5-9 11-14 18-17 10-4 23-4 30 5 3 5 6 8 3 1-3-6-1-11 5-5 7 3 11 12 5 17 4 9 4 21-5 27-4 8-9 17-8 27-2 8 2 15 2 24 4 6 0 22 12 16 6 1-10 17 0 11 6-10 12 4 6 10-2 4-13 19-4 9 10-9 14-24 8-36-4-10-11-20-10-31 12-4 11 16 14 23 4 15 11 31 7 47-2 9-8 22-19 13zm56 1c-9-11-18 3-28-1-15-4-1-20-5-29l-7-40c0-13-5-26 0-38 4-15 10-32 1-46-4-4-6-15 2-8 9 7 10 19 8 29-2 29-4 59 1 87 2 7 10 6 6-2-2-12 0-25-5-36-2-11 0-22 1-33 2-16 5-32 6-49 6-9 1 9 1 13 0 5-2 20 5 18 1-9 1-20 9-28 10-4-1 12-1 17-5 17 2 34 8 50 7 14-2 27-4 41 0 5-5 12-3 3 3-10 1-19-3-28 0-4 0-15-6-12 5 11 0 22 0 33-2 11 4 21 3 30 10 2 1-19 8-9 4 9 8 20 16 25 0-6-12-15-12-25-3-10 6-9 10-4-3-5-5-15 2-8 11 8 12-10 13-15 7 1-4-13 6-14-5-3 7-12-4-12-10-1 0-22-8-13-14 1 1-15 1-21-7 3-15 21-23 9-5-12-1-27 5-37 8-12 14-1 10 8 3-10 12-22 22-20 10 6 21 3 29 11 8 9 15 19 19 31s8 25 6 38c3 11-6 21-4 31-7 10-11 23-20 32-5 7-14 8-20 7-6 5-15 17-22 5-10-3 4 7-6 9-5 2-12 2-17 1zm-16-7c1-8-10-7-4 0 1 1 4 3 4 0zm19-8c0-8-14-7-5 0 1 1 5 3 5 0zM102 59c1-3 7-22 7-11-2 5-6 15-9 14l2-3zm-5-44c-5-1-11-15-3-7 1 1 11 12 3 7zM82 8c-9-6 12-1 1 1l-1-1z"/><path fill="#fd8c04" d="M95 175c-1-8-23-4-9-12 12-8 20-26 13-41-1-10-16-25-7-33 10 6 4 21 9 30 8 9 9 23 8 35-2 7-3 21-13 21zm53-2c-6-5-11-9-16-2 2-6-5-19-11-11-3 6 7 17-4 12-10-7 0-21-3-32-2-12-6-24-7-37 0-11-4-22-1-33 4-15 10-31 4-46-5-7 1-12 5-3 4 10 0 21 1 32 0 13 0 26-2 39l4 36c0 7 13 18 9 5-3-13-2-26-5-39-5-10-1-21-2-32l6-34c5-1 1 22 7 15 3-8 1-20 10-25-2 13-6 27-1 40 3 12 12 25 9 38-2 7-5 25-8 25 2-13-3-25-5-37-1-5-7-9-5-1 5 14-2 29 0 43-1 12 3 21 9 29 0 9 9 9 11 2 4 5 23 14 7 16-4 1-8 2-12 0zm-94-8c-11-5-26-9-31-22-5-12-13-23-12-36-2-9 5-16 10-18-8 0-22-5-10-13 2-5 6-4 5-11 5-7-5-14 4-20 4-7 14 2 16-7 3 2 17 7 7 1-9-3 2-15 3-19 4-2 19-6 11 4-5 2-7 8 0 5 5-6 10 1 12-5 9-7 6 11 14 13 0 3-2-12 3-4 6 6 3 17-1 18 4 6-5 10-6 2-5 0 7 18-5 15 6 6-4 14-1 19 0 8 3 15 1 24 3 6 7 13 6 19 5-1 14-4 6 3-7 5 2 16 6 6 9-3 0 10-1 13-6 12-21 17-33 14h-2l-2-1zm120 0c-10-3-19-11-23-22-4-4-2-18 4-8 8 6 8-4 2-7-3-11 12 6 15-4 3-1 0-7 2-9-5-6 7-3 2-8-1-4 4-6 1-9 6-1 4-4 4-7 5-7-17-14-8-19-3-3 4-15-6-12-6-2 11-18-1-12-4 9-17 0-8-7l10-23c4 1 8 12 9 3 6 9 19-2 25 7 0 4-11 14-5 14 5-10 16-12 15 1 1 4-7 9 1 6 7-3 1 6 8 7-1 6-7 14 4 14 8 8 6 18 4 27 7 8-14 9-4 16 7 7-1 17-7 19 0 8-4 14-8 19-6 3-11 10-18 2-2-3-13-6-5 0 6 6-2 8-7 8-1 3-2 9-6 4zm-26-12c-6-3-7-17-6-19 1 5 13 18 6 19zm5-94c-10 5-12-19-2-9 1 1 8 10 2 9zm-7-23c-4-5 13-13 5-5 3 4-2 15-5 5z"/><path fill="#fa7301" d="M153 170c2-11 10 5 0 0zm-68-3c7-8 14-16 17-26 1-5-1-22 4-9 2 10 1 24-7 31l-14 4zm47-4c-6-18-2-36-7-53 0-13-5-24-4-36l5-44c4 7 3 26 8 26 1-10 0-20 6-28-2 12-1 26 3 38 2 10 13 20 7 30-12 5-7-15-8-21-5-3-2 13-5 4-4-6 2-16-5-19-2 13 2 27 2 40-2 17-2 33 0 50 2 3 5 24-2 13zm-17 3c-1-17 0-35-6-52-1-13-5-26-3-40l8-37c4 11-3 22 0 33 1 13-2 27 1 40 2 17 6 35 2 52 0 2 1 7-2 4zm50-8c-3-5-15-14-9-18 5 7 11 9 19 9 9 3 3 10-4 8-2 5-3 6-6 1zm-110-3c-4-5-19-3-8-11-10 1-14-8-23-10-6-8 6-18 11-24 1-5 14-8 11-11-12-7-10 14-22 9-10-3 11-7 5-14 6-11 20-1 29-7 4-5 16-4 10 2 0 5-2 6 4 6 3 5-8 4-1 8 4 7-15 12-11 14 5-2 16-5 7 2 4-1 12-3 6 3-6 5 1 6 4 6-1 6-12 18-1 9 10-4 1 9-3 10-5 4-11 15-18 8zm15 2c2-6 13-7 4-1-1 1-3 3-4 1zm120-9c-7-5-26-4-22-17 4-1 9 2 6-4 3 0 9 5 4-2 0-5-5-15 4-11 3-2-9-9 1-10 2-2-3-6 4-7-5-6 13-13 1-14-4 0-16-4-6-7 5-7 26 1 18 6-2 6 12 6 7 14 1 3-13 3-5 8 1 8 13 16 6 25-2 10-5-4-5-7-8-4-7 2-2 7 2 6 3 18-8 14-1 1 1 8-3 5zM37 85c-8 1 1-7-7-6-6-9 21 0 12-11-6 3-11 0-7-5-7-13 12-2 17 2-3-3-15-17-3-13 5 8 23 10 21 20-5 2-20-6-18 3 6 6-10 13-15 10zm25-8c-4-9 13 7 0 0zm118-6c4-4 5-7-1-7-6-7 13-24 9-11-5 6-1 8 4 3 11 0-7 22-12 15zM69 63c-8-1-16-17-12-20 7 6 15 17 19 22l-7-2zm104-9c3-13 10 1 0 0z"/></svg>