<svg xmlns="http://www.w3.org/2000/svg" width="32" height="32" viewBox="0 0 894 840.8"><path fill="#e5e308" d="M609 840c-54-13-50-80-49-123-2-54-26-104-42-154-26 97-112 163-197 208-72 35-161 67-238 28-39-12-67-69-20-92 48-17 75-61 85-109 19-76 33-165 103-213 39-28 89-32 134-22 46 1 15-66 51-87 27-19 17-66-12-30-18 51-66 76-113 97-96 41-200 62-296 106-29 7 25-42 34-59 66-83 153-151 255-185 49-12-26-35-44-45-22-17-79 0-79-12 44-44 107-83 172-67 55 12 108 52 126 107 26 30 99 4 93-38 14-56 49-104 86-146 16-7 60-9 27 13-26 31-78 74-72 109 49 8 102-15 149 12 55 28 93 81 124 133 21 53-2 116-41 154 4-37-8-72-39-96-51-46-118-79-149-143 6-42-54-79-60-21 3 52 60 61 94 88 45 34 70 85 103 128 31 56 29 122 45 183 1 21 27 76-7 40-31-5-18 58-37 78-26 78-89 156-177 159zM499 417c8-55 57-92 104-115-8-36-5-128-63-104-57 13-77 69-103 114-20 34-2 82 37 91 6 3 22 34 25 14z"/><path fill="#d0ba0f" d="M609 840c-54-14-50-80-49-123-2-54-26-104-42-154-26 97-112 163-197 208-72 35-161 67-238 28-29-4-71-72-17-58 59 24 126 20 185 1 96-32 183-109 210-209 11-51 1-108-32-150-50-16-8-80 9-111 22-20 26-61-9-32-20 48-62 80-110 99-96 43-200 63-295 106-48 22 12-33 22-51 67-85 154-155 258-189 49-12-26-35-44-45-22-17-79 0-79-12 44-44 107-83 172-67 55 12 108 52 126 107 26 30 99 4 93-38 14-56 49-104 86-146 16-7 60-9 27 13-26 31-78 74-72 109 49 8 102-15 149 12 55 28 93 81 124 133 21 53-2 116-41 154 4-37-8-72-39-96-51-46-118-79-149-143 1-31-34-80-58-34-12 65 68 76 104 111 73 68 108 167 129 262 6 32 11 63 20 95-17-24-44-23-40 10-21 85-68 179-159 206-14 4-30 6-44 4zm107-77c52-43 67-112 80-175-20-37-64-55-87-91-48-55-89-121-96-196-34-25-1-90-49-108-41 3-82 30-98 68-21 36-53 77-29 119 25 7 67 72 69 13 6-22 48-70 50-59-38 48-12 112 6 163 31 84 99 148 132 231 4 12 6 33 22 35z"/><path fill="#48a552" d="M618 834c-53-10-52-76-46-118 2-55-17-108-33-159 30 60 50 126 51 194-7 41 37 78 57 83h-29zm-487-25c-22 4-77-23-65-27 105 43 222-3 309-66 62-47 113-112 133-189 18 50-23 97-52 134a488 488 0 0 1-286 147c-13 1-26 2-39 1Zm713-194a620 620 0 0 1-210-232c-7-50-38-92-41-143 0-45-42-60-75-32-49 23-69 81-88 126 10 21-12 64-23 28-6-49 37-85 49-128-43-9-46 68-88 80-113 65-245 82-362 139 6-24 41-59 61-84 67-77 154-140 253-169-11-32-82-51-121-49-20 5-33 8-12-10 46-42 109-78 172-59 55 15 104 55 123 109 28 26 95-1 90-41 14-56 49-104 86-146 23-12 59-4 22 18-23 31-74 71-67 104 49 8 102-15 149 12 55 28 93 81 124 133 21 53-2 116-41 154 4-37-8-72-39-96-46-42-105-72-139-125-16-25-22-99-65-59-22 51 39 81 76 99 86 59 121 163 149 259 7 35 22 91 17 112z"/><path fill="#8e7520" d="M618 834c-52-10-52-74-47-116 4-55-17-109-31-160 32 64 50 136 52 208 3 33 28 68 65 66-13 4-26 2-39 2zm-487-25c-22 4-77-23-65-27 105 43 222-3 309-66 62-47 113-112 133-189 18 50-22 97-51 133a492 492 0 0 1-277 147c-16 2-33 3-49 2Zm713-197-25-18a564 564 0 0 1-168-181c-31-34-20-88-48-119-15-31 0-106-52-102-58 9-83 65-111 108-19 19 4 91-33 69-3-39 16-76 38-107 24-25 2-47-23-22-26 36-58 68-103 78-67 20-133 42-196 72L14 441c55-84 138-146 223-196 33-17 67-30 103-38-29-30-72-50-112-58-19 2-69 9-29-15 48-44 119-72 182-43 48 20 84 61 106 107 26 17 82-7 84-38 10-61 49-112 88-158 22-5 57-6 24 16-31 32-61 66-79 108-24 5 35 2-2 13-16 27 4 88 19 87 21-18 58 29 82 39 76 74 111 178 131 279 0 19 17 63 10 68zM683 441c-15-18-19-51-40-59 12 20 22 44 40 59Zm104-5c-13-21-29-67-41-69 14 23 26 47 41 69zm-149-83c-12-17-17-113-19-89 3 29-3 66 19 89zM429 141c-39-58-125-73-182-36 45-17 100-25 142 5 14 9 27 19 40 31zm415 281c13-54-33-96-65-133-46-44-109-77-128-142 29-29 83-13 114 9 49 35 97 81 114 141 8 44 3 95-35 125z"/><path fill="#319543" d="M843 612c-86-66-174-141-213-245-12-29-7-63-30-79 2-34-9-67-27-98-29 2-74 17-93 45-16 33-44 62-50 98 8 25-9 61-25 28 8-38 22-74 45-107 12-16 17-33-10-23-36 11-46 61-85 73-54 24-113 33-166 58-59 23-117 52-175 79 31-48 71-90 117-124 33-27 69-50 106-72 34-17 70-30 106-39-44-32-100-69-158-53-21 2 26-25 31-33 44-37 109-54 163-29 53 18 87 66 112 114 24-1 70-9 79-33 8-59 45-110 82-155 8-12 17-20 31-17 22-4 16 4 3 15-32 33-65 67-83 110-30 5 42 5 0 10-17 28 1 90 19 94-5-34 36 13 52 15 87 56 122 159 150 253 9 39 14 79 25 118h-2zM683 441c-12-18-29-63-40-61 9 23 28 47 39 63l1-1v-1Zm104-5c-14-22-26-63-43-73 12 21 37 67 43 73zm-149-83c-12-33-14-67-18-101-1 34-2 74 16 103l2 1zM429 141c-38-57-125-73-182-36 28-9 64-20 97-14 32 6 65 31 85 50Zm415 281c14-40-19-75-40-106-41-53-109-81-141-142-13-21-21-46 14-39 39-7 77 7 105 34 41 31 77 71 95 120 5 36 11 78-12 109-7 8-14 20-21 24z"/><path fill="#2e933b" d="M825 564c-10-21-42-46-46-57 9 0-28-45-38-62-11-13-21-16-32-31-18 7 11-13-12-10 1-19-29-41-31-56 5-10-8-8-3-20 16 17-14-34-19-46-9-16-2 15-13-8-9 24-6-37-3-6 25-2-27-73 14-39-16 22 17 40 19 59-4 10 22 27 10 27 22 23 28 52 51 74 2 23 25 49 41 69-14-4 24 14 13 24 11 22 19 6 24 28-18 4 25 22 6 1-6-13 32 3 22 21 4 13 5 32-10 14 0 6 11 13 7 18zm-65-26c-22-17 3-26 7-2 7 16-6 4-7 2zM22 431c30-41 63-80 107-107 17-22 38-34 60-26 13-23 76 4 51-30-26-16 27 0 14 13 25-8 79-20 83-29-19-6-37-24-6-7 21 6 18 3 1-4 29 7 60-2 84-8-27 1-22 35-30 43 2-23-16 24-9-8-2-32-45 43-26 4-23 25-11 9-6-8-31-7-38 30-54 40-18-21-47-21-47 12-15 9-14-33-26-2-3 11-19 57-12 21 8-30-12-5-20 1 13-14 24-40-4-17-22 9-26 33-13 26-17 35-56 39-85 58-18 8-52 32-62 28Zm273-132c28-34-42-13 0 0zm550 121c-4-38 45-76 9-111-17-17-33-74-56-64-10 42-1-31-23-16-6-22-39-20-49-37 0 13 23 66 0 30-3-37-29-45-53-68-14-12-20-16 1-5 16 11 88 38 70 35-8 9 62 5 54 24-13-11-52-14-17 1 51 29 76 87 96 139 4 27-11 55-32 72zm-424-46c-31-10-1-56 4-77 12-19 56-74 11-69 13 1 58-18 22-12-14 6-34-3-13-9-8-15-26-12-24-30-23-10-47-32-57-27-11-21-53-27-86-23-21 3-64-10-63 16-16 12-47 10-17-8 29-26 70-37 108-43 37-4 85 7 104 40-17-6-69-5-30 7 9 21 38 11 43 22-15-8 10 18 5-6 3 9 19 22 25 8 12-6-38-37-49-51-30-22-68-30-105-29 56-11 117 15 149 61 25 20 39 87 81 53 36 0 46-35 51-64 18-50 51-92 86-132 17-2 46-4 20 14-33 33-65 68-83 111-11 26-7 74 13 106 1 15 9 71-13 62-5-34-7-87-37-104-42 7-84 27-100 69-27 33-40 76-40 116zm290-83c-9-14-44-49-42-49 16 7 64 46 42 49zm-362-86c-15-12-66-35-59-38 18 11 55 15 59 38z"/><path fill="#4e4627" d="M788 509c-55-85-121-164-154-260-5-29 10 20 15 27 37 78 87 149 133 222 4 5 18 28 6 11zM421 374c-30-4-1-39-6-57 12-27 31-50 42-77 1-18 36-15 31-28-21-6-39-21-58-32l-65-42c44 21 83 53 128 72 0 18-21 30-26 48-12 22-26 43-37 65-5 13 8 52-9 51zm184-75c-11-25-1-54-16-77-12-20-26-42-17-66 10-37 30-71 52-103 13-18 27-35 42-52l35-1c-38 37-76 76-97 124-17 4 6 11-4 22-11 28 1 55 14 79 8 23-1 46 0 70 0 5-6 6-9 4z"/></svg>