<svg xmlns="http://www.w3.org/2000/svg" width="32" height="32" viewBox="0 0 345 560"><path fill="#e693a2" d="m255 434-3-4c-1-2-2-3-4-3l-5-3-6-4c-3 0-4-2-6-5-1-2-2-4-4-4-4 0-6-3-6-6l-2-4c-3-1-4-4-3-7 1-4-2-11-6-14-2-1-3-3-3-7-1-6-3-8-6-8l-4-3-5-6c-3-3-3-4-3-11-1-15-3-26-5-29l-2-4c0-3-6-8-8-8-3 0-4 4-4 11 0 6 0 6-4 10-3 3-3 3-2 7 4 7 0 16-7 18-3 0-3 0-2 6 2 5 0 8-5 10l-5 3-4 5c-4 2-4 2-4 9 0 9-1 11-7 16-5 3-6 5-6 7 0 8-11 12-23 9h-9c-6 3-8 3-13-1-2-2-4-3-5-2-3 6-13 1-13-8l-4-6-4-7c-1-5-1-5-4-5-4 0-11-11-11-19l-1-3c-6 0-10-8-8-13 1-2 1-3-1-5-3-5-5-9-5-12s-1-4-3-6c-2-3-2-10 1-16 2-4 2-4 0-7-1-3-2-5-1-8 0-4 0-5-2-8-3-4-4-8-1-13 2-3 2-4 1-7-1-4 0-9 3-12 3-2 2-5 0-9-5-6-4-11 1-16 4-4 4-5 0-9-5-4-4-11 1-17 5-5 5-4 2-9l-2-8-1-9c0-3 0-5 2-7 4-7 2-21-4-31-3-6-3-9 1-13 2-2 3-4 3-7 0-6 8-19 13-21 2 0 4-3 6-5l7-7 8-7c3-6 6-7 13-7l9-2h17c4-1 4-1 15 5l4 4c5 8 17-17 17-35 0-10 3-14 11-14 11 0 13 10 5 26l-3 8-4 14c-5 16-5 19 4 18 10-1 17 3 24 13 1 2 4 3 6 4 5 2 7 5 6 11 0 4 0 5 3 10 3 4 6 11 9 25 1 7 1 8-1 16-1 7 0 11 8 22l11 19c7 14 7 14 16 13 12 0 18 2 21 7 1 3 2 3 6 2 6-1 20 13 20 20 0 4 2 8 5 13 3 4 3 8 1 15-3 6-3 7 2 12 4 3 4 4 3 8 0 5 0 5 3 9l3 6 2 7 2 6 4 4c3 3 4 6 2 14-1 3-1 4 2 10 2 5 2 7 1 10v6c7 12 6 23-3 27-3 2-4 3-4 7 0 8-5 12-12 12l-6 3c-4 5-8 6-12 5h-5c-2 2-6 1-8-1zm-75-183c1-4 2-5 5-6l4-3c0-3 5-8 9-9 8-1 8-1-5-22-6-11-8-11-10-4l-4 8c-1 3-1 3 1 7 3 7 3 10 1 16-5 10-6 16-4 17 1 2 2 1 3-4z"/><path fill="#e8748a" d="m257 434-4-5c-2-3-3-4-5-4s-3-1-5-3l-5-3c-3 0-4-1-5-5-2-3-3-4-5-4-3 0-6-3-6-6 0-2-1-3-3-4s-2-1-2-6c1-5-2-12-6-15-2-2-3-3-3-7-1-6-3-9-7-9l-2-1-5-6c-4-5-4-5-4-11l-1-13a2076 2076 0 0 1-4-17l-2-4c0-2-5-8-8-8-4 0-6 4-6 12 0 6 0 6-4 9-3 4-3 4-2 8 4 7-1 17-7 17-3 0-3 2-2 6 2 5 1 8-4 10l-6 5-5 3c-2 0-3 4-3 11 0 9 0 9-6 13s-7 6-7 9c0 6-5 8-17 8-10-1-12-1-16 1-5 2-5 2-10-1-4-3-4-3-7-2-5 4-11 0-11-6 0-3-1-5-4-9-3-2-4-5-4-7 0-3-2-5-5-5-4 0-11-11-11-18 0-2-1-3-3-4-5-2-7-7-6-11v-5c-3-4-5-9-5-13 0-3-1-4-3-6-3-3-2-11 1-16v-6l-1-9c0-4-1-6-3-8-2-4-3-10 0-13l1-8c-1-5-1-6 2-9 4-5 4-6 0-12s-4-11 2-16c4-3 4-4 0-8-5-4-5-11 0-16 4-4 5-8 3-10s-3-6-2-9c1-1 0-3-1-6-1-4-1-4 1-9 4-8 3-21-3-30-3-7-4-9 0-12 2-2 3-4 3-9 1-7 8-18 13-20l6-5 8-8 7-8c3-4 7-6 13-6h8c9-5 30-1 37 7 6 7 18-18 18-36 0-10 3-13 11-13 9 0 12 12 6 23-4 6-13 34-13 38s4 6 8 5c9-1 17 4 23 12 1 3 3 4 6 5 6 3 8 6 7 11-1 3-1 4 1 7 8 10 13 32 10 43-2 7-1 12 5 20a109 109 0 0 1 11 18l4 7 3 8c1 3 1 4 6 4s6 0 3 3l-1 5-2 3c-1 1-1 3 1 3 6 0 10-9 7-12-2-2-2-2 4-2s8 1 7 4l1 3c3 2 2 3 0 5-2 1-2 2-1 3 2 1 2 1 4-1 2-1 2-1 4 1l4 3 1 2-1 3-5 9-1 3c-4 3-1 6 3 3h5c1 2 3 2 5 1l2-1-1 2c-2 3-1 3 2 2 4-2 9 3 5 5-2 2-1 4 1 4 3 1 4 3 0 4l-3 3-2 2-1 2v3l-3 1c-4 0-4-1 0-4 3-3 4-4 2-6-3-2-4-1-8 6-3 7-2 12 2 11 10-3 15 0 12 4-3 2-9 6-12 6l-7 6c0 2 2 1 7-2s7-3 7 0 2 2 4-1l3-4 1-3c-1-4 1-7 3-5l2 3 3 1 3 2c0 2 0 2-3 2-2 0-3 0-3 2l-1 4c-1 1 1 3 2 1 2-2 10 3 10 6 0 4-6 7-6 4-1-2-3-3-5 0l-3 1c-2 0-6 5-5 5h1l4-1 5-2c2-2 3 0 2 3s2 3 5 0c3-2 7 0 7 3s-6 9-12 12c-7 4-5 5 3 2l7-1c2 0 2-1 2-5s0-4 3-4c5 0 6 6 2 12-3 6-3 7 0 9 2 0 3 2 3 3l2 3c2 1 1 4-3 4-4-1-10 4-7 6h3c3-2 5-1 6 2l3 3c2 0 2 3 1 4s-1 2 1 4c2 6 1 8-4 10-2 0-4 0-5-2-3-3-5-2-5 1 0 2 1 3 2 3 2 0 2 0 2 2v6c-1 6-3 9-10 10-3 0-5 1-8 4-4 4-5 4-10 4h-11zm-76-182c1-3 2-5 5-6l5-6c2-3 6-5 10-5 4 1 5 4 3 6-2 0-2 1-1 3 1 4 3 4 5 2l4-2c3 0 5-1 5-2l-2-1c-1 1-5-2-5-4l-2-2-3-3c0-4-17-31-19-31-1 0-2 0-6 10-3 7-3 7 0 12 3 6 3 11 0 16-4 7-5 12-4 15 1 4 3 3 5-2z"/><path fill="#7295a5" d="m265 433-6-1c-1 2-4 0-6-3-1-4-3-5-6-5l-3-2c-1-2-3-3-6-3-3-1-4-1-5-5-2-4-2-5-6-5-3 0-4-1-4-4 0-4-1-5-3-6-3-1-4-2-2-6 1-4-2-10-7-15-2-2-3-3-3-7 0-3-1-5-3-7s-3-3-2-4c2-3 1-3-2-2-3 2-6-1-4-3 3-3 2-5-1-2-3 2-5 0-5-8l-2-10c0-2 0-2 2-1 2 2 5 3 6 1s3-1 3 2c0 2 1 2 5 3 5 0 6-2 3-5-2-2-3-3-2-4 2-1 0-3-2-3s-4 1-5 3c-3 3-3 3-6 2-4-2-4-3-6-12l-2-6-2-4c0-2-5-8-8-8-4 0-6 4-6 12 0 6 0 6-4 9-3 4-3 4-2 8 4 7-1 17-7 17-3 0-3 2-2 6 2 5 1 8-4 10l-6 5-5 3c-2 0-3 4-3 11 0 9 0 9-6 13s-7 6-7 9c0 6-5 8-17 8-10-1-12-1-16 1-5 2-5 2-10-1-4-3-4-3-7-2-5 4-11 0-11-6 0-3-1-5-4-9-3-2-4-5-4-7 0-3-2-5-5-5-4 0-11-11-11-18 0-2-1-3-3-4-5-2-7-7-6-11v-5c-3-4-5-9-5-13 0-3-1-4-3-6-3-3-2-11 1-16v-6l-1-9c0-4-1-6-3-8-2-4-3-10 0-13l1-8c-1-5-1-6 2-9 4-5 4-6 0-12s-4-11 2-16c4-3 4-4 0-8-5-4-5-11 0-16 4-4 5-8 3-10s-3-6-2-9c1-1 0-3-1-6-1-4-1-4 1-9 4-8 3-21-3-30-3-7-4-9 0-12 2-2 3-4 3-9 1-7 8-18 13-20l6-5 8-8 7-8c3-4 7-6 13-6h8c9-5 30-1 37 7 6 7 18-18 18-36 0-10 3-13 11-13 9 0 12 12 6 23-4 6-13 34-13 38s4 6 8 5c9-1 17 4 23 12 1 3 3 4 6 5 6 3 8 6 7 11-1 3-1 4 1 7 8 10 13 32 10 43-2 7-1 12 5 20a109 109 0 0 1 11 18l4 8 3 6c0 5 1 7 5 6l3 1c0 2-3 4-4 4-1-1-2 0-3 1-3 1-6 0-6-3l-4-3-2-3c0-4-17-31-19-31-1 0-2 0-6 10-3 7-3 7 0 12 3 6 3 11 0 16-4 7-5 12-4 15 2 5 4 3 6-4 0-2 2-3 4-4l6-5c2-4 3-5 5-3l2 1c1-1 1 0 1 4 0 11 5 15 9 7l3-4 2-1 3 2c1 4 10 3 14-1l4-3c2-1 2-1 0-2-1-2-1-2 1-3 2-3 3-2 3 0l1 4c1 1 0 2-2 4l-6 5-6 2c-3 0-7 1-10 4v4l-2 6c-2 1-2 2-1 5 1 5 4 5 8 0 4-3 4-3 5-1 2 5 6 5 8 0l2-2 1-4c-1-4-1-4 1-4l4-3 3-3c2 1 3 4 1 6l-2 4-1 3c-5 4 0 11 6 8l6 3c0 2-5 4-8 3s-8 1-8 4c0 2-2 3-4 4-4 2-5 5-3 7h9a2802 2802 0 0 0 13-5c0 3-3 8-6 9-4 1-12 6-12 8 0 5 5 6 8 2 2-3 6-4 9-2h3c1-1 8-2 9-1 2 1 0 4-3 5l-3 2-3 1c-3 0-10 6-10 7 0 5 7 4 12-1 2-3 3-2 2 0l1 3c2 1 6 0 6-2l3-4 3-6v-2c2-2 2 7 0 9-2 3 0 6 3 5 2 0 3 1 3 2s-5 6-7 6c-4 0-10 6-7 7l2 2c0 2 2 1 4-1s3-1 7 5c1 1 1 1 3-1s2-2 4-1c2 2-1 6-7 9-5 3-6 4-4 6s2 2 8 0c8-3 12-2 11 2s-5 6-7 4c-2-3-5-2-6 2-2 4-6 6-6 2 0-3-2-2-6 1l-4 3c-3 0-4 3-3 6 2 6 6 5 9-1 2-4 2-4 3 0 2 5 3 5 6-2s6-9 9-5c2 1 5 1 7-1h2c1 2-2 5-6 8-6 3-1 11 6 8 2-1 4 0 2 2l-11 3c-1-1-3 0-4 2l-4 2-2 2c-2 2 3 7 7 7l3 2 4 3c2 3 2 3 0 7-2 5-2 5 0 4 2 0 2 0 1 1l-8 4c-5 1-8 3-10 5l-4 4-6-1zm-29-61-2-4v-5c2-4 1-6-3-6-2 0-3-1-4-3-1-3-3-4-5-2-2 3 0 6 2 8s3 3 3 6c0 4 4 9 7 9 2 0 2-1 2-3zm16 0 2-3c1-2 2-2 4-2 3 1 5 0 5-3s4-8 6-8c1 0 2-2 1-5-1-2-4-3-6 0l-2 1-4 3c-2 2-4 3-7 3s-3 0-3 2c1 2 0 2-1 3-3 0-3 5 0 6 1 1 2 2 1 3 0 1 2 2 4 0zm-11-20 2-3c0-2 3-3 5-1 1 3 4 1 5-4l4-7c2-3 2-3 0-5-1-2-8 1-10 6-1 1-2 2-5 2l-3 1-3 2c-2 0-3 3-1 6l2 3c0 2 2 3 4 0zm-11-13 1-4 3-3c2-1 7-9 5-10l-4 1-6 1-4 1h-4c-3 0-7 2-7 5 0 6 7 7 9 2 1-2 3-3 3-1l-1 3v3c2 3 3 4 5 2zm-16-21c2-2 3-2 5-1 4 1 6 0 6-3 0-2 1-3 5-5s5-4 3-8h-4l-4 1-4 3c-2 2-3 2-5 1-3 0-3 0-4 2 0 2-3 4-3 3a373 373 0 0 0-4-8c0-4-9-6-10-2-2 3 1 11 2 8 2-2 4-1 4 1l3 3 3 3c0 5 3 6 7 2zm5-22c1-2 3-5 5-5l3-3 2-3c5-4 2-10-2-6l-9 3c-15 2-17 3-16 11 1 3 4 4 7 1 3-1 3-1 5 2 3 4 3 4 5 0zm-26-8 1-3c0-1 1-3 3-3 8-3 7-11-1-11l-5-1c-3-2-5-1-7 2-2 4 0 6 4 3 3-1 3-1 3 2l1 4-3 1c-4 1-4 7 1 7l3-1z"/><path fill="#d5555e" d="m265 433-6-1c-1 2-4 0-6-3-1-4-3-5-6-5l-3-2c-1-2-3-3-6-3-3-1-4-1-5-5-2-4-2-5-6-5-3 0-4-1-4-4 0-4-1-5-3-6-3-1-4-2-2-6 1-4-2-10-7-15-2-2-3-3-3-7 0-3-1-5-3-7s-3-3-2-4c2-3 1-3-2-2-3 2-6-1-4-3 3-3 2-5-1-2-4 3-5 0-5-9s0-9 2-8l3-1c2-2 4-1 4 2 0 2 1 2 5 3 5 0 6-2 3-5-2-2-3-3-2-4 2-1 0-3-2-3s-4 1-5 3c-6 7-11 1-11-12l-2-4-2-4c0-2-7-9-9-9-4 0-6 4-6 11s0 7-4 11c-3 2-3 3-3 6 3 12 1 18-6 18-2 0-4 3-3 6 2 5 0 11-5 11l-4 3c-1 2-3 4-5 4-3 1-4 5-4 13l-1 8c-1 2-5 4-8 4-2 0-4 5-4 9s-4 7-9 5h-12c-5 1-8 1-11 3-5 2-5 2-10-1-4-3-4-3-8-1-5 3-10-1-10-9l-3-6-4-6c0-3-2-6-4-6-5 0-12-10-12-18 0-3 0-4-3-5-6-2-8-5-6-10 1-3 1-4-2-8s-3-6-3-10c0-3-1-4-3-6-3-2-3-8 0-15 2-5 2-5 1-8l-2-8c0-5 0-6-2-9s-3-9 0-12v-8c0-5 0-6 2-8 5-6 5-6-1-15-2-4-1-8 3-12 5-6 5-6 1-10-6-5-5-14 1-17 3-2 4-5 1-10-2-2-2-4-2-7v-8c-1-3-1-4 1-8 4-8 3-20-3-31-4-7-4-7 0-12 2-2 3-4 3-7 0-6 7-18 13-21l6-5 7-8 8-7c3-5 6-6 12-6 3 1 5 0 9-1 3-2 5-2 7-1l10 1c7-1 10 3 5 5-3 2-4 2-1 4h3l3-1 2-2 2-2 6 6c5 6 18-23 18-41 0-10 9-14 15-8 4 4 3 8-1 7-4 0-5 1-7 14l-4 11-5 10-7 9c-3 3-3 15 0 15 4 0 7-4 11-16 2-4 2-2 1 3-3 8 0 11 8 11 10 0 15 2 19 8s7 8 11 10c4 1 6 4 5 8s-1 4 3 11c7 13 11 31 8 42-1 6 0 11 6 19l3 5 2 2 12 25 2 7-1 4c-2 0-11-8-11-11l-5-10-9-14c-4-8-7-8-9-2l-3 9c-2 5-2 5 0 10 3 6 3 12 0 16-5 7-6 15-2 18 2 2 4-1 4-4s3-7 5-7l6-5c2-4 3-5 5-3l2 1c1-1 1 0 1 4 0 11 5 15 9 8l3-5 2-1 3 2c1 4 10 3 14-1l4-3c2-1 2-1 0-2-1-2-1-2 1-3 2-3 3-2 3 0l1 4c1 1 0 2-2 4l-6 5-6 2c-3 0-7 1-10 4v4l-2 6c-2 1-2 2-1 5 1 5 4 5 8 0 4-3 4-3 5-1 2 5 6 5 8 0l2-2 1-4c-1-4-1-4 1-4l4-3 3-3c2 1 3 4 1 6l-2 4-1 3c-5 4 0 11 6 8l6 3c0 2-5 4-8 3s-8 1-8 4c0 2-2 3-4 4-4 2-5 5-3 7h9a2802 2802 0 0 0 13-5c0 3-3 8-6 9-4 1-12 6-12 8 0 5 5 6 8 2 2-3 6-4 9-2h3c1-1 8-2 9-1 2 1 0 4-3 5l-3 2-3 1c-3 0-10 6-10 7 0 5 7 4 12-1 2-3 3-2 2 0l1 3c2 1 6 0 6-2l3-4 3-6v-2c2-2 2 7 0 9-2 3 0 6 3 5 2 0 3 1 3 2s-5 6-7 6c-4 0-10 6-7 7l2 2c0 2 2 1 4-1s3-1 7 5c1 1 1 1 3-1s2-2 4-1c2 2-1 6-7 9-5 3-6 4-4 6s2 2 8 0c8-3 12-2 11 2s-5 6-7 4c-2-3-5-2-6 2-2 4-6 6-6 2 0-3-2-2-6 1l-4 3c-3 0-4 3-3 6 2 6 6 5 9-1 2-4 2-4 3 0 2 5 3 5 6-2s6-9 9-5c2 1 5 1 7-1h2c1 2-2 5-6 8-6 3-1 11 6 8 2-1 4 0 2 2l-11 3c-1-1-3 0-4 2l-4 2-2 2c-2 2 3 7 7 7l3 2 4 3c2 3 2 3 0 7-2 5-2 5 0 4 2 0 2 0 1 1l-8 4c-5 1-8 3-10 5l-4 4-6-1zm-29-61-2-4v-5c2-4 1-6-3-6-2 0-3-1-4-3-1-3-3-4-5-2-2 3 0 6 2 8s3 3 3 6c0 4 4 9 7 9 2 0 2-1 2-3zm16 0 2-3c1-2 2-2 4-2 3 1 5 0 5-3s4-8 6-8c1 0 2-2 1-5-1-2-4-3-6 0l-2 1-4 3c-2 2-4 3-7 3s-3 0-3 2c1 2 0 2-1 3-3 0-3 5 0 6 1 1 2 2 1 3 0 1 2 2 4 0zm-11-20 2-3c0-2 3-3 5-1 1 3 4 1 5-4l4-7c2-3 2-3 0-5-1-2-8 1-10 6-1 1-2 2-5 2l-3 1-3 2c-2 0-3 3-1 6l2 3c0 2 2 3 4 0zm-11-13 1-4 3-3c2-1 7-9 5-10l-4 1-6 1-4 1h-4c-3 0-7 2-7 5 0 6 7 7 9 2 1-2 3-3 3-1l-1 3v3c2 3 3 4 5 2zm-16-21c2-2 3-2 5-1 4 1 6 0 6-3 0-2 1-3 5-5s5-4 3-8h-4l-4 1-4 3c-2 2-3 2-5 1-3 0-3 0-4 2 0 2-3 4-3 3a373 373 0 0 0-4-8c0-4-9-6-10-2-2 3 1 11 2 8 2-2 4-1 4 1l3 3 3 3c0 5 3 6 7 2zm5-22c1-2 3-5 5-5l3-3 2-3c5-4 2-10-2-6l-9 3c-15 2-17 3-16 11 1 3 4 4 7 1 3-1 3-1 5 2 3 4 3 4 5 0zm-26-8 1-3c0-1 1-3 3-3 8-3 7-11-1-11l-5-1c-3-2-5-1-7 2-2 4 0 6 4 3 3-1 3-1 3 2l1 4-3 1c-4 1-4 7 1 7l3-1z"/><path fill="#68aa55" d="M80 413c-4-3-4-3-8-1-5 3-10-1-10-9l-3-6-4-6c0-3-2-6-4-6-5 0-12-10-12-18 0-3 0-4-3-5-6-2-8-5-6-10 1-3 1-4-2-8s-3-6-3-10c0-3-1-4-3-6-3-2-3-8 0-15 2-5 2-5 1-8l-2-8c0-5 0-6-2-9s-3-9 0-12v-8c0-5 0-6 2-8 5-6 5-6-1-15-2-4-1-8 3-12 5-6 5-6 1-10-6-5-5-14 1-17 3-2 4-5 1-10-2-2-2-4-2-7v-8c-1-3-1-4 1-8 4-8 3-20-3-31-4-7-4-7 0-12 2-2 3-4 3-7 0-6 7-18 13-21l6-5 7-8 8-7c3-5 6-6 12-6 3 1 5 0 9-1 3-2 5-2 7-1l10 1c7-1 10 3 5 5-3 2-4 2-1 4h3l3-1 2-2 2-2 6 6c5 6 18-23 18-41 0-10 9-14 15-8 4 4 3 8-1 7-4 0-5 1-7 14l-4 11-5 10-7 9c-3 3-3 15 0 15 4 0 7-4 11-16 2-4 2-2 1 3-3 8 0 11 8 11 10 0 15 2 19 8s7 8 11 10c4 1 6 4 5 8s-1 4 3 11c7 13 11 31 8 42-1 6 0 11 6 19l3 5 2 2 12 25 2 7-1 4c-2 0-11-8-11-11l-5-10-9-14c-4-8-7-8-9-2l-3 9c-2 5-2 5 0 10 3 6 3 12 0 16-5 8-6 16-2 18h3c2-2 2-2 2 0 2 3 1 4-2 4-4 0-5 1-5 4v12c0 8 0 9 3 13l2 8 1 7c1 2 1 2-1 0-6-6-11-2-11 8 0 7 0 7-4 11-3 2-3 3-3 6 3 12 1 18-6 18-2 0-4 3-3 6 2 5 0 11-5 11l-4 3c-1 2-3 4-5 4-3 1-4 5-4 13l-1 8c-1 2-5 4-8 4-2 0-4 5-4 9s-4 7-9 5h-12c-5 1-8 1-11 3-5 3-5 3-10-1z"/><path fill="#5d708f" d="M80 413c-4-3-4-3-7-2-5 3-10 1-10-5 0-3-1-5-4-8l-4-7c0-3-2-6-4-6-5 0-12-10-12-18 0-3 0-4-3-5-6-2-8-5-6-10 1-4 1-4-2-9-3-3-3-5-3-9 0-3-1-4-3-6-3-3-3-8 0-15 2-5 2-5 1-8l-2-8c0-5 0-6-2-9s-3-9 0-12v-8c0-5 0-6 2-8 5-6 5-6-1-15-2-4-1-8 3-12 5-6 5-6 1-10-6-5-5-14 1-17 3-2 4-5 1-10-2-2-2-4-2-7v-8c-1-3-1-4 1-8 4-8 3-20-3-31-4-7-4-7 0-12 2-2 3-4 3-7 0-6 7-18 13-21l6-5 7-8 8-7c3-5 6-6 12-6 3 1 5 0 9-1 3-2 5-2 7-1l10 1c7-1 10 3 5 5-3 2-4 2-1 4h3l3-1 2-2c0-4 3-2 7 3l4 3c2 0 2 0 4 7 2 10 3 10 9 4 3-3 3-3 5-1 2 3 3 3 8 3 10 0 15 2 19 8s7 8 11 10c4 1 6 4 5 8s-1 4 3 11c9 16 12 49 5 53l-1 4c0 3 0 4-2 5s-3 2-4 5l-3 9c-2 5-2 5 0 10 3 6 3 12 0 16-5 8-6 16-2 18h3c2-2 2-2 2 0 2 3 1 4-2 4-4 0-5 1-5 4v12c0 8 0 9 3 13l2 8 1 7c1 2 1 2-1 0-6-6-11-2-11 8 0 7 0 7-4 11-3 2-3 3-3 6 3 12 1 18-6 18-2 0-4 3-3 6 2 5 0 11-5 11l-4 3c-1 2-3 4-5 4-3 1-4 5-4 13l-1 8c-1 2-5 4-8 4-2 0-4 5-4 9s-4 7-9 5h-12c-5 1-8 1-11 3-5 3-5 3-10-1z"/><path fill="#51575f" d="M84 415c-2 0-3-2-4-3-3-2-6-3-8 0-3 3-9-1-9-6 0-4-2-8-5-11-2-2-3-3-3-6s-1-4-6-5c-4-1-9-8-10-17 0-4-1-5-3-5-3 0-7-6-6-8 1-4 1-7-1-9-3-4-4-7-4-11l-3-6c-3-3-3-10 1-16v-6l-1-9c0-4-1-7-3-9-2-3-3-8 0-12l1-8c-1-5-1-6 2-9 4-5 4-6 0-12s-4-8 1-13c5-6 5-7 0-12-4-4-4-9 2-15 3-4 4-7 1-10l-1-11-1-6c0-3 0-5 2-8 3-7 2-20-4-29-3-7-3-8 0-12 2-3 3-5 3-9 1-6 8-18 13-20l6-5 7-7 8-7c3-6 6-7 12-7h8c4-3 7-2 9 1 1 2 1 4-1 4-3 0-6 4-4 5 2 2 11-3 10-7 0-2 1-3 3-4 5-2 9 2 4 5-2 2-2 2 2 7s7 10 7 12l-3 1c-4 1-4 4-1 7 3 2 3 2 6-1 4-4 5-8 1-10s-7-10-4-12l2-2c1-2 1-2 3 0 3 3 4 6 2 8s-2 6-1 6l3-2 4-1c2 0 3 1 3 7 1 4 4 4 8-1 4-4 4-4 6-1s3 3 8 3c8-2 20 4 20 10l10 7c4 2 6 5 5 9-1 3-1 4 1 7 2 5 2 5 0 4l-2 2c0 2-1 2-5 1-6 0-7 1-3 5 3 2 4 3 8 0 6-4 7-4 9 4 4 13 5 23 3 29-1 2-2 5-1 6l-1 4c-2 1-2 3-2 5 0 3 0 4-2 5-3 1-5 4-5 6l-2 8c-3 5-3 5 0 11s2 11-1 15-4 13-3 16 5 4 6 1h1c2 3 1 5-2 5-4 0-5 1-5 4a517 517 0 0 1 2 24c4 5 5 18 2 15-5-5-11 0-11 11 0 5 0 6-4 9-3 3-4 5-1 9 3 5 0 14-6 15-5 1-5 2-4 8 1 5 0 7-5 8l-4 4-5 4-3 3-2 5c0 3 0 3-3 2s-5-1-4 2l4 1c3-1 3 0 4 2 1 5-3 9-11 9-3 0-5 2-3 3 1 1 0 10-1 11-2 1-16 0-19-2-4-1-4-1-6 1l-8 6h-3z"/><path fill="#0f1116" d="M80 411c-4-3-6-4-8-1-3 3-8 0-8-6l-4-8c-3-3-4-5-4-7 0-4-1-6-6-6-4-1-11-11-10-16 1-3-1-6-4-6-3-1-6-6-5-8v-8c-3-3-5-8-5-12l-2-6c-3-3-3-8 0-16v-6c-2-3-2-5-1-9 0-5 0-6-2-9-3-3-4-7-1-10l1-9c0-5 0-6 2-10 4-5 4-5 0-11s-4-8 1-13c5-6 5-8 0-12-4-4-4-10 1-15 5-3 5-7 2-11-2-2-2-4-2-6v-10c0-3 0-5 2-8 3-7 2-19-4-31-3-6-3-6 0-10 2-2 3-5 3-8 1-6 8-19 11-20 2 0 5-3 8-6a392 392 0 0 1 23-20c4 0 4 1 1 3-5 2-4 8 1 8 2 0 5-5 5-8-1 0 0-2 3-3 5-2 8-3 8 0 1 2 1 3-2 4-6 2-6 3-4 5 2 3 4 2 10-1 6-2 6-2 8 0 4 3 2 4-3 3l-4 1-5 4c-4 1-5 2-4 4v3c1 2 3 2 3 0l3 1c2 2 2 2 4 0l2-3c2-2 9-6 10-5 5 3 3 9-3 6-5-2-4 2 2 7 5 5 13 2 13-5l2-5c3-3 5-1 5 4s6 5 11 0c3-3 4-2 3 2l2 6c4 4 3 5-2 5-6 1-8 3-6 5l4 1c1-1 3-1 4 1 2 3 6 2 6-1s2-4 7-3c5 0 6 3 1 4-4 1-6 4-3 5l4 3c3 2 3 2 5 0s2-2 3 0c2 2 3 0 3-6-1-6 2-8 7-5 5 2 5 3 1 5-3 1-4 5-2 8s4 2 7-2c2-4 2-4 1 3 0 9 0 10-4 9-6-1-9 2-5 6 5 3 4 10-1 8-2 0-2 0-3 2l-2 2s-2 1-2 3c-2 2-3 2-5 2-4-1-4 0-1 4l4 5c0 3 3 2 4-1s3-4 4-2l-3 6-3 3c-1 2-5 1-5-3 0-2-5-4-7-3h-3c-2-2-1-7 1-5s3 0 2-3c-1-4-4-5-6-4s-3 1-5-2-2-3-4-2l-4 2c-5 0-5 2 1 7 5 4 5 4 2 6-2 3-2 3-1 7 3 7 7 8 7 1 0-3 3-5 5-4l3 7 1 3c2 0 5-3 5-5-1-2 0-1 2 1 1 2 2 2 3 1 2-2 4 0 4 3s3 2 5-2c2-6 6-6 5 0-1 3 4 2 6-2h3c1 0 3-1 5-4 4-4 5-3 3 4-3 7-6 10-12 10-4-1-5-1-6 1-1 1-2 2-4 1h-4c-3 2-4 1-6-1-1-2-4-3-6-1l-6 1c-6 1-8 3-4 8 3 4 11 4 12 0 0-5 5-3 5 2l1 2 3 3c1 4 4 4 6 1 1-1 2-2 3-1l3-1c4-5 5 2 2 8-2 4-2 4 0 8 2 6 3 8 0 6l-1-3c0-4-7-10-13-12-7-1-8-1-8 2s-2 2-3-2c-2-4-6-6-8-3l-2 1c-1-1-2 0-3 1h-3l-3 1c0 2-1 2-3 2-6-1-10 3-7 6 2 2 2 2 3 1h3c1 1 1 1-1 2v3c1 2 7-1 7-4s2-3 4-2l4 1c4-1 6 2 6 6-1 4 4 4 5 0 2-5 5-4 6 2 1 4 4 4 5 0 1-5 6-3 5 3 0 3 0 3 2 2 4-4 8-2 5 3l-2 7c-1 4-3 6-5 6s-2 1-2 2l3 1c3 0 4 4 2 8v18l2 9c4 10 4 12-1 12-4 0-7 4-7 13 0 5 0 6-3 8-4 4-5 8-3 12 2 5 0 11-5 12-2 0-3 0-3-3-1-3-2-4-4-1-3 2-2 5 0 5 2 1 4 12 2 14-1 2-3 1-3-2 1-4-1-5-3-2-3 3-3 3-3-2 0-4 0-5-2-5s-4 2-4 4-2 7-4 7-4-4-4-9c0-8-9-10-10-2 0 3-3 5-5 3h-11l1 4 2 5c1 3 5 5 9 5l3 2c0 1 7 2 7 0l3-1-1 2-2 4-1 4c-1 2-1 2 4 9 1 2 1 2-1 4-2 3-5 1-5-3 0-3-4-6-6-5-2 0-2 1-1 3s1 4-1 6c-1 2-1 2-2 0l-2-4c-1-1 0-2 2-4s2-2 1-3v-5c1-3 0-5-3-5-4 0-5 2-4 5s-1 3-5 1-8 0-8 4l-1 3-1 2c0 1 9 2 11 0h4l-1 2c-1 2-1 11 1 14 2 4-3 4-6 0-2-2-8-1-8 3 0 5-8 8-11 6Zm-27-30 2-3 1-3c3-1 5-4 5-11 0-9-2-10-8-8-5 2-5 4-1 5 3 1 4 3 1 4l-2 3-2 4c-4 3-4 8-1 9h5zm33-28 1-3 4-4c2-4 7-6 8-2v2c0 2 5 1 6-1 4-4 2-7-5-7l-8-2c-1-2-3-2-6-2l-8-1c-5-2-6 0-5 6 1 4 1 4 5 5 7 1 8 4 3 8-3 3-2 5 2 5 2 0 3-1 3-4zm20-23c4-4 0-12-5-10-1 0-2 0-3-3-2-3-6-4-10-1-2 1-2 1-5-1-3-4-9-4-8 0 0 5 2 7 5 7 2 0 3 1 4 3 1 3 3 3 7 2 4-3 9-2 8 2s4 5 7 1zm29-4c1-3-2-5-5-4-3 0-3 0-3-2 3-8 1-11-5-10-8 2-8 9 0 13l4 3c2 3 8 3 9 0zm-77-14 6-4c1-1 2-2 2-7 1-8 0-9-9-6-7 2-8 3-6 8v7c-2 6 2 7 7 2zm43-5-5-4 1-5c2-6 2-8-3-9-6-2-10 3-6 7 2 1 1 4-1 4-1 0-3-1-3-3-2-3-5-4-7-2l1 4 2 4c0 4 1 4 5 1 3-2 8-2 8 1 0 2 1 3 5 3l3-1zm40-6c2-3 4-4 5-4h6c2 0 4-1 4-3h-4c-2 2-3 1-2-2 0-4-1-6-4-6s-5 2-5 4c-1 2-1 3-4 3-5 1-9 4-9 6 0 8 6 10 13 2zm-19-13c1-3 4-4 6-1s4 2 7-3c4-6 4-10-1-8a622 622 0 0 1-9 4l-1-4c1-5-3-6-7-2l-4 3-2 2-1 3c-1 1-1 1-1-2 1-5-1-7-8-7-3 0-4 0-4 2s3 5 5 4l1 1-1 2c-2 0-1 3 1 4l3-1c3-1 3-1 4 2 3 5 12 5 12 1zm-52 0c6-5 13-13 13-15-1-4-7-5-11-3l-3 1-3 1-5 1c-3 1-3 1-2 6 1 8 6 12 11 9zm82-16c1-3 4-4 6-2l2-1c4-6 0-9-7-7l-7 2c-4 0-8 3-7 5h1c1-1 2-1 4 1v2c-2 2-2 4 0 5s7-1 8-5zm-112 0 1-4c-1-2 0-3 1-1s4 1 6-1 2-2 0-4c-1-2-2-3-1-9s0-8-3-8-3 3-1 9l1 6h-6c-5 1-7 2-5 5l2 5c1 3 3 4 5 2zm72-5c3-1 4-9 2-11s-6 0-7 2c0 3-3 2-3-1 0-9 0-9-3-8l-4-2c-2-2-5-1-6 1l3 5 3 4c-2 2-3 1-3-2l-4-4c-3-1-4-3-4-5 0-3-1-4-5-5-5-2-7 0-4 4l2 5c0 2 1 3 3 4 3 2 4 5 5 9 0 2 8 1 9 0l3-2 3 2 3 1 2 2c1 2 2 2 5 1zm-42-3c1-1 0-2-1-4-3-3-3-4 2-3 3 0 3 0 3-4-1-6-1-5-8-5l-9-1h-5c-2 2 1 8 4 8 2 0 3 0 2 3-1 6 8 11 12 6zm61-10 2-4 3-3c5-3 1-6-8-6-9 1-9 1-7 6 2 4 3 5 3 8 1 1 4 1 7-1zm-28-16c2-1 4-8 4-10h-5c-6 0-6 0-7-3-1-2-2-3-6-3-5 0-7 2-3 5 4 4 2 4-3 1-4-2-5-3-7-6-1-5-9-8-9-4 0 2 4 8 6 9l5 4c4 4 8 5 14 2h3l2 1v5c0 1 4 1 6-1zm9-26 5-3c6 1 8 0 9-3l3-2c3 0 3-1 1-4s-2-3-11 2h-8l-3-2c-1-4-12-4-12 0 0 10 11 19 16 12zm-32-17c6-3 6-4 3-7-1-2-2-2-5-2-5 1-8 0-8-1 0-2-9-2-10 0 0 2 2 4 5 4s5 2 5 5c0 6 3 6 10 1zm41-2v-4c0-2 0-2 2-3 2 0 3-4 1-6v-2c1-1 1-1-1-3-1-2-5-3-7-1 0 1-2 1-3-1-2-1-2-4-1-4 2 0 6-5 6-7 0-3-3-5-4-3l-3 2c-2 0-4 3-5 5-2 4-3 6-5 6s-2 1-2 3v6l2 4c3 0 4-2 1-4l-1-2 2 1c1 1 4 0 4-1l1-3c2-2 3 1 3 7l2 6 1 2c0 4 3 4 7 2zm-33-23c3-4 3-9-1-9-4-1-3-3 1-3l5-1h2c0 3 4 2 5-1l3-3c4-1 4-6 0-7-2-1-4-1-4 1s-1 2-6 3l-6 3-5 2-3 2c0 3 3 9 4 9 2 0 3 2 2 3h-3c-1-3-2-1 0 2 1 2 4 2 6-1zm-24-19 2-1c4 0 5-2 4-6-1-2-1-3 1-4 7-5 7-9 0-8-5 0-6 0-9 4-5 6-5 7-4 9 2 1 2 3 1 4 0 3 0 3 2 3l3-1Zm85 0v-4c1-4 3-6 6-4h3c0-2 3-1 4 1 3 4 4 0 1-5-3-7-8-9-14-6-3 2-3 2-3-1 0-5-5-7-7-3 0 2-1 3-4 3l-6 2-3 2c-3 0-8 3-8 4 0 2 4 8 5 8v-2c-1-2-1-5 1-5l3 3c2 3 3 4 4 1 2-5 5-6 7-2 1 1 1 2 2 1l2-1 3 6v2h4zm-59-9v-2c-2-5 1-6 4-2 2 4 3 4 5-1s3-5 6 0c2 4 3 4 6-1l4-4c1 0 5-6 5-8l-7-3h-4c-2-1-2-1-2 1s-3 4-7 4c-1 0-2 0-2 2a2695 2695 0 0 0-11 5c-2 0-2 4 0 9h3zm3-21 4-2c4 0 5-2 3-5-3-4-6-5-8-2l-6 2c-6-1-8 3-4 6 3 3 8 4 11 1zm80 50c-4-4-1-11 4-8 3 2 4 2 4-1l1-4v-12c2-1 3 2 2 5 0 3 3 10 5 10l2 8c-1 2-7 3-10 1-2-1-3-1-4 1s-2 2-4 0z"/></svg>