<svg xmlns="http://www.w3.org/2000/svg" width="32" height="32" viewBox="0 0 144.9 132.8"><path fill="#d4a19d" d="M92 133c-6-5-14-5-21-2-10 1-20-6-24-15-5-4-12-8-19-4-10 2-21-3-26-13-5-11-1-25 9-31 7-6 17-7 26-3 0-7 6-13 2-19 2-8 13-4 17-10 5-7 14-11 13-20 2-4-5-14 0-16 6 5 7 14 5 21-2 9 6 14 13 15 8 2 14-3 14-10 4 0 6-9 10-4 8-3 1 7 4 11 4 6 18-1 14-8-3-3-9-6-2-9 4-4-14-4-5-5 10 0 21 7 22 18 4 13-8 28-22 27-3 0-10 0-4 4 6 3 13 6 16 13 5 8 8 20 1 28-3 6-8 11-15 12-6 4-6 14-14 16-4 3-9 4-14 4zm-20-30c3-6-10 0-2 0h1zm-7-1c3-1 7-5 1-3-1 0-4 4-1 3ZM25 84c5 0 8-6 2-8-6-3-12 11-2 8zm89 0c11 1 0-15-5-6-6 6 0 7 5 6zM99 66c8-6-12-5-4 0 1 1 4 2 4 0zm5-2c6-3-6 2 0 0zm-42 0c10 2 6-14-3-9-6 2-6 12 2 9h1zm25-15c1-6-10 4-2 1l2-1zm-4-2c6-3-7-14-8-6 0 3 4 9 8 6zm-36 0c7-4 16-5 23-7 4-6-6-13-8-4-2 6-13 7-16 12zm56-1c3-8-16-6-8-1 3 0 5 2 8 1zm-35 0c-2-4-8 1-2 0h2zm40-30c3-3 3-1 0 0z"/><path fill="#bd6596" d="M92 132c-6-4-14-5-20-1-11 1-20-6-24-15-7-5-14-8-22-4-9 1-18-4-22-12-5-8-4-18 0-25 3-6 10-6 13-11 3 0 4-1 2 1 0 4 12 4 11 1-2-2-11-3-3-3 5 1 13 4 11-4 3-5 5-10 2-15 4-4 12-1 16-6 3-5 9-8 13-14 3-6 0-13-1-20-3-8 6-1 4 3-5-5 0 9 1 1 5 6-2 15 1 22 4 4 12 6 18 8 5 1 13-2 9-9 7-6 8 9 15 9 7 2 18-2 18-10-3-4 1-16 6-8 4 5 5 13 4 20-4 9-12 17-22 16-5-1-10 1-4 5 7 3 14 6 17 14 7 12 3 29-10 36-7 1-10 7-13 13-5 5-12 9-20 8zm-27-26c5 1 13-2 7-7-4-4-17 3-9 7h1zM21 90c7 1 15-8 11-15-7-6-20 1-18 11 1 2 3 4 4 0 1 1 1 6 3 4zm89-5c9 3 14-10 3-10-6-1-14 13-3 10zM65 69c9-1 10-14 3-18-2-4 4-6 1-9 7-5-3-17-7-8-3 9-14 8-18 16 2-1 9-5 4-1 2 3 1 8-1 9 3 6 7 13 14 12l4-1zm33-2c4-6 18 5 17-3-5-2-11-1-12-8-3-3-6-11 1-9 1-7-11-11-12-3 0 5 9 7 2 13-4 3-4 13 4 11v-1zm-10-8c1-9-2-17-9-21-10 2 1 11 5 15 1 1 2 7 4 6zm6-8c0-4-3 2 0 0zm-2-3c-3-5-2 3 0 0z"/><path fill="#ae965a" d="M92 132c-6-4-14-5-20-1-11 1-20-6-24-15-7-5-14-8-22-4-9 1-19-4-23-13-5-10-3-23 7-29 4 0 7-8 10-6-6 4 6 7 10 5 8-3-6-5-6-6 4-3 15 7 14-3 2-5 5-10 2-15 1-5 5 0 7-3 6-1 12-3 14-9 4-3 4-6 8-8 1-8 1-16-2-24 5-4 6 12 3 3-3-3 2 12 3 4 4 7-2 15 2 22 4 5 11 6 17 8 5 1 14-1 9-8 4-8 9 5 13 8 7 3 19-1 20-9-3-4 0-17 6-9 4 5 5 13 4 20-4 9-12 17-22 16-5-1-10 1-4 5 7 3 15 7 18 15 6 12 2 27-9 34-7 1-11 6-14 12-4 7-12 11-21 10zm-21-23c7-4 7-14-3-12-7-2-16 11-4 11 1 1 4 2 7 1zM21 90c7 1 16-5 13-13-4-7-12-8-17-1-6 3-5 15 4 14zm88-2c7 0 18-6 10-14-6-5-13 0-16 6-2 4 3 8 6 8zm-3-16c1-6-7-5-6-1l6 1zm-41-3c8-1 10-13 3-17-4-4 7-7 4-10-3 1 1-15-7-10-5 5-10 11-17 13-2 1-6 7-1 3 5-3-1 4 3 6 0 3-5 3-1 7 3 5 8 11 15 8h1zm33-1c6-6 17 6 20-4-3-5-13 1-14-8-3-2-5-10 0-9 1-8-11-11-13-2-6-6-2 6 2 4-3 4 7-1 3 5-3 3-3 8-8 7 4 0 4 12 10 7zm-9 0c-1-5-3 2 0 0zm-1-9c1-9-2-17-9-21-7 1-5 10 1 11 4 2 4 8 8 10ZM71 24c-3 1 2 3 0 0z"/><path fill="#a4645b" d="M92 132c-7-4-14-4-21-1-10 0-19-7-23-16-7-5-15-6-23-3-9 0-18-4-21-12-6-10-4-25 7-31 3 0 9-7 8-5-4 5 7 6 10 5 10-3-7-5-4-6 4-2 15 6 13-3l6-8c2 2-1 7 3 3 3 0-2 4 0 7-1 6 6 17 13 13 7 0 12-4 14-10 5-7-5-11-5-17 2-8 11 1 14 4 3 5 4 10 8 12 1 7 7 5 11 2 4 1 19 5 15-3-6-1-13-1-15-9-1-3-1-7 2-6 1-9-12-12-13-3-5-5-3 5 2 4-2 3 7 5 0 6-9 2-3-12-10-14-2-6-10-2-9 3-2-1 1-9-3-6 2-10-10-7-11 0L43 49c-5-1-2-9 1-6 7-2 14-3 17-10 4-5 11-6 9-13V10c2 4 5-4 4 1 1 7-4 18 4 22 6 2 12 7 19 5 4 1 7-3 6-6 4 2 3 9 10 9 6 2 15 4 20-1 4-5 5-11 8-16 5 3 4 12 1 18-3 8-12 15-22 14-5-2-6 3-2 6 9 2 16 8 19 17 4 12 0 29-14 32-8 1-7 9-12 14s-12 8-19 7zm-21-23c7-4 7-14-3-12-7-2-16 11-4 11 1 1 4 2 7 1zM22 91c0-2 4 2 5-2 6-1 11-11 5-15-5-5-10-3-15 1-3 2-2 6-6 5 1 4 4 12 10 12zm87-3c7 0 18-6 10-14-6-5-13 0-16 6-2 4 3 8 6 8zM41 74c-1-5-2 2 0 0zm65-2c1-6-7-5-6-1l6 1zm-15-3c-1-4-6-2-1 1 1 1 3 1 1-1zM71 25c-1-5-1 4 0 0zm18 36c-6-8 9 0 0 0zm6-9c-1-5 4 1 0 0zM71 6c-3-4 0-7 1-1 0 1 0 4-1 1zm-3-3c-3-6 3 2 0 1V3Z"/><path fill="#9b932e" d="M92 132c-7-4-15-4-22-1-9 0-18-6-22-15-5-4-11-8-18-5-9 2-20 0-25-9-5-7-6-17-1-24 4-2 6-12 12-6-3 4-10 7-9 13 3 2 3 8 7 8 3 3 11 1 15-1 8-2 9-10 7-16-2-3-3-8 1-8 0-3-3-1 0-3 1-6 3-10 8-13-1 3-2 4 1 5 0 7 3 16 9 19 6-1 15 1 19-6 4-6 3-14 0-21 7-2 11 7 13 12 2 2 8 12 2 5-6 1 2 12 6 5 4-4 4 2 6 4-2 4-3 4 0 8 0 6 6 10 12 7 6 0 12-5 11-11-2-5-3-8-8-9 2-9 12-6 16 0 11 12 8 35-8 41-7 1-9 7-12 12-5 6-12 10-20 9zm-29-19c4-3 12 2 14-5 3-4 7-13-1-11-7-2-18-1-20 7 0 3 5 9 7 9zm-4-21c2-5-4 1 0 0zM8 90c-1-5-2 2 0 0zm33-15c1-3-4-5-1-1zm68-14c-3-4-8-10-4-15 0-4-8-7-8-7 4 1 8-3 6-7 4 1 3 9 10 9 7 3 18 4 22-4 4-3 3-15 7-13 4 9 2 22-8 28-4 5-16 1-19 6 4 5-3 3-6 3zm4-6c-2-4-3 2 0 0zm-23 0c-8-6 12-2 2 0h-1Zm-2-5c2-4 2 3 0 0zm-47-1c-3-3 4-8 2-2 1-3 10-7 7-4-3 2-5 6-9 6zm44-5c-1-7-12-6-11-4 0-4-3-4-3-8-3-4-11 3-5-2 9-3 5-11 4-17 3 1 4-6 4 0 0 7-3 16 4 21 7-1 8 7 8 10h-1zm5 0c-5-3-1-7 3-5 3-2-3 7-3 5z"/><path fill="#8d6330" d="M92 132c-7-4-15-4-22-1-9 0-18-6-22-15-5-4-13-8-20-5-8 2-19-1-23-9-6-8-6-19 0-26 4-1 6-10 11-4-3 5-13 9-7 15 1 2 2 7 5 7 6 3 12-1 17-3 7-3 6-12 4-17-3-4 0-5 3-6-2-3-4-1-1-3 1-3 3-11 2-4 1 4 3 6 6 8 0 5 8 10 12 10 0-6 6 3 7-3 7 0 11-7 13-13 2-5-4-13-1-14 8 1 9 10 13 16 2 2 5 7 1 3-7-5-1 10 5 4 2-1 4-4 3 0 4 2 4 5 1 7 3 5 1 8 6 11 4 2 12 0 16-4 5-4 1-11-1-15-9 0 2-12 7-6 11 8 15 24 8 35-3 8-11 10-17 14-4 4-5 10-10 13-4 4-10 6-16 5zm-29-19c4-3 12 2 14-5 3-4 7-13-1-11-7-2-18-1-20 7 0 3 5 9 7 9zm-4-21c2-5-4 1 0 0zM8 90c-1-5-2 2 0 0zm33-15c-1-8-3 1 0 0zm5-13c-4-3 2-8 0-2v2zm63-1c-3-4-8-10-4-15 0-4-9-7-8-7 4-2 11-2 9 4 3 8 14 6 21 5 8-1 15-8 15-17 1-3-1-10 1-3 4 13-6 27-19 28-4 1-12-3-8 4 1 3-5 0-7 1zm4-6c-2-4-3 2 0 0zm-23 0c-8-6 12-2 2 0h-1Zm-2-5c2-4 2 3 0 0zm-47-1c-3-3 4-8 2-2 1-3 10-7 7-4-3 2-5 6-9 6zm44-5c-1-7-12-6-11-4 0-4-3-4-3-8-3-4-11 3-5-2 9-3 5-11 4-17 3 1 4-6 4 0 0 7-3 16 4 21 7-1 8 7 8 10h-1zm5 0c-5-3-1-7 3-5 3-2-3 7-3 5z"/><path fill="#67571c" d="M92 132c-6-4-14-4-21-1-10 0-19-7-23-16-7-5-14-7-22-3-9 1-18-4-22-12-3-3-4-15 2-8 5 4 12 9 18 5 7-1 14-5 14-13 1-4-5-13 0-13 2 3 4 9 6 3 5 2 8 8 14 9 6-1 12 0 17-3 3-6 8-11 7-18-2-3-3-10 1-4 4 2 7 8 8 11-2-4-6-4-5 1 1 8 7 4 11 1 6 2 3 8 0 11 0 2 5-4 4 2 0 6 6 10 11 6 6 1 12-4 12-10-3-4-2-10-7-9-3-7 10-9 13-2 10 9 11 26 2 36-5 7-17 5-18 15-5 8-13 13-22 12zm-28-19c2-4 11 4 12-4 5-3 6-8 5-12-5 1-11-2-16-1-7 1-14 8-8 13 2 2 4 4 7 4zm-5-21c2-5-6 0 0 0zm17-4c0-3-4 2 0 0zm8-16c1-8-5 4 0 0zM2 88c-3-7 5 0 0 0zm110-27c-3 0-2-6-6-6-5-4 0-10 4-5 7 1 15 0 22-2 6-3 11-10 11-17 3 4-1 14-5 18-5 6-14 7-21 6-6 1 4 9-5 6zm1-5c2-4-6-1 0 0zm-68 4c-1-7 3-1 0 0zm45-5c-8-5 11 0 0 0zm-49-6c-2-6 8 1 0 0zm4-3c2-4 7-4 2-1l-2 1zm40-3c-3-6-10-5-14-8-3-3-3-7 1-9 2-10 0 8 5 8 6 0 9 7 9 10zm5 0c-7-3 7-6 2-1 0 0-1 2-2 1zm13-1c-2-2-9-3-3-3 5-4 7 5 3 3zM73 19c-4-2 3-13 1-5l-1 5z"/><path fill="#581e1d" d="M91 131c-6-5-14-2-21-1-10 1-20-7-22-17 0-5-3-1-3 0-6-4-12-5-18-2-9 1-18-2-22-10-4-4-2-12 3-6 6 4 14 7 21 4 4-5 10-8 9-16 1-4-4-11 0-12 4 11 16 18 27 18 5 0-1-1 1-2 6-2 13-4 17-10 2-2 3-4 4 0 5-1 13-11 13 0-2 2-6 8 0 4 0 6 5 14 12 9 4-1 10 0 11-6 3-4-2-12-4-12-7-1 3-12 7-6 11 6 15 22 9 34-2 9-14 10-19 16-3 6-8 12-15 14-3 2-6 2-10 1zm-27-18c2-4 11 4 12-4 5-3 6-8 5-12-5 1-11-2-16-1-7 1-14 8-8 13 2 2 4 4 7 4zM35 98c0-4-4 2 0 0zm53-2c-3-1 1 4 0 0zm-29-4c2-6-7 1 0 0zm17-4c0-4-4 2 0 0zm12-1c-3-4-2 3 0 0zm-7 0c-5-4-3 2 0 0zm7-22c-3-3 4 2 0 0zm24-4c0-5-12-8-7-11 5 2 9 7 10 11h-3zm-21-6c0-3 3 1 0 0zm-49-6c-1-4 5 0 0 0zm3-3c2-3 7-3 2-1l-2 1zm44-4c-3-4 5 1 1 0h-1Zm-7-3c-2-2-10-3-3-4 2-1 9 8 3 4zm19 1c-2-3 6 2 0 0zm-27-6c-2-3 1-2 1 0zm-4-3c-5-2 8-6 2 0 0 1-2 2-2 0z"/><path fill="#2c1709" d="M91 131c-6-5-14-2-22-1s-14-5-19-12c-3-2 1-6 1-1 2 4 10 12 13 5-4-2 5 3 6 1 4-1 7-7 11-5-1-2 0-3 2-4 3-5 4-11 4-15 5-4-4-3 0-7s-1-8-1-10c6-2 12 4 7 9-5 2 1 6 3 2 2-1 2 6 7 6 4 1 9 3 11 1 5 2 12-3 14-8 1-6 7-14 0-19 2-5 8 5 9 8 3 11-2 25-13 30-8 0-9 7-13 12-5 5-13 10-20 8zm-15-10c-2-3-1 3 0 0zm11-6c-1-3-4 2 0 0zm0-3c0-5-3 5 0 0zm7-6c-1-5-3 1 0 0zm35-1c-2-4-2 3 0 0zm-33-8c-3-6-3 4 0 0zm-53 15c-5-5-12-2-18-1-8 0-16-2-19-9 1-4 5 6 9 4 5 0 11 0 16-2 5-3 14-6 12-13 0-3-4-11-1-12 2 6 15 5 12 12 3 6-7 7-5 14-2 3-5 3-3 8l-3-1zm17-17c-6-7 17-5 7-8 0-2 8 0 10-4 4-5 10 6 8 6-2-6-17-4-9 3-2 5-11 2-16 3zm54-35c-5-2 0-5 2-1l-2 1zm-5-5c-3-5 4-1 0 0z"/></svg>