<svg xmlns="http://www.w3.org/2000/svg" width="32" height="32" viewBox="0 0 291.4 406.6"><g transform="rotate(14 328 234)"><ellipse cx="55.3" cy="258.4" fill="#fff" rx="26.5" ry="20.8"/><path fill="#ea6c93" d="M89 439a91 91 0 0 1-35-37c-2-2-5-19-5-27 0-6 1-8 5-18 6-15 6-15 1-15-9 0-26-5-26-8l-7-8a60 60 0 0 1-12-68c12-30 63-38 86-14 10 10 11 8 6-14a464 464 0 0 1-6-40c3-8 4-22 1-28-4-9-7-35-4-35a463 463 0 0 0 5-2l2-7 4-18a1591 1591 0 0 0 24-28c0-4 3-7 6-7 4 0 5 0 6-3 2-3 6-5 9-4 2 1 7-3 7-5l3-5 4-5c0-1 11-5 17-6 4 0 4 0 4 2l2 2c2 0 3-2 0-3-3-2 4-7 10-7 4 0 5 0 11-5 3-3 6-5 9-5l8-1c3-1 5 8 3 11-4 5 0 9 7 9 5 0 5 0 3 4-4 5-3 6 2 7 5 2 5 2 3 8 0 3 0 3 3 5s4 3 1 6c-2 2-1 3 2 5 3 3 3 4-1 8-2 4-2 7 2 7 3 0 4 3 1 6-7 8-8 13-4 17 3 4 3 4-5 16-7 11-8 12-6 14s1 6-3 7l-1 4-4 9c-3 6-3 9 1 9 2 0 0 3-4 8-7 6-7 7-6 10 2 3 1 5-5 12-4 5-4 5-2 7 4 2 4 4-1 7s-5 4-2 7c3 2 2 3-3 7-5 3-7 6-4 7 1 0 2 4 0 4s-1 2 3 3a421 421 0 0 1 14 6c1 0 10 8 13 13 9 12 9 32-1 47l-3 6-4 6c-5 5-5 5-2 10 1 2 3 3 6 4l5 3 2 1 17 12c16 12 21 34 12 54-11 25-22 32-51 32-14 0-33-8-48-21-8-6-8-6-15 2-12 17-39 26-60 20ZM42 264c3-2 7-2 10 1 2 1 4 1 4-1 0-3 3-4 11-5 9 0 10-1 10-6 0-4-2-5-6-3h-4c-7-5-31 5-31 13 0 4 2 4 6 1z"/><path fill="#8eb393" d="M89 439a91 91 0 0 1-35-37c-2-2-5-19-5-27 0-6 1-8 5-18 5-11 6-15 4-15l-1-1-8-1c-9-1-23-7-22-10l-5-7c-11-10-17-30-13-42 2-4 3-4 6 1 4 6 5 6 12 4l7-1 2-1 2-4c2-3 2-4 1-5-1-3-1-4 2-2l13 4 9 1c7 1 10-6 3-9-7-4 0-7 8-4 6 2 9 1 7-2-1-6-1-13 1-14 2-2-6-7-13-8-4-1-4-4-1-5 2 0 3-1 3-2 1-1 7 1 10 3l4 2c1-1 3 0 4 2 3 3 3 3 1 3-4 0-6 3-3 4 3 0 4 0 5-2 1-1 1-1 6 4 7 6 9 6 8 2a209 209 0 0 1-4-24l-1-6c0-4-2-10-3-9l-1-4-1-9v-10c3-8 4-22 1-28-4-9-7-35-4-35a463 463 0 0 0 5-2l2-7 4-18a1591 1591 0 0 0 24-28c0-4 3-7 6-7 4 0 5 0 6-3 2-3 6-5 9-4 2 1 7-3 7-5l3-5 4-5c0-1 11-5 17-6 4 0 4 0 4 2l2 2c2 0 3-2 0-3-3-2 4-7 10-7 4 0 5 0 11-5 3-3 6-5 9-5l8-1c3-1 5 8 3 11-4 5 0 9 7 9 5 0 5 0 3 4-4 5-3 6 2 7 5 2 5 2 3 8 0 3 0 3 3 5s4 3 1 6c-2 2-1 3 2 5 3 3 3 4-1 8-2 4-2 7 2 7 3 0 4 3 1 6-7 8-8 13-4 17 3 4 3 4-5 16-7 11-8 12-6 14s1 6-3 7l-1 4-4 9c-3 6-3 9 1 9 2 0 0 3-4 8-7 6-7 7-6 10 2 3 1 5-5 12-4 5-4 5-2 7 4 2 4 4-1 7s-5 4-2 7c3 2 2 3-3 7-5 3-7 6-4 7 1 0 2 4 0 4s-1 2 2 3 3 1 2 2c-2 1-5 0-5-1 0-2-3-1-6 0v2l3 1-3 1c-2-1-3-1-4 2l-3 5c-1 3-1 3 1 4l3 4c6 10 30 14 33 5 1-4 3-5 6-2 8 6 8 24 1 39l-3 5c0 3-2 7-4 10-4 4-7 8-5 8v2c0 2 4 6 9 7 4 2 4 2 3 0-2 0-2-1-1-1l2 2 2 1 4 2 1 1v2c3 2 5 3 3 0l2 1 2 3 4 5c5 3 12 13 14 21 2 5 3 23 2 22l-2 4-2 8c-8 17-18 26-28 26l-5 1h-4l-3 1h-23c-10-3-25-12-35-20-8-6-8-6-15 2-12 17-39 26-60 20Zm142-51c1-1 3-2 3-4 1-2 1-2 3-1 6 1 9-5 4-9-3-2-7-2-11 1-5 3-14-2-11-6 4-4 8-16 7-19-1-7-14-1-16 7 0 4-1 4-5 3-8-3-24-2-25 3-2 7 2 10 19 15l13 4 6 1c5-1 5-1 7 3 2 3 3 4 6 2zm-94-8 3-2c4 0 7-7 4-11-2-2-22-4-23-2s-11-2-11-4c0-3 12-4 21-1 10 3 13-10 4-17-5-4-6-4-9 0l-2 1-3-2c-9-1-10-1-12 1l-4 2-4 1c-4 1 2-6 8-9l6-3-1-2c-9-17-55 13-47 31 1 4 2 3 4-1l3-4c2 0 2 0 2-2 0-4 7-10 15-14 8-3 9-4 9-1l-2 1c-2 0-3 1-2 3 1 1 0 1-4 3-7 4-8 4-11 12-3 7-3 7 2 7l9 2 8 1h18c3-2 5 0 7 5 3 6 9 8 12 4z"/><path fill="#89a571" d="M85 437c-21-14-38-41-34-67 2-12 18-34-5-31-19-2-30-20-36-36-5-8-1-35 8-18 10 6 24-3 21-13 7 3 34 12 29-2-13-9 9-4 14-5-2-11 3-23-13-24-7-9 12-8 16-2 8 2 7 6 1 8 8-4 13 5 20 7 0-14-2-29-7-43-5-16 4-32-1-49-5-10-5-24 10-16-5-2-22-23-8-14 11 6 11-4 2-8 4-5-3-24 12-16 9 4-7 9 6 11-7 12 18-4 13-10-7-5-10-18-12-24 8-2 9 29 17 15-8-9 8-18 6-3 5 6 27 8 15-4 2-13 4-5 6 3 9-1-1 28 10 13-1-9 11-11 5-1 3 3 19-17 13-2-1 7 19 9 14 20 6 6-15 2-4 12 10 13-2-12 9-3 13 6-3-7 6-10-4-7 3-14-8-15-5-14 13-6 19-15 5-4 16-7 9 3-6 3-29 17-9 15 17 2-18 24 1 24-2 11-13-8-12 7 2 13 23-8 12 7-12 6-3 18-6 27-5 5-14 15-13 19 14-6-11 11 1 15-6 4-10 8-4 14-12 4-6 16-14 21 8 2-13 5-6 13 6 12 30 21 37 6 16 3 12 31 4 43-5 10-19 28 2 30 12 7 24 16 31 28 9 22 0 50-18 64-20 9-45 8-64-4-11-4-25-27-32-6-15 17-42 22-63 16zm146-49c3-6 21-7 8-15-7 3-27 4-17-8 8-9 3-26-8-13-3 19-29-4-35 13 6 13 26 15 39 18 7-4 7 9 13 5zm-94-8c14-4 6-20-7-15-6 3-30-3-13-7 10 3 31 4 20-12-7-11-14 2-24-5-5 5-20 7-8-1 13-2 9-15-3-13-16 3-33 14-36 30 1 17 10-3 14-8 5-6 26-14 16-4-10 4-27 25-4 24 13 4 31-5 37 11 2 2 6 2 8-1zm17-243c0-5 21-1 14-15-1-9-4-16-15-16-8-15-23 15-4 7 6-7 21 2 5 3-4 7-22 13-3 12 6 3-8 14 4 12l-1-3z"/><path fill="#6a955b" d="M99 438c-15-1-17-2-31-18-18-21-22-40-12-64 7-15 6-15-6-16-25-2-49-36-41-59 2-4 3-4 6 1 4 6 5 6 12 4l7-1 2-1 2-4c2-3 2-4 1-5-1-3-1-4 2-2l13 4 9 1c7 1 10-6 3-9-7-4 0-7 8-4 6 2 9 1 7-2-1-6-1-13 1-14 2-2-6-7-13-8-4-1-4-4-1-5 2 0 3-1 3-2 1-1 7 1 10 3l4 2c1-1 3 0 4 2 3 3 3 3 1 3-4 0-6 3-3 4 3 0 4 0 5-2 1-1 1-1 6 4 8 7 10 6 9-7 0-3 2-5 5-4 2 0 4-1 2-3h-5c-3 0-3 0-4-3l-1-5c-1-4-1-5 3-5 3-1 4-3 1-3s-6-3-6-5l-2-3c-2-3-1-5 3-5 5-1 5-3 0-4-6-2-9-7-3-7 3 0 5-1 4-3v-4l-3-3-1-5 1-7c0-1 1-2 5-3 10-1 9-8-1-8-7-1-9-4-9-13 1-5 1-5 5-3 8 2 13-1 7-4-4-2-11-8-11-10 0-1 1-1 4 1 5 2 8 1 11-3 2-3 3-4 6-4 4 0 4 1 0 4-3 3-2 5 3 5l3 1h5c4-1 4-1 2-3l-1-1 3-2c4-2 2-4-4-5-8 0-8-3 0-3 3 0 3 0 2-3-1-5 5-9 8-5 2 2 2 2 5 1 3-2 5-2 7-1s-1 5-7 8-7 4-3 5l3 3 2 1c5 1 2 5-4 6-5 2-7 5-3 6 2 0 3 2 1 4v1c2 1 2 5 0 6s-1 4 1 4l5 2c2 0 2 0 2-2v-3l3-2c1-2 1-2 4-1l3 1c1-1 5 2 5 4 0 4 3 5 6 1l4-3 2-1c0-2-2-2-4-1-3 2-7 3-7 1 0-3 10-8 14-7 6 1 9-3 6-8s-3-5 1-4l5-1 3-2c2 0 2-1 2-3l1-3 2-6c0-5 2-6 3-4 0 1 1 2 3 2s2 0 1 2v4c0 2-1 3-2 3-2 0-4 2-5 6l-2 5a227 227 0 0 0-19 28c-2 0-4 5-4 8 1 3 0 5-1 3-2-2-8 3-8 7l-2 1-3 3-2 5c-2 1-3 5-1 5 1 0 2-1 2-3 1-3 2-3 4-2 3 0 5-4 3-6l1-1 3-2 5-3 3-3 3-4c2-1 3-2 3-4 0-1 1-2 4-2 4-1 4-2 3-4 0-2 0-2 5-2 5 1 5 1 5-1l1-4c1-1 0-1-3-3l-2-2 6-4c2-2 4-5 6-5 1-1 2-1 1-3 0-2 0-2 3-2 4 0 4 0 4 3l1 4c2 1 1 2-7 10l-8 9c1 5 1 14-1 13l-3 2c-2 2 0 4 4 5l5 2c2 0 3-3 1-5l-2-3c0-1 5-2 7-1 2 2 5-1 3-5v-3l-4-1c-7 0-7-5 0-9 6-4 10-2 7 5-1 3-1 3 1 2l2-2v2c0 3 0 4 2 5 3 2 3 3-4 9-3 2-5 5-5 6l-4 5c-6 5-6 9 0 6 4-2 4 0 0 4-5 4-5 5-2 8 3 2 3 2-2 6-5 3-5 4-1 7 2 3 2 3-2 5-6 5-8 8-6 10 1 2 1 2-2 5s-4 4-2 4l3 1-3 1c-5-1-10 8-6 11l3 4c6 10 30 14 33 5 3-10 12 1 12 16 0 10-9 31-15 37-5 4-1 16 6 16a95 95 0 0 1 24 16c12 9 18 32 13 45-11 29-18 35-49 38a66 66 0 0 1-40-14c-2 0-5-3-7-5-10-9-13-9-17-3-11 17-26 24-52 23Zm132-50c1-1 3-2 3-4 1-2 1-2 3-1 6 1 9-5 4-9-3-2-7-2-11 1-5 3-14-2-11-6 4-4 8-16 7-19-1-7-14-1-16 7 0 4-1 4-5 3-8-3-24-2-25 3-2 7 2 10 19 15l13 4 6 1c5-1 5-1 7 3 2 3 3 4 6 2zm-94-8 3-2c4 0 7-7 4-11-2-2-22-4-23-2s-11-2-11-4c0-3 12-4 21-1 10 3 13-10 4-17-5-4-6-4-9 0l-2 1-3-2c-9-1-10-1-12 1l-4 2-4 1c-4 1 2-6 8-9l6-3-1-2c-9-17-55 13-47 31 1 4 2 3 4-1l3-4c2 0 2 0 2-2 0-4 7-10 15-14 8-3 9-4 9-1l-2 1c-2 0-3 1-2 3 1 1 0 1-4 3-7 4-8 4-11 12-3 7-3 7 2 7l9 2 8 1h18c3-2 5 0 7 5 3 6 9 8 12 4z"/><path fill="#d20e19" d="M85 436c-16-13-33-29-33-51-2-13 3-26 8-38-3-14-25-4-32-17-14-12-25-34-18-52 6-2 9 11 17 4 13 2 4-18 22-9 7 6 27 4 13-6 3-12 22 7 17-9 4-10-13-10-16-18 9-18 39 7 27 4-1 3 8-1 9 6 2 6 22 16 12 5-7-4 1-19 3-6 4 3 7 16 13 5-1-7 0-21-11-18 3-6 12-8 13-13 7-1 6-7 2-10 7-5 16 4 16 11 12-2 11-16 23-20-2-15 17-15 23-26 1-4 7-16 6-5-9 17-22 31-32 47-4 5-11 10-9 14-12 0-24 18-21 26 14-2 26-13 30-26 6-10 17-13 24-24 4-1 7-13 10-4-7 13-17 25-25 38-11 13-22 25-38 32-7 4-7 14 3 7 9-5 27-8 30-15-3-9 17-9 10-19 3-6 14-2 6 2-1 16 21 25 34 18 10-16 17 11 15 20-2 13-8 24-17 34-4 14 14 16 23 21 8 6 13 16 18 25 6 12 8 26 1 38-6 15-18 27-34 28-23 4-47-5-63-21-14-10-19 14-31 16-14 9-32 12-48 6zm147-52c2-5 17-3 7-11-8 4-27 6-19-7 8-7 6-25-6-12-5 18-25-6-33 11 3 12 20 12 31 16 8-1 14 1 17 8zm-95-6c13-3 5-11-5-12-9 4-27 0-23-9 11-3 37 8 28-10-6-10-12 3-19-1-5 2-27 3-15-5 7-7 13-14 0-12-16 1-31 11-36 26-2 13 8 3 10-5 5-7 25-16 25-10-5 8-19 12-19 25 12 5 27 4 40 4 6 3 5 16 14 9zm7-171c-3-8-11-10-16-12-4-8 4-9 8-8 8-4 8 21 11 7 4-5 1-18 10-12 6-5 17-21 20-20-5 12-16 19-22 28-2 5-2 22-11 17z"/><path fill="#536122" d="M85 436c-15-13-32-28-33-49-2-14 2-28 8-40-2-14-25-3-31-16-5-3-20-24-8-13 12 8 27 12 41 11 13-2 24-7 36-11 13 0 18-14 16-25l-6-34c2 3 11 2 4-3-8-2 0-20 1-8 5 4 8 17 14 6-1-7 0-21-11-18 3-6 12-8 13-13 7-1 6-7 2-10 7-5 16 4 16 11 12-2 11-16 23-20-2-15 17-15 23-26 1-4 7-16 6-5-9 17-22 31-32 47-4 5-11 10-9 14-12 0-24 18-21 26 14-2 26-13 30-26 6-10 17-13 24-24 4-1 7-13 10-4-7 13-17 25-25 38-11 13-22 25-38 32-7 4-7 14 3 7 9-5 27-8 30-15-3-9 17-9 10-19 4-6 12-1 5 3 1 15-10 32-24 33-8 2-15 28-18 9-10-2-1 15 7 13 8 2 8 16 12 3 2-3 2-9 9-5 4 0 10-3 13 5 3 5 25-2 13 9-3 16 18 0 21-8 5-3 17-21 12-6-7 10-21 30-1 35 7-1 19 16 9 9-9-11-21-9-32-5-12 3-25 9-32 19-8 12-2 27 6 37 8 7 21 9 30 11 9 7 21-2 32-1 9 3 9-9 0-8 14 2 19-15 16-26 1-7-11-17-7-20 10 8 14 22 14 35-3 16-11 33-26 41-27 11-57-1-77-18-15-9-21 20-37 20-12 5-28 8-41 2zm19-25c14-1 29 2 40-7 14-3 21-15 22-28 0-14-8-28-17-38-15-13-38-19-56-10-15 6-28 18-34 32-7 12 2 22 9 32 6 10 18 9 28 13 3 3 6 3 8 6zm40-204c-3-8-11-10-16-12-4-8 4-9 8-8 8-4 8 21 11 7 4-5 1-18 10-12 6-5 17-21 20-20-5 12-16 19-22 28-2 5-2 22-11 17z"/><path fill="#aa0f0c" d="M85 433a65 65 0 0 1-26-84c2-4 12-14 0-9-12 2-26-2-34-13-2-3-14-15-6-13 7 10 17 11 28 13 12 5 22-2 34-4 6-2 11-5 16-5 6-1 14-2 14-12 5-15-2-30-3-46 4 12 9 24 11 36 2 7-3 25 7 22 1-9-3-19 6-25 17-8 36-13 49-26 0-6 7-13 4-3-4 9-10 20-20 23-12-3-9 18-20 15-1-3-3-11-3-2 4 11 14 1 16 12 6-4-1-5 5-4 1-3 1-10 7-5 6-2 6 5 8-2 7 3 10 13 21 8 14-5-10 16 6 14 6-4 10-5 11-13 8 1 12-14 17-12-1 11-11 18-16 27-1 12 14 13 21 19 6 2 9 12 2 6-7-7-17-11-25-6-6 5-10-1-15 5-8 5-21 5-24 16-9 10 2 19 4 30l19 12c6 2 13-5 15 4h17c3-4 10 2 14-3 7 5 5-7-3-4-2-5 13 1 11-8 9-6 2-15 3-24 0-7-8-14-4-17 8 6 12 17 13 26 3 16-6 31-15 43-11 12-30 13-45 11-16-3-29-13-42-23-10-8-15 10-23 14-10 5-20 11-31 9-8-1-17 2-24-2zm22-23c11-2 21 3 31-3 8-7 18-5 20-17 9-8 9-20 5-30-6-13-15-26-30-31-10-3-21-7-32-3-9 2-17 7-25 13s-15 14-18 23c2 7-5 9 3 13 1 6 5 6 5 12 8 6 12 15 22 13 5 0 9 7 15 6-1 1 1 6 4 4z"/></g></svg>