<svg xmlns="http://www.w3.org/2000/svg" width="32" height="32" viewBox="0 0 868.4 989.9"><path fill="#9aa862" d="M795 988c-69-35-118-100-164-161-26-34-48-75-71-108 1 75-42 164-124 174-67 9-126-51-128-117-6-69 27-148 93-178 27-17 82 22 68-28v-66c-30-20-60-18-85 10-38 25-89 39-83 95-23 93-76 183-157 237 2-34 31-83 41-123 14-42 30-83 41-126-30 0-68 18-102 20-38 1-103 23-123-17 36-50 98-72 154-94 73-28 152-36 230-35a567 567 0 0 1-257-257c18-25 40 10 47 30 29 49 63 96 109 129A605 605 0 0 1 493 54c36-26 74-63 123-54 10 4 45-7 36 8-55 108-136 202-226 283-38 35-81 64-120 97 38 32 84 58 131 77 28-23 35-91 70-123A820 820 0 0 1 826 77c40-28 53 10 25 38a807 807 0 0 1-286 295c-33 24-82 43-108 66 31 5 79 51 82-4 38-69 135-78 201-47 53 21 94 88 61 141-25 43-75 62-123 62 65 28 138 49 190 100-30 26-91 2-132 0-26-1-98-33-49 8 61 70 106 155 123 245 0 7-10 11-15 7zM510 617c-45-30 68 2 64-12-44-19-28-85-75-92-36-10-10 59-17 81-8 12 35 29 28 23z"/><path fill="#8b953a" d="M791 986a679 679 0 0 1-208-233c-10-14-29-61-25-19-1 77-59 163-143 157-33 7-104-46-38-52 48-17 76-68 90-114 20-42-7-105-21-128 21-5 99 48 51 9 21-5 82 13 80 0-41-17-34-75-66-90-45-11-92-51-129-3-42 25-87 45-83 102-24 90-77 178-156 230 10-40 32-84 45-126 12-42 32-86 39-128-66 20-137 41-206 26-46-25 33-59 55-75 94-51 203-75 311-69-31-25-75-43-107-72a522 522 0 0 1-150-188c35-20 44 48 67 69 25 34 53 68 87 93 26-76 58-154 108-218C441 92 505 37 577 1c24 5 103-19 65 25-79 141-196 257-326 351-26 29 50 46 68 65 28 17 76 45 74-11a765 765 0 0 1 212-258c57-45 119-87 190-105 14 37-35 79-53 115a794 794 0 0 1-258 236c-27 21-79 37-92 58 30 4 81 55 84-4 57-100 231-80 267 28 18 66-50 124-112 125-51 2 49 25 63 36 36 19 87 36 106 71-47 14-98-3-146-9-22-4-78-25-36 9 61 68 104 151 125 239 4 12-6 22-17 14zm-27-485c23-35-52-73-86-70-58 11 16 64 44 65 14 5 28 7 42 5z"/><path fill="#778741" d="M791 986a679 679 0 0 1-208-233c-34-37-28-91-66-125-10-20-30-26 4-22 20-2 87 18 42-12-36-25-21-85-74-85-41-24-82-28-116 10-41 20-76 45-74 96-24 90-77 178-156 230 10-40 32-84 45-126 12-42 32-86 39-128-66 20-137 41-206 26-46-25 33-59 55-75 94-51 203-75 311-69-31-25-75-43-107-72a522 522 0 0 1-150-188c35-20 44 48 67 69 25 34 53 68 87 93 26-76 58-154 108-218C441 92 505 37 577 1c24 5 103-19 65 25-79 141-196 257-326 351-26 29 50 46 68 65 28 17 76 45 74-11a765 765 0 0 1 212-258c57-45 119-87 190-105 14 37-35 79-53 115a794 794 0 0 1-258 236c-27 21-79 37-92 58 30 4 81 55 84-4 57-100 231-80 267 28 18 66-50 124-112 125-51 2 49 25 63 36 36 19 87 36 106 71-47 14-98-3-146-9-22-4-78-25-36 9 61 68 104 151 125 239 4 12-6 22-17 14zm-27-485c23-35-52-73-86-70-58 11 16 64 44 65 14 5 28 7 42 5zM409 890c-31 6-94-47-33-51 37-4 44 59 78 20 45-27 78-72 94-122 11 38-8 78-34 108-26 29-64 52-105 45z"/><path fill="#49592f" d="M793 986a608 608 0 0 1-186-197c-24-38-53-75-60-120-4-28-76-74-9-61 23 1 65 11 25-15-35-27-21-87-77-86-40-24-79-24-111 11-35 22-79 36-74 86-22 94-75 181-153 239-8-20 29-76 36-110 15-47 33-93 44-141-66 16-135 38-204 26-56-23 36-65 59-80 92-48 196-68 300-65-5-18-66-39-89-61a511 511 0 0 1-164-202c43-7 45 57 72 80 24 32 51 63 84 87A616 616 0 0 1 489 59c35-20 66-62 110-59 36-5-15 25-21 36-109 103-198 225-288 343 33-22 60-61 90-90C465 197 543 98 624 2c63-18-5 50-13 74-78 118-181 218-296 301-32 25 41 42 57 59 28 13 85 59 85 0a759 759 0 0 1 218-266c56-43 116-84 185-102 13 37-34 75-50 109a780 780 0 0 1-254 237c-27 23-94 45-103 63 34 7 85 53 89-7 59-97 232-74 267 34 16 61-44 112-100 119-27 0-50 6-11 15 59 23 122 46 167 91-30 23-84 0-123-2-21 1-71-22-75-11 70 73 123 166 141 266 0 8-11 6-15 4zm-27-483c23-42-61-84-101-71-35 33 39 64 68 69 11 2 22 3 33 2zM383 883c-36-2-45-54 0-42 27 1 72 58 0 42z"/><path fill="#203021" d="M794 985a556 556 0 0 1-167-167c-25-40-58-78-71-124 2-31-38-65-41-82 13 11 39 31 11 4 4-19 68 1 92 3 66 10 129 37 188 67 26 10 92 60 26 50-58-1-115-14-171-27 38 43 76 89 101 142 19 43 43 88 44 134l-5 2zm-30-63c-64-97-133-190-211-277-29-25 21 32 28 42 62 77 120 157 181 235zm69-208c-72-27-148-45-221-69-16-7-88-22-33-5 85 25 168 55 253 75zM387 884c-47-5-43-59 5-39 33 10 41 50-5 39zm-244-42c33-82 63-167 87-252-68 18-139 39-210 26-46-23 37-59 59-74 92-51 198-71 303-68 30-8 53 15 14 28-29 30-91 34-92 83a408 408 0 0 1-159 258h-2zm14-13c70-92 114-202 143-313 5-45-24 83-19 49-31 93-75 186-127 266zM54 590c68-16 137-32 203-57-41 5-85 20-126 31-28 12-88 19-99 30l22-4Zm723-5c-24-24 27-112 34-56-2 20-13 54-34 56zM450 470c11-71 62-131 107-185 81-89 175-173 290-213 44-6-11 59-19 77a786 786 0 0 1-259 255c-38 23-78 50-119 66Zm11-14c120-113 245-221 355-343-105 96-206 197-310 293-8 10-59 52-45 50Z"/></svg>