<svg xmlns="http://www.w3.org/2000/svg" width="32" height="32" viewBox="0 0 852.2 624.6"><path fill="#f5a93b" d="M269 623c-93-13-175-72-235-142C5 443-7 392 5 345c5-48 1-98 28-139 6-40 28-73 61-94 38-26 81-52 129-53 90-11 180-19 271-29 80-13 163-44 244-22 34 26 51 68 93 85 32 27 22 72 8 106-19 56-66 93-107 133-58 54-95 126-157 176a482 482 0 0 1-281 117l-25-2Z"/><path fill="#ef8c38" d="M267 623c-89-14-167-69-226-136-30-34-48-81-37-127 7-50 0-105 28-149 8-38 26-73 59-95 31-23 66-43 103-53 91-10 181-20 272-28 79-9 156-39 236-33 30 2 61 19 71 49 24 28 73 39 76 83 7 61-32 117-75 156-45 44-91 88-126 141a494 494 0 0 1-285 183c-31 7-64 12-96 9zm122-230c21-3 48-36 9-26-9 24-29 30-48 10-18-20-66 12-23 8 21 2 41 8 62 8zm-207-7c17-18 59 9 30-21-14-35-18 45-47 14-15-14-5-31-27-16-29 9-31-52-38-9-1 19-42 28-7 26 31-8 60 2 89 6zm109-4c-10-14-52-29-37-6 13 1 25 5 37 6zm154-30c45-30 89-62 137-88-35-4-62 24-87 31-7 26-40 19-45 49-12 5-26 24-5 8zm-306-34c21-52-34 22 0 0zm36-36c2-25-40-22-18-8 6 1 12 12 18 8zm423-28c13-11 38-27 7-19-7 0-14 18-7 19zm-436-3c30-1 13-54 2-17 0 2-11 24-2 17zm23-53c23-29 69-22 98-36 17 31 24-10 50-8 42-11 86-6 127-24 26-14 57-5 83-17-37-7-75 7-111 14-43 14-89 8-133 18-37 18-80 20-115 40-3 3-8 21 1 13zm491-25c4-46 72-59 82-89-35-23-69 37-110 23-14-3-46-3-29 19 25-29 72 16 40 31 4 4 15 38 17 16z"/><path fill="#e05c1d" d="M270 623c-89-13-167-67-226-132-15-15-42-64-35-67 32 34 83 32 125 40 99 15 199 50 299 28 56-9 108-35 151-72 24-22 53-35 78-53 38-35 72-74 115-104 27-24 53-52 68-86-16 83-94 128-145 187-49 60-93 125-158 169a479 479 0 0 1-272 90zm45-146c-71-10-142-18-213-30-36-9-98-9-99-58 3-41 9-82 10-123 11-40 26-81 50-116 35-46 93-66 147-75 119-14 239-20 356-45 50-16 108-36 157-6 41 18 21 62-15 68-29 12-62 18-93 11-13 48 49-9 54 35-5 18-22 16-3 33 17 26 17-35 38-39 26-22 77-62 90-8 4 39-36 62-53 93-52 71-118 131-183 189-35 31-76 55-123 62-39 8-79 11-120 9Zm78-83c39-28 76-59 117-84 19-15 79-46 70-48-33 3-74 23-92 42-4 19-34 8-35 34-15 26-44 26-67 39-16 34-63-38-86 5-16 0-53-42-50-3l134 16 5-1zm-210-7c8-20 60 10 32-18-14-48-24 45-54 6-9-18-3-24-24-13-28 7-30-53-39-9-1 19-42 30-6 28 32-6 61 2 91 6zm-43-69c23-39-36 2-4 5l4-5zm36-34c-14-13-19-46 7-46 2-30-25-22-21 3-11 24-26 35 14 43zm428-33c13-6 42-37 10-17-19-13-31 44-10 17zm-418-52c25-28 72-27 102-32 13 35 10-9 34-8 42-18 89-8 131-25 29-14 65-9 91-20-15-14-56 4-80 4-41 8-81 23-124 20-47-1-86 28-132 34-11-5-48 38-22 27z"/><path fill="#585755" d="M270 623c-88-13-166-66-226-131-15-15-42-64-35-66 33 33 84 31 127 40 91 13 182 45 276 31 63-7 123-33 171-75 24-21 52-36 78-53 41-38 79-79 124-112 23-13 64-78 59-72-23 87-111 131-161 200-44 58-90 116-152 156a480 480 0 0 1-261 82zm95-235c-16-29-49-19-69-6-20-7-45-42-52-4-28 20-35-53-47-12-18 30-38 9-45-11-21 16-57-3-34-27 25-4 31-23 22-39 17-3-2-19 24-9 31 11-25-31 11-38 20-15-13-37 17-50 29-15 62-19 90-26 18 8 15 29 22 2 30-21 72-16 107-24 43-5 83-30 127-24 23-21 76-39 82 6 33-26 57 18 38 35 28 19 3 53-18 52-15 20-50 22-55 47-37 2-71 26-96 36 0 27-38 14-38 46-18 17-38 25-63 31-4 12-7 19-23 15z"/><path fill="#514818" d="M270 621c-90-11-167-68-227-132-13-13-39-61-30-60 33 30 81 28 123 37 94 14 189 47 285 29 63-8 122-35 168-79 34-25 74-42 101-75 47-49 104-85 145-138-30 82-116 121-162 193a518 518 0 0 1-267 204c-44 12-90 27-136 21zm95-233c-16-29-49-19-69-6-20-7-45-42-52-4-28 20-35-53-47-12-18 30-38 9-45-11-21 16-57-3-34-27 19-4 38-20 19-36 15-7 20-6 8-13 14-5 48 14 21-12-17-19 38-33 9-51 1-22 60-20 20-23 12-21 35 1 52-18 26-8 51-16 53 19 1-16 12-44 41-40 37-8 74-6 111-18 24-9 42-1 59-18 16 5-15 21 14 11 24-15 54-45 82-25 13 10 8 35 27 17 22-10 52 24 20 33 26 18 18 58-14 58-19 22-44 25-57 48-29 13-66 4-81 36-20-11-6 24-34 19-16 20-34 51-68 54-15-3-8 29-35 19zm6-19c5-20-41 5 0 0zm-141-12c13-38-27-10 0 0zm64-7c-20-16-8 17 0 0zm56-23c4-26-20-1 0 0zm-102-7c19-37-17-1 0 0zm59-3c15-26-26 7-5 3zm-89-1c6-8 22 0 3-13-7 0-16 24-3 13zm47-3c16-13-22-7 0 0zm-68-18c14-22-31-7-3-5-6 4-2 14 3 5zm97-4c-5-30-29-15 0 0zm159-1c19-21-26-9-2 2zm-117-1c-6-18-34-3 0 0zm-83-4c-26-26-25-3 0 0zm0-15c-17-25-5 24 0 0zm-67-3c17-11-33-5 0 0zm235-7c22-27-23 6 0 0zm-152-20c5-31-32 3 0 0zm30-8c18-15-22 5 0 0zm78-3c5-29-37 2 0 0zm83 0c3-25-36 6-3 1l2-1zm-38-24c-8-26-37 5-5-2 1 1 4 8 5 2zm115-10c8-22-22 17 0 0zm81 0c24-19-22-2 0 0zm-269-1c-1-30-30 12 0 0zm105-5c23-15-28-4-1 0zm46-6c5-32-30 6 0 0zm83-15c22-31-38 10-8 2-9 13 6 1 8-2zm-191-4c4-25-48 3-9 0 3 0 7 6 9 0zm39-3c23-22-25 6 0 0zm43-2c2-27-24 13 0 0zm143-1c-2-15-23 11 0 0zm-162-1c25-9-20-7 0 0zm198-28c-22-19-20 32 0 0z"/><path fill="#48390f" d="M272 621c-67-8-127-42-177-85 66 38 144 68 221 45 64-16 128-33 188-61 70-34 123-91 176-146 24-14-19 32-23 41a501 501 0 0 1-293 196c-30 6-61 13-92 10zm93-234c-17-32-53-14-74-8-18-14-43-35-50 0-24 17-34-61-46-12-15 41-44-15-43-12-29 26-61-33-17-30 24-12-7-37 18-39-25-24 43 15 19-15-28-20 34-36 4-59 0-18 61-13 21-20 25-13 61-14 87-27 9 6 20 51 20 16 14-39 75-26 109-36 32-7 64-12 88-20 10-15 22-1 10 7 32-6 48-33 83-34 29-2 6 49 41 26 29-12-17 20 16 10 10-23 27 10 6 19-8 17 31 30 5 50-24 6-43 27-68 40-8 31-55 20-81 34 4 24-39 12-31 33-31 5-35 50-71 55-28-3-15 28-46 22zm8-20c-10-25-35 14 0 0zm-77-3c-4-36-25-5 0 0zm-65-8c8-46-25 3 0 0zm119-29c3-29-22 1 0 0zm-102-6c18-37-20 4 0 0zm58-3c18-25-19-3-9 4l4-1zm133 2c21-11-7-13 0 0zm-221-4c10-5 20 0 3-13-8-1-16 23-3 13zm57 1c2-24-32-3-3-5 1 3-4 11 3 5zm-82-19c31-15-33-16-1-10 8-1-12 16 1 10zm259-6c23-24-29-9-3 0l2 1zm-158-2c-5-30-31-15 0 0zm42-1c-7-21-33 0 0 0zm-80-5c9-31-43-9-13-1 4-2 11 9 13 1zm55-10c-11-22-26 3 0 0zm-118-7c-15-23-30 10 0 0zm228-7c25-21-27 2 0 0zm-57-8c7-26-20-1 0 0zm-95-11c1-36-27 6 0 0zm-61-6c9-17-24 6 0 0zm89 0c33-22-25-3 0 0zm166-7c-4-25-40 7-6 3l6-3zm-85 0c-8-35-30 12 0 0zm29-3c19-22-31-2 0 0zm-113-8c5-28-27 5 0 0zm24-5c1-18-20 9 0 0zm104-8c-8-26-38 7-6 1 2 1 7 6 6-1zm113-7c14-15-6-7-7 1l2 1zm82 0c21-15-13-12 0 0zm-268-5c-8-26-21 18 0 0zm96-2c57-9-31-9 0 0zm54-5c9-30-30-5 0 0zm83-16c16-41-42 25 0 0zm-189-6c1-25-48 5-10 1 2 1 10 5 10-1zm37-1c27-24-33 8 0 0zm41-1c18-31-26 6 0 0zm145-2c5-17-27 9 0 0zm-161-1c25-6-17-11 0 0zm132-21c10-26-25 8 0 0z"/><path fill="#0d0d0c" d="M365 386c-17-33-53-16-75-7-16-8-42-48-42-8-24 35-41-52-52-6-8 25-49 10-29-4 21 5 6-44 6-11-17 3-72 21-54-13 5 1-12-9 8-11s27-22 14-34c7-3 23-11 4-12 14-2 47 16 26-11-25-20 35-32 6-54-6-20 64-15 21-24 29-7 63-10 89-26 0 11 20 48 18 18-14-43 59 0 45-30 13-3 44 32 40 0-22-12 42-1 55-13 23-10 54-9 72-19-25 22 13 16 21 0 25-16 70-40 77 6 10 10 38-19 22 8 10 16 31-27 31 6-40 15 29 45-12 62-24 6-35 30-62 37-6 31-50 23-76 35 1 17-24 14-33 23 4 16-35 16-35 40-13 21-51 28-60 35 1 13-16 15-25 13zm8-20c-19-25-29 17 0 0zm-140-9c11-42-39 5-2 5zm64 6c-9-6 18-15-8-18-15 1-1 24 8 18zm51-16c-8-21-30-11-6-1 1 0 5 3 6 1zm32-8c-10-30-37-2 0 0zm-23-2c-4-11-15-36-25-17 6 7 15 18 25 17zm-90-3c18-11-2-43-7-26 24 16-24 21 3 27zm126-1c36-29-26 2 0 0zm-188-1c-2-31-25 4 0 0zm-47-12c-3-22-12 10-3 7zm90 6c18-38-21-17 0 0zm56-3c27-22-15-22-11-2l4 1zm-72-7c1-33-40 15-9-5 7-1 5 23 9 5zm207 5c24-15-15-9-1 1zm-256-9c8-31-17-5-3 3l2-1zm193 3c-4-20-31-9 0 0zm49-12c21-22-28 12 0 0zm-235-1c34-13-25-33-4-3-3 5 3 6 4 3zm267-7c22-38-46-4-6-2l5 3zm-161-3c-7-12 1-29 12-16 4-21-21-2-28-4-14-15 10 29 16 20zm116-2c14-16-34 11 0 0zm-76 1c2-21-34-5-3 1l2-1zm-68-6c5-29-18 1-1 2zm-12 2c16-29-45-25-17-1 6-2 11 3 17 1zm239-12c18-14-17-6-8 0zm-122-6c-6-15-14-44-18-12-4 13 10 15 18 12zm-179-1c-1-26-46 5 0 0zm118-4c25-17-28-5 0 0zm107-3c23-17-8-13-7 1zm134-4c0-24-26 8 0 0zm-324-9c13-7 50-2 38-20-14 0-27 11-38 20zm108-5c-5-29-26 13 0 0zm183-1c-7-15-24 8-1 1zm-109-3c25-5 0-8-7-1zm-200-4c1-37-31 12 0 0zm85 1c38-23-26-7 0 0zm217-2c2-16-23 6 0 0zm-54-2c24-27-46-6-4 1l4-1zm-83 0c17-30-42-6 0 0zm33-7c22-27-46 3 0 0zm140-3c1-23-24 11 0 0zm-314-3c6-32-20 2 0 0zm270-3c24-23-19 0-4 2l4-2zm-211 2c12-26-30 0 0 0zm148-6c47-24-23-6 0 0zm-124 1c17 3-13-20 6-24 1-41-25 38-6 24zm182-7c9-26-21 15 0 0zm-77 0c-1-26-50-9-15 1 5-7 11 5 15-1zm-160-7c14-30-37 10 0 0zm274-2c24-19-41-13-8-6-6 6 4 14 8 6zm83-3c19-27-24 7-2 1l2-1zm-270-1c-10-31-28 19 0 0zm100-2c42-27-48 2 0 0zm50-6c11-33-36-3 0 0zm-120-1c-18-27-23 8 0 0zm194-6c24-9 15-48-3-16-6 6-19 28 3 16zm-144-15c26-23-33 0-4 2zm44-2c17-26-47-5-11 1 3 3 8 2 11-1zm144-2c13-22-40 10 0 0zm-84-4c-2-18-20 12 0 0zm56-21c-15-23-13 23 0 0zm2-20c12-23-27-7 0 0z"/></svg>