<svg xmlns="http://www.w3.org/2000/svg" width="32" height="32" viewBox="0 0 1316 1320"><path fill="#9aac8c" d="M775 1318c-25-48-49-97-66-149-21-59-37-119-38-181-3-80-54 42-91 48-69 50-154 74-239 81-67 15-153 44-208-14-30-37-29-87-17-131 28-77 110-109 164-163 62-55 136-98 212-130 39-26 130 28 120-37-97-18-156-108-204-186-53-60-27-145-30-217 14-77 113-96 176-68 33-7 90 94 82 36 14-76-90-63-140-70-53 3-110-1-159 18-74 18-151 3-226 10-56-6-139 0-111-81-5-72 101 5 146-14 103-8 206 1 308-6 92-4 183-13 274-27 74-7 148-23 223-19 67-16 130 26 194 4 56-13 114-17 171-22-7 29 21 92-27 83-74 9-148 4-220 24-73 1-145 2-217 9-44 8-127-9-139 40-21 57-31 134-4 192 37 58 44 129 37 195 67-16 143 31 153 100-10 73 40 110 88 156 72 79 132 178 139 287 2 67-34 135-90 172-82 43-182-7-231-77-48-61-79-134-100-208 7 100 38 196 72 289 0 21 56 75-2 56z"/><path fill="#89a474" d="M775 1317a821 821 0 0 1-105-350c-40-10-70 78-121 87-68 42-148 55-226 65-68 20-176 38-206-47-26-72 13-151 75-191 78-56 146-128 234-170 49-32 105-45 164-35 68-39-56-50-77-85-52-47-89-108-124-167-17-69-25-149 3-215 50-77 164-53 223 1 52 58 21-88-38-67-80-11-165-10-243 11-89 19-182 3-273 7-75 24-89-136-11-100 92 19 186 2 279 7 176 2 351-22 525-46 80-2 163-15 241 10 71-13 144-26 215-32 43 84-57 100-118 87-83 11-165 26-249 22-70 10-146-3-211 23-55 48-36 130-38 195 10 62-22 139 46 163 1 33-4 75 43 52 80 2 126 82 119 155 26 69 101 104 136 168 31 63-34-60-67-43-12-22-67-62-72-22-19-42-16 12-13 9 19-4 77 34 118 54 86 54 131 165 116 264-14 66-70 111-124 142-114 20-202-83-245-176-18-30-47-128-47-116 8 104 41 205 79 302 11 16 33 58-8 38zM263 992c19-29-15-12 1-49-34-4-10 35-1 49zm36-15c-13-25 47-3 6-27 11-39 59 3 52-35 21-18-112 29-72 43 9-2-2 23 14 19zm-24-40c64-51-51-8 0 0z"/><path fill="#789268" d="M775 1318a825 825 0 0 1-105-352c-39-10-69 77-119 87-89 56-196 56-295 80-67 18-150-22-146-98-10-84 60-142 122-183 79-72 169-136 269-176 32-5 139 16 101-38-106-27-162-132-215-218-11-76-35-183 30-239 53-34 131-25 175 17-42-3-70 73-16 79 23 34 52 119 65 139-8-83 7-173-12-250-57-40-133-28-198-28-76 5-149 33-226 25-67-6-142 12-202-22-29-52 16-113 74-76 63 14 129-3 194 3 191 5 381-17 569-44 72-5 144-11 215-2 69 24 142-19 214-17 83-36 54 121-22 82-99-5-194 30-293 21-72 8-146 3-216 20-60 30-36 115-46 170 0 73 5 146 8 220 50 16-8 89 44 94 3-35-5-91 50-70 86 11 113 104 113 176 35 52 96 83 124 141-34-47-82-82-121-124-36-30-97-37-84-7 23 16-46 39-1 51-11 64 26 122 13 176 24-14 92 28 77 68-17-4-65-74-60-46 39 9-33 35 11 57 45 7-42 34 15 26 42 35 41 88 67 114 19 28 49 31 51 56 35 28 6 4-7 21 8 33-90 19-118-8-94-59-134-170-170-270 8 110 43 217 84 319 16 20 22 39-13 26Zm-368-241c-2-45 66-34 83-67 63-3-3-98 55-67 45-41 57-94 45-147 13-23-36-16-3-41-1-67-71-10-94-18-13 25-37 12-49 52-34-24-33 53-2 5 46-21-36 48-37 26-12 18-22 33-14 32 19 13 63 13 11 28-34 38-80 34-72 2-35-40-60 17-101 10-30 9 1 33-27 32-9 51 23 78 27 132 39-5 89 29 122-10 22 4 51 16 56 31zm-78-100c-15-34 38-33 10-15 5 2-11 27-10 15zm-8-120c27-14-64-20-9 0l6 2zm537-167c1-37-64-130-74-71 4 29 28 17 2 31 6 37 41 40 72 40zm156 487c-66-68 115 5 11 0h-11zm-27-83c-56-2 26-49 0 0zm32 0c-25-42 40-13 0 0zm-68-51c8-53 63-110 50-158-28-12-62-26-79-49 32 0 142 40 103 96 70-21 6 64-22 64-28 6-14 59-52 47z"/><path fill="#837b6e" d="M775 1318a850 850 0 0 1-106-348c-20-37-57 60-92 66-30 24-91 48-26 8 46-34 12-84 51-123 21-29-5-94 25-102 37 67 31-70-14-59-16-24 16-46-30-56-36-35-123-1-160 10 53-51 135-29 189-50-4-50-93-40-119-92-41-47-77-100-106-154-12-70-25-152 8-216 30-46 141-64 156-11-19 15-74 52-46 51-26 29 15 43-3 66 4 13-10 32 24 32-50 28 27-9 4 34 22 19 4-48 29-14-5-19 17 1 13-25 42 38 35 105 62 141 18 46 7-54 8-75-17-78 23-186-27-245a596 596 0 0 0-322 5c-91 0-185 10-275-10-57-34-5-133 59-86 62 14 127-3 191 3 184 5 368-15 550-41 75-9 151-12 226-7 70 27 142-13 214-14 77-50 84 103 6 80-101-6-200 28-301 22-75 8-152 2-225 20-60 30-36 114-46 169 1 88 3 176 10 263 1 33 25 60 51 55 1 27 23 19 15 49-6 36 128 25 50 36-75 6-1 71-32 110 21 31-28 48-1 82 7 9 45 16 20 44 54 10-40 53 6 83 23 56 65 97 110 135 21 34 84 65 39 114-75 6-136-58-175-116-37-44-66-149-81-170 13 111 44 221 92 321 17 22-6 21-21 15Zm-23-591c69-37-35-10 0 0zm-551 407c-85-2-112-112-77-176 16-43 21 13 50-13 11 27-41 97 5 48 42 26-48 27-11 53 28-46-4 43 32 17 51 20 74 83 1 71zm5-90c-49-17 33-46 0 0zm620-47c15-31 67-2 10-1l-5 2zm-288-28c-31-37-2-27 18-1-5 3-12 1-18 1zm-206-56c48-30 2-42-14-53 34 3 79-70 25-23-40-12 82-64 48-8-32 17-36 85 12 39 53-20-62 52-71 45zm94-131c-29-16 33-41 45-59 46-3-36 42-38 61zm490-47c-61-16-62-89-94-131-30-7-120-49-48-62 69-1 130 59 127 129 3 21-3 49 15 64zm-407-2c-3-23 48-45 18-2l-8 4z"/><path fill="#6d8955" d="M775 1319a805 805 0 0 1-102-344c-44-32-69 71-118 76-52 25 38-37 26-67 21-58 25-113 44-166 37 61 36-59-14-61 6-82-108-77-160-52 24-61 141 6 156-56-44-31-110-56-142-111-38-55-88-110-88-181-13-80 2-198 106-197 62-14 79 41 27 68-15 41-14 100 10 116-34 8 34 6 15 35 10-17 34-15 23-24 37-46 50 64 64 98 33 83 21-38 17-67-10-75 21-158-20-227-112-51-236-9-352 2-83-4-175 17-253-17-56-61 32-112 87-75 66 8 133-6 199-1 176 5 351-18 525-41 87-7 177-17 263 3 75 7 159-47 225-20 30 55-27 95-77 74-112 11-225 26-338 27-58 6-123-2-175 27-44 53-26 130-31 194l8 231c-7-37-15-47-17-3-14 41 13 57 27 37 17 35 66-1 28 41 7 19 19-23 34 7-40 42 127 54 32 54-51 40 15 116-28 166 24 52 61 78 24 130 20 57 63 108 110 151 45 21 105 132 15 118-119-35-173-160-213-265-26-121-16-245-21-368-25 39-13 113-19 166 20 76-8 158 23 231 35 46 32 108 54 161 4 43 59 107 40 133zm-23-592c61-21-9-32 0 0zm-14-27c24-32-48-108-20-32 0 13 7 28 20 32zm-62-238c18-28-9-71-5-18-20 9-11 10 5 18zm1-87c10-46-26-41 0 0zm0-171c15-45-28-49 0 0zm-476 930c-89-3-117-123-71-186 20 2 66-11 40 32-12 28-17 42 6 15 46 20-46 32-6 47 12-20 13 42 47 38 51 12 31 69-17 54zm5-90c-48-18 36-46 0 0zm620-47c24-35 64 5 0 0zm-288-28c-48-50 49 3 0 0zm-192-64c41-34-70-40 1-56 33-31 16-24-10-15-6-39 101-38 43 4-35 39 7 58 36 26-10 15-47 41-70 41zm80-123c-32-31 103-87 38-32-15 6-25 37-38 32zm490-47c-74-15-53-124-122-141-47-4-66-67-2-51 82 11 120 96 112 171 1 8 5 16 12 21zm-407-2c21-65 48 6 0 0z"/><path fill="#606f4d" d="M775 1319a824 824 0 0 1-103-338c-4-81-81 84-85 29 6-38 22-68 35-105 20 20 25 29 22-12 11-22 23-79 3-122-17-61-66-98-133-85-84 9 36-23 65-11 65 12 16-66-27-58-70-31-105-109-148-170-45-64-23-148-22-221 9-62 151-94 152-36-39 21-96 30-84 89-30 48-17 83 3 123-14 10 13 51 9 16-1 31 17 45 38 70 15 10 40 58 61 19 32 6-22-19 11-33-18-35 23-20 17 10 26 7 58 100 59 27-8-114-8-228-12-342-65-46-151-33-226-30-73 12-144 29-218 23-63-10-159 24-196-41-15-95 82-49 137-50 74-1 149-6 224-2 123-3 246-12 368-29 111-14 223-30 334-17 79 23 158-22 237-23 51 19 17 113-44 84-74 1-147 16-220 22-97 2-195 6-292 18-55 29-42 104-48 157-2 83 5 167 4 251-19-25-23 69-15 55 0 36 15 27 21 9 12 31 73 55 46 77-1 63-7 124-1 184-29 40 41 18 3 50 32 58 43 129 83 181-15 10-44-4-4 13 38 3 36 39 73 50-6 26-52-1-10 17 24 29 7 97 56 75 10 43-90 2-108-26a553 553 0 0 1-139-264c-1-84-13-167-7-250-1-19-4-114-14-61-7 57-1 115-13 170 27 40 8 101 13 152-1 60 50 97 50 160 18 65 38 130 69 189 4 15-19 8-24 6zm-37-619c23-26-46-111-21-46 0 19 1 38 21 46zm-62-238c18-25-10-81-3-22-3 14-32 7 3 22zm1-87c5-59-23-31 0 0zm0-171c12-58-27-38 0 0zm274 1037c-12-49 44 3 0 0zm-752-108c-74-2-103-89-84-150 25-68 21 49 36 61 21 34 60 30 75 74-40-2-10 20-17 16l-10-1zm148-229c42-39-41-31-23-44 40-26 56 22 47 23 24-10 77-29 22-4-15 7-26 35-46 25zm551-184c-53-30-40-128-110-132-49-7-50-64 6-45 80 11 117 96 110 169 0 1-1 15-6 8zm-128-19c18-30 95 9 23-1-8 0-16-1-23 1z"/><path fill="#4d5233" d="M775 1318a806 806 0 0 1-103-354c-16-47-59 51-29-10 31-64 15-136 8-203-1-59-116-81-111-75 39 22 110-17 48-47-76-13-115-84-158-140-58-69-61-163-49-248-7-56 113-105 119-64-63 14-110 70-99 137 1 42 5 113 40 142 15 57 58 102 101 141 50 31 40-15 96-1 26-75 0-155 3-232-19-72 41-198-58-221-100-19-202-2-301 18-86-3-174 10-259-10-66-35 0-122 58-84 71 12 142-3 213 2 121 2 242-5 362-19 62-15 124-11 185-15 59-25 130-9 195-13 67 27 133-7 200-9 58-35 116 20 66 71-73 0-152 2-225 19-109 5-218 7-326 19-53 11-71 136-60 109-11-21 2-90-29-71-5 56-2 106 0 168-9 70 3 134 8 204-5 72 5 142-2 215-5 69 11 133 6 203-12 70 50 118 60 183 8 66 44 125 62 185-6 5-14 1-21 0zm35-136c-54-66-89-147-106-229-1-86-19-175-5-258 75 16 19 83 11 133-2 62 37 114 37 176 23 30 17 72 48 94-29 16 24 0 7 33-8 15 34 53 8 51zm-659-66c-26-81-8 7-12-11-30-19-33-107-25-105 17 43-5 65 40 82-1 4 8 44-3 34zm52-9c-6-26-66 0-30-32 10 6 48 14 30 32zm147-205c8-40 58 2 0 0zm14-22c-23-13-67-20-9-24 3 10 26 17 9 24zm332-192c-16-39 19-89 23-24-3 11-11 23-23 24zm205-5c-46-30-52-99-85-114-38 14-96-34-27-26 67 13 117 70 112 140Z"/><path fill="#384e2a" d="M777 1315c-48-91-91-190-100-294 37 9 9 114 49 130-5-82 19 36 29 60 22 87-36-97-19-8 12 39 30 74 41 112zm-11-200c-22-37-64-125-48-139 25 43 42 90 48 139zM640 975c15-28 37-101 25-26-7 10-18 16-25 26Zm82-6c-27-38 29-24 0 0zm-58-116c-3-68-13-136-49-191 5-31-62-42-7-42 69-34 33-125 38-186-4-80-11-161-4-241-42-89-161-51-240-54-87 22-176 25-266 22-51 17-196-24-117-84 44 11 95 12 152-7 55 2 111 2 167 0 87 2 173-13 259-4 57 1 118-47 148 1 22 3 63 6 91-10-5 33 17 10 16-5 26 18 31 20 17-14-15-33 29 33 28-6 33 35 74-8 119 17 2 26 24-41 55-15 36 0-2 56 39 23 17-7 14 36 27 4-9-36 35 28 40-18 30-7 66-3 82-4 30 26-8-37 29-2 17 13 25-39 28 8 0 82-94 8-142 39-86 20-173 26-261 23-74 3-149 8-219 32 24 17-41-85-59-22 41 62 3 136 14 208-1 85 19 170 12 255 16 86-7 176 9 261l-3 8zm32-34c-6-26-9-131 35-79-4 29-27 51-35 79zm0-133c-15-63 53-27 0 0zm200-31c-12-9-51-48-9-32-24-20-53-60-8-24 11 17 14 37 17 56zm-90-98c-40 4-56-23-9-11 14 2 42 20 9 11zm-325-1c-47-64-110-130-103-215-12-69 4-178 95-175-37 17-91 78-85 140-6 62 1 121 44 165 14 30 38 54 49 85z"/><path fill="#453b23" d="M777 1315c-47-87-85-181-100-279-3-52 18 9 19 23 17 20-3 102 30 92 0-30-5-56 8-10 7 31 30 85 25 100-6-27-40-113-23-38 11 37 33 81 41 112zM664 849c-15-56 11-126-44-167-29-43 38-64 28-119 5-88-9-176-7-264-5-59 23-157-66-158-95-14-192-3-284 19-81 1-162 5-242-4-71 12-61-116-13-67 6-30 19 16 46-7 18 26 81-29 94-9-52 14 87 2 69 0 72-1 152 0 226-8 63-10 116 12 179-4 27-20 89-34 67 4 13 1 2-9 24-6-1 29 14-17 32 13 37-8 34 0 66-16-21 29 35 16 5-3 25-2 46 49 30 0-34-40 31 3 15-13 17-6 32 22 50 6 32 19-9-10 26 2 1-23 57-5 53 9 11-35 71-23 67-22 34 5-22 39 13 29-8 3 40-30 21 3 44 17-15-42 36-10 10 21 11-35 42-13 36-5 12-13 33-6 16 23 15-30 31 6 36 19-21-40 25-12 11 37 30-49 28 15 15 68-74 10-110 34-64 3-127 29-193 24-67-1-134 0-200 11-41-11-87 24-106 27-27-15 6-23-32-37-22-31-65 32-17 43-11 55-1 108-9 164 4 54 0 108 16 160-10 67 4 134 3 202 19 52-32 117 13 159-9-2-15 33-15 15zm32-54c-22-34 54-98 23-32-9 7-27 80-23 32zm0-109c-10-60 52-25 0 0zM380 242c4-54 44-42 8 0-2 5-18 24-8 0z"/><path fill="#34311c" d="M739 1238c-25-21-26-110-7-36 3 12 7 24 7 36zm-30-78c-9-30-42-114-21-114 2 39 24 74 21 114zm-13-366c-26-34 56-83 19-23-8 8-21 65-19 23zm-36-41c-17-51-74-101-17-149 11-31 1-82 10-103 2 57-7 104 11 155 1 25 4 96-4 97zm-1-31c17-29-30-73-9-21 0 7-1 21 9 21zm-11-237c-10-23 5-70 8-21 17 4 1 18-8 21zM380 242c-6-40 46-47 12-7-3 5-21 34-12 7zm260-28c33-35-68-92-28-77 43-27 42 57 28 77zm-533-52c-33-1-144-10-85-56 14 1 51 13 25-12 26 13 32 45 56 17 24 15-18-28 24-8 34-3 85-18 134-24 92-6 187-11 278-18-32 45 76-7 54 29-34-19-34 39-49 12-46-3-96 24-156 38-66 17-133 27-201 20-27 0-53 0-80 2zm841-56c22-10 105-27 88-3-29 8-59-4-88 3Zm347-30c-65-17 52-46 15 3h-8z"/></svg>