<svg xmlns="http://www.w3.org/2000/svg" width="32" height="32" viewBox="0 0 700 520.5"><path fill="#e7b394" d="M385 460c-43 0-89 9-121 40-32 18-75 31-109 8-27-7-65-4-80-33-9-32 15-60 39-77-28 11-79 26-90-14-13-34-36-71-17-107 32-37 58-87 109-100 33-14 51-53 88-59 39-20 81-33 125-38 35-13 45-64 86-66 41 0 81-21 122-8 38-18 78 9 110 29 30 29 45 70 53 110-8 41-33 77-52 113-26 35-64 56-104 71-34 22-49 64-94 70-33 11-25 59-65 61Z"/><path fill="#e49159" d="M386 459c-38 4-82 1-109 32-36 24-83 38-123 17-26-10-67-4-78-37-15-37 25-57 46-79-29 16-86 33-99-11-10-32-31-66-17-100 27-33 50-70 85-94 40-7 63-45 96-60 37-13 69-39 110-38 34-4 67-25 82-56 32-28 77-19 115-28 38 6 79-15 114 8 48 17 75 66 89 112 6 30-6 61-26 82-12 34-30 65-60 84-26 33-75 25-96 62-16 37-61 34-84 60-13 17-21 43-45 46zm6-64c-14-36 39-27 43-50 4-18 21-35 25-36-31-18-41 30-49 43-23 6-43 11-64 7-13 14-26 32-40 41 24 11 64 15 85-5zm169-101c5-10 28-33 2-24-14 20-41 18-56 28-9 36 19-14 37 0 6 1 13 0 17-4zM273 435c33-4-4-44-10-11-2 6 2 18 10 11zm339-182c15-17-15-39-12-9-2 10 4 28 12 9zM213 451c26-28-40-10-10 6l5-2zm-78 0c-4-22 53-42 24-56-26-2-50 57-25 58l1-1zm510-284c-22-13-81-12-71 14 22-12 47-12 71-14zM273 347c24-22-23-2-29 8-28 32 24-3 29-8zm210-102c16 0 55-36 31-37-9 16-57 21-41 44l5-3zm-84 31c26 3 11-50 1-13-6 5-18 23-1 13zM82 353c8-12 58-29 20-33-30-17-64 59-20 33zm502-251c-31-6-58 21-89 16-24 3-24 37 4 21 29-11 57-24 85-37zM172 297c6-49-77 13-26 15 10-3 19-7 26-15zm53-35c6-16 57-29 41-40-18 7-67 25-50 46l9-6zM565 67c2-19-43-56-43-22 18 0 24 37 43 22zM63 260c17-22 60-41 64-62-36-7-69 38-68 66l2-2zm271-143c-27-24-63 11-93 7-15 10-6 26 5 8 27-16 61 1 88-15zm147-81c-1-20-38 13-49-5-33 25 48 21 49 5zM376 84c3-13 39-53 6-33-9 4-32 40-6 33zm-191 86c18-36-46 11-4 3l4-3z"/><path fill="#d97032" d="M382 459c-42-2-85 9-116 38-35 24-78 27-115 9-35-2-92-14-73-62 4-25 37-38 47-53-30 11-77 36-100-3-7-35-36-72-17-108 25-33 50-70 85-93 37-8 58-38 86-58 40-9 70-38 112-40 36-1 66-18 83-49 16-30 50-23 77-28 26-5 54-14 80-5 37-13 77 2 107 26 38 14 33 63 59 88 5 33-7 64-28 88-9 40-35 68-68 90-29 29-75 21-93 62-18 36-66 25-83 59-9 18-20 39-43 39zm9-59c-7-28 26-42 40-40-3-23 31-42 30-53-31-16-43 30-53 44-29 0-72-9-78 29-11 6-48 22-14 25 24 9 53 10 75-5zm172-106c13-28 76-26 52-70-20-17-6 37-29 38-29 6-46 26-75 30-23 14-5 33 12 12 10-15 40 4 40-10zM274 437c31-6 8-45-11-21-5 8-2 31 11 21zm-63 19c21-8 4-49-10-21-19 5-4 40 10 21zm-74-1c2-25 44-46 39-62-34-6-57 27-56 58 0 11 11 10 17 4zm511-284c-2-18-41-7-27-20-23-14-68 25-47 34 21-15 49-16 74-14zm-134 62c23-6 9-54-6-22-14 13-59 23-42 44 17-5 32-15 48-22zM273 349c23-6 9-36-5-11-9 5-53 31-27 31 12-5 22-12 32-20zm125-70c25 2 19-56 6-21-6 13-58 27-19 29 5-1 10-3 13-8zM77 361c3-21 63-22 38-42-28-11-75 18-50 47 5 1 9-2 12-5zm508-258c7-19-36 3-47 5-35 12-84 12-105 46 19 5 49-13 73-14 25-16 54-21 79-37zM174 297c9-48-78-1-36 18 14 1 26-9 36-18zm197-98c15-10 52-37 47-41-22 13-59 28-67 49 7 1 14-4 20-8zm-145 66c7-19 64-31 44-47-23 7-73 26-58 54 6 1 12-2 14-7zM567 66c-5-20-42-62-49-23 16 5 32 42 49 23zM57 270c24-24 54-41 76-66-5-26-47 3-58 16-9 11-30 50-19 52zm308-166c7-16 24-51 38-46 13-40-39 0-41 19-3 15-39 47-5 35l8-8zm-29 14c-21-33-58 8-87 1-16-3-49 44-20 29 27-26 63-21 97-24l10-6zm151-84c-4-25-40 17-52-5-39 10 24 38 36 14l16-9zM186 171c26-35-54-4-13 6 5 0 10-2 13-6z"/><path fill="#af4b2e" d="M382 459c-42-2-85 9-116 38-35 24-78 27-115 9-35-2-90-15-73-62 1-21 40-50 47-44-29 12-50 53-30 81 24 23 62-8 87 18 16 17 43-11 61 3 23-14 29-40 55-45 9-13 18-35 32-13 20 12 66 0 66-24 11-20 25-51 54-40 13-8 20-56 31-21 37 3 33-66 77-51 31-14 69-32 87-61 10-44-54-50-54-6-11 26-42 9-51 33-26 3-45 19-68 27-31-8-74 1-65 42-18 9-69-10-75 27-21 30-81 19-84 65 10 23-15 73-33 33 6-14 20-62-11-44-7 15-37 47-37 14 20-28 54-56 88-55 29-17 41-56 76-66 26-21 59-11 84-31 28-19 66 1 91-29 21-27 65-20 81-52 20-30 88 8 88-41-13-33-56-22-82-14-30 21-59 43-94 51-25 24-51 47-86 41-30 20-60 36-93 48-28 14-54 32-78 52-36 19-73 36-110 50-33 2-79 38-103 0-14-33-32-69-25-104 22-35 49-68 80-95 30-18 62-26 82-56 37-14 70-37 110-45 30-6 68-4 85-35 13-19 31-44 58-40 34-1 66-20 100-11 37-3 79-7 109 20 42 9 40 56 53 84 14-21 24 33 16 50-6 28-32 45-39 73-7 22-19 45-42 52-22 37-77 29-95 63-20 28-51 45-83 55-21 17-23 58-56 56zm289-343c2-46-56-40-84-27-70 17-144 33-203 78-15 10-59 39-20 40 31-12 54-38 88-45 37-11 75-15 110-34 26-8 50-16 71-14 8 1 39 19 38 2zM96 381c13-38 58-37 88-54 40-24-8-85-44-55-37 20-76 40-106 69-31 34 21 71 52 47l5-3zm152-107c23-21 75-25 72-65-34-30-71 8-104 18-37 15-12 80 24 56 3-3 6-5 8-9zM654 49c-23-15-50-27-72-41-40 5-79 0-118 6-34 1-68 12-90 39-19 20-43 43-73 37-40 4-73 29-110 39-33 7-42 55-79 52-41 21-70 57-94 95-18 16-1 67 17 32 2-24 31-7 23-28 15-35 65-34 84-69 17-16 44-23 59-39 9 29 25-21 47-20 34-17 75-4 110-18 20-7 24-56 43-24 26-1 31-41 44-46 8 12 8 44 31 23 12-15 17-47 38-18 13 8 11-19 23-1 35 13 71-7 106-12 4-1 8-4 11-7z"/><path fill="#933023" d="M379 459c-42-5-83 10-114 37-29 16-67 32-97 13-30-10-68-5-89-32-8-17-2-47 16-54-30 26-1 88 39 67 32-6 57 29 88 14 29 4 50-19 71-35 15-27 42-30 65-12 32-3 53-31 65-61 25-8 50-27 74-39 21-22 34-58 70-47 13-3 41-35 45-22-22 35-78 25-94 61-19 38-68 37-92 65-9 22-20 44-47 45zm259-194c34-25-13-86-41-50-10 18-19 52-47 42-8 28-49 11-63 36-30 5-78-4-89 34 5 20-1 23-17 14-18-7-26 7-43 8-10 25-26 42-54 44-35 7-33 47-50 66-15-12-3-63-35-33-15 4-23 40-31 14 9-27 39-37 61-51 36-1 56-29 75-55 31-24 71-29 107-42 25-31 76 1 96-37 25-24 72-13 84-53 28-20 79 11 95-29 8-35-38-35-61-34-39 5-72 29-108 42-28 18-58 38-93 34-28 1-60 2-82 23-37 21-45 70-84 90-39 26-82 45-126 62-31 1-62 33-93 12-11-7-23-35-6-12 37 28 69-15 91-37 27-12 65-15 78-47-7-13 0-31 13-15 39-4 63-40 98-53 11-16 21-42 44-28 38-7 63-44 103-46 42-9 85-17 122-39 34-14 70-2 105 1 7-9 1-25 10-7 4 35-10 68-31 95-9 16-10 41-28 51zm23-188c-75 2-146 30-217 52-37 16-69 42-101 66-38 1-76-1-110 20-27 6-42 43-45 57-29-19-62 5-86 20-19 15-19 5-3-7 31-25 77-33 95-72 37-32 86-42 132-53 24-3 47-33 67-30-18 31 38-12 53-14 26-6 60-7 78-29-14-6 36-8 46-11 29-6 79 0 87-34 6 7 20 34 4 35zM19 364c-13-32-31-76 4-101 11-13 32-43 37-47-18 31-55 55-56 93 3 19 29 34 15 55Z"/><path fill="#70231d" d="M268 402c-33 9-3-33 14-35 14-19 26-42 53-47 20-8 40-15 61-20 21-9 41-29 65-21 36 1 54-43 90-39 28-3 34-45 64-42 12 8 36-5 42 6-23 5-53-5-69 17-8 27-44 24-64 38-22 13-41 33-68 32-27-2-46 20-71 22-14-2-32 4-25 19-26-2-51 7-65 31-10 12-15 31-27 39Zm418-249c-39-26-91-15-131 6-33 10-68 19-94 42-20 9-64 19-72 3 41-27 90-40 137-49 28-6 53-18 80-24 30-4 61 1 86 18-1 3-4 3-6 4zM172 372c-19-1-35 19-52 14 4-22 29-32 45-44 20-11 33-30 51-42 31-19 62-39 93-56 9-7 23-39 30-27-14 35-56 41-79 69-22 22-48 41-70 64-6 7-10 17-18 22zM593 85c-39 6-75 23-114 29 37-19 77-31 118-36 5 1-2 6-4 7zM187 271c-27-17-58 1-82 16-9 0 22-20 32-22 26-8 49-23 64-46 22-23 56-25 85-36 27-2 61 10 81-17 6-13 23-4 8 5-22 26-57 26-88 22-27 10-56 19-80 36-11 11-15 27-20 42z"/></svg>