<svg xmlns="http://www.w3.org/2000/svg" width="32" height="32" viewBox="0 0 249.6 222"><path style="fill:#f64500;stroke-width:.8" d="M88 218.5339c-17.6304-3.174-34.7597-9.5316-50.7695-17.5856-14.7023-8.7613-28.9125-24.398-27.533-42.6283 2.4023-11.1798 12.8828-18.9763 19.7025-27.1454 13.1364-1.1366 15.0615-15.2452 24.5764-21.9577 12.692-6.19 6.5525-21.234 13.6139-30.4646C71.774 68.3901 63.2658 55.7727 71.2 46.1818c5.7316-10.7293 14.3681-19.714 16.093-32.3088-5.457-16.0886 18.5245-10.9564 27.9744-10.2951 30.3388 3.2852 55.4784 22.5295 78.047 41.596 9.8166 8.2703 19.1312 17.3555 27.9784 26.6802 7.6739 9.4188 15.9794 19.2426 19.3263 31.0975 5.3967 20.7437 7.0575 43.6046-3.0756 63.253-8.6857 20.2743-26.5177 35.8272-46.1733 45.1298-12.8977 4.583-26.3726 7.2091-40.1002 7.1633-21.0078 1.9334-42.2517 1.6398-63.27.0362z" transform="scale(1.0115 1.00366)"/><path style="fill:#3a2811;stroke-width:.8" d="M4.1439 157.8515c7.0524-8.31 3.5368-22.5764 4.8595-33.555 2.4152-12.9821 5.8392-25.6662 8.3746-38.5695 3.2772-10.9094 6.966-21.5275 14.9021-30.0724 7.6546-7.7601 13.3919-17.1227 20.061-25.4478 3.2503-9.0393 12.3372-15.394 20.791-19.4026 9.6555-6.6674 19.9549.6272 12.2206 10.9404C82.625 32.56 74.2725 39.6787 69.5618 49.4486c-4.0899 10.3785 3.7507 22.7979-3.5952 32.1396-2.4492 10.9446-1.4482 22.5711-13.1241 28.9089-7.1181 9.1362-13.594 19.4883-24.7428 22.781-7.8428 7.5823-14.9916 20.104-23.9558 24.5734z" transform="scale(1.0115 1.00366)"/></svg>