<svg xmlns="http://www.w3.org/2000/svg" width="32" height="32" viewBox="0 0 693.5 612.9"><path fill="#df965b" d="M385 612c-60-10-123 3-182-16-65-15-128-52-161-112-54-89-52-202-18-297C46 126 91 76 140 35 173 7 218-6 261 3c44-3 87 12 130 12 41-15 78 3 115 18 55 7 115 26 147 74 43 82 42 177 39 267-9 101-83 192-179 222-41 14-85 19-128 16Z"/><path fill="#cc7b44" d="M399 611c-66-11-133 3-197-16-72-17-139-63-169-132a354 354 0 0 1 13-319c30-48 70-92 117-124C199 0 243 0 283 5c46-3 92 24 137 6 41-3 74 28 115 29 56 11 118 42 133 103 27 84 29 174 18 260a274 274 0 0 1-287 208zm177-239c34-25 54-62 68-100 33-32 10-71 12-109 3-21-17-68-42-51 16 30-3 60 11 89 22 37-31 52-31 88 3 37-71 44-47 80 9 5 20 7 29 3z"/><path fill="#e87126" d="M387 610c-61-10-125 2-185-16-68-15-132-57-164-121-49-91-45-203-8-296C53 122 94 77 138 37c32-26 74-40 115-34 44-1 85 12 127 14 44-9 87-3 127 18 33 6 66 11 96 29 35 17 58 49 67 86 24 76 25 158 19 237a270 270 0 0 1-216 219c-28 5-57 7-86 4Zm50-162c-30-26-78-33-93-74-13-11-36 23-38-6-24-12-76 22-52 40 28-12 56-15 75 11 33 17 71 23 108 29Zm139-76c38-27 57-69 77-108 19-36 2-76 2-114 2-21-28-56-41-38 18 28-7 60 11 86 21 42-32 58-33 96 3 38-67 34-47 74 7 9 21 8 31 4zm-306-9c36-11 13-56-17-51-18-19-59 16-21 19 21-2 20 35 38 32zM141 260c-38-10 38-72-11-51-15 12-50 31-49 45 20 2 40 8 60 6zm234-99c18-37-57-6-14 1 4 1 10 2 14-1zm-218-50c16-18 68-54 57-66-24 14-55 51-61 69l3-2z"/><path fill="#d76828" d="M387 610c-61-10-125 2-185-16-69-15-132-57-164-121-50-94-45-211-3-306 22-52 64-91 107-126 36-28 83-42 128-30 40 2 81 17 121 6 38-12 72 3 104 22 46 13 101 14 136 52 22 29-35-28-55-12-49 25 39 42 31 75-3 25-38 46-10 66 5 37-41 15-53 44-27 33-69 52-111 53-36-7-94 4-87 53-2 15 27 43 8 16-9-20-46-8-41-7-19-28-78-1-62 30 24-12 49-20 68 6 35 13 78 35 114 27 1-38 67-42 101-46 46 1 81-38 95-79 7-21 41-78 57-40 5 46 0 92-9 137-15 49-36 98-77 130-58 50-137 74-213 66ZM270 363c36-11 13-56-17-51-18-19-59 16-21 19 21-2 20 35 38 32zM141 260c-38-10 38-72-11-51-15 12-50 31-49 45 20 2 40 8 60 6zm234-99c18-37-57-6-14 1 4 1 10 2 14-1zm-214-53c31-29 63-57 100-78 17-18-31 2-39 6-28 13-71 61-70 78l5-3z"/><path fill="#c95727" d="M413 608c-67-18-137-2-205-13-61-15-122-44-156-100-64-94-62-219-20-322 13-29 34-68 59-82-9 31-36 58-29 92 18 27 52-48 47-5 22 38-37 47-53 71-26 27-34 73-9 102 15 37 41 82 87 80 41 15 83-17 93-56 6-14-23-34 2-21 18 18-29 69 14 63 27-17 64-22 80 11 37 25 78 42 121 52 43-8 42 61 85 55 47 5 79-36 118-55 9 12-26 40-38 55-52 49-124 79-196 73ZM294 326c-35-20-83-15-109-50-35-19-2-79-40-85-42-3-21-40-3-58 24-29 52-54 81-78 32-22 70-53 111-35 28 7 49 45 75 16 43-17 70 29 107 32 22-7 48 0 39 26 19 25 75 49 41 87-12 12-55 42-15 27 35 6 4 49-23 39-26 24-51 54-89 62-37 5-85 16-117 3-18-26-44 10-58 14zm81-165c18-37-57-6-14 1 4 1 10 2 14-1z"/><path fill="#b36227" d="M384 601c-70-6-149 9-210-36-30-17-70-7-92-38C34 478 4 412 3 343c-2-68 9-138 42-197 13-17 26-43 42-51-21 42-31 88-45 132-3 42-26 85-5 125 8 30 29 57 40 82 6 37 58 37 85 23 37-10 77-13 110-34 46-6 73 41 108 62 40 18 76 43 108 72 17 13 60 6 64 13-24 17-65 35-87 16-20 8 14 14-11 14-23 2-47 3-70 1zm-234-80c27 5 21-66 0-32-33 18-54-30-85-33 7 38 45 72 85 65zm146-197c-39-15-87-15-114-52-29-24 3-83-44-82-41-14 1-47 16-64 30-37 63-72 105-95 32-26 75-17 106 6 28 26 55-17 85 0 31 12 61 42 96 29 19 13-4 49 23 61 20 30-21 69-15 90 21-14 54-7 37 23-27 3-49 14-66 36-29 27-67 44-107 40-33 5-67-11-97-13-10 5-12 24-25 21zm79-163c18-37-57-6-14 1 4 1 10 2 14-1z"/><path fill="#b5582a" d="M381 599c-61-11-126 9-183-20-19-16-65-31-78-27-31-9-52-39-70-65C15 440 1 380 3 322c1-74 17-152 66-210 8-12 28-30 13-6-16 36-26 74-38 111-5 43-25 87-9 130 6 31 28 61 43 83-14 27 47 44 70 32 40-16 86-15 124-39 46-6 73 41 108 62 41 17 75 44 108 72 16 13 66 5 61 14-38 12-81 6-118 25-16 3-33 5-50 3zm-62-6c6-23 46 6 65-5 33 5 95-33 60-67-27-23-69-25-90-56-18-11-56-52-69-31 12 46-39 69-76 52-34-2-86 56-36 71 39 7 74 27 114 27 11 1 22 4 32 9zm-11-15c-31-12-12-66-3-76 6 20 12 49 27 56-4 10-10 27-24 20Zm-158-57c27 5 21-66 0-32-33 18-54-30-85-33 7 38 45 72 85 65zm146-197c-37-19-86-16-114-52-30-22 5-82-39-88-49-13 13-57 27-77 30-31 62-64 103-82 9-7 38 10 23-8 38-14 66 37 101 28 38-25 79 7 111 25 16 0 57-10 42 20 19 34 38 77 4 108-13 36 20 8 34 11 10 20-1 41-23 28-35 17-51 62-93 70-41 14-86 12-127-3-21-8-34 10-49 20zm78-162c14-44-62 3-3 1z"/><path fill="#8a6b25" d="M374 313c-27-16-57-14-85-5-36 3-75-5-99-33-41-17 2-85-46-93-18-8 9-44 14-50 40-15 39-70 80-85 11-20 69-29 61-23 7-21 52 4 67 17 35 21 71-28 104 7 24 24 54 19 82 23-2 30 21 65 2 100 30-18-9 49-8 25-14 10-29 39 1 28 13-8 57-23 34 6-26 5-46 16-55 41-27 29-66 47-107 43-15-1-30-2-45-1Zm0-151c14-44-62 3-3 1z"/><path fill="#66521f" d="M440 312c-44 7-87-18-129-7-41 8-82-13-106-46-9-7 30 15 42 4 35-6 70-8 105-12 4 10-7 29 13 16 21-15 9-43-7-49 11-25 70-12 53-54-14-40-77-34-100-6-13 36 67 54 15 83a83 83 0 0 1-90-11c-18-28 15-42 36-38 6-28-42-5-59-12-31-10-34 30-36 44 2-29-31-41-40-57 14-11 17-29 10-34 25-22 23 33 40 6 17-28 45-43 76-39 12-12 15-70 34-33 16 14 20-47 43-17 21 18 56 72 76 25 19-22 44 3 52 13 28-14 60 9 42 38 2 14 9 32-16 29-14-3-40 6-10 5 31 6-12 33 20 36-5 38-41 64-78 63-24 3-45 21-70 20 26 28 77-10 98 27 17-7 31-5 7 5-7 2-14 3-21 1zm47-19c20-12 9-58 38-35 6 24-27 33-38 35zm43-83c-32-21 17-55 34-34-11 10-22 27-34 34zm-174-28c-20 1-23-36-1-18 23-13 47 21 11 19h-5zm45-112c-12-37 69-13 29-10-10 2-19 10-29 10z"/><path fill="#643619" d="M379 310c-27-18-56-16-85-16-19-4-74-11-67-27 40-8 84-6 122-16-9 28 11 57 44 47 17-11 72 10 30 11-15 1-30 2-44 1zm-6-43c-5-29 52-21 29-55-4-5-9 13-15 0 34-14 36-49 18-78 7-13 36 8 15 19 6 41 43-1 62 15 1 14-53-7-39 23 21-22 74-1 51 30-11 25-42 17-51 34-25-3-46 15-70 12zm45-27c12-13 11-50-4-22-2 6-8 22 4 22zm-150 1c-41 4-25-68 9-38 9 18 58 32 18 40-9 1-18 0-27-2zm58-19c-18-6-30-63-6-26 9 4 30 27 6 26zm206-20c-40-16 44-47 26-20-9 6-14 19-26 20zm-367-14c-26 3-37-28-13-40-24-18 35-27 12-3 2 13 32 44 1 43zm189-8c-43-23 51-16 18 0-6 1-12 3-18 0zm128-28c-36 3-56-44-94-36a96 96 0 0 0-110 14c-22 14-79 41-82 0 16-36 82-12 82-60 8-26 15-11 20 4 25 13 9-43 40-24 24 17 58 79 83 30 15-31 30 2 44 12 24-1 66 22 30 36 5 9 27 13 6 23-6 3-13 4-19 1z"/><path fill="#252a11" d="M305 281c-5-13-59-9-39-18 26 5 65-17 83-5-1 21-26 29-44 23zm69-12c-8-38 65-6 48-44 12-7 44-3 15-16-20-22-20-54-31-79 19 1 26 11 15 26 2 12 24 31 30 13-14 12-13 35 5 17 31-12 61 25 30 46-22 9-34 8-47 24-23 4-45 1-65 13zm-103-28c-41 7-26-65 7-38 4 19 58 32 15 40l-22-2zm215-89c-38 2-60-45-101-37-40-24-81-7-114 19-20 10-86 35-69-7 24-26 81-10 80-58 5-37 25 36 32 1 3-53 52 5 65 23 35 37 42-50 72-19 0 35 54 10 58 44-12 8-30 18-2 17 11 7-13 25-21 17z"/></svg>