<svg xmlns="http://www.w3.org/2000/svg" width="32" height="32" viewBox="0 0 623 881.6"><path fill="#ece119" d="m421 881-4-4c-2-4-7-5-12-4l-14 1c-7 0-11 0-18 2-17 5-33 4-44-4-9-7-18-8-33-6-17 2-27-8-18-19 3-3 2-4-13-11l-19-9c-5-3-7-3-12-3-7 0-8-2-3-6 4-4 4-4-6-18l-11-17c-8-15-12-21-16-23-7-5-8-7-4-16 5-10 4-15-5-17-10-3-12-9-5-14 6-6 7-8 5-15l-3-13c-1-7-1-8-7-14-6-8-7-10-1-11 7-1 7-2 8-17 1-18 2-22 8-38 6-17 7-25 3-29-4-5-3-9 0-8 8 2 8 2 13-12l12-31c1-1 0-2-2-3-6-1-3-6 4-8 4-2 8-6 17-20 8-12 8-14 8-17-1-5 2-7 13-6 12 1 12 1 3-7-38-35-91-50-143-41-18 2-18 0 0-10 21-13 59-19 94-15 13 1 13-1 0-11-31-24-74-25-114-5-18 9-10-2 11-16 39-26 73-31 107-14 14 6 14 6-1-14-42-59-53-70-81-78-24-7-61-4-88 8-41 16-55 19-48 8 2-3 4-5 16-8 12-4 38-16 48-22 29-18 72-18 104 1 11 6 10 5-3-11-12-15-25-29-56-61-41-43-45-47-46-51-3-8-1-7 24 4a427 427 0 0 1 125 76c-12-16-32-38-49-54l-42-37c-15-10-35-34-32-37 9-12 95 65 138 124 4 5 4 2 0-10-10-36-31-64-83-114-32-31-34-37-9-29 42 13 73 41 97 87 12 22 13 22 6 1-10-28-26-61-44-91-13-21-17-35-14-39 4-3 46 40 66 69 7 11 9 12 8 5-3-28-6-74-5-77s22-2 24 1c13 18 26 57 30 89 2 18 4 31 5 30a665 665 0 0 0 1-118c0-3 0-3 7-3 9 0 7-3 12 23 9 45 11 53 13 45a1988 1988 0 0 0 13-68c2-3 13 0 14 3 8 34 7 68-3 101-4 10-4 10-2 19 3 19 5 19 9-3 6-29 20-77 28-94 10-24 12-26 17-26s5 0 3 7a443 443 0 0 0-10 59l-5 28c-3 13-4 28-3 27l5-10c13-37 38-74 65-98 16-14 16-13 29-13 14 0 15-4-9 26-51 64-62 84-72 133-3 17-5 35-3 28l3-6 5-12c19-49 52-89 104-125 14-10 21-13 22-9 1 1-2 5-34 41a388 388 0 0 0-22 26c-18 23-40 57-48 74-3 8-1 7 6-1 22-26 91-81 123-97 12-5 12-4 0 8-31 34-75 89-106 133-20 29-21 34-4 18a370 370 0 0 1 96-69c10-6 32-13 36-11s3 4-20 25a382 382 0 0 0-61 71c-11 13-25 35-25 37 0 1 1 1 7-2 31-14 65-14 106-2 21 7 21 9 1 7-21-2-54 0-69 5-28 10-68 44-81 68-4 8-3 8 5 3 34-21 85-25 120-9 24 12 40 25 19 16-49-22-74-17-133 25-21 14-21 15-3 9 31-10 55-13 64-8 8 3 2 7-29 19-19 7-23 9-41 20a920 920 0 0 1-32 19c1 2 15 6 27 6l12 2c1 2-1 4-6 4s-9 1-9 2c0 2 22 25 25 26 15 5 20 13 12 18-3 2-3 1 3 18 4 12 4 12 10 14 9 3 10 6 6 14-3 5-3 5-1 14a186 186 0 0 0 9 32c0 3 2 6 6 6 8 0 9 4 3 9-3 2-4 6-3 12l2 19c1 17 1 18 9 21 9 3 10 8 2 8-7 0-9 1-9 4l-6 31c-7 25-6 28 7 28 6 0 4 3-7 11-3 2-3 3-4 11-1 10-1 10-5 12s-7 7-17 27l-10 14c-7 8-8 9-2 12s3 5-12 9c-9 2-18 6-25 11l-10 5c-4 1-5 3-3 7 4 9-2 16-11 13z"/><path fill="#eec722" d="m421 881-4-4c-2-4-7-5-12-4l-14 1c-7 0-11 0-18 2-17 5-33 4-44-4-9-7-18-8-33-6-17 2-27-8-18-19 3-3 2-4-13-11l-19-9c-5-3-7-3-12-3-7 0-8-2-3-6 4-4 4-4-6-18l-11-17c-8-15-12-21-16-23-7-5-8-7-4-16 5-10 4-15-5-17-10-3-12-9-5-14 6-6 7-8 5-15l-3-13c-1-7-1-8-7-14-6-8-7-10-1-11 7-1 7-2 8-18 1-18 2-23 2-10 0 19 13 19 27-2 3-4 2-6-3-11-4-4-5-5-4-7 3-5-3-8-10-5-5 2-7 5-8 11l-1 2 5-16c6-16 7-23 3-28s-3-9 0-8c8 2 8 2 13-12l12-31c1-1 0-2-2-3-6-1-3-6 4-8 4-2 8-6 17-20 8-12 8-14 8-17-1-5 2-7 13-6 12 1 12 1 3-7-38-35-91-50-143-41-18 2-18 0 0-10 21-13 59-19 94-15 13 1 13-1 0-11-31-24-74-25-114-5-18 9-10-2 11-16 39-26 73-31 107-14 14 6 14 6-1-14-42-59-53-70-81-78-24-7-61-4-88 8-41 16-55 19-48 8 2-3 4-5 16-8 12-4 38-16 48-22 29-18 72-18 104 1 11 6 10 5-3-11-12-15-25-29-56-61-41-43-45-47-46-51-3-8-1-7 24 4a427 427 0 0 1 125 76c-12-16-32-38-49-54l-42-37c-15-10-35-34-32-37 9-12 95 65 138 124 4 5 4 2 0-10-10-36-31-64-83-114-32-31-34-37-9-29 42 13 73 41 97 87 12 22 13 22 6 1-10-28-26-61-44-91-13-21-17-35-14-39 4-3 46 40 66 69 7 11 9 12 8 5-3-28-6-74-5-77s22-2 24 1c13 18 26 57 30 89 2 18 4 31 5 30a665 665 0 0 0 1-118c0-3 0-3 7-3 9 0 7-3 12 23 9 45 11 53 13 45a1988 1988 0 0 0 13-68c2-3 13 0 14 3 8 34 7 68-3 101-4 10-4 10-2 19 3 19 5 19 9-3 6-29 20-77 28-94 10-24 12-26 17-26s5 0 3 7a443 443 0 0 0-10 59l-5 28c-3 13-4 28-3 27l5-10c13-37 38-74 65-98 16-14 16-13 29-13 14 0 15-4-9 26-51 64-62 84-72 133-3 17-5 35-3 28l3-6 5-12c19-49 52-89 104-125 14-10 21-13 22-9 1 1-2 5-34 41a388 388 0 0 0-22 26c-18 23-40 57-48 74-3 8-1 7 6-1 22-26 91-81 123-97 12-5 12-4 0 8-31 34-75 89-106 133-20 29-21 34-4 18a370 370 0 0 1 96-69c10-6 32-13 36-11s3 4-20 25a382 382 0 0 0-61 71c-11 13-25 35-25 37 0 1 1 1 7-2 31-14 65-14 106-2 21 7 21 9 1 7-21-2-54 0-69 5-28 10-68 44-81 68-4 8-3 8 5 3 34-21 85-25 120-9 24 12 40 25 19 16-49-22-74-17-133 25-21 14-21 15-3 9 31-10 55-13 64-8 8 3 2 7-29 19-19 7-23 9-41 20a920 920 0 0 1-32 19c1 2 15 6 27 6l12 2c1 2-1 4-6 4s-9 1-9 2c0 2 22 25 25 26 15 5 20 13 12 18-3 2-3 1 3 18 4 12 4 12 10 14 9 3 10 6 6 14-3 5-3 5-1 14a186 186 0 0 0 9 32c0 3 2 6 6 6 8 0 9 4 3 9-3 2-4 6-3 12l2 19c1 17 1 18 9 21 9 3 10 8 2 8-7 0-9 1-9 4 0 4-3 20-7 33-5 23-5 21-5 19-2-3-4-3-6 1-5 8-4 13 3 14 4 1 7 4 6 6l-1 9c-1 8-1 9-6 12-2 1-5 4-8 10l-5 9 2-6 4-6h-7c-9 1-12 0-12-5 0-3-7-4-22-3-3 1-7 6-7 10l-4 7c-9 10-3 21 14 25 12 2 20-2 27-15l4-6c2 0-7 14-12 20-7 8-8 9-2 12s3 5-12 9c-9 2-18 6-25 11l-10 5c-4 1-5 3-3 7 4 9-2 16-11 13zm-2-13c0-6 4-11 8-10 7 1 11-13 5-19-15-14-64-1-54 15 5 7 17 13 33 16 9 2 9 2 8-2zm-78-35c13-4 17-12 11-19l-6-7c-4-7-7-9-11-9-6-1-17 5-21 10l-4 3c-2 1-2 0 0 0 3-2 5-5 4-7-2-2-7-2-10 1-2 3-2 3-2 1 2-3 2-4 0-4-7 0-7 23-1 27 9 6 29 8 40 4zm70-41c28-11 35-36 13-43-3-1-9-3-13-6-11-6-17-7-28-3l-9 3c-5 0-11 5-12 9-6 21-3 26 17 33l15 6c5 3 10 3 17 1zm3-27-6-6c-4-4-9-5-18-5-12 0-14-7-3-9 12-2 42 16 36 22-2 2-4 2-9-2zm-151 19c6-3 14-11 14-14-1-6-24-23-34-23-12-1-16 4-10 10l3 6c-3 10-3 14 4 19 8 7 13 7 23 2zm66-56c17-9 19-20 6-29-19-14-58 6-42 21 14 13 23 15 36 8zm161-11c19-16 19-23 0-26l-8-2-9-6c-10-8-11-9-16-3l-10 8c-20 15-18 20 13 33 17 7 17 6 30-4zm-238-27c7-4 23-18 24-21s-1-5-12-13a369 369 0 0 1-22-14l-14 32c-2 10 14 21 24 16zm157-6c13-6 28-24 24-30-6-9-40-16-51-9-23 12-25 21-8 37 6 7 24 8 35 2zm102-39c3-3 3-33 1-37-5-5-12 0-14 10-5 20 4 37 13 27zm-191-4c8-6 16-20 14-27-6-18-14-26-24-24l-11 2c-9 1-20 18-20 29 0 10 32 25 41 20zm141-17c7-5 9-14 6-26-8-23-19-23-32-2-9 15 12 37 26 28zm-215-31c14-7 21-22 14-29-10-12-31 15-21 27 3 4 4 4 7 2zm150-9c6-4 16-20 18-26 1-4-1-6-8-11-10-7-12-8-14-11-10-9-45 12-45 26 0 16 37 33 49 22zm93-28c2-8-8-23-13-20-9 5-7 12 4 21 5 5 8 4 9-1zm-175-16c10-5 21-31 16-37-10-11-46 18-39 32 3 5 16 8 23 5zm128-17c20-8 23-31 4-29-6 1-9-2-10-10-2-7-6-4-17 10-8 10-8 12-5 17 6 11 19 16 28 12zm-185-9c5-6 11-12 16-15 9-7 5-16-7-16-8 0-26 19-24 26s10 10 15 5z"/><path fill="#ca7b20" d="M342 876c-2-1-2-2-1-4 5-7-2-13-11-8-7 3-19 1-19-5 0-10-12-19-25-18-7 0-7 0-16-4l-34-16c-2-1-2-2-2-5 1-4 0-5-7-15l-11-18c-8-15-14-22-18-25s-5-6-2-12c2-6 3-7 12-1 9 4 18 3 18-4l5-8c8-11 7-13-8-23l-14-11c-7-5-11-6-15-2-4 3-5 0-7-14 0-5-2-7-6-12-7-9-5-13 4-8 12 6 31-8 43-32 7-12-9-39-22-38-5 0-5 0-5-7 1-7 1-7-2-11-5-6-5-6 2-4 6 1 6 1 28-16 18-13 17-26 0-32-6-2-6-2-2-2l11 2c13 5 13 5 38-14s19-33-14-32c-12 0-13 0-11-3l11-1c13 1 13 0 4-8-39-36-92-51-144-42-18 2-18 0 0-10 21-13 59-19 94-15 13 1 13-1 0-11-31-24-74-25-114-5-18 9-10-2 11-16 39-26 73-31 107-14 14 6 14 6-1-14-42-59-53-70-81-78-24-7-61-4-88 8-41 16-55 19-48 8 2-3 4-5 16-8 12-4 38-16 48-22 29-18 72-18 104 1 11 6 10 5-3-11-12-15-25-29-56-61-41-43-45-47-46-51-3-8-1-7 24 4a427 427 0 0 1 125 76c-12-16-32-38-49-54l-42-37c-15-10-35-34-32-37 9-12 95 65 138 124 4 5 4 2 0-10-10-36-31-64-83-114-32-31-34-37-9-29 42 13 73 41 97 87 12 22 13 22 6 1-10-28-26-61-44-91-13-21-17-35-14-39 4-3 46 40 66 69 7 11 9 12 8 5-3-28-6-74-5-77s22-2 24 1c13 18 26 57 30 89 2 18 4 31 5 30a665 665 0 0 0 1-118c0-3 0-3 7-3 9 0 7-3 12 23 9 45 11 53 13 45a1988 1988 0 0 0 13-68c2-3 13 0 14 3 8 34 7 68-3 101-4 10-4 10-2 19 3 19 5 19 9-3 6-29 20-77 28-94 10-24 12-26 17-26s5 0 3 7a443 443 0 0 0-10 59l-5 28c-3 13-4 28-3 27l5-10c13-37 38-74 65-98 16-14 16-13 29-13 14 0 15-4-9 26-51 64-62 84-72 133-3 17-5 35-3 28l3-6 5-12c19-49 52-89 104-125 14-10 21-13 22-9 1 1-2 5-34 41a388 388 0 0 0-22 26c-18 23-40 57-48 74-3 8-1 7 6-1 22-26 91-81 123-97 12-5 12-4 0 8-31 34-75 89-106 133-20 29-21 34-4 18a370 370 0 0 1 96-69c10-6 32-13 36-11s3 4-20 25a382 382 0 0 0-61 71c-11 13-25 35-25 37 0 1 1 1 7-2 31-14 65-14 106-2 21 7 21 9 1 7-21-2-54 0-69 5-28 10-68 44-81 68-4 8-3 8 5 3 34-21 85-25 120-9 24 12 40 25 19 16-49-22-74-17-133 25-21 14-21 15-3 9 31-10 55-13 64-8 8 3 2 7-30 19-18 7-23 10-48 24l-21 12c-8 5-1 9 20 11 9 1 10 1 6 2-9 2-9 3 1 14 18 18 18 18 14 17-7-3-12-7-23-18-19-19-22-19-44 2-22 22-22 29 3 45 28 18 34 18 49 2 7-7 10-10 13-11 7-3 7-1-2 7-17 17-18 21-12 28s37 20 44 18c4-2 3-3 6 10l3 12c1 1 0 2-3 2-6 0-13 4-16 10-2 3-3 2-4-4-2-18-23-42-38-45-8-2-11 0-17 11a245 245 0 0 1-25 37c-6 8-4 12 7 17 9 3 19 9 26 14 19 12 22 12 33-4 11-15 14-16 9-1-5 11-5 12 3 21 9 9 21 15 32 16 5 1 7 1 9 4l8 5c7 2 7 4-1 5-7 0-8 1-8 7-1 13-4 22-10 28l-9 10-11 12c-11 11-11 14 1 20l11 4c10 1 12 10 4 16-6 4-14 2-13-3 1-3-1-4-7-6-21-3-31-1-35 8-4 5-15 17-20 19-25 12-25 15 2 27a230 230 0 0 0 42 14l-15 4c-5 1-15 5-21 9-4 4-9 6-9 5l3-6c6-11 3-17-16-26-15-7-18-7-32 1-32 15-39 27-26 43 5 5-11 9-21 5zm-4-29c12-4 41-25 44-31 2-6-1-8-19-14l-21-9c-17-9-23-9-44 3-13 7-18 9-28 12-25 8-20 17 14 26l16 6c20 11 25 12 38 7zm78-44c29-14 40-39 22-50-25-16-43-26-47-26-6 0-29 16-49 35-11 10-8 18 9 26l11 7c19 13 39 16 54 8zm-151-5c18-7 36-22 34-28-1-4-10-12-20-18l-16-13c-14-12-15-12-24-3l-11 9-5 5-5 9c-4 7-4 7-1 12 9 18 11 21 16 24l4 3c6 4 19 4 28 0zm59-54c15-3 48-23 50-32 1-4-2-7-13-12-11-6-25-14-34-21-10-8-12-7-23 4-8 9-17 14-29 19-9 3-10 2-2-5 35-28 35-31 5-47l-25-13c-15-10-16-10-28 12-20 32-21 36-5 49 8 7 17 13 33 22l20 12c19 11 33 14 51 12zm158-6c17-4 43-46 33-52l-11-8c-20-15-40-20-45-11-2 6-8 11-29 25-26 19-25 27 7 37l19 7c8 4 16 5 26 2zm-72-37c14-6 37-29 37-38 0-16-34-41-53-39-15 2-59 37-59 48 0 7 23 25 38 30 3 1 34 0 37-1zm-91-44c5-1 31-21 36-27 4-6-1-23-11-36-5-6-5-7 4-2 21 10 41 15 49 10 11-5 34-35 35-45 1-5 1-5-10-11-6-2-14-7-18-11-18-13-20-14-29-14-7 0-11 2-23 13l-18 16c-10 9-13 14-12 22 1 5 0 5-2 4-20-5-39 5-57 32-12 18-12 21 5 30l15 9c18 11 26 13 36 10zm-71-46 10-10 14-13c21-15 22-18 8-25l-14-9c-11-10-13-11-27-2-30 20-32 28-13 49 13 16 15 17 22 10zm69-52c22-12 41-43 33-54-12-14-29-17-45-8l-15 9c-23 14-31 28-20 40 13 15 32 20 47 13zm57-66c15-3 20-5 26-11 5-5 6-8 3-7-12 5-33 7-46 5-17-2-21-1-17 6 5 9 11 10 34 7z"/><path fill="#519853" d="m357 480-39-2c-38-2-41-3-51-13-40-36-92-51-145-42-18 2-18 0 0-10 21-13 59-19 94-15 13 1 13-1 0-11-31-24-74-25-114-5-18 9-10-2 11-16 39-26 73-31 107-14 14 6 14 6-1-14-42-59-53-70-81-78-24-7-61-4-88 8-41 16-55 19-48 8 2-3 4-5 16-8 12-4 38-16 48-22 29-18 72-18 104 1 11 6 10 5-3-11-12-15-25-29-56-61-41-43-45-47-46-51-3-8-1-7 24 4a427 427 0 0 1 125 76c-12-16-32-38-49-54l-42-37c-15-10-35-34-32-37 9-12 95 65 138 124 4 5 4 2 0-10-10-36-31-64-83-114-32-31-34-37-9-29 42 13 73 41 97 87 12 22 13 22 6 1-10-28-26-61-44-91-13-21-17-35-14-39 4-3 46 40 66 69 7 11 9 12 8 5-3-28-6-74-5-77s22-2 24 1c13 18 26 57 30 89 2 18 4 31 5 30a665 665 0 0 0 1-118c0-3 0-3 7-3 9 0 7-3 12 23 9 45 11 53 13 45a1988 1988 0 0 0 13-68c2-3 13 0 14 3 8 34 7 68-3 101-4 10-4 10-2 19 3 19 5 19 9-3 6-29 20-77 28-94 10-24 12-26 17-26s5 0 3 7a443 443 0 0 0-10 59l-5 28c-3 13-4 28-3 27l5-10c13-37 38-74 65-98 16-14 16-13 29-13 14 0 15-4-9 26-51 64-62 84-72 133-3 17-5 35-3 28l3-6 5-12c19-49 52-89 104-125 14-10 21-13 22-9 1 1-2 5-34 41a388 388 0 0 0-22 26c-18 23-40 57-48 74-3 8-1 7 6-1 22-26 91-81 123-97 12-5 12-4 0 8-31 34-75 89-106 133-20 29-21 34-4 18a370 370 0 0 1 96-69c10-6 32-13 36-11s3 4-20 25a382 382 0 0 0-61 71c-11 13-25 35-25 37 0 1 1 1 7-2 31-14 65-14 106-2 21 7 21 9 1 7-21-2-54 0-69 5-28 10-68 44-81 68-4 8-3 8 5 3 34-21 85-25 120-9 24 12 40 25 19 16-49-22-74-17-133 25-21 14-21 15-3 9 31-10 55-13 64-8 8 3 2 7-29 19-19 7-23 9-41 20a820 820 0 0 1-37 21 79 79 0 0 1-41 17 3270 3270 0 0 0-25 0z"/><path fill="#2f8144" d="M329 478c-40-2-54-4-54-7l-9-9c-41-34-89-49-137-42-18 2-18 2-12-2 11-8 21-12 29-11l19 2c13 1 20 2 33 7 12 5 16 4 17-2 1-9 18-1 44 21 20 17 26 18 16 4-5-6-5-7-5-14-1-8-6-12-31-21-8-3-9-4-12-8-20-30-84-39-124-16-15 8-5-3 13-14 37-25 72-29 107-12 15 7 13 2-22-44-44-59-86-70-160-41-26 11-39 14-39 11s6-7 12-9c16-6 40-16 50-22 32-20 69-20 104-1 25 13 12-4-62-81a328 328 0 0 1-40-45 433 433 0 0 1 151 87c9 1-45-57-89-93-16-13-36-34-36-37 0-20 84 55 136 121 5 7 7 6 5-1-9-40-40-84-94-132-14-13-21-24-13-22 44 10 82 41 108 91 13 26 17 26 8 0-10-29-33-74-49-100-7-11-13-31-8-28 14 9 47 45 63 69 10 15 11 14 9-12a926 926 0 0 1-5-63c-1-1 0-1 10-1l11 1 2 5a217 217 0 0 1 29 98c3 23 3 24 6 24 4 0 6-113 2-127l6-1c6 0 6 0 6 2l9 46c5 24 10 36 10 27l1-4a951 951 0 0 0 13-70c-1-1 1-1 5-1 15 0 16 71 2 108-2 4-2 12 1 21 4 19 5 18 11-9A599 599 0 0 1 419 1c4 0 4 0 3 2l-8 36-10 58c-4 23-2 41 3 25A241 241 0 0 1 490 3c2-2 3-2 13-2 11 0 12 0 9 2l-20 24c-51 65-61 83-72 135-3 14-5 29-3 30 1 1 4-1 4-3s10-26 18-41c20-39 52-74 95-103 23-15 23-13-3 16-29 34-49 59-65 83-18 27-28 54-15 38A448 448 0 0 1 580 81l-8 10a1435 1435 0 0 0-118 156c0 5 3 3 17-10a262 262 0 0 1 71-49h1l-2 2-4 2-4 3c-4 0-22 13-33 25-15 15-19 21-13 21 2 0 4 2 3 4h-3c-4-3-17 1-17 5 0 2 6 2 13 0 4-2 5-2 6-1 3 3 2 6-9 22-19 27-23 42-8 26a401 401 0 0 0 41-53c12-18 22-31 32-40 12-10 19-20 24-30 3-7 5-8 18-12 15-5 15-3 4 7a424 424 0 0 0-72 80c-12 16-28 41-28 43s4 1 14-3c32-13 70-12 108 2 4 1 0 2-7 1-26-4-62 2-84 13-19 9-55 43-63 58-6 12-6 16 2 10 28-21 86-26 120-11 15 8 28 16 17 11-7-3-30-8-40-10-28-3-42 3-95 41-18 12-18 16 0 10 23-7 41-11 50-11 23 0 22 4 0 12-33 13-36 14-54 25a592 592 0 0 1-34 20c-6 6-19 13-32 17-7 2-28 3-64 1zm116-41c28-10 48-25 23-19-7 2-23 8-32 13-19 9-14 13 9 6zm-103-63c11-21 12-28 11-78l-1-55c1-14-1-36-6-72l-3-24c-1-14-1-14-4-14-4 0-6 6-11 40l-6 40c-17 84-20 133-11 134 2 1 2 0 5-20 4-27 9-37 16-30 6 5 6 17 1 43-6 27 0 52 9 36z"/><path fill="#378331" d="M329 478c-42-2-54-3-55-8 0-5-26-23-47-34-36-17-63-22-98-16-18 2-18 2-12-2 11-8 21-12 29-11l19 2c13 1 20 2 33 7 12 5 16 4 17-2 1-9 18-1 44 21 20 17 26 18 16 4-4-6-5-8-5-13-1-7-2-11-4-11l-10-5a190 190 0 0 0-25-10c-30-37-82-45-129-20-10 4-1-4 13-13 37-25 71-29 106-13 16 7 16 5-6-25-37-52-48-63-77-71-27-8-56-5-99 12-30 11-40 13-34 6l9-4c15-5 41-17 52-24 31-19 67-19 102 0l11 5a274 274 0 0 1 52 69c22 38 38 58 27 32-19-43-24-62-10-45 17 22 25 42 35 83 3 11 4-22 2-40-6-43-22-89-40-109-16-19-25-31-26-35-2-7-28-36-52-58l-42-38c-9-7-33-31-33-34 0-19 93 67 136 124 7 9 8 4 3-13-10-35-29-61-78-109-33-32-36-36-22-33 41 10 78 42 102 88 11 23 17 29 14 16-6-27-24-65-56-120-4-6-8-20-6-22s37 34 53 56c14 19 16 21 17 21 4 2 4-1 2-21a929 929 0 0 1-5-63c-1-1 0-1 10-1l11 1 2 5a217 217 0 0 1 29 98c3 23 3 24 6 24 4 0 6-113 2-127l6-1c6 0 6 0 6 2a584 584 0 0 0 20 77v-4c0-2 2-13 4-16 1-1 1-1 5 1l4 2c1 0 1-9-1-21s-2-17 1-35V2c1-2 11-2 10 0l2 13c6 28 5 59-4 87-4 14-4 16 0 33 2 9 0 37-3 43l-2 15-4 18-1-1-1 2c1 2 0 2-1 0-2-2-2-2-2-9a159 159 0 0 0-3-24l1-2v-2l-2-5-1-5-2-19c-1-13-1-15-5-15s-6 6-11 40l-6 40c-17 84-20 133-11 134 2 1 2 0 5-20 4-27 9-37 16-30 6 5 6 17 1 43-5 20-2 42 4 41 3 0 11-16 15-29 1-5 1-5 2-1 1 2 1 3 1 1l8-23a216 216 0 0 0 15-81l4-32c5-48 5-51 14-82 5-19 6-21 6-10 0 14 1 13 7-5A240 240 0 0 1 490 3c3-2 3-2 13-2s11 0 9 1l-6 7-18 23c-50 61-63 89-71 147l-1 14c1 2 4-1 6-6 4-12 24-53 31-63 18-25 37-46 66-68 18-14 37-24 30-16a2294 2294 0 0 0-53 61 327 327 0 0 0-57 98c-5 10-5 11 2 8 5-3 7-3 7-1s-13 21-21 31a416 416 0 0 0-69 129c-2 2-2 30 0 30l1-3c5-20 14-38 18-32 2 4 2 15-3 44-3 19-5 44-4 46 2 1 6-10 11-28a601 601 0 0 1 42-111l10-21 12-24c4-10 8-16 11-17l15-13a261 261 0 0 1 71-49h1l-2 2-4 2-7 4c-14 8-35 26-44 40l-8 7-10 9c0 3 7 2 14-1 12-6 11 0-2 20-19 27-23 42-8 26a401 401 0 0 0 41-53c12-18 22-31 32-40 12-10 19-20 24-30 3-7 5-8 18-12 15-5 15-3 4 7a424 424 0 0 0-72 80c-13 18-28 41-28 43s5 2 10-1c28-13 66-14 98-3l9 2h-9c-56-1-86 12-125 53-18 19-28 41-13 31 29-21 84-27 117-12 18 8 16 9-4 4-35-9-54-3-107 35-23 15-24 19-4 13 23-7 41-11 50-11 23 0 22 4 0 12-32 12-36 14-51 23a574 574 0 0 1-38 22c-1 4-18 13-31 17-7 2-28 3-64 1zm116-41c28-10 48-25 23-19-7 2-23 8-32 13-19 9-14 13 9 6zm-238-79c7-5-26-11-43-7-8 2-9 3-4 4 24 5 44 6 47 3z"/><path fill="#1c5927" d="M340 477c-5-1-3-12 8-42l9-26c6-26 8-30 10-36 8-23 12-8 6 27-6 38-7 59-1 59 7 0 10-7 8-15-2-4 2-22 12-48l7-21c5-14 22-54 28-63 8-15 27-35 32-35 2 0 2 0 0 1-26 37-41 71-54 120-2 6 4 7 9 1 20-24 50-64 72-97 3-5 5-7 9-8l14-5c15-6 36-9 53-8 8 1 8 1-7 2-28 1-50 12-65 33-6 8-5 8 13-4 30-20 45-25 77-24 10 1 5 2-8 3-38 2-65 16-99 52-19 20-27 43-11 31 10-8 29-15 49-18 4-1 4-1 0 2-10 5-11 16-1 11a480 480 0 0 0-67 50c-41 23-50 31-55 51l-2 7h-46zm110-76 9-8 29-16c13-5 18-12 8-11-7 1-46 21-51 26-13 14-9 22 5 9zm-143 74c-2-1-3-5-6-14-9-31-22-44-58-58-10-4-12-5-17-10-26-28-68-35-114-19-13 5-12 3 5-8 37-24 70-27 105-11 19 9 16 2-23-49-39-53-78-64-146-42-8 2-10 2-11 1-1-2 0-3 9-8l15-8c31-19 70-19 103 0l10 5c6 2 32 36 50 68 28 49 47 67 29 29-9-20-16-39-15-43 0-4 13 14 20 27 6 11 17 46 19 61 2 10 5 1 5-17a245 245 0 0 0-67-172c-6-10-34-40-58-63a2701 2701 0 0 1-69-65c0-18 86 61 135 124 3 4 6 5 7 2 1-1-1-9-3-17a2876 2876 0 0 1-17-60l-3-4-2-4-7-8-7-8c1-1-6-8-8-8v1l-1 2c-3 1-3 3 0 3 2 0 4 3 2 7l-1 3-63-63c-4-7 26 4 48 18 23 14 43 37 60 70a318 318 0 0 0 13 24c1 2 3 3 4 2a377 377 0 0 0-27-88c0-2-9-12-11-12l-13-20c-13-22-12-19-12-24l-1-6c-1-4 11 5 19 14l11 13c9 10 10 10 12 20 1 8 5 20 6 22l2-2c3-2 12 0 16 5l4 3c2 1 16 22 24 39 16 32 24 60 22 83a565 565 0 0 0-3 43c-2 4-2 4 0 9 3 6 3 6 0 24-7 38-8 68-2 103l8 56c1 12 3 16 10 24l7 7h-7l-8-1zM207 360c20-7-24-17-46-10-17 4-16 5 21 10 9 2 21 2 25 0zm65-99c3-8-4-57-10-69-3-5-5-6-3-2 2 7 2 18 0 18-4 1-8 14-8 24 0 6 4 14 11 22l3 4c0 4 5 6 7 3zm85 94 6-24a222 222 0 0 0 17-84l3-26a380 380 0 0 1 18-94c0 11 3 9 8-8A239 239 0 0 1 492 2l11-1c7 0 11 0 10 1l-2 1-5 5-18 23c-50 61-62 87-71 146-4 23-1 27 7 7 3-8 4-10 5-7l3 20c0 5 2 4 4-1v-6c-2-2-2-3 7-21s10-19 9-15l2 3c1 1 0 3-5 13l-7 18-4 10c-6 9-5 15 1 11 9-4 4 5-15 29-26 31-58 91-65 119-1 4-2 3-2-2Zm2-191-4-13c-2-5-3-8-3-21l-4-28c-2-13-3-30-2-32 2-4 16 34 16 45 0 5 0 12 2 18 2 10 2 10 0 23l-2 15c0 4-2 0-3-7zm95-13c0-7 12-32 23-49l7-11a202 202 0 0 1 58-49c4-3 4-1 1 3l-7 9-15 17a552 552 0 0 0-54 68l-7 8c-1 0-3 1-4 4 0 3-2 3-2 0z"/></svg>