<svg xmlns="http://www.w3.org/2000/svg" viewBox="0 0 566.2 850.7"><path fill="#9aafa6" d="M192 850c-38-21-13-76-45-102-35 13-2 74-44 83-42 8-32-54-25-79 34-39-6-74-35-102C11 606-6 550 2 495c5-70 35-137 74-195 27-32 76-51 81-98 10-48 8-98 28-144-1-39 45-84 72-37 12 31 39 52 52 83 17 34 28 70 48 102 77-3 140 59 171 124 37 82 54 182 18 268-6 36-54 58-56 90 18 12 59 48 32 65-19-4-54-52-62-16 15 27 76 66 21 87-31 0-64-21-83-46-8-43-47-74-86-89-25-18-58-56-83-17-39 14-30 55-10 79 4 30 26 107-27 99zm53-567c22-33 86-53 74-98-16-44-30-93-68-124-50-19-56 53-62 86-10 37-10 81 21 109 9 11 20 24 35 27z"/><path fill="#70958b" d="M192 848c-35-19-14-66-38-93-12-31-18 3-22 2-8-16-28 19-29 25-1 10-2 36 6 41 11-7 24-25 9-3-38 34-43-12-45-40-7-33 46-67 4-95C31 643-2 584 2 521c1-42 7-84 24-123 12-30 27-59 43-86 21-31 56-48 78-77 24-55 14-118 38-174 8-25 22-72 54-56-2 10-13 31 10 34-11 20-38 16-46 42 5-10 12-42-2-16-15 40-24 83-24 125 11 22 5 32-15 31 2 15 7 16 16 11-6 13 11 26 22 37 6 25 12 26 14 50 4 19 18 26 8 40 10-3 19 8 26 8-10 8-6 36-21 21 3 21-5 42 8 42 10 16 11 37-8 20-11 3 17 17 10 33 13 9 8 39 17 14 6 14 21 35 15 47 11 14 7 43-11 45-20 3 16 16-4 28-8 21-26 36-43 51-18 22-50 1-60 31-24 18 37 1 37 27 3 17 22 35 2 36 17 24 12 59 27 82-9 0-16 11-25 4zm273-24c-26-22-70-23-71-66-17-30-42-55-76-67-21-12-47-30-58-47 44-56 51-133 42-201-9-43-25-84-45-124-8-14-28-41-6-30 13-30 44-52 70-73 8-34-19-71-30-104-5-26-47-44-38-67 28 6 46 51 59 78l42 99c17 7 35 12 12-3-11-24 35 14 48-1 26 1 13 26 2 21 9 23 47 46 46 64-13 18-30-24-40-15-17 14 25 12 13 24 8 13 1 15 11 24 3 17 10 6 16 25 3 17-12 10-2 31-20 2 0 22 13 20 14 32 14-5 14 2 25-8 13 26 6 39-1 21-10 30 8 35 16-1 20 41 28 25 15 0 11 51 3 19-5 16-21 33-6 41-8 12 12 31-8 41-3-15 2-68-8-27-1 34-14 64-34 91-16 6-39 32-19 43-4 14 5 32-4 7-7-28-31 4-8 16 1 16 7 33 20 22-11 27 56 59 0 58zm48-77c-18-7-33-35-51-27 19-34 39-1 54 16 3 5 8 15-3 11z"/><path fill="#5f8873" d="M195 848c-38-16-17-68-41-95-8-26-24 14-28-17-14-26-27 5-29 16 10 14-4 38-2 58 19 24-27 29-17-5-13-32 3-59 17-89-7-39-54-55-67-93C9 590-1 553 2 515c2-36 7-73 21-107 11-29 23-58 41-84 17-35 53-56 80-82 28-55 17-121 40-177 4-25 19-46 35-56-9-23 41 4 5 10-7 7 16-6 10 14-9 5 0 27-22 27-2-27-26 35-26 51-9 30-10 68-11 96 11 4 7 16-10 9-8 12-7 24 9 27 7 18 10 23 25 30 2 17 16 53 1 32-9 29 5 55 8 79 13-2 31-28 24-2-7 8-12 14-25 15-6 26 9 35 12 49 8 22-27 52 7 59 17 4 22 19 36 24-10 1-33-16-26 5 6-14 7 29-3 3-7-13-33-29-19-3 0 14 19-2 7 19-13-8-15 11-2 10-28 22 40 24 7 6 5-8 5-5 7-18 11 10 36 21 12 32-24-6 3 35-3 9 18 0-17 44 10 18-12 20-30 43-48 61-16 13-31-1-40 2 25-19-5-4-8 9-13-19-30 47 3 31 25-8 30 29 31 45-2 9 15 42 10 58 13 19 28 33-5 32zm274-24c-26-21-72-20-72-63-18-30-41-57-74-68-22-12-52-31-62-50 46-59 52-140 40-212-11-41-28-81-45-119-18-40 30-61 51-86 39-19 0-62-6-92-9-32-36-58-51-84 24-12 41 40 55 59 14 39 34 77 50 115 16 5 43 31 29 32-16 1 18 17 13 14 3 16 24-2 21 15-16-12 1 36 0 34 6 1 21 11 12 18 3 13 19 13 2 25 4 21-14 29 10 47 18 6 6 2 11 14 0 7 14 1 12 19-21-1 22 24 17 42 14 13 32 11 17 27-3 8-28 11-7 24 7-16 14 16 8 15 8 7 13-23 13 2-5 15-6 36-10 49-3 26-18 53-35 73-14 19-3-11-17 13-19 9-21 20-17 32 2 21 9 43 21 61 9 9 27 29 27 41-4 1-8 7-13 3zm37-81c-12-11-35-30-38-27 10-31 66 44 38 27zm-65-448c-21-21-27-20-39-44-11-9-33-38-10-30-5 7 29 4 18 17 6 16 44 47 31 57z"/><path fill="#4d7164" d="M191 844c-34-21-13-71-40-98-26 14-15-35-44-19-16 11-24 43-12 34-23 15 16 65-10 66-18-33-10-70 6-101 10-46-48-61-62-100C3 581-5 527 7 477c4-57 32-108 59-157 21-41 75-56 88-101 18-60 10-128 43-183-3-19 61-41 26-15-11 10-2 39 1 13 20-20-12 47-8 14-38 22-32 75-42 113-1 33-13 69-30 93 17-9 15-1 22 8 21 4-8-37 12-11-2 23 12 39 22 50-1 25-20 53 6 68-16-5-21 31-5 10 4 29 9 61 17 86-28 5 4 43-15 43-18-23-7 18 6 18-3 17-14 30-1 49 6 14-6 29 8 18 7 17 10 25 23 28-10 12-21 47-46 51 14-20-29 16-10-9 25 3 21-53 6-30 20 8-3 28-16 25-10 20-58 31-27 57 50-9 38 56 51 86 2 19 35 59-6 43zm273-21c-33-19-71-36-77-78-23-39-68-51-102-77-48-20 4-55 9-86 21-72 17-152-16-219-8-29-37-58-20-88 17-31 71-45 64-82-12-37-23-76-46-107-15-7-35-56-7-29 38 42 51 100 77 149 6 21 38 33 33 50 4 14 3 21 12 19 10 18-21 13 3 25 7 32 34 52 27 88 4 1-18 10-1 17 30 2 13 66 39 71 26-4 24 33 0 21 5 13 31 14 10 26-24 26 41 14 34 46 2 26-38 42-24 73-7 33-34 38-53 67 10 17 11 57 32 80 6 10 44 40 6 34zm45-79c-9-11-63-38-22-29 9 7 23 19 22 29zm-88-477c-12-11-50-55-15-28 5 7 18 19 15 28z"/><path fill="#30594f" d="M190 842c-32-21-12-70-40-96-16-2-26-20-18-34 17 10 50 24 40 35 27 20 14 66 40 88 15 10-19 12-22 7zm279-19c-25-20-71-20-71-62-19-33-46-60-83-73-19-17-75-34-41-63 36-60 40-135 26-202-12-39-27-77-45-113-10-39 32-62 56-85 34-22-6-66-11-95-10-29-31-54-49-76 14-18 35 33 45 46 19 43 40 85 58 127 14-1-8 20-3 23-4 13 6 51 6 18 4-7-7-18 11-8-3 17-4 11 9 15-10 13 0 20-8 28 10 10 18 22 26 36 8 8-9 1-6 11-14-11 10 13 14 12 7 14-31 25 2 18 0 4 9 36-2 46 9 10 9 42 19 21 9 20-18 6-9 21-31-4 34 31 10 1 10-2 13-7 14-23 7 14 13 14 1 18 7 19-18 24 5 35-15-1-3 11 1 17 10 2-10 21 9 24 12 18 3 22 4 39 7-21 27-24 23 1 12-4-13 15-9 25-19-2-5 6-10 14-13 5 5 31-7 38 22-4-17 16-23 31 1 16-41 22-7 21-15 8-38 42-8 17 23-2 19 49 39 64 0 8 40 35 14 33zM75 780c-8-32 44-66 5-95-43-36-74-90-77-147 0-36 3-73 14-109 8-34 26-64 41-95 8-18 34-43 41-40-12-7 31-36 8-8 10 8 19-32 44-30 27 5-5 37 19 29 7-15-10 5 2-13 3-28 15 31 16 30 21 10-34 3-3 11 7 19 6 26 3 42 3 15-1 43-1 50-14 4-16 36-9 40 12 8 2 13 4 20 13-17 40 6 14 0 13 20-20-3-3 19-15 14 5 35-7 45-9-31-6 2-8 14-4 18 6 16 12 12 7 18-2 41-6 48-13 14 23 7-1 18 8 19-5 21-6 4-20-21 12 34-14 40-19 9-27 21-36 28-4 11 8 36-14 24-23 11-26 59-38 63zm73-542c21-50 16-107 33-157 2-21 19-47 23-60 3 1 22-2 13 10-14 1 11 19-13 19-15 13-19 33-21 40-5 10-5 41-11 62-2 28-6 60-17 84 1-1-6 6-7 2z"/><path fill="#234935" d="M197 844c-33-13-24-55-35-82-6-14-49-44-9-33 37 21 32 67 52 99 15 9 9 20-8 16zm268-22c-44-17-71-52-88-93-27-34-73-40-103-69-22-35 28-62 26-99 17-71 5-146-26-211-22-32-29-76 9-100 24-17 59-41 36-75-17-43-33-88-68-120 41 3 42 59 63 86 13 39 51 76 30 117-3 38 31 68 27 103 9 33 33 48 27 85-26 19 35 47 26 61-11 13 10 36 17 16-12 19-15 42 9 44 0 15 37 25 6 31-24-5 6 39-10 54-3 22-26 15-20 38-12 4-43 22-11 23-17 10-23 32 3 21 27 19 23 62 49 83 10 7 6 3-2 5zM100 716c-21-42-67-68-82-114-24-53-14-114-3-169 12-40 35-77 70-99 17-19 34-60 56-60 9 22-33 18-16 34 5 14 23 28-3 37-5 10 12 5 0 19 13-8-10 35 17 41 31 9 5 36-11 25 24 21 1 72 38 74 13 12-26 37 4 39 8-6-1 25 13 33 8 26-22 47-19 76-7 27-46 13-50 44-25-5 5 24-14 20zm86-652c0-12 29-59 27-32-1 17-16 22-27 32Z"/><path fill="#0b2617" d="M191 840c-31-27-14-78-48-104 2-21 36 17 38 30 7 26 21 55 30 76-7 2-14 0-20-2zm241-45c-31 16-34-65-12-27-1 10 13 19 12 27Zm-50-95c-35 2-71-8-96-33-28-11-24-36-4-53 31-64 34-140 15-207-9-41-41-77-40-118 6-41 58-46 70-77-5-36-21-71-36-104-5-20-36-40-33-54 32 27 45 69 62 106 3 26 42 55 25 78-23 1-55 18-55 45 2 17 32-12 37 15-2 14 21 22 4 39-4 15 24 45 0 57 17 13 27 39 15 50 11 0 4 23 11 28-25 10 31 34 44 36 6 7-34 8-10 11 10-15 25 35 7 14-5 19 16 18 11 36 15 13 38 11 29 37-13 20 22 19-4 24 6 18-38 25-20 39 3 16-17 30-32 31zM76 680c-35-30-61-72-68-119 5-33-7-66 6-95 14-11 20-9 14-28-1-14 14-61 19-33 17-7 40-38 49-6 18 8-13 13 4 18-11 15 2 13 7 21-14 9 6 20-10 18-10 19 33 31 10 44 11 10-22 16-3 30-8 17 24 8 4-2 2-8 3-26 9-5 13 8 19 14 14 28 11 16-29 11-6 21 19-25 39 12 19 29 5 11 26-3 13 16 13 12-20 11-8-4-12-1-21-7-13 8-5 12 37 33 4 35-14 9-9-25-23-4-7 13-23 47-41 28zm288-275c-28-13 17-36 8-7-1 2-3 11-8 7z"/></svg>