<svg xmlns="http://www.w3.org/2000/svg" width="32" height="32" viewBox="0 0 911.6 573.3"><path fill="#f7c99c" d="M102 572c-32 4-58-30-18-43 41-17-36-36-22-69-9-18 34-54 22-53-25 2-67 28-84 8 20-32 60-43 89-65 35-23 72-43 109-62 19-71 88-108 151-137 26-8-4-55 35-61 19-6 89 34 56-8-26-20-49-64-3-76 64-18 129 8 190 28 91 37 190 73 252 153 43 60 46 153-7 208-48 45-119 30-177 17-51-14-103-32-141-70-11 21-8 62-24 88-15 42-53 69-94 82-84 29-172 51-261 60-24 1-49 2-73 0z"/><path fill="#e8ce6e" d="M107 572c43-21 88-37 132-54 57-21 101-65 152-95 43-27 82-59 124-85 27-8 24-73-5-41-40 19-87 6-128 20-22 1-73 10-77-2 23-10 86-19 62-55-43 8-88 16-130 26-25 16-52-4-26-28 30-53 85-83 139-104 11-31 23-84 68-56 17 10 49 1 22-18-43-21-28-85 22-77 75-8 146 27 214 52 74 31 150 67 201 130 43 61 48 154-6 210-51 43-123 29-182 14-38-12-80-22-110-50-32-32-37 10-38 35-10 50-44 98-95 112-88 35-181 55-274 65-22 2-44 2-65 1zm-33-15c-27-20 57-42 6-55-37-24-1-82 6-98-14 4-63 22-56 10 70-28 145-42 217-65 74-14 149-17 223-30 39-18 20 28-4 34-31 22-59 50-93 69-51 34-103 66-160 90-41 16-81 37-124 46h-7z"/><path fill="#d4b358" d="M117 572c56-37 126-45 181-84 62-46 128-86 190-132 24-15 64-38 41-70-27 13-65 30-101 18-17-17-1-94-56-73-58 3-110 31-162 52-13-39 36-65 60-88 29-30 98-28 94-76 30-28 70-2 101 11 100 43 209 56 310 94 28 2-28-19-39-26-87-37-180-53-268-87-24-16-80-78-30-88 43 1 81 24 120 40 95 48 182 109 270 168-4-21-44-39-65-55-83-54-166-108-258-146-17-7-71-7-64-22 79-21 155 19 228 44 78 32 159 70 212 139 43 64 42 167-26 215-62 34-135 11-199-7-38-13-75-32-104-61-12 52-16 117-67 148-69 43-152 53-229 73-46 9-92 15-139 13zm328-272c24-12-14-75-3-27 1 7-13 32 3 27zM74 556c-20-21 54-44 6-54-39-21 4-78 0-95-18 9-74 14-27-2 63-20 128-36 192-55 78-16 158-17 235-34 35 13-26 43-40 55-53 47-114 83-177 117-49 24-99 46-151 64-12 3-25 5-38 4zm321-249c-24-14-4-84 13-42 1 13 10 42-13 42z"/><path fill="#c69852" d="M127 571c-6-12 50-21 66-34 47-17 96-34 133-68 55-39 114-72 166-114 26-11 44-36 51-59 26 21 54 39 84 55 35 23 76 15 112 2 43-8 98-14 117-61 24-57-16-120-64-151A893 893 0 0 0 507 12c-18-4-48-11-12-9 82 9 158 43 233 76 59 29 121 62 157 119 35 59 36 146-15 196-45 40-110 33-164 18-57-12-114-34-156-75-7 57-19 124-74 154-62 36-135 46-203 65-48 10-97 17-146 15Zm-52-15c-27-20 57-41 6-54-41-28 6-92 1-96-13 6-82 20-36 3 66-24 135-38 202-60 50-9 100-12 149-19 31 0 73-16 96-10-14 35-57 50-84 76-65 48-135 90-210 121-37 16-75 34-115 41l-4-1zm373-253c1-17 30-19 7-38-16-12-11-33 7-16 24 4 82 33 39 52-18 2-35 3-53 2zm-247-18c19-71 91-106 152-135 38 10 55 69 76 85-34-2-68-10-102 2-44 10-84 32-126 48zm623-49c-68-28-134-62-207-79-54-16-108-30-161-51-6-26-73-68-23-82 99 9 181 73 264 121 46 29 93 58 135 93-2 2-6-1-8-2z"/><path fill="#b2954f" d="M181 568c63-27 131-44 194-73 39-16 91-11 116-50 18-26 23-59 36-88 40 18-2 71-13 99-34 50-99 59-153 78-59 16-119 29-180 34zM77 556c-26-20 52-40 8-52-50-22 7-109 0-100-13 7-77 20-35 4 66-23 134-38 201-59 56-10 114-11 171-21 22 0 60-16 71-6-18 32-56 47-82 73-70 51-145 95-225 127-35 14-71 35-109 34zm696-133c-79-9-164-28-221-87-18-24 9-39 23-15 48 29 97 59 151 75 43 6 85-13 121-34 35-37 20-92 12-136-21-67-87-104-145-136-74-37-153-64-232-86 95 3 182 47 268 85 73 36 150 95 159 182 8 63-25 137-92 150-14 3-29 3-44 2zM201 285c19-71 91-106 152-135 38 9 51 69 74 82-38 3-78-8-115 9-38 11-74 30-111 44zm623-50c-68-27-134-61-205-78-53-16-107-30-159-50-12-23-77-76-22-82 96 11 176 71 257 119 46 29 93 59 135 93h-2z"/><path fill="#a58730" d="M192 565c52-26 112-33 164-62 41-20 95-15 129-49 30-24 23-75 48-95 26 23-2 55-10 81-18 38-55 60-94 71-77 28-157 46-237 56h-2zM78 555c-35-16 56-35 8-50-52-24 9-111 3-102-23 9-85 21-31 3 57-21 117-31 174-51 48-15 99-12 149-22 37-4 74-9 111-16-2 29-48 44-67 67-42 31-86 58-130 86-61 31-123 60-187 82-10 3-20 4-30 3zm677-134c-74-12-151-32-205-87-11-32 8-30 26-12 48 29 97 59 150 76 44 6 86-14 123-35 32-29 20-76 16-114-5-42-29-79-63-103-76-61-170-95-261-126-18-6-88-22-36-15 96 14 186 56 272 100 65 35 130 95 131 175 4 55-21 121-79 136-24 8-50 8-74 5zM202 284c20-70 90-104 150-132 40 4 41 62 77 77-25 11-71-9-102 7-44 11-84 31-125 48Zm619-51c-60-21-114-54-175-68-63-20-128-35-189-60-4-26-71-64-27-80 96 8 177 68 259 116 47 30 96 60 139 94 0 2-13-8-7-2z"/><path fill="#9a702a" d="M74 554c-16-21 53-36 12-50-36-24-20-76 6-101-14-2-51 20-52 9 70-25 142-41 213-62 51-10 103-11 154-20 26 0 67-16 84-9-13 32-52 44-74 69-43 31-88 60-134 86-58 28-117 57-179 77-10 2-20 3-30 1zm128-270c20-70 90-105 150-132 37 8 48 61 71 79-30 3-61-8-91 4-46 10-87 32-130 49Zm619-51c-63-23-122-58-188-72-59-18-118-34-175-55-7-39 44-46 72-47 44 2 77 38 116 56 63 37 123 77 182 120-2 3-9 3-7-2zm-161-71c35-15-20-47-38-52-37-17-78-18-118-19-26 15 29 26 39 33 42 5 78 27 117 38zm-13-7c-21-4-53-28-39-41 11 9 54 34 25 8 19-7 58 38 14 33zm-53-26c-29-5-58-10-79-27-15-22 36-5 36 13 26 18-12-23 17-19 18 5 11 2 0 6 2 18 31 2 26 27z"/><path fill="#55a32a" d="M85 553c-36-10 46-39 1-48-35-25-22-80 9-102-13-5-59 16-23-1 56-19 115-31 172-50 55-13 112-11 168-21 24-1 61-16 77-10-16 29-50 42-71 67-42 32-88 60-133 87-58 29-117 56-179 77-7 1-14 2-21 1zm117-269c20-70 90-105 150-132 37 8 48 60 72 79-31 2-63-7-94 4-45 11-86 32-128 49zm616-53c-44-15-84-38-126-55 6-37-31-44-54-63-26-15-54-30-83-40-27-2-75 7-83 27 2 25-39-21-7-20 33-21 82-32 114-3 84 47 167 98 244 155 2-1-7 1-5-1zm-171-76c-20-9-49-18-42-43 10 6 41 30 40 20-38-28 46 3 15 24-4 1-9 0-13-1zm-64-10c-18-8-70-14-65-27 26 12 53 19 79 30l-7-2zm11-16c-29-4-58-10-79-27-15-22 36-5 36 13 26 18-12-23 17-19 31 3-18 5 8 17 10-7 19 9 18 16z"/><path fill="#3d8428" d="M85 553c-34-11 46-41 1-50-35-24-20-75 7-99 8-10-59 15-25-1 52-19 107-28 159-47 65-17 133-16 200-27 19 0 51-15 62-8-16 28-49 42-70 67-42 31-88 58-132 85-58 29-116 56-177 78-8 2-16 3-25 2zm121-58c45-5 59-58 100-73 19-5 37-24 10-35-25-28-64-29-93-7-38 16-89 19-114 57-23 36 14 67 49 63 16 2 32 1 48-5zm-3-213c2-17 29-57 34-54-20 14-6 54 17 31-16 9-33 17-51 23Zm65-31c8-44 47-71 79-96 33-9 37 43 63 57 28 33-33 21-33-7-7-41-61-4-76 17-13 7-15 32-33 29zm550-20c-44-15-84-38-126-55 6-37-31-44-54-63-26-15-54-30-83-40-27-2-75 7-83 27 2 25-39-21-7-20 33-21 82-32 114-3 84 47 167 98 244 155 2-1-7 1-5-1zm-235-86c-18-8-70-14-65-27 22 10 66 23 76 29l-11-2z"/><path fill="#8d361e" d="M85 553c-36-10 48-40 2-50-35-25-19-79 9-101-12-2-58 15-24 0 53-19 108-28 161-46 58-16 119-15 178-25 24 0 63-16 78-9-17 28-51 44-73 68-17 12-56 47-51 5-10-37-53-38-85-36-54 4-104 26-151 52-25 14-48 49-28 76 31 32 79 14 117 13 2 11-39 21-54 31-25 9-51 23-79 22zm119-271c1-14 28-56 27-48-9 17 1 49-27 48zm614-51c-44-15-84-38-126-55 6-37-31-44-54-63-26-15-54-30-83-40-27-2-75 7-83 27 2 25-39-21-7-20 33-21 82-32 114-3 84 47 167 98 244 155 2-1-7 1-5-1zm-235-86c-18-8-70-14-65-27 22 10 66 23 76 29l-11-2z"/><path fill="#316f22" d="M171 526c-35-3-79-4-98-39-21-33 7-70 30-93 30-16 66-15 98-27 36-14 75-23 114-24 32-1 67-16 96 5 38 24-2 56-29 65-31 14-7-38-34-43-33-18-73-11-109-5-43 12-85 30-122 54-28 20-35 71 4 82 34 12 70-1 105-1-18 9-35 22-55 26zm283-169c4-13 23-34 36-30-12 10-21 25-36 30zm-250-75c5-18 18-42 30-52-15 16 2 52-30 52zm608-54c-40-13-75-37-115-48-9-20 39 6 11-14-5-9 22 4 28 8 29 18 58 36 85 57l-5-1z"/><path fill="#19200e" d="M171 525c-10-1-30-3-8-4 10-9 29 5 8 4zm-70-117c-4-24 51-33 51-23-17 8-33 19-51 23zm300-19c-2-41-52-29-79-34-21-15 29-13 38-16 26-6 81 7 64 43-2 8-25 22-23 7zm53-32c5-14 23-34 36-30-12 10-21 25-36 30Zm352-131c-37-15-72-34-110-48-2-17 38 7 12-13-4-8 23 5 30 10 27 16 54 32 77 54l-4-2z"/></svg>