<svg xmlns="http://www.w3.org/2000/svg" width="32" height="32" viewBox="0 0 410.7 417.3"><path fill="#d3c5ad" d="M179 416c-47-4-95-24-125-61-38-42-59-99-53-155 4-42 12-87 41-120 26-31 62-53 101-62 63-33 145-21 195 29 50 47 77 118 71 186-3 34-19 65-35 95-24 41-63 73-110 83-28 7-56 8-85 5z"/><path fill="#cbaa92" d="M183 416c-53-5-108-28-138-74-26-33-39-75-40-116-2-50 6-105 40-143 14-20 47-4 60-27 9-23-13 3-22 4-4-9-26 6-11-7 18-9 41-30 61-17 22-4 41-17 63-20 30-8 60-2 90 4 48 12 82 55 101 100 11 29 21 60 22 92 1 33-10 65-25 94-18 44-55 79-98 98-32 13-68 13-103 12zM81 132c22 7 59-10 44-37-14-17-53-1-38 21 1 10-27 15-8 19l1-1zm-12-10c12-5 5-49 0-22 0 5-9 23 0 22zm68-92c-17-10 31-13 7-3l-7 3z"/><path fill="#b99b8b" d="M179 415c-47-5-95-24-125-62-28-31-42-73-46-114-3-32-3-64 6-94 8-18 21-42 36-50-9 13 0 31 11 12 1 12-7 40 14 34 7 10 15 18 20 1 16-7 47-13 37-40-8-18 9-4 11 5 11 7 45-1 41-16-18-5-39-43-55-16-11 11-16-2-8-9-20-18 22-26 34-35 24-8 50-16 76-14 20 13 44 1 66 12 30 7 54 30 70 56 12 19 21 40 23 63 8 24 21 47 18 73-1 39-18 74-36 107-29 51-84 85-142 88-17 1-34 1-51-1zm160-116c19 5 3-36 4-11-6 2-18 13-4 11zm-15-23c2-25-35-15-10 2 3 1 7 1 10-2zm5-82c-12-14 14-42-15-46-7-7-26-5-8 2 21 12 1 36 21 48 2 1 2-4 2-4zm-49-22c18 3 9-36-4-20-19-23-10 26 4 20zM190 67c-1-6-13-6-1-11 23-13-27-28-9-10-8 4-29 9-12 20 6 5 17 9 22 1z"/><path fill="#ca8e71" d="M163 412c-61-9-119-50-136-110-6-18-9-36-9-54-11-21-16-53 2-72 18-7 12-26 2-32 8-10 17-23 28-18 15-25-4 24 17 19 12-1 28 32 26 5 2-21 31-2 37-24 7-20 27-21 42-14-9-10 22-10 13-20-17-11-30-37-55-25-26-14 15-31 29-35 25-4 50-17 76-11 12 3 14 12-1 7-20 4 17 8 24 8 18-14 39-5 51 13 6 11 18 4 14-7 18 14 35 34 38 57 25 13 21 45 34 67 18 39 15 86-5 124-11 31-28 60-53 80-31 29-72 45-115 46-20 1-40 0-59-4zm176-113c19 5 3-36 4-11-6 2-18 13-4 11zm-15-23c3-26-37-13-10 1 4 1 7 1 10-1zm5-82c-9-16 12-43-17-47-12-14-30 1-36 0-4-11-24-26-18-4 0 17 26 45 34 23-7-17 10-27 20-10 8 8 3 48 17 38zM68 169c0-14-32-33-20-10 7 4 11 16 20 10zm83-23c13-25-27 4 0 0zm39-78c-5-8-9-11 3-16 11-15-29-21-16-5-15 2-24 18-4 23 5 2 11 1 17-2zm20-31c8-17-23 10-4 5l4-5z"/><path fill="#b58b6e" d="M163 412c-61-9-119-50-136-110-6-18-9-36-9-54-12-21-16-54 3-72 12-5 19-29 1-29 3-7 19-32 21-13 6-1 17-28 12-7-1 22 29 20 36 35-1-18 9-25 25-24 15-5 16-25 34-19 7-17 29 2 31 15 7-28 27 7 36 6 9-15-16-30-7-46-6-9-7-19-12-6-15 2-11-19-3-19 10-1-12-15 5-15 16-3 12-21 30-15 15-1 32 2 41-10 23-8 35 22 46 31 14-4-4-27 13-13 13 15 30 33 31 53 16 7 22 28 24 45-6-5-19-16-11-1 3 8 8 27 16 19 11 20 14 43 17 65 6 22-26 20-17 42 3 26-14 50-26 72-30 36-72 67-120 72-27 4-54 2-81-2zm185-98c8-3 33-28 16-25-5 7-24 20-19 26zm-7-10c11-6 22-23 12-27 15-16 0-38-17-35 4 13-3 36-15 15-5-14-20-15-28-10 6-9 5-22-8-11-10 16 24 16 13 34 3 20-24-4-14 15 10 20 28-16 31 9 7 24 6-25 12-2 3 6 5 18 14 12zm44-48c0-11 12-45-5-29 7 7-4 25 5 29zm-14-3c-5-14 0-45-22-36-19-6-18-27-7-38-6-21-15-36-33-49-9-14-38-31-46-30 3 18 41 18 32 37-6-5-14-9-17-9-4-14-10 8-18-4-6 13-25 37-4 46 3-1-9 10 1 15 11 12-11-1-3 11 5 19 23-1 15-13 8-13 18-2 18 7 7 3 20 25 18 5 10-25 32 24 6 21 1 14 26 6 30 15 19-5 24 15 28 27 2 0 1-4 2-5zm-74-73c-4-9 5-22-6-28 12 4 29 4 23 22-2 8-11 11-17 6zm-19-30c-13-11 5-20 5-5l-5 5zm-5 106c10-10-14-26-6-6-1 4 2 11 6 6zm92-52c2-23-20 7 0 0zm28-11c-23-16-25-45-39-68-4-11-27-23-12-4 16 21 24 46 34 70 3 8 14 13 17 2zM65 171c7-10-11-20-14-30-13 5-6 23 4 24 1 4 6 9 10 6zm168-23c25-12-27-3 0 0zm-80-4c9-18-26 5-3 3l3-3zm94-31c-8-12-2-39 16-29 2-18-27-16-26-12-1-21-15 5-9 15 0 11 4 26 19 26zm112-8c-4-6-24-30-24-17 3 4 25 32 24 17zm-32-11c2-13-32-19-13-6 3 1 21 19 13 6zm-49-39c1-9-6-25-8-8 1 3 4 9 8 8zM161 66c-17 1-51-11-22-26 8-11 41-11 19 4-4 7 7 14 3 22zm25-29c-18-2 2-20 11-9 8-15 50-9 42 1-17-9-36 1-48 9z"/><path fill="#c6715f" d="M171 413c-56-7-112-38-135-91-6-9-6-26 0-29-2-14 12-32-8-35-17-19-17-44-8-64-3-23 11 3 12 10 1-11 0-46 21-35 4 11 11 19 21 8 19 4 30-32 44-22 13 18-7-23 15-15 10 2 0 19 12 10 19 2 27 39 48 18 11-8 2-21-7-10-13 4-22-23-4-16 5 2 23-2 34-1 8-15-11-34-8-52-1-7-8-15-14-6-1-9 3-21 5-26 14-16 31-25 53-14 11 0 34 22 27 0 18-19 24 22 43 24 13 4 14 26-1 13-8-12-27-8-11 5 21 18 37 41 50 66 13 12 6 55 31 44 3-15-23-19-22-37-8-20-14-42-31-56-11-20 19 13 30 13 15 0 21 42 5 20-4 14 15 32 23 44 10 19 9 42 10 62-7 10-24 13-15 29-1 27-15 53-30 75-30 35-70 65-118 68-24 4-48 4-72 0zm177-99c8-3 33-28 16-25-5 7-24 20-19 26zm-7-10c11-6 22-23 12-27 15-16 0-38-17-35 3 12-2 37-15 15-2-14-24-14-23-12 6-22-31-6-10 3 16 9 14 35-5 30-4 20 32 6 28 7-2 11 15 23 11 5 1-20 9 27 19 14zm44-48c0-11 12-45-5-29 7 7-4 25 5 29zm-14-3c-5-14 0-45-22-36-18-5-20-26-8-36-3-19-11-39-30-47-12-16-34-35-49-35 2 18 44 20 31 37a24 24 0 0 0-45 16c-10 11-7-23-21-8-8 19 17 29 8 48 10 7 12 1 8-9 1-9 13-19 11-3 4 5 7 14-2 8-5 17 20 23 16 4 3-18 21-13 21 3 4 8 21 13 14-1 17-20 33 22 8 23 0 13 28 5 28 15 21-10 25 19 31 25l1-4zm-74-73c-16-20 29-33 17-5-3 5-11 7-17 5zm-24 76c14-10-21-26-6-5-1 3 2 9 6 5zM65 206c8-16-33-39-19-12 3 6 11 20 19 12zm300-2c2-23-20 7 0 0zm-119-87c6-14-7-37 14-34 3-16-35-31-34-5 1 18 8 40 18 52 3-4 2-9 2-13zm-23-40c-7-2-14-25-18-14 7 4 6 32 18 14zM36 156c-13-12 20-25 5-5-1 2-2 6-5 5zm128-27c-24-13 28-9 5 2l-2-1zm-13-66c-15 4-15-23-3-22 15-20 15 29 3 22zm33-28c-5-13 23 3 2 1l-2-1z"/><path fill="#b06e54" d="M171 413c-56-7-112-38-135-91-6-9-6-26 0-29-2-14 12-32-8-35-17-19-17-44-8-64-3-23 11 3 12 10 1-11 0-46 21-35 4 11 11 19 21 8 19 4 30-32 44-22 13 18-7-23 15-15 10 2 0 19 12 10 19 2 27 39 48 18 12-8 2-21-7-10-13 4-21-23-4-16 8 5 48-10 42 15 2 12 23 13 9 26-9 6-7 14 5 11-1 15 10 2 15 14 15 7 27-2 38-9 16 9 16 34 38 34 5 26-30 5-33-6-3-12-17-12-8 1 1 8-15 10-6 1-31-3-20 33-5 44-5 6-18 14-1 13 20 1 2 28 6 26 4 7 1 10 11 8 18 15 25-28 37-8 12 4 22 18 22 27 8-3 22-36 23-17-16 32-45 56-75 75-38 19-83 21-126 17zm164-63c17-6-1-45-6-17 0 5-4 20 6 17zM65 206c8-16-33-39-19-12 3 6 11 20 19 12zm238 93c-28-2 25-24 4 1-1 0-4 1-4-1zm60-23c-7-16 27-11 6-1-1 1-5 4-6 1zm-77-3c-3-19 20-12 5-1l-2 1zm90-20c1-9-16-33-2-33-2 9 15 30 2 33zm-35-45c-17-4 12-23 9-2 1 5-6 5-9 2zm-27-2c-18-17 28-7 4 3l-3-1zm39-23c-23-1-2-29-18-37-7-13-24-14-18-31 2-12-14-9-8 1-13 2-19-19-36-18-14-8-2-29-23-33-12-12-26-1-32 6 8-8 14-16 3-25 5-13 17 10 27-1 14-11 31 29 34 0 1-23 22 9 29 16 15 14 4 16-9 11-8 18 17 23 24 30-16 3 13 31 11 17 14 9 9 30 25 38 5 9 5 27-9 26zm-55-4c-8-10 15-1 6-13 16-11 10 25-6 13zm84-1c-11-6 0-25 1-7 2 3 6 12-1 7zM36 156c-12-12 20-25 5-5-1 2-2 6-5 5zm207-14c-13-10-51-30-22-45 7 3 9 20 14 18-6 9 18 25 8 27zm121-4c-4-15-30-37-27-44 9 14 25 23 38 24 7 7 3 26-5 9-7-12 1 15-6 11zm-200-9c-24-14 30-9 5 2l-3-1zm98-9c-6-15 27-2 7 1-1 5-6 4-7-1zM151 63c-18-1-12-22-1-25 14-5 2 11-2 15 5 5 19 9 3 10z"/><path fill="#b0534c" d="M175 414c-46-6-92-26-121-63-21-17-18-47-1-65 0-10 2-22 10-7 0 10 14 17 5 3-5-10-12-47-24-33 6 7 8 21-1 8-7-12-6-40 11-22 21 6 8-43 23-17 6 10 25 2 28 1 7-20-36-29-13-45 20-9 41 13 26 31-8 15 14 43 19 32-6-5-20-29-4-15 7-5-5-6 6-6 5-6 4-31 13-13 9 10 44 1 31 24-1 26 27 0 24-14-2-10-28 1-27-15-20 1-29-33-2-23 9 8 23 36 34 13 23-3 7 36 25 36 1 14 7 27 22 23-7 13-4 24 4 36 2 13-32 15-10 21 14-1 37-25 28 3-7 22 31 19 38 4 24-9-2 54 23 33-2-9 1-33 6-12 2 26 29-36 26-9-13 25-34 44-55 60-42 29-95 40-144 31zm141-60c15 0-2-19-3-2-4 3 1 5 3 2zm-40-27c-7-14-18 5-4 4l2-2zm-42-27c13-6-4-32-3-11-14 1-6 21 3 11zm-20-33c12-6-7-21 1-27-21 3-17 35-1 33v-6zM76 255c8-20-25 5-1 3l1-1zm287 18c2-20 19 4 1 4-2-1-1-2-1-4zm13-20c1-10-16-28-2-33-2 9 16 30 2 33zm-59-10c-13-7-43-29-26-41 19 4 7 35 26 27 16 0 19 20 0 14zm-34-12c-12-3-27-1-29-13-1-15 44-7 30 14zm-255-8c-20-15 8-16 8-2-2 2-5 2-8 2Zm24-7c-12-5-10-20 0-7 1 1 4 7 0 7zm288-8c-15-18 24-2 3 2l-3-2zm-26-3c-14-16 26-5 4 3h-1zm39-22c-20-3-2-30-19-40-5-9-30-18-10-27 22 5 23 36 40 48 4 9-1 20-11 19zm-132-3c-11-5-27-5-22-22 7-17 30 0 24 7 12-2 11 25-2 15zm-83-2c2-10 10-37 19-16 0 9-10 19-19 16zm236-49c-9-9-8-17 2-4 5 3 2 7-2 4zm-149-1c-22-12 0-42 6-10 3 5 1 13-6 10zm76-13c-7-19-43-14-37-40-9-16-38-12-40-32 23 9 51 7 67 29 8 9 25 23 24 34-18-10 3 21-14 9zm2-48c-14-1-23-30-3-16-2 7 21 26 3 16z"/><path fill="#924c38" d="M175 414c-43-6-87-23-116-57-16-14-29-38-14-58 12-6 5-41 18-20 0 11 15 16 5 3-5-10-11-47-24-34 6 11 5 19-2 4-8-12-1-35 13-16 17 7 8-42 21-19 7 13 17-1 29 5 11-20-41-37-10-49 19-4 36 14 22 30-7 14 14 45 19 32-8-5-17-28-2-13 6-4-9-9 3-4 10-3 2-34 15-15 12 9 43 5 31 30 3 10 26 6 16 23 0 14 20 34 22 12 12-6 8-35 0-16-10-3 10-19-5-26-12-12 0-15 7-3 21 13 10 35 7 54-6 12-21 30 3 29 21 0 11 33 36 29 15-2 49-10 35 16-6 10-9 10 4 8s5 22 14 7c11-15 32-9 39-29 6-10 14-12 4 0-26 38-67 66-113 75-25 5-51 7-77 2zm58-71c-7-11 20-25-2-26-14-9-4 41 2 26zM76 255c8-20-25 5-1 3l1-1zm184 64c-18-11 17-13 2 2l-1-1zm-11-34c-15-9 6-20 5-5 0 2-2 9-5 5zm-43-41c-11-11 8-29 6-7 3 4-2 8-6 7zM28 223c-18-10 6-18 9-3l-9 3zm24-7c-10-6-13-19-1-8 1 1 6 8 1 8zm137-8c1-18-45-16-24-34 14-4 42 27 24 34zm20-2c-20-10 26-19 7-1l-7 1zm-59-36c-18-7 3-29 8-10 1 5-2 12-8 10zm129-88c-14-5-2-30 5-11-2 0-1 17-5 11zm17-20c-18-10 10-20 5-5l-2 2z"/><path fill="#912d27" d="M185 416c-41-8-86-18-116-50-15-13-40-41-14-54-15-13 32 13 21-11 5 8 31 21 19 1 16-14 31 10 40 20 20 0 24-50 42-24-9 11 15-5 21 7 12 9 27 13 20 30 0 14 16 15 20 4 21 7 40-8 62-6 17 0-3 35-1 12 0-24-13 18-13 18 11 2 31-11 29 9 6-2 29-22 22-4-35 36-88 46-136 49l-16-1zm9-75c17-14-19-2 0 0zm-12-9c-11-4-11-46-21-21 0 11 10 19 21 21zm26-1c6-16-33-28-15-8 5 3 11 4 15 8zm-33-44c-26 3 9-26 2 1h-1zm-52-37c-21 8-19-36-4-12 1 1 12 18 4 12zm38-65c4-25 25 12 0 0z"/><path fill="#661b19" d="M181 414c-40-6-80-17-109-45-13-9-32-38-27-45 15 6 34-20 44 0 1-13 41-3 19-17 14-19 18 26 17 21 13-1 29-16 31 5 8 12 20-4 21 11 16 3 10 48 38 30 12-7 28-22 39-7-1 9-23 16-6 24 8 3 22-18 15-2 20 8 42-8 61-12-33 32-82 38-127 39l-16-2zm25-50c-9-12 9-34 7-11 0 5-1 11-7 11zm-95-120c-13-17 10-14 9 0-3 2-6 1-9 0z"/></svg>