<svg xmlns="http://www.w3.org/2000/svg" width="32" height="32" viewBox="0 0 774.5 813.3"><path fill="#f5c0bb" d="M334 812c-80-5-167-23-223-86-50-46-83-110-92-177-16-56-32-121 2-174 25-48 59-90 101-124 34-44-50-86-21-128 17-2 16 23 19-5 5-33 30 32 33-8 5-55 37 57 47-1 2-48 41 41 41-12 16-37 25 22 12 36-16 51 36 70 74 52 37-15 57-58 99-65 36-36 106 33 124-21 6-25-2-94 25-87 4 16 14 54 22 16 27-42 18 72 48 28 11-47 45-15 27 19 22 33 35-16 52-13 4 17-21 65 14 38 20 8-21 48-42 42-50 9-50 71 3 72 42 25 50 78 66 120 14 38 7 77-7 113-18 72-63 139-131 169-33 21-85 11-102 52-10 41-37 73-73 95-33 21-69 43-108 50h-5z"/><path fill="#e6aaab" d="M335 812c-80-6-167-23-223-86-52-48-84-114-94-183-14-53-29-114 2-164 22-37 41-79 78-102 33-24 43-77 7-104-22-25 0-62 13-47-4-41 43 24 33-16 18-48 27 52 48 4 8-33 17-9 34 3 5-11 20-54 25-14 2 29-28 85 23 88 51 12 81-35 120-58 41-38 97-8 141-14 28-27-7-89 32-107 3 15 12 55 24 20 14-39 23 14 24 29 22 24 45-68 52-14-20 30 25 58 37 20 38-22-18 67 22 36 30-12-7 38-25 37-40 4-81 52-24 66 41 22 63 66 74 110 17 42 21 91-1 132-20 79-75 153-155 178-62-3-82 53-104 99-42 39-93 72-149 87h-14zm76-63c20 6 66-46 26-18-51 29-112 7-159-18-56-37-86-101-120-157-18-42-24-88-34-132 0 64 15 129 56 180 33 56 72 117 139 136 30 9 61 8 92 9zm79-68c41-83 46-182 20-271-20-37-43-82-75-108-10 34 42 62 58 93 27 48 26 106 18 159 13 47-15 95-29 134l4-2zm65-84c84-18 134-100 156-177 17-53 1-108-16-158-14-50-68-52-108-66-45-1-56-51-97-57-20 4 33 18 32 37 30 45 18 98-15 138-12 18-1 59 10 20 42-19 40-79 88-98 49-32 96 20 96 68 15 45 9 95-10 138-14 38-32 75-58 108-18 10-99 34-78 47ZM343 480c9-55-32-97-50-144-5-41-49-78-18-115 3-21-19 38-32 45-9 26 21 46 14 76-6 53 56 67 60 115 3 13 12 26 26 23zm-215-82c-5-49 16-107 61-131 36-9 6-20-11-5-43 29-63 86-50 136Z"/><path fill="#c51e32" d="M337 811c-82-6-171-24-228-89-47-45-79-107-88-172-17-59-33-129 7-183 24-40 49-83 90-107 44-44-37-91-17-136 17 5 17 23 21-6 9-24 25 34 32-2 4-30 17-19 20 4 21 26 31-13 34-24 12 12 35 41 33 3 19-37 17 30 10 43-18 57 51 59 85 42 39-29 75-72 128-70 37 5 101 27 91-35-2-18 1-68 20-63-4 28 22 45 28 9 20-23 8 68 42 35 2-26 37-40 25-5-7 28 29 52 37 14 28-20 16 16 5 27 1 35 48-16 23 23-21 32-91 20-79 73 25 21 64 28 78 64 18 38 33 80 37 122-1 49-23 95-42 139-34 63-99 109-170 117-47 22-41 89-88 113-37 29-80 53-126 64zm76-61c68-20 98-96 108-160 13-76 12-160-33-225-15-21-35-63-57-63-6 40 44 60 60 94 28 46 25 103 19 154 5 45-4 88-25 127-23 45-75 79-126 63-57-9-113-39-141-91-41-56-75-119-84-188-12-58-10-125 29-173 31-45 95-13 91 37-1 43 22 77 50 106 10 14 27 72 42 36-3-37-16-73-39-103-17-34-24-72-42-106-6-13 34-69 2-38-3 36-39 64-66 33-50 5-76 64-79 109-1 60-2 124 21 181 25 53 59 102 94 148 45 48 112 65 176 59zm142-151c77-15 124-87 151-155 18-44 18-94 4-138-7-41-26-92-73-97-50-10-96-30-130-66-16-13-76-17-69-10 71-5 129 87 87 147-11 16-45 69-14 71 10-29 53-34 52-72 19-39 91-75 117-26 45 75 26 170-14 243-16 38-48 64-87 78-8 5-65 29-24 25z"/><path fill="#bc2038" d="M337 811c-82-6-171-24-228-89-47-45-79-107-88-172-17-59-33-129 7-183 24-40 49-83 90-107 44-44-37-91-17-136 17 5 17 23 21-6 9-24 25 34 32-2 4-30 17-19 20 4 21 26 31-13 34-24 12 12 35 41 33 3 19-37 17 30 10 43-18 57 51 59 85 42 39-29 75-72 128-70 37 5 101 27 91-35-2-18 1-68 20-63-4 28 22 45 28 9 20-23 8 68 42 35 2-26 37-40 25-5-7 28 29 52 37 14 28-20 16 16 5 27 1 35 48-16 23 23-21 32-91 20-79 73 25 21 64 28 78 64 18 38 33 80 37 122-1 49-23 95-42 139-34 63-99 109-170 117-47 22-41 89-88 113-37 29-80 53-126 64zm76-61c68-20 98-96 108-160 13-76 12-160-33-225-15-21-35-63-57-63-6 40 44 60 60 94 28 46 25 103 19 154 5 45-4 88-25 127-23 45-75 79-126 63-57-9-113-39-141-91-41-56-75-119-84-188-12-58-10-125 29-173 31-45 95-13 91 37-1 43 22 77 50 106 10 14 27 72 42 36-3-37-16-73-39-103-17-34-24-72-42-106-6-13 34-69 2-38-3 36-39 64-66 33-50 5-76 64-79 109-1 60-2 124 21 181 25 53 59 102 94 148 45 48 112 65 176 59zm-27-81c24-21-7-28-13-4 3 4 9 3 13 4zm169-70c77-15 124-87 151-155 18-44 18-94 4-138-7-41-26-92-73-97-50-10-96-30-130-66-16-13-76-17-69-10 71-5 129 87 87 147-11 16-45 69-14 71 10-29 53-34 52-72 19-39 91-75 117-26 45 75 26 170-14 243-16 38-48 64-87 78-8 5-65 29-24 25zm-19-17c8-40 4-82-5-122 7 40 0 82 5 122zm26-13c6-37-37 8 0 0zm36-11c21-31-51-18-15 1 5 2 11 2 15-1zm29-21c27-40-40-2 0 0zm-49-18c4-40-32 10 0 0zm62-16c29-38-47-13 0 0zm-26-30c1-43-34 12 0 0zm53-3c4-32-50 1-10 4l6-1zm-68-36c9-41-34 6 0 0zm13-30c9-39-37-2 0 0zm-90-3c14-11 12-10 22-8 4-13-32-12-19 4-7-21-17 7-3 4Zm62-10c3-41-37 1 0 0zm87-5c9-36-39 3 0 0zm-61-17c25-36-57-25-14 1 4 3 10 4 14-1zm-105 0c-12-19-49-81-48-69 15 23 25 51 48 69zm52-8c31-20-41-21-5 2 2 2 3 0 5-2zm129-9c12-32-43 13-3 1l2-1zm-46-18c6-35-33 13 0 0zm-51-33c5-38-40 7 0 0zm67-9c-12-38-25 29 0 0zm-211-11c-20-32-54-52-87-67 30 20 64 43 87 67zm9-23c25-26-43-8-3 2 2 0 2-1 3-2zm214 0c11-39-38 10 0 0zm-177-7c10-43-33 14 0 0zm-20-34c26-32-32-6 0 0zm-101-50c12-13 52-40 12-20-5 2-32 41-12 20zm49 10c5-44-44 14 0 0zm30-12c33-15-11-12-2-17-7-30-23 35 2 17zm206-10c23 2 27-36 4-12-7 1-20 17-4 12z"/><path fill="#920f21" d="M396 744c-58-7-124-20-160-72-33-41-60-86-82-134-21-63-35-132-18-198 9-46 71-108 108-51 18 44 3 100 51 131 23 11 18 81 51 51-1-45-23-86-48-126-7-44-59-95-12-134 51-19 96 34 135 61 9 34 14 71 45 94 29 26 44 62 46 100 4 50 0 101-6 152-10 49-37 101-87 119-7 4-14 9-23 7zm36-26c33-38-51-12 0 0zm-44-50c24-31-21-24-11 0h4zm88-5c37-16-36-48-10-8-1 5 6 15 10 8zm21-101c37-38-65-5 0 0zm-126-2c26-34-56-25-15-3 5 2 10 6 15 3zm37-52c42-32-58-35-10 1h5zm-37-34c20-33-50 12 0 0zm38-40c23-30-25-7-5 1zm76-10c32-34-54-7-7 2l7-2zm-167-74c33-26-41-35-16-5 4 5 10 7 16 5zm-2-80c18-36-54 4-6 3l6-3zm221 318c7-53 6-111-18-161-9-20 52-54 10-42-28 9-31-48-53-64-18-27-38-53-61-75-48-4-81-75-25-95 46-35 123-12 140 45 26 50-15 97-33 140-3 23 25 23 20 0 52-14 38-85 94-100 44-25 83 18 87 60 4 34 15 67 4 100-10 50-32 97-60 139-29 24-68 48-105 53zm24-17c15-34-40 2 0 0zm35-11c20-43-57-6-3 0h2zm31-21c36-47-51-5 0 0zm-48-21c-3-49-39 19 0 0zm23-8c21-26-40 5-4 0l2-1zm39-6c24-43-50-6 0 0zm-27-35c-14-43-22 39 0 0zm53 3c10-36-57-1-9 2 3 1 6-1 9-2zm-90-19c19-35-54-8-5 0h2zm-37-12c29-19-37-42-10-7-1 5 6 15 10 7zm95 0c19-37-40 1 0 0zm38-1c16-46-39 10 0 0zm-73-5c14-46-47 2 0 0zm13-31c10-39-34 2 0 0zm-27-14c2-38-40 2 0 0zm86-4c5-37-39 8 0 0zm-64-14c33-29-51-44-16-5 4 5 10 8 16 5zm-48-12c27-29-49-12-7 5 3 1 7-1 7-5zm120-5c34-26-45-4 0 0zm-37-22c-2-36-37 22 0 0zm-52-8c7-22-43 7-4 0h2zm0-26c-10-47-40 19 0 0zm64 0c14-53-45 13 0 0zm-199-41c32-34-47-7-5 0h5zm214-1c9-31-39 10-2 2l2-1zm-144-8c17-42-39 20 0 0zm-36 6c20-37-32-3 0 0zm-55-36c36-32-45-28-4 2zm38-2c19-43-36 4 0 0zm-80-6c14-33-27 4-5 2zm26-33c10-37-45 9-3 2zm31-12c42-14-40-36-14 0 3 5 11 4 14 0zm-290 45c-4-31-64-70-29-96 29 39 18-18 32-16 8 26 43 47 41 5 34-12 44 75 4 70-37-33-46 8-43 38zm478-59c15-22 1-55-22-29-51 2-41-91-4-98 7 16 15 65 36 31 3-38 41-20 19 9 1 47 60 3 53 5 9 46-51 65-82 82z"/><path fill="#580c1d" d="M395 744c-58-7-124-20-159-72-34-43-64-90-84-140-23-74-43-161 3-230 15-41 77-50 93-7 14 35-3 85 34 109 31 10 26 94 67 65-6-49-32-91-55-133 1-41-51-79-17-116 44-39 89 15 127 35 40 23 10 72 51 96 27 31 54 65 56 108 5 52 0 104-4 155-10 56-44 112-100 129l-6 1zm-45-26c40-9-44-15-5 2l5-2zm86-1c32-41-58-8-5 2l5-2zm-119-2c28-41-56-6-4 2zm64-3c21-2 32-28 4-24-9 4-18 20-4 24zm78-4c38-30-34-26 0 0zm-175-4c25-23-48-26-15-6 4 2 10 10 15 6zm78-10c21-39-61-2-8 1h4zm57-12c28-27-45-11-8 3zm-123 0c12-46-48 12 0 0zm26-7c34-18-31-46-13-6-1 7 9 14 13 6zm125 0c36-22-38-34-10 0 3 2 8 4 10 0zm-60-4c34-21-27-36-13-3l6 2zm-133-5c42-5-23-51-16-5 2 7 11 11 16 5zm223-2c40-15-34-54-13-12 1 6 5 21 13 12zm-115-4c25-47-57 3-1 1zm-131-12c41-6 1-59-18-27-1 8 8 38 18 27zm62 2c26-32-50-7-5-1zm135-5c38-43-59-18-4 1l4-1zm66-14c38-43-64-25-4-1l2 1zm-89-2c21-42-59-7-15 2h8zm-129-2c15-40-47 3 0 0zm64-2c24-18 4-41-15-18-9 12 2 26 15 18zm-127-14c25-32-60-35-16-5 5 4 10 7 16 5zm234-1c45-31-61-26-5 1l5-1zm-192-9c8-32-53 3-13 0 3 3 10 4 13 0zm39-2c40-27-47-14-8 3l8-3zm121 1c26-31-52-21-16-1 4 2 11 5 16 1zm-98-3c32 0-4-56-3-16-1 5-12 26 3 16zm54-8c16-43-67-7-15 3 5 1 11 0 15-3zm120 2c31-39-52 2 0 0zm-229-12c12-38-61-3-14 2h8zm-40-2c30-23-33-39-16-4 3 6 11 9 16 4zm241-4c19-29-42 6-1 1zm-268-4c30-30-42-21-13 3h7zm234 0c29-23-43-14-5 1zm-153-3c40-22-43-41-8 0l4 1zm221-2c36-24-45-30-16-1 4 3 11 5 16 1zm-123-10c19-41-63-10-17 4 5 5 20 9 17-4zm32 4c29-36-52-25-14 2 4 2 12 4 14-2zm-73-6c31-40-35-15 0 0zm-77-4c10-51-50 7 0 0zm205 0c33-5-14-38-15-7-12 7 10 11 15 7zm-276-6c33-51-69-12-4 1l2-1zm32-4c23-39-47-6-2 2zm222-2c40-45-72-27-12 3h6zm-132-1c23-28-49-6-8 2zm185-6c34-34-55-18-5 5l3-2zm-213-4c38-20-42-37-18-17 21-9-8 26 18 17zm97-5c27-51-50-2 0 0zm-23-5c19-28-20-24-9-1l3 1zm-30 0c38-17-25-36-16-6l8 4zm142-3c44-17-41-60-20-33 40 12-27 0-2 23 6 5 13 12 22 10zm-56-3c43-29-51-36-15-2 3 5 10 3 15 2zm-246-2c43-33-55-34-4 2zm73-1c30-22-45-25-10 2 3 1 7 1 10-2zm-29-4c31-46-64-16-10 3l10-3zm58-14c32-26-36-29-10-3 3 8 7 4 10 3zm42-2c9-39-35 16 0 0zm64 0c35-25-39-40-13-8 3 2 7 13 13 8zm130-8c21-29-34-7-39-26-14 11 30 35 39 26zm-265-8c12-50-47-1 0 0zm-86-1c45 1-5-64-12-18-2 7 0 27 12 18zm53-10c14-45-54 8-2 0zm96-3c26-38-34-3 0 0zm195-3c28-33-58-8-8 2l3-1zm-58-2c30-29-47-3 0 0zm-174-11c41-24-41-35-12-3 4 3 8 10 12 3zm115-1c21-33-53-6-9 3 3 1 6-1 9-3zm33-5c28-44-36 8 0 0zm-271-2c26-12-11-55-8-16-2 6-1 21 8 16zm311-5c-4-37-37 18 0 0zm34-1c40-30-56-21-11 2h4zm-256-2c32-24-30-10 0 0zm-49-1c42-36-54-53-26-6 4 9 18 10 26 6zm32-6c26-31-42-16-11 6l6-2zm187-3c-3-32-37 16-1 1zm-35-7c17-35-56-17-15 2l8 1zm89-3c11-42-74-26-31 1 10 2 21-1 31-1zm-196-5c23-35-54-6-8 4 3 2 9 1 8-4zm214-5c25-26-51-31-14-5 3 4 9 8 14 5zm-73-3c18-42-61 2-7 3l7-3zm-192-6c29-27-51-26-15 0 4 3 11 4 15 0zm-52-1c34 0 10-64-14-37-11-30-5 62 14 37zm180-8c11-33-42 8-1 0zm25-9c48-7-42-39-12 0 4 2 8 3 12 0zm44-8c22-28-47-9-6 3l6-3zm-169-1c39-45-76-15-4 0zm203-3c31-41-65-2 0 0zm-114-4c30-30-50-43-20-3 6 4 13 5 20 3zm-130-10c18-38-64-12-15 0 4 2 11 4 15 0zm169-7c33-43-66-16-16 2 5 3 11 1 16-2zm-149-6c33-40-60-2 0 0zm186 0c41-22-49-27-7 1l7-1zm-155-10c21-31-42-20-11 1 4 1 7 0 11-1zm80-9c3-30-44 5-5 2 2 1 4-1 5-2zm-126-5c61-18-45-50-5 1zm221-2c33-44-67-10 0 0zm-51-5c18-48-72-5-5 2zm-53-24c31-32-56-13-8 1 3 1 6 0 8-1zm73-2c29-38-61-21-17-2 6 2 11 4 17 2zm-40-15c28-33-56-13-7 2h4zm-36-16c9-33-53-13-14 2 5 2 11 2 14-2zm21-12c26-20-58-20-15-1 4 3 10 3 15 1zm206 348c14-54-4-109-18-162 13-10 40-42 6-29-31-10-35-62-62-84-22-47-72-57-100-95-17-40 34-63 65-70 52-10 102 31 108 83 14 50-44 83-37 128 18 22 20-36 47-26 9-26 19-59 47-75 26-20 74-24 88 11 22 41 27 89 22 135-14 53-35 107-69 150-29 16-69 45-96 44l-1-5zm25-5c14-43-46 7 0 0zm34-11c29-33-58-26-14 1 4 2 9 2 14-1zm32-22c30-50-55 0 0 0zm-49-19c-4-57-42 22 0 0zm15-5c35-10-29-21-2 3zm46-10c25-29-46-16-7 1 3 1 5 0 7-1zm-64-15c12-31-49-7-7 1 2 1 4 0 7-1zm37-12c15-44-50 3 0 0zm52-2c23-37-60-13-12-1 4 3 8 1 12 1zm-88-22c20-32-55-14-12-1 3 2 9 4 12 1zm-38-10c34-17-38-47-11-10 1 4 5 19 11 10zm94-1c31-39-47-5 0 0zm40-1c24-42-43 3 0 0zm-75-4c22-39-49-7 0 0zm55-20c25-31-58-18-9 0l4 1zm41-7c4-39-32 18 0 0zm-83-4c22-33-48-12 0 0zm-26-14c4-48-45 3 0 0zm87-6c7-36-43 9 0 0zm26-9c18-44-36 8 0 0zm-88-6c31-33-58-42-19-4 4 5 13 11 19 4zm26 0c28-35-40-5 0 0zm-79-8c36-21-46-31-9 1 2 2 8 4 9-1zm127-8c26-35-51 3-4 1l2-1zm-42-21c-1-46-40 22 0 0zm-46-11c-12-26-42 14-6 2l6-2zm-103-2c5-41-36 9 0 0zm184 2c4-27-31 14 0 0zm-58-22c24-46-43-1 0 0zm-29 0c7-38-52 7 0 0zm65-1c17-54-49 14 0 0zm32 1c11-41-45 3 0 0zm-177-7c36-29-47-25-14-1 3 3 11 6 14 1zm91-20c21-31-31-5 0 0zm30-7c20-55-49 4 0 0zm-175-8c26-42-55 5 0 0zm214-1c9-40-50 15 0 0zm-149-3c28-29-39-5-1 1zm-32 0c27-52-48-1 0 0zm-54-35c39-29-44-39-9 1l4 1zm34 0c36-43-51-14 0 0zm45-2c35-26-56-13-11 3l11-3zm-121-6c18-49-39 18 0 0zm101-25c40-29-54-21-6 2zm-78-7c19-47-47 8 0 0zm34-13c43-30-58-23-5 3 2 0 3-2 5-3zm-290 41c-6-31-58-64-33-95 12 32 32 1 34-17 5 18 40 57 38 15 38-37 43 92 2 54-45-25-35 43-41 43Zm478-58c19-17-1-59-21-28-54 2-37-92-8-97 0 22 27 66 39 28 6-37 38-16 19 9-1 35 38 34 46 7 26 12-21 66-45 65-10 6-19 13-30 16z"/><path fill="#15091d" d="M396 743c-46-8-97-11-132-45-45-9-27-62-13-80-18-34-41 26-41 16-16-15-19-32 3-27 6-15-27-69-9-55-9 41 37 10 27 22-8 19-2 38 21 25-5-18 27-27-1-39-27-7-31-29-30-48-15-4-35 41-30 2-16-12-18-41-42-42 49-4 2-69-18-24 9-34 31-64 39-99-17-7-42-16-17-34s34-70 75-41c47 30 6 100 55 135 29 12 25 80 62 68 9-42-17-91-45-125-18-32 20 21 27-12 9-41-48 0-44-47-12-27-33-57 5-78 19-15 50 42 50 3-27-20 61 24 17 35-2 31 62 17 33-7 46 10 30 67 55 92 20 32 57 56 64 95 6 37-34 35-49 16-9 32 37 20 42 48 8-19 15-27 12 0-4 50 3 101-17 148-12 43-43 81-87 94l-6 2zm5-6c11-40-32 13 0 0zm-40-17c14-34-62 2-11 2l11-2zm74-1c40-29-50-38-16 0 5 3 12 4 16 0zm-120-1c32-18-25-42-19-28 18-58-83 12-11 12 14 0 17 24 30 16zm73-5c45-28-55-21-2 1zm73-5c33-34-41-22-3 2zm-98-12c11-55-69 9-4 0h3zm56-12c35-25-48-26-13 2 4 2 9 1 13-2zm-96-8c37-15-31-55-16-7 0 8 10 16 16 7zm125 0c40-31-52-31-7 3h4zm-58-7c34-47-59 6 0 0zm-135-2c45-3-19-59-19-10-1 9 12 18 19 10Zm223-2c42-19-40-57-15-11 1 7 8 21 15 11zm-116-3c30-49-65-11-3 3zm-68-10c21-16-25-29-19-45-37-11 3 59 19 45zm133-6c47-39-59-34-9 1 3 1 6 0 9-1zm69-10c33-24-33-63-30-18 7 10 21 11 30 18zm-94-4c31-50-75-7-4 1zm-90-4c-5-33-33 20 0 0zm25 1c48-15-29-53-15-6 3 5 9 9 15 6zm120-2c31-34-38 0 0 0zm-10-16c50-22-53-41-15-3 3 6 10 5 15 3zm-159-8c51-17-41-43-8 1h4zm128-2c22-50-73-7-5 2zm-97-3c35-3-9-60-7-16-3 8-12 31 7 16zm52-7c17-49-65-8-17 2 6 0 12 1 17-2zm121 1c25-40-50 7 0 0zm-26-19c19-32-49 1-8 4zm-38-2c40-40-48-8 0 0zm-150-4c25-8-11-73 12-32 64 1-27-70-34-19 21 15-10 57 22 51zm221-3c24-12-12-42-24-21 9-48-58 12-11 7 13-3 17 30 35 14zm-126-2c32-37-60-40-24-3 7 4 16 4 24 3zm31 1c29-26-31-58-25-12 2 11 17 12 25 12zm-71-10c29-21-21-38-10-3 1 4 7 7 10 3zm-78-3c27-31-53-30-14 0 4 3 10 4 14 0zm181-10c40-24-40-57-19-78-35-3-41 56-7 60 4 10 12 26 26 18zm49-4c36-1-4-60-15-23 40-32-62-66-30-14 12 16 35 19 45 37zm-104-20c11-46-45 20-1 1zm-58 1c46-23-50-34-10-1l5 1zm31 0c21-42-39-12-3 1zm-119-9c31-43-55-5-1 1zm-29-3c41-32-55-48-25-4 6 8 17 6 25 4zm61-17c33-22-37-42-17-4 3 6 12 11 17 4zm40-1c16-34-41 12 0 0zm64 0c41-24-47-45-13-5 4 3 8 6 13 5zm-134-16c21-29-44-34-16-3 3 5 11 8 16 3zm153-3c28-25-24-19 0 0zm-187-8c29-34-55-19-17 2h9zm98-3c26-63-52 4 0 0zm194-4c28-38-60-9-13 2 5 4 9 0 13-2zm-57-2c29-25-52-7-4 2zm-167-7c31-35-54-47-21-5 5 5 14 9 21 5zm107-5c22-38-58-6-12 4l7-1zm32-3c29-41-45 3 0 0zm38-5c16-32-50-4-6 2l6-2zm37-4c40-40-66-13-8 2l8-2zm-254-4c24-19-51-48-35-8 12 12 24 0 31 13l2-2zm-52 2c48-49-71-48-20 0 6 3 14 2 20 0zm219-9c13-32-51 1-6 2l6-2zm-33-9c19-40-65-18-16 3 5 2 12 1 16-3zm88 0c18-43-76-35-34-1 11 3 22 1 34 1zm-196-6c22-45-66-4-4 4zm213-5c31-28-55-38-15-6 3 4 10 11 15 6zm-75-3c32-43-60-10-12 0h6zm-190-6c34-35-53-21-14-1 4 1 9 5 14 1zm24-5c35-41-47-5 0 0zm106-5c16-34-51-3-7 2l7-2zm23-8c52-18-56-34-7 2zm43-8c34-40-63-11 0 0zm-168-2c33-22-49-45-12-77-27-41-50 21-26 37 7 26 5 45 38 40zm203-2c29-44-60-5-4 1h2zm-245-13c29-37-69-26-16-2 5 3 11 4 16 2zm167-6c48-25-53-53-24-4 5 7 16 6 24 4zm44-9c38-34-58-20-9 1zm-156-11c16-48-56-2-4 2l2-1zm76-6c18-30-52-5-7 1 2 1 4 0 7-1zm97-8c31-45-70-21-4 3l2-1zm-53-4c36-35-65-36-22-4 7 3 14 6 22 4zm-52-25c23-20-28-86-25-38 24 13-23 36 16 38h5zm-36-5c16-44-38 10 0 0zm70-13c31-34-56-20-14 1 4 1 11 3 14-1zm191 319c17-50-17-103 6-151 6-29-45-8-10-20 22-14 7-31-12-19-20-1-11-37 5-20-21-14-12-51 16-40 17-41 37-91 88-96 47-5 64 51 69 88 18 67-15 134-45 192-11 26-48 72-63 26-35-14 1 61-45 51-4-2-7-7-9-11zm23-3c23-29-46-15-8 1 2 1 5 0 8-1zm68-34c24-33-50-8-6 2l6-2zm-53-16c20-30-46-6-3 1zm18-7c38-13-28-30-2 3zm49-12c25-31-49-20-14 1 5 2 10 2 14-1zm-66-14c17-32-56-12-10 0 3 2 6 0 10 0zm37-12c19-34-51-10-8 1 3 1 6 0 8-1zm54-5c19-38-64-13-17 3 5 2 12 1 17-3zm-90-19c26-35-59-21-15-2 4 3 10 5 15 2zm54-10c33-35-55-12 0 0zm42-2c26-53-55 5 0 0zm-74-5c23-28-47-19-11 0 3 3 8 3 11 0zm55-19c26-38-62-18-14-1 4 2 10 3 14 1zm39-6c8-49-38 18 0 0zm-122-1c5-36-29 2 0 0zm42-6c11-46-49 5 0 0zm-27-14c2-48-50 12 0 0zm86-4c10-39-52 6 0 0zm24-8c41-56-52-2 0 0zm-89-5c35-51-69-25-7 1zm28-2c31-42-49-3 0 0zm-80-7c40-33-54-20 0 3zm126-8c37-27-52-18-9 0l4 1zm-39-22c4-55-59 23 0 0zm-52-9c8-30-50 9-1 1zm86-2c10-35-37 16 0 0zm-58-20c31-48-50-12 0 0zm-29-1c7-53-57 9 0 0zm65-2c17-56-55 11 0 0zm34-1c5-39-41 10 0 0zm-88-24c26-34-33-7 0 0zm32-8c21-35-44-10-10 1 5 5 7 1 10-1zm35-7c17-45-45 7 0 0zM156 546c-1-17-22-68-12-65-8 19 26 31 16 29-11 10 6 25-4 36zm334-208c-30-47-64-99-119-120-23-27 19-58 37-75 43-20 102 0 117 47 27 44 2 97-26 133-2 4-2 31-9 15zm4-15c16-46-44 6 0 0zm18-29c34-48-69-4-3 4zm-39-7c36-40-39-3 0 0zm-15-27c30-32-54-16-12 3l12-3zm63-3c39-34-46-10 0 0zm-30-1c25-53-55 2 0 0zm-71-23c-14-30-35 16 0 0zm16-12c38-18-29-53-17-10-1 9 11 18 17 10zm81-2c33-36-62-8-14 2 5 3 10-1 14-2zm-46 2c28-34-48-10-1 1zm-77-8c22-46-47 14 0 0zm106-27c30-41-60-11-12 2 4 3 9 0 12-2zm-79-7c19-33-53-12-15 4 5 1 11 1 15-4zm30-11c47-22-49-37-14 0 3 6 10 4 14 0z"/></svg>