<svg xmlns="http://www.w3.org/2000/svg" width="32" height="32" viewBox="0 0 472 462"><path fill="#d8c7b5" d="M239 461c-1-13-7-25-15-34 18 20 2-19 11-27 3-14-15-24-8-5-11 2-8 22-17 31 1 11-9 16-3 1 0-17 20-38 12-54l-6-21c-2-7 2-26-10-16-2 18-3-6-9-6 15-3-3-11-8-8 2 6-7 24-6 10-9-3 9-14-2-11-6-2-9-23-23-12-7 5 2 22-13 26-20 7 13-6 6-16-11-15-21 24-26 34-8 17-15 36-21 54-3 15-9 12-7 0 9-8 14-36 14-38 7-11 10-30 20-46 2-14 20-19 14-39-4-8 7-35 0-33-4 13-14 38-27 37-2-8 15-8 15-20 7-11-4-2-3-11-10 4-14 13-19 10-10 13-17-2-31 8-13-6-26 26-25 19-2-10-38 23-18 12-4 7-29 15-12 1 14-16 34-26 47-43 15-8 20-16 35-12 12 1 19-9 3-11-25-8-49-17-74-24-4-11 26 2 34 4 7 6 15 4 19 0 0 10 14 12 10 3 9 16 33 11 48 6 10-3 24-4 30-7-5-7 13 4 21-4 18-4 31-15 21-35-3-21-1-43-2-65-1-19 0-39-7-57-2-11-9-50 9-31 4 20 11 39 11 59 0 24 5 48 4 72 3 17-2 40 10 53 11 10 17-8 21-7-18 18 21 20 26 26 1 13 15 26 21 24 11 19 35 22 52 36 19 3 6 32 17 33 16-15 4 12-8 8-8 4-21 3-3 7 4-5 6-7 9 1 10 8 28-2 34 4-10 7-34 0-39 3 14 8 1 4-2 4 10 17 15 36 24 53 9 8 8 15-3 17-6 7 5-18-8-19-6-9-12-33-19-10-11 24 4-12-3-17 14 4-2-28 2-6-5-6-10-42-25-30-6-8-21 0-14 9-13-6-22-44-33-32-8-1 2 19-12 19-1 12-25 19-9 6-7-11-15 14-15 17-9 7 1 21 8 6-1-14 14-11 5 0-9 14-32 13-23 36 7 5 4 28 1 10-11 12-3-4-9-5 0 8 0 30 10 20-8 8-8 18 4 21-9 0-2 5-8 7 2 3 1 8-3 5zm0-70c-1-11 13-30-2-23 2-22-13 12-4 11 13-3-8 4 3 11-1 2 3 4 3 1zm7-37c14-8-7-40-8-15-1 5-3 22 8 15zm-18-4c8-9 0-25-4-6 0 2 2 13 4 6zm31-13c14-10-17-9-2 2l1-1zm99-6c0-12-18-23-28-34-14-7-15-29-33-34-1 7 12 24 17 33 15 6 23 24 37 33 0 3 5 6 7 2zm11-8c9-19-18-32-33-39-20-8 6 17 12 22 5 7 12 17 21 17zm-160-3c0-15-24 1-3 2l3-2zm60 0c-4-3-22-25-11-6 1 3 9 13 11 6zm46-3c-3-7-11-7-13-15-3 6 11 25 13 15zm-156-11c11-3 19-16 2-13-8 4-21 21-2 13zm128-11c-20-20-4 15 0 0zm-138-1c8-10 13-28 22-34-12 8-23-21-25 3-1 8-6 30 3 31zm30-2c1-8 3-21-9-10-9 7 2 13 9 10zm-92-25c29-9-26-7-15 4l15-4zm88-13c16 1 2-17-3-12-19-10-16 24 3 12z"/><path fill="#c9b5a3" d="M393 419c-8-13-15-28-24-40-11 15 6-17-9-21-3-17-28-29-40-16-11-10 18-7 1-14-16-8-9 1-10 6-3-16-32-32-26-6-3-2-10-13-10 1 6 10-8 21-4 6 4-10-8 5-11-8-3-6-12-23-2-10 10 17 19 4 6-4-8-17-17-3-17 6-8-12-4 8-9 7 3 13-13 6-7-2-11-4-17 6-6 10 1 13-12 23-11 4 2-13-32-2-10-13 0-3 15-6 3-14-6 2-13 2-15-7-8-3-5 14-2 15-12 2-29-19-10-17 1-9-14 1-2-8 6-3 2-13 3-18-13 4-27 19-32 32 3 7 3 16-2 2-3-4-12 10-5-2 4-13 16-18 21-29 9-3 5-11-2-6 4-13 17 5 15-11 8-5-13-4 2-7 10 5 5-23-10-15-13-5-9 24-14 2-8 0-4 9-12 6-4 20-7-15-9 7-11-1-30 17-33 16-7-2-36 1-44 15-2 8-24 9-7-2 11-16 43-9 47-24-11-1-23 0-5-6 8 1 24-4 17 3 11-6 20-11 2-16-26-8-50-18-76-25 3-7 31 6 42 10 17 2 33 11 51 15 13-1-6-7 9-8 17-8 35-2 52-11 9-6 27-5 31-15-1-22-5-45-4-67-1-23 0-48-5-71 0-12-13-37-1-43 11 12 14 37 16 54 2 29 6 57 5 85 2 15 1 30 0 42 9 7 21 19 27 14 10-1 24 25 16 9 13 3 13 22 26 25 6 11-26-1-7 11 14 12 10 29 25 37 13 7 26 20 36 31 14 0 8-10 6-14 9 7 18 10 27 5-4 11-34 4-29 17 12-1 9 16 16 23-1 6 12 28 17 39 0 4 18 19 3 15zm-61-89c-4-3-12-9-3-8-9-5-23-18-30-25 4 17-8 4-4-4-5-6-23-27-25-18 1 15 10 25 23 32 10 13 26 14 38 23h1zm-46-16c12-8-20-18-8-1 2 4 5 3 8 1zm-25-33c5-17-28-7-6-1 3 1 5 9 6 1zm33-6c0-12-21-16-5-5-1 5 9 17 5 5zm-87-6c6-18-31-5-7-2 2 0 4 5 7 2zm72-2c5-17-10 2-10-12-7-1 3 13 6 11-2 3 3 5 4 1zm-36-4c13-18-21-5 0 0zm46-9c-6-8-29-12-28-17 1-11-27-9-11 2 4 7 3-6 10 5 10 0 15 10 28 11h1v-1Zm-96-21c9 1 22-5 13-8 15-11-18 5-24 7-14 2 4 7 8 3zm157 82c-12-12-25-24-35-39-10-6-10-22 1-6 13 9 13 27 30 35 3 4 15 21 4 10z"/><path fill="#b1a193" d="M394 419c-10-12-14-31-27-41 8-13-25-33-2-34 2 14 6 30 16 43 2 12 15 23 16 33l-3-1zm-179-77c6-16-26-10-5-19 9-8-6-16-13-11-3-17-17-6-10 6-9-1-13-8-16-14 6 0 16-1 6-8-8 4 12-5 4-11 6-27-22 9-26 8 7-15 21-19 26-35 17-16-23-28-25-10-3-17-8 4-16-3-18 10-33 26-54 26-15 1 34-11 7-12-28 2 27-13 13-1 6-2 26-10 9-15-19-7-39-13-57-21-10 0-40-12-14-7l50 17c16 4 37 14 43 1 18-7 36-1 53-11 17-5 39-13 27-35-2-22-1-43-2-65-1-20 0-42-7-61 2-9-12-38 5-33 6 21 13 43 13 66 1 26 6 52 4 79 2 11 4 21-4 28 3 13 7 16 20 18 5 12 19-2 24 14 4 3 27 15 15 17-7-8-27-8-23-15-10-6-31-15-16 2 9 13 34 10 41 22-6 2-5 2-12-2 0 11-11-14-8 1 11 14-12 18-1 32 7 1 33 23 13 12-6 5-4 0-10-5-5 9-13-8-10 8-9-5-15 1-12 12-9-8-16 11-25 4-13 11 12 12-1 24-4 8-6 1-6-3zm38-41c0-9-13-22-8-6-1 5 6 10 8 6zm9-17c9-18-29-14-9-3 2-1 9 9 9 3zm-59-5c-5-7-20-16-10 1 2 1 8 3 10-1zm35-11c5-2 13-19-1-13-2 2-2 28 1 13zm-30 0c8-19-30-5-13-3 1 3 10 6 13 3zm-15-34c8 3 27-9 17-14-9 6-32 9-33 16 6 2 11 0 16-2zm158 109c-9-11-33-2-25-14 10 7 19 4 5-2-7-1 1-14-11-10-12-14-27-26-38-39-10-5-11-13 1-5 17 10 27 27 43 36 8 9 20 19 29 25 14 0 4-11 6-11 6 6 24 5 22 5-11 4-27 5-32 15zm-87-13c-4-5-14-22-2-8 7 6 15 3 4 10zm17-8c-7-9-6 11-11-5-21-17 14-9 14 6l1 3zm24 1c-7-5-18-18-4-8 9 3 21 14 4 8zm46-6c-3-12-28-19-24-30 5 8 31 26 24 30zM43 292c6-9 30-25 33-19-19 0-18 20-33 19zm278-10c-7-7-19-23-3-10 7-2 8 17 3 10z"/><path fill="#a48a73" d="M349 340c-7-8-24-16-20-24 11 7 14 14 24 22 0 2-2 5-5 2zm-134-8c-7-2-16-6-3-10 10-9-11-14-17-12-2-25-9 0-14 7 0-7-19-13-2-13 8 1 1-21 5-28-2-5-2-12-6-11 10-8 1-30 19-18 13-5 15-12 0-8-17 4-35-1-49 3-20 2-30 23-50 26-9 3-21 3-5-1 10-8 21-9 31-20-14-9-41-13-49-20 20 0 41 21 60 11 14-15 35-4 51-14 10 4-26 13-2 13 11-3 32-2 32-18-7-1-36 13-18 0 21-1 27-19 19-36-3-37 0-75-5-112-1-13-13-35-4-44 12 12 14 38 17 56l4 62c-1 21 5 43-3 59 7 5-2 15 10 13-1 19 20 29 35 34 7 2 24 7 8 7-9-5-20-9-11 5 12 19-35-3-18 17 9 5 33 16 15 19-10-11-8 14-12-3 2-8-9-12-17-16-2 5-6 6 1 13-3 0-13-3-4 5 11 3 5-23 11-4 7 16-3 5-7 9-8 5 5 16-10 13-11 0-7 22-12 16zm-11-51c1-9 7-20 2-25-6-10 18-22-2-11-5 13-28 23-9 37 3 1 7 1 9-1zm34-12c2-12 37 7 21-12-13-10 2 12-12 1-6-26-19 16-9 11zm32 47c-17-11 13-10 3 3zm43-9-39-37c18 5 27 23 42 33 3 2 3 9-3 4zm-32-60c-13-13-32-14-42-26 2-8 26 17 18 3 13 6 22 16 31 25 1 5-6-2-7-2z"/><path fill="#8d725d" d="M214 324c6-15-12-14-19-15-1-13-3-12-10-8-5-10 6-27-4-38 3-7 11-27 10-9 10 2-2-11 11-6-10 10-22 23-11 34-9 6 2 20 3 6-1-3 25-13 17-16-14 11 8-12-3-17-6-12 7-11 14-11 15-19-5 3-16-6-1-4 24-22 4-19-8 5-27 7-8-1 26-1 18-27 15-45-3-34 1-69-5-102-2-13-11-35-3-44 9 12 12 33 14 50 3 23 3 47 7 71-6 17 7 42-6 51-6 17 12 26 21 39 3 9 22 7 12 12 5 15-11-12-19-9-4-6 8-4-5-8l1 38c-11-2-6 4-3 5 0 9 9-10 12-11 12-1 13 5 1 8 1 13 38 17 21 25-6-5-16-1-9-10-13-8-26-16-28 3-3 12 0 8 6 10 4 10-13 19-20 23zm13-19c-5-9-5-15-11-5 4 4 8 21 11 5zm-48 10c6-8-17-8-1-11 8-1 7 16 1 11zm122-19c-7-3-18-23-4-10 4 2 14 20 4 10zM98 266c6-7 36-14 20-23-7-2-38-14-14-7 17 11 31 3 45-6 10-1 19 1 22 6-5-12 30-13 9-5-20 14 39-2 13 8-17 3-35-4-50 4-17 2-29 26-45 23z"/><path fill="#665141" d="M214 315c-2-8-5-21-7-7-15 10-16-15-4-19-8 5-15 9-5-2 11-18 23 5 18 17 1 2 2 15-2 11zm9-23c-5-5-21-20-5-15 2 12 4-19 7-2 8 2-13 16 1 13 0 2 3 10-3 4zm-15-20c16-9-9-26 14-27 7-6 11-22 11-3 3 13-4 39-12 18 6-9 4-18-4-9 1 1 1 20-9 21zm-73-29c0-14 33-16 20-5-3-1-13 5-20 5zm73-6c-3-5 16-16 19-11 14-10-17 25-4 6-5-4-9 10-15 5zm12-45c-6-33-2-67-5-100 0-22-11-42-9-63 13 2 9 27 16 38 0 8 6 39-3 22 2 10 8 16 0 25 0 11 16 7 5 21-8 14 10 5 5 20-3 7-8 6-1 12 1 7 3 35-8 25z"/></svg>