<svg xmlns="http://www.w3.org/2000/svg" width="32" height="32" viewBox="0 0 705 940.8"><path fill="#dcd09b" d="M375 940c-53-21-117 18-165-23-39-34-77-69-118-100-39-31-77-71-91-119 4-46 7-92 5-139 11-52 42-96 78-135 18-46 38-96 72-133 30-34 112 19 112-35-32-41-47-91-82-131-17-43-73-59-83-102 31-32 86 12 115 35 22 37 74 9 65-30 20-46 75-24 112-22 37 4 88 15 99 55 0 48 24 105 79 106 51 18 87 62 107 111 18 36 49 101-10 118-13 9-49-3-23 19 29 49 46 106 54 162-1 57-7 119-45 165-39 52-63 125-130 148-46-5-78 25-117 44-11 6-22 8-34 6zm-26-687c-31-29-49-68-74-100-2-23 1-83-35-53 1 41 39 72 46 113 10 28 32 48 63 40z"/><path fill="#d6c277" d="M368 938c-51-19-112 18-158-22-39-34-77-70-119-101-38-26-65-66-87-106-6-45 12-91 1-138 9-52 36-101 74-138 26-45 38-98 73-136 30-43 111 17 118-38-33-47-53-103-91-147-16-34-60-53-75-81 18-45 83 3 107 24 32 49 82 3 82-40 21-31 65-4 96-9 38 5 88 11 102 53 5 48 21 102 77 109 51 13 87 55 107 102 19 38 54 100-1 125-18 7-55 0-25 26 22 30 28 69 41 104 14 43 12 89 2 133-8 43-31 83-61 115-22 48-56 101-109 118-46-8-79 30-120 45-10 3-22 5-34 2zm-16-685c-34-32-59-74-80-114 5-26 2-68-34-41 0 38 38 70 45 110 12 30 33 57 69 45z"/><path fill="#c9b44d" d="M366 937c-51-18-112 18-157-23-41-37-81-73-126-105-34-33-73-71-81-120 11-45 3-90 6-136 14-48 42-89 74-126 24-44 39-95 72-133 30-34 117 18 116-38-25-29-37-64-57-96-23-33-46-67-74-94-33-5-50-70-4-52 44 6 72 43 105 61 52 13 35-48 61-68 48-13 101 1 148 12 62 15 34 87 70 123 37 32 97 30 126 77 29 41 51 89 60 140 4 41-72 35-69 47 35 41 44 97 60 146 10 78-8 163-65 220-23 49-58 106-114 118-55-10-89 54-144 48zm156-357c47-4 83-65 24-85-28-2-44 45-56 68 1 13 21 24 32 17zM240 479c9-21-36-24-25-48-14 20-67 21-36-9 34-16 33-96-13-67-4 33-40 96 12 104 28-19 36 32 62 20zm169-42c17-48-39-92-84-78-41-6-79 51-34 70 15-21 29-65 60-32 20 13 30 47 58 40zm46-115c-18-27-85-79-98-31 35 3 63 20 94 33zm-233-5c15-9 20-31-3-15-21-16-68 9-21 17 8 1 16 1 24-2zm115-62c32-7-31-32-27-54-28-29-42-72-41-108-32-12-47 19-21 38 25 39 30 89 65 120 7 5 16 7 24 4z"/><path fill="#c2ab33" d="M362 936c-50-17-114 20-156-26-47-42-96-82-146-121-23-36-65-68-57-115 20-41-8-85 8-126 11-52 48-89 77-130 21-41 32-89 67-120 32-15-37 23 0 34 29-10 89 14 90-36 48-22 11-59-5-89-20-36-42-72-69-104-7-34-98-61-49-91 47 3 83 36 114 66 50 19 39-44 62-69 27-21 66 2 99-2 37 4 89 16 97 60-2 52 29 96 83 104 53 17 85 66 106 115 25 40 36 114-33 113-50 1-79-54-127-64-52-8-92-44-135-68-51-14-77-60-103-101-26-26 7-101-47-69 4 40 38 83 52 125 25 19 20 40 10 66 9 57 103-22 97 29-14 5-85 18-39 26 25 29-39 4-54 18-46 3-32 44-33 73-19 42-49 13-45-18-22 10-46 10-23-16 34-51-68-88-77-32 10 31 8 77 30 96 36-4 41 25 52 50 28 7 74-27 82 23 4 44-8 99 43 121 19 24 57 44 66 2 26-35 54 34 63 56 3 45 11 87 25 131 0 43-34 68-73 80-14 13-34 12-52 9zm291-219c10-48 34-94 15-144-14-46-55-78-84-112-44-19-82-48-113-85-12-10-58-63-16-43 34 34 63 73 111 89 62 29 95 94 108 158 8 29 28 64 6 92-7 7-29 71-27 45zm-142-33c-14-55-44-103-57-158-7-19-35-57-38-63 41 35 56 86 69 136 11 26 27 66 26 85z"/><path fill="#b2a14b" d="M365 936c-52-25-118 10-164-29-35-36-75-66-114-96-35-26-58-64-81-100-2-45 8-92 1-138 7-50 30-100 69-133 12-11 26-65 30-52-9 46-12 98-41 136-12 18-6 41 9 11 19-19 61-67 79-48 0 33 24 98 46 101 28-24 1 47 36 26 33-5 35 49 72 52 29 11 68 83 92 28 25-51 70 30 49 59 14 44 50 93 11 136-22 27-58 53-94 47zm288-219c8-46 35-90 16-137-6-50-51-75-77-112-39-27-86-44-114-85-7-17-52-40-39-55 38 21 56 65 93 89 42 19 78 42 103 83 34 29 37 81 50 121 13 34-24 86-32 102zm-142-34c-11-49-41-92-51-141 1-15-35-70-26-59 41 42 41 105 66 156 6 14 10 29 11 44zM239 448c4-31-28-37-43-27 16-34 28-76-23-87 16-13 62 27 70-17-3-31 54-52 13-78-23-47-51-92-82-134-11-33-99-62-52-94 42 6 86 30 106 68 55 30 47-42 70-70 27-21 66 2 99-2 37 4 89 16 97 60-2 52 29 96 83 104 53 17 85 66 106 115 23 39 37 111-29 113-43 6-65-38-102-51-40-24-91-24-125-59-33-37-93-28-113-80-25-35-49-68-43-113-35-25-43 31-17 49 19 35 29 73 55 106-30 32 13 91 48 49 25-14 64 24 16 21-39 11-70 39-109 46-20 19 19 87-25 81z"/><path fill="#b7a136" d="M365 936c-52-25-116 10-163-28-35-36-74-65-113-97-37-29-68-68-86-111 7-44 7-89 5-134 11-50 34-99 74-132 11-15 30-88 22-30-7 46-18 92-44 130-6 43 41-41 63-43 17-14 38-17 31 11 6 28 25 87 45 86 28-24 1 47 36 26 33-5 35 49 72 52 29 11 68 83 92 28 25-51 70 30 49 59 14 44 50 93 11 136-22 27-58 53-94 47zm288-219c10-48 35-95 15-145-16-46-56-81-88-115-47-15-80-52-114-85-14-11-47-61-11-33 35 34 63 80 111 97 44 13 60 57 89 88 15 41 33 85 32 129l-33 72zm-142-35c-12-50-41-94-52-144-8-21-22-42-30-60 44 40 44 104 69 155 6 16 12 32 13 49zM239 448c5-39-38-29-42-32 32-33 0-78-22-85 24 5 69 18 65-19 11-27 56-51 14-78-22-42-43-84-74-120-8-40-91-58-66-98 40-8 86 23 109 55 24 33 68 5 60-32 9-57 70-33 108-32 56-1 114 34 108 95 6 58 73 62 113 86 49 36 70 96 91 150 12 55-62 80-98 46-37-35-84-53-132-66-45-22-79-60-129-73-30-36-68-78-73-127 27-49-73-26-27 7 24 40 33 88 65 123-17 21-12 75 30 64 11-22 76-16 50 8-44-4-70 40-113 41-46 10 13 86-36 88z"/><path fill="#af9833" d="M367 936c-46-30-112 11-152-33-28-25-64-35-91-62-39-37 47-18 62 1 33 35 84 27 126 44 30 7-10-47-11-67-9-49-8-108-50-143-28-12-52-62-46-82 10 17 19 33 38 22 27 32 63 49 92 76 21 30 66 34 71-8 44-20 48 55 41 83-27 6-80 9-91-28-23 10-70-51-52 2 8 54 18 111 55 154 4 7 34 49 8 41zM231 802c-31-17-73-45-41-83 1-20-27-86 8-50 40 29 55 75 63 120-2 14-19 16-30 13zm-159-4c-34-35-68-80-60-132 1-45-14-92 6-136 10-45 48-72 70-110 10-17 19-45 12-9-6 44-17 87-41 123-13 54 40-38 41-15-41 41-69 94-76 152-2 44 52 103 49 128zm33-54c-35-27-66-64-59-111 3-39 46-50 72-70 42 5-6 73 36 93 42 24-31 15-16 43-10 14-12 44-33 45zm563-67c15-19 0-108 7-88 3 27 31 75-7 88zm-10-137c-33-27-54-71-91-90-41-15-70-47-97-79-20-6-48-61-14-29 36 39 70 83 122 101 36 25 64 58 82 98zm-417-92c1-28-27-43-43-29 8-27 32-69-13-79-21-22 50 21 57-13 10-24 31-59 43-13 17 51 63-6 93-10 44 7-31 23-45 29-20 28-92 21-77 69 9 12 5 47-15 46zm390-50c-44-24-80-63-132-71-52-9-82-58-131-71-49-16-66-69-91-108-14-24 11-74-34-56-27 23 27 57 27 88 0 30 53 60 32 83-52 16-52-61-80-88-29-43-56-95-103-121-33-23 3-62 31-34 40 8 66 39 87 68 57 14 30-67 70-84 52-3 113 0 161 25 45 29 13 108 71 128 46 16 96 35 119 82 17 42 58 87 40 133-13 23-42 31-67 26z"/><path fill="#8c793e" d="M631 398c-43-24-78-61-128-71-52-7-81-54-128-69-52-11-67-66-95-104-16-44-7-101 16-142 31-20 72-3 108-4 44 3 96 28 92 80-2 57 58 79 103 92 48 27 74 80 93 131 33 39-5 101-56 88zm-399-13c-32-25 21-60 38-61 13 29 40-2 46 20-30 6-54 33-84 41zm45-117c-37-48-56-107-96-153-15-38-73-56-74-93 32-26 87 15 111 41 16 44 40 84 57 129 0 29 66 66 11 73z"/><path fill="#4f3a1f" d="M630 396c-43-25-80-61-130-71-54-10-84-59-136-72-46-19-66-70-88-111-6-45-3-102 29-137 37-7 78 4 116 7 57 3 82 55 80 106 19 51 84 47 120 77 41 37 60 90 80 139 14 44-31 74-71 62zm-383-18c-48-10 29-54 33-27-15 5-20 25-33 27zm29-114c-36-45-52-102-91-145-15-41-70-57-79-95 29-28 77 10 102 29 25 42 42 87 63 131 0 33 79 81 5 80z"/><path fill="#334825" d="M631 396c-43-26-81-62-132-72-51-8-79-56-127-69-51-13-67-67-93-106-14-42-2-91 14-131 40-33 106-6 154 2 59 9 38 80 65 116 32 39 93 32 123 74 34 39 55 89 68 139 6 36-43 55-72 47z"/><path fill="#252d16" d="M630 395c-45-27-86-65-140-73-50-16-82-62-133-73-45-22-51-76-75-115-16-38 13-66 31-21 11 14 9 79 22 33-6-19 16-54 18-16 1 20 3 65 6 21 11-44 39 2 28 25 11 16 20 79 16 31-10-18-17-86 10-46 26 24 32 109 47 107l-30-102c59 12 28 89 65 119 35 24 85 28 105 70 8 27 73 51 39 12-3-21-1-72-15-70 3 22 18 74 0 78-34-23-35-79-33-111 24 13 27 16 4-4-46-26 22 70-22 56-17-13 0-63-19-60 0 21 25 79-16 45-24-22-33-93 9-52 25 6 18-9 9-13 19 4 51 34 23 2-29-22-64-35-96-56-17-4 36 29 29 49-6 21 30 85-7 57-44-28-12-92-54-119-45-23-76-63-121-84-38-10-68-51-25-76 37-15 78 1 117 4 57 4 75 53 79 101 15 59 85 48 121 85 41 36 62 90 77 141 18 33-8 38-30 38-16-20-29-84-37-80 12 29 20 77 32 97-11 3-23 3-34 0z"/><path fill="#172305" d="M682 374c-42-26-34-87-74-115-44-42-100-66-153-93-50-20-82-67-133-85-52-12-44-91 13-77 48 8 108-2 143 38 27 39 11 98 63 121 44 9 87 31 112 72 20 43 54 86 47 136-3 7-13 7-18 3zm-103-15c-42-34-104-32-143-70-30-33-87-31-110-69 38 31 95 34 125 76 35 16 74 16 106 40 14-2 55 46 22 23z"/><path fill="#0f1407" d="M690 378c-21-7-33-33-8-7 31-1 4-38-17-30-26-15-11-24 9-10-9-13-59-48-14-27 15 21 35 26 15-3-14-7-78-37-29-26 21 14 37 3 8-9-17 1-82-27-33-19 19 5 35 0 6-7-23 3-83-21-80-29 22 6 78 24 82 12-51-12-104-27-151-49 31 4 68 11 99 23 24 13 40-2 8-10-51-17-108-19-153-50 11-7 63 16 70 3-36-13-113-17-121-38 41 17 96-3 129 33 28 44 85 32 118 70 38 37 53 89 72 137 0 11 7 36-10 36zM494 112c-29-16-100-6-106-24 30-6 80-4 98-12-22-36-70 3-103-3-18 3-55-16-16-17 39-17 101-29 127 13 3 14-1 29 0 43zM313 49c22-29 55-48 92-38 19 0 48 12 10 9-35 6-66 26-102 29z"/></svg>