<svg xmlns="http://www.w3.org/2000/svg" width="32" height="32" viewBox="0 0 163.2 240"><path fill="#e0ca98" d="M56 70c1-4 5-6 5-10 0-8-4-15-6-23 0-4-3-6-7-7-2-1-9-6-4-6 5 1 9 1 13 4 8 6 13 15 19 22l7 8 17 8 14-12c3-4 7-4 11-4 2-3 6 0 3 3l-6 11c-2 4-5 9-5 14 0 2 2 6-1 5-13 1-25 0-37-4l-23-9Z"/><path fill="#ddd962" d="M81 72c1-5 5-8 2-11 5-10-1-12 2-18 0-13-2-28-7-40-4-4 13-5 10 2l7 31c1 9 2 18 0 28-3 15-10 12-14 8z"/><path fill="#e56784" d="M76 228c-4-3-7-3-12 0-4 2-15-2-15-6 0-3-3-6-6-7l-5-3-7-3c-5-2-8-7-8-11 1-2-1-6-7-11-2-2-2-3-2-5l-2-5c-1-2-1-5 1-9 1-2 1-2-1-5-2-2-3-5-2-8 1-1 1-1-1-2-5-1-8-8-7-15 2-8 2-10 4-13 2-2 3-5 1-9-3-6 4-22 9-22 2 0 5-4 9-12 5-9 18-16 25-12 4 3 8 3 7 0-1-6 11-7 14 0 4 7 8 9 12 6 3-2 4-2 7 0 1 2 3 3 5 3l3 2c2 3 12 2 14 0 3-3 6-1 6 3 0 3 3 4 6 2l3-2 2-2 2-1 5 1c4 1 8 4 11 8l3 5 2 3 2 3 2 8c0 4 1 7 3 11s2 5 2 9a1274 1274 0 0 0-5 19c-1 11-2 12-4 12l-2 1-2 5c0 7-3 12-6 14l-15 14c0 5-12 16-18 16-4 0-4 0-4 3-2 13-18 22-29 15z"/><path fill="#b1263b" d="M76 227c-7-7-20 8-25-4-3-10-13-11-21-16-7-6-6-16-14-22-4-6-4-13-2-20-4-4-3-8-3-12-11-2-9-16-6-24 7-7-1-18 4-26 0-4 11-12 6-5 1 6 5-5 6-7 4-10 12-20 23-22 5 2 15 8 15-2 10-6 12 12 21 11 6-3 13-2 17 4 3 7 11 1 17-1 5-1 2 13 6 10 3-6 12-10 19-7 8 5 13 14 16 23 0 10 8 17 4 26-6 8-1 18-7 25-7 5-3 18-11 23-7 5-14 9-17 17-4 8-12 10-19 13-3 9-8 18-18 19-4 0-8-1-11-3zm13-10c2-7-13-2-3 1l3-1zm-22-5c1-7-11-1-3 1 1 1 2 0 3-1zm-20-14c1-9-6 5 0 0zm41-2c3-8-11-1-2 2l2-2zm22-1c2-7-12 5-2 2l2-2zm-44-8c-5-9-3 8 0 0zm-35-9c1-10-8 4-1 2l1-2zm73 1c3-12-11 4 0 0zm22-2c-4-9-7 8 0 0zm-78 0c2-6-8-5-3 1 1 1 3 1 3-1zm34-3c11-7-11-10-4 1l4-1zm-18-13c1-8-13 0-4 1 2 0 4 1 4-1zm55-4c-5-9-3 7 0 0zm-21-4c-2-9-7 9 0 2v-1zm-56 1c0-8-11 0-1 1h1zm98-1c-4-7-5 7 0 0zm-58-9c2-9-14-3-6 1 2 0 5 1 6-1zm52-10c0-8-7-3-4 2 1 4 5 0 4-2zm-76 2c1-7-9 0-2 1h1zm54-1c4-9-10-4-3 1 1 1 2 1 3-1zm-94-2c-1-10-4 6 0 1v-1zm18-4c-2-8-10-1-3 2l3-2zm54-7c9 5 9-10 2-9-3 1-8 10-2 9zm-15-6c3-5-4-8-6-3-3-9-7 8 1 4 1 2 4 1 5-1zm70-3c-1-11-7 7 0 0zm-95-1c5-6-7-8-4 0 0 2 3 1 4 0zm74-2c-1-7-5 3 0 0zm-93-6c-1-9-9 6 0 0zm76-7c0-6-4 4 0 0zm-47-9c-5-3-2 10 0 3v-2zm32 5c1-8-16-3-8-1 3-4 5 5 8 1zm46 0c5-9-16-2-6 1 3 1 5 0 6-1zm-71-3c-4-8-3 7 0 0zm-41 1c4-3-3-2-2 0zm22-3c-5-6-3 6 0 0zm-12-7c-5-2 0 9 0 0z"/></svg>