<svg xmlns="http://www.w3.org/2000/svg" width="32" height="32" viewBox="0 0 718.4 1311.9"><path fill="#d394ae" d="M88 1311c-26-12-56-19-84-13 48-16-7-52 8-84 18-30-15-69-12-107-3-91 88-160 174-158 50-25-43-55-51-85-30-40-4-99 34-122-12-49 0-103 39-136 32-29 80-25 68-78 11-50 64-67 96-91 9-62 24-123 35-185 17-48 19-102 41-147 1-22 16-48 17-21 38-21-43-20 0-51-8-47 87-42 57 6-7 70-16 139-21 209 2 50-9 102 12 150 17 67 54 126 74 192 37 24 95 39 110 91 22 52 12 118-37 152-27 15-41 55-42 77 70 13 116 87 112 156 8 52-55 84-53 129-10 13-19 24-4 36-27 21-57-1-76-4-27 27-50 0-61-25-33-22-84-55-100 2-31 28-52-56-62-5-31 4-49-58-60 0-35 35-74 70-126 74-28 8-53 26-79 24 20 9 9 18-9 14zm391-478c-23-23-28-84-60-85-7 37-6 84 43 80 5-5 13 11 17 5zm-39-135c13-49 53-93 107-93-7-49-31-96-49-143-1-26-31-77-28-21-20 51 34 93 14 144-10 43-69 65-46 115zm-14-246c18-108 28-219 30-329-16 27-27 86-41 125-13 61-27 123-19 185-13 29 13 20 30 19z"/><path fill="#aa979f" d="M87 1309c-23-20-94-3-46-31-22 13-8-18-30-29 6-46 9-79-9-127-15-94 79-173 168-172 57-14-26-57-41-78-36-39-14-103 27-128 14-21-14-55 7-83 5-13 32-50 30-48 22-22 78-65 83-6 19 36-16-39 17-4 12-24 39 33 41-5-28-6-8-40-36-47 9 4 18-10 29-24 17 14 19 24 14 42 20-20 0 18 18 2 7 22 1 24-15 32 6 15 24 6 45 5 13 23 28-29 7 0-10-19-9-26 12-38-3-27 20-3 13 3-23 28 6 5 17-8-6 22-1 17 12 9 24 11 31-44 24-62 26 39 14 104-30 126-14 16-14 101 4 42 13-46 60-71 101-77-2-45-19-47-31-96-22-24-17-90-47-92-7 19-3 102-4 84-5-23-46-49-51-44 36-1 12-56 24-78 2-39 10-83 12-124-1-42 11-103 1-132-2 24-23 47-7 11 13-26-24-14 5-30-3-7 35-26 24-45 0-23 26 21 12 29 35-53 8 30 12 58-10 50-12 100-11 150-8 53 11 104 27 153 19 48 44 95 60 144 36 24 90 35 106 85 23 46 21 110-21 146-36 20-43 54-58 87 50 9 88 47 106 94 16 48 12 103-22 143-24 22-23 51-34 74 23 22-53 29-62 2-26 28-56 12-62-17-36-16-65-62-99-17-10 62-62-44-68 10-29 6-48-60-58-2-34 38-75 72-127 77-30 7-52 26-79 22 12 14 18 18-10 14zm17-178c17 8 58-38 20-30 0-12 21-3-2-21-27 0-23 17-23 38 13 5-10 20 5 13zm67-275c23 0 67-30 20-10-4 1-46 13-20 10zm-3-14c31-17-8-57-2-32 34-1-26 43 2 32zm312-8c-22-25-30-88-61-88-10 39-6 90 46 83 4-2 12 10 15 5zm-112-12c12-25-25-19-13 1l7 1zm15-32c10-20 15-116 0-54 2 12-26 62 0 54zM278 668c16-49-26 3 0 0zm16-3c28-2-14-56 2-10-3 6-19 14-2 10zm109-5c14-33-53-24-13-6 11-14 2 13 13 6zm-70-186c-16-24 28-24 30-34 4 19 35-7 6 3 2-18 4-26-5-22 5-28 12-95 27-40-18-3 10 49 0 69-16-1-4 23-36 23-7 0-15 3-22 1zm56-108c3-19 3-39-9-20 9-24 1-103 30-92-3 27-13 67-16 101 1 3-2 11-5 11zm24-128c-5-32 18-41 8-61-11-14 23-85 11-34-15 32 9 43-11 76-4 2-2 25-8 19z"/><path fill="#d9619b" d="M86 1308c-23-5-48-38-52-28-10 0-11-22-22-35 33 10-22-41 11-51-20-53-34-115 1-165 37-48 94-80 154-79 53-18-40-62-36-67 34 18-8-29 32-11 13-19 26-8 29-19 52-39-80 23-32-13 18-36 1-76-11-112-15-36 6-87 33-109 18-36 83-64 88-3 29 19-8 69 24 48-6-33 6-46 37-45 5-9 61-2 34 22 11 13 30 27 33 1 19 5 66-45 62-29-25 15-44 50-44 54 18-4-7 63 19 22 13-49 64-77 103-88 0-37-18-53-28-90-20-28-23-87-41-102-31 7 4 107-38 54-21-35 5-89 3-132 10-72 9-145 19-216-5-4-35 5-13-17 8 3 36-38 22-48 35-2-6 58 29 26 4 8-21 29-3 48-15 27 7 9-6 45-8 50-7 99-9 149-2 48 19 94 34 139 21 46 41 93 58 140 42 15 90 36 106 83 20 48 18 111-27 145-30 17-51 61-49 87 82 16 128 113 104 189-22 39-44 76-61 110 28 38-49 30-62 12-23 24-55 11-57-16-32-13-56-60-92-29-9 30-39 42-58 8-12-26-21 39-43 3-28-54-35 31-68 39-32 38-84 38-127 54-6 27-69-6-36 26-6 3-13 2-20 0zm28-174c13-15 37-33 20-38 32-23-31-16 0-45-6-34-6 31-23 22-4-19-21-28-7-7-22-4 9 16-4 25 0 9-5 48 8 38 3 1 2 10 6 5zm140-253c22-24 58-57 61-55-29 5-57 32-66 64zm227-48c-23-27-28-82-62-91-10 40-8 95 46 89 4-1 16 11 16 2zm-113-11c5-25-14-23-23 2 8 0 16 0 23-2zm15-32c10-20 15-116 0-54 2 12-26 62 0 54zM278 668c16-49-26 3 0 0zm47-23c42-21-30-12 0 0zm99-33c13-11-58-13-28-32 17-12 13-33 25-15 7 5-26 38 2 15 12-21 18-15 14 5 21-10-6 33-13 27Zm-86-9c-27-12-20-42-38-56 12 19 25-43 39-6 17 9-15 35 14 23-12 20 16-2 8 25 9 6-22 13-23 14zm-3-132c8-39 77 2 21-13-10-7-15 18-21 13zm48-23c-1-10-24-4-11-27-11-15 7-96 19-40-24-15 21 70-8 67zm6-82c4-24 2-33-9-22 0-17 13-59 13-29 15-25-19-12 2-45 22-53 7 38 2 59-4 11-1 30-8 37zm24-128c-7-29 19-42 8-58-4-21 17-68 5-18 6 19 2 53-13 76z"/><path fill="#9e659d" d="M86 1308c-19-9-71-12-37-34-30 18-17-11-37-29 33 10-22-41 11-51-20-53-34-115 1-165 37-48 94-80 154-79 53-18-40-62-36-67 34 18-8-29 32-11 13-19 26-8 29-19 36-22-17-14-13-26-4-14-14 9-12-23-2-39 17-10 8-13 16 9 38 10 58 2 25 13 0-25 28-9 15 20 39-15 9-1-10-13 42-38 41-59 31-18-66-17-18-32 11-10-35-26 3-25-9-32 2-51 35-48 9-10 60-1 34 26 4 13 10 1 8 18 4-1 32 3 21-13 13-14 59-32 69-41-20 14-38 43-48 51-11 4 23 12 4 36-24 2-26 42-39 15-17 32-16 84-46 112 37 15 38-69 58-10 23-1-5-64 18-83 40-27 31-102 93-117 44 14 37-46 25-51-13-45-38-86-46-132-16-59-34 20-29 46-3 17-39-33-5-9 5-36 12-75 9-106 19-14 1-57 12-84 1-27 6-51 6-12-4 49-3 98 15 145 12 22 16 75 23 60 19 42 36 85 52 127 42 15 90 36 106 83 20 48 18 111-27 145-30 17-51 61-49 87 82 16 128 113 104 189-22 39-44 76-61 110 28 38-49 30-62 12-23 24-55 11-57-16-32-13-56-60-92-29-9 30-38 42-58 8-12-26-21 39-43 3-28-54-35 31-68 39-32 38-84 38-127 54-6 27-69-6-36 26-6 3-13 2-20 0zm28-174c13-15 37-33 20-38 32-23-31-16 0-45-6-34-6 31-23 22-4-19-21-28-7-7-22-4 9 16-4 25 0 9-5 48 8 38 3 1 2 10 6 5zm140-253c22-24 58-57 61-55-29 5-57 32-66 64zm251-38c-12-40-35-80-61-112-29-17 10 42-21 8-18 29-14 102 42 92 45 21-39-77-14-60 17 21 27 67 54 72zm90-70c-4-27 46-6 43-33 10 4 5-26 21-34-15-2-31-31-10-46-29-16-56 19-78 5-14 4-40 7-50 12-20 15-29 3-40 27-2 27-7 48 9 68 14-7 12-29 34-11 13-8 26 0 45 5 19-21 9 24 26 7zM342 666c16-29-4-17-1-16 17-39-55 2-8 7 10-3 4 16 9 9zm228-30c37 5-16-60-1-31 3 17-30 34 1 31zM158 852c13-22 42 3 0 0zm266-240c15-10-57-16-16-20 34 14 8-10 26-18-7 18 26 4 3 31-4-1-11 13-13 7zm-89-141c8-39 77 2 21-13-10-7-15 18-21 13zm106-106c10-63 10-127 18-190-2 56-2 111-12 165-1 5 6 29-6 25zm47-177c1-18 13-79 6-26 1 4-5 40-6 26z"/><path fill="#9c5d73" d="M87 1308c-7-11-72-8-39-28 7-19-35 15-17-10-21-16-22-26-6-26-19-17-14-64 13-41 6-6 46 8 30-19 13-9 35-5 33-17 27 1 51 1 73-24 0-19-2-29 10-34 15-17 30-34 13-56-25-24-14-60-53-45-21 4-24-27-10-7 20-16-9-41 10-47 36 9 69-19 32-46-28-10-48-39-18-19-19-32 19-9 29-29 20 8 10-14 33-22-31 2-29-15-38-17-8 11-4-75 0-23 12-7 28 20 48-4 19-3 33 6 26-11 12-6 44 21 37-4-13 18-25-12 4-17 20-23 30-55 31-47-13-11-62-11-18-25-24-22-19-12-3-26 14-31 40 25 48-15 21-8 24 18 36 12 15 15 26-21 39-25 17-10 67-49 28-11-22 3-26 50-30 25-23 17-10 31 5 35-19 14-31 51-42 26-10 33-29 90-42 114 45 7 82-9 124 9 24-1-38-60-24-69 10 29 39 59 43 81 34-3-19-63-27-86-3-26-50-47-27-11-23-36-27 40-26-3 29-26 34-56 53-91 13-34 58-33 50-41 45 13 35-48 24-53-15-45-37-89-49-134 3-35-39-2-19-39-13-27 15-52 20-11-9 9 28 54 15 49 10 33 18 66 34 83 13 25 27 60 15 59 19 5 8 16 1 5 4 15 29 21 21 35-23-35 2 27-28 23-28-9-11 29-26 46-22 13-28 4-42 24-4 30-4 45 7 71 18 3 11-37 31-10 21-8 20-4 31 2 1 23 28 16 14 9 23-31 13 30 32-6 3-37 61 17 28 9 11 18 38 10 28-14-36 7 6-20 13-25-15-21-8-27 11-46-11-15-52-87-12-42 37 49 45 132-7 174-28 17-60 67-49 89 80 17 126 114 102 189-22 41-49 79-61 116 26 26-48 27-54 6-19 13-61 20-61-8-28-33-94-75-112-11-27 13-51-53-66-6-30-8-16-33-43-30-13 46-61 79-105 96-41 6-78 30-113 32 15 13 16 16-8 12zm-43-42c5-48-26 10 0 0zm196-228c1-17 17-35-4-46 3-19 27 3 42-6-10-18 32-20 0-38 13 0 1-16-7-13-10-14-22 8-23-6 17-13 8-44 21-32-10-18 24-37 9-42 15-12 67-44 18-19-19-6-52 47-60 77-18 31-19 68-7 110 0 5 5 22 11 15zm9-63c-9-11 19-26 3-30 24-18 12 36-3 30zm87 62c0-28 25-28 28-53 6-10 30-36 22-42-29 33 18-39-10-2 6-24 14-27-15-30-11-1-37 27-33 22-30-8-9 26-17 48 5 24-32-27-28 10-7 0-28 31-7 24 7 7 12 11 30-3 22 12-22 11 10 19 2 8 18 7 20 7zM37 1195c-13-21-21-63 0-24-8-12 27-18 13 3 19 21-11 16-13 21zm-15-62c-6-13 27-62 16-22-16 0-4 23-16 22zm136-281c13-22 42 3 0 0zm300-374c-17-16-19-21 3-10 1-22 8-63 5-15-2 2 0 41-8 25zm-123-7c8-39 77 2 21-13-10-7-15 18-21 13zm109-120c-1-26 14-99 7-33-9 10 4 33-7 33z"/><path fill="#645c98" d="M98 1309c-25-20-38-8-52-19 19-28-13-44-28-61-13-23 4-42 20-26 12-6 46 7 58-14 18-12-6 36 14 8 14-19 32 11 22-23 7 22 43 1 14-9 22-6 24-33 35-41 10 4 8-36 11-11 14-8 33 0 25-25-25-15 5-24-21-34-23-23-12-56-47-49-20 13-33-25-15-4 20-16-8-40 10-47 34 1 74-22 77 18-3 19 14 95 21 49 21-6-19-38 1-34 18-7 39 14 40-21 20 2-5-16-1-23-1-9-14-7-28-14-18 19 10-25 10-38-5 24 22-44 17-33-15-5 76-51 15-22-22 10 25-30-5-12-25 39-20-2-31 6-16-1-29 8-53-1 30 12 3-43 37-36 25 13 0-25 28-9 15 20 39-15 9-1-9-13 42-38 41-59 22-15 1-35-19-14-46-19 54-24 35-34-41-1-14-38 4-6 20-21 14-2 38 18 2 43 48-16 41-4 25-4-15 28-13 25-43-4-22 62-46 87-46 31 28 37 59 30 32-8 67 13 93 34-11-34-34-75-54-109-7-31-42-26-38-21 38-19 32-80 75-93 29 5 18 26 7 23 34 7 2 36-9 25-23 12-13 46-17 61-1 25 24 35 25 8 16 7 34-4 37 18 14 8 41 19 56 2-3-28 44-19 22 2 7 32 25 1 20 27 28-12 17-26 29-53 10-16-20-61 9-23-2 32 17 3 10 37 16-47 1 46-24 53-29 21-65 69-54 95 80 17 126 114 102 189-23 41-47 79-62 115 25 28-32 19-47 15-23-30-27 14-40-1-30 10-24-38-64-44-26-39-65-4-83 17-28 1-43-47-61-5-20-9-26-47-44-20-21 43-66 78-114 89-38 2-65 34-100 26-8 9 25 16 3 16zm-11-13c19-26-36-15 0 0zm249-259c0-28 25-28 28-53 6-10 30-36 22-42-29 33 18-39-10-2 6-24 14-27-15-30-11-1-37 27-33 22-30-8-9 26-17 48 5 24-32-27-28 10-7 0-28 31-7 24 7 7 12 11 30-3 22 12-22 11 10 19 2 8 18 7 20 7zM37 1195c-13-22-21-62 0-24 21-11 21 32 2 22v3zm212-220c-9-11 19-26 3-30 24-18 12 36-3 30zm-63-59c-16-11-73-48-26-25 12 4 46 19 26 25zm490-215c6-20-52-91-12-47 7 15 35 42 12 47zm-278-16c-11-39 35-12 0 0zm23-37c-5-10 86-66 37-22-11 5-25 26-37 22Zm126-20c-33-10 24-22 0-49-8-32 7-42 9-3 14 17 13 44 2 54-3 1-8 1-11-2z"/><path fill="#9e2a65" d="M98 1309c-25-20-38-8-52-19 13-18-8-32 23-33 8 3 27-34 9-34-10 2 16-21-10-16 2-6 28-17 39-18-18 16 4 22 8 2 21-2 20 7 18-17 12 27 23-7 37-2 13-25 15 18 31-12 5-22-33-30-9-52-2 6 19-5 21 3 12-22-1-39-12-56 13-20-20-18-10-43 21-7-21-1-9-16-24-22 27-7 22-19 35 14 16 83 55 105 6 14 14-14 12 13 8 12 39 43 31 10-26-8-54-86-25-44 4-1 14 28 28 40 18 14 6-30 21 1-7 17 15-14 17-9-11-17 23-23 24-5-29-5 26 23 4-10-4-15 19-41-8-25 10-19 5-24 29-11 2-11 21-12 30-29 30-9-29 24 9 18 16-34 33 22 39-21-22-11 20-36 7-44 17-27 1-35 17-60-5 29 12-20 21-19-34-34 11 3 6-6 0-22-26-62-39-91-14-17-31-81-55-55-5-10 33-37 33-61 2-34 65-49 53-15-32-8 35 22-5 22-13 8-34 15-32 49 11 8-5 48 23 40-5-30 23-3 31-13 5 10 25 35 47 22 22 15 22-47 48-16-25 21 21 32 14 34-4 7 31-6 17-20 21-16 8-55 8-66 15 20 13 37 24 37-10 45 11-31 3 14 0 56-75 69-77 121-45 44 56 34 65 75 34 39 45 97 30 145l-60 106c-23-45-11 38-3 3 31 32-39 28-49 13-26-18-22 20-36 5-30 10-24-38-63-43-26-46-68 4-85 11-5-18-32 2-44-21-31 33-30-50-13-11 9-8 64-16 24-30-26 14-40-1-63-1 7 44-28 76-62 105-40 31-97 28-136 54-39-14-15 16-17 15h-4zm-11-13c19-26-36-15 0 0zm373-130c26-36-41 9 0 0zm198-81c11-31-25-72 10-81 3 19 1 45 6 60-26-14-5 19 11 5 18 3-5-24 6-25-17-8-14-34 4-21-6-27-12-53-31-69-22 27 0-35-39-29-28-9-15 43-37 32 0 18-8 29 4 32-19 0-22 14-8 21 20 4 7 40 17 42-12 2 6 35 7 4 21-6 23-15 11-37-27-12 22-38 8 1 15 17 7 45 28 66l3-1zm-253-12c19-14-12-11-12-12-30 15 11 17 12 12zm115-77c30-7 1-59 8-17-1 4-24 26-8 17zm6-63c0-23 19-24 28-6-10-25-27-47-31-11-11 3-9 21 3 17zM32 1243c-19-8-21-45 7-18 26 2 5 31-7 18zm296-155c-45-19 6-24 3 2zm-69-57c-13-21-17-58 0-20-4 3 15 36 0 20zm-47-62c-21-13-11-21 8-13 3 5-2 24-8 13zm277-84c-17 3-45-62-17-28 4-16 34-5 4 2 4 6 35 29 13 26zm-219-44c-2-24-24-2-38-11-22 9-31-4-7-6-15-25 21-34 34-33-13-30 31 18 37-9-1 1-36 2-8-15 25-22 40-39 44-67-14 12-64 5-27-8 24-10 56-12 16-22-20-31 25 11 29-9 8-5 15 11 30 30 8 41 45-32 50 0-17 16-24 19-46 25 9 26-44 114-33 92-17 25-61-2-77 34zm406-140c6-20-52-91-12-47 7 15 35 42 12 47zm-278-16c-11-39 35-12 0 0zm149-57c-33-10 24-22 0-49-8-32 7-42 9-3 14 17 13 44 2 54-3 1-8 1-11-2z"/><path fill="#5b4975" d="M99 1309c-11-16-16-47-36-15-5 12-34-5-9-15-26-21 41-30 26-28 10-19 4-34-6-28 23-19-30-21 11-22 32 17 28 7 43 5 8-14 22-20 31-34 11 5 26-24 23 2 43-11-2-40 6-50-6-34 28 2 28-26 9-15-17-33-12-50 2-8-30-28-5-39-24 9-32-44-3-23 30-34 28 55 46 76 16 22 21 29 29 20-4 14 16 38 30 37 12-20-52-52-34-74 14 25 13 15 28 46 16 25 30 6 26 3 9 23 3 12 26 1-16-12 9-28 21-10-28-1 21 26 3-7-4-15 19-41-8-25 10-19 5-24 29-11 2-11 21-12 30-29 30-9-29 24 9 18 16-34 33 22 39-21-22-11 20-36 7-44 17-27 1-35 17-60-5 29 12-20 21-19-34-34 11 3 6-6 10-6-37-74 3-55 24-2 43 9 67 6 34 4 51-25 73-40 19-9 35-75 26-24-8 53-75 68-80 119-34 41 61 30 69 71 34 39 45 97 30 145l-60 106c-23-45-11 38-3 3 31 32-39 28-49 13-26-17-21 22-41 4-24 10-22-39-58-42-26-46-68 4-85 11-5-18-32 2-44-21-31 33-30-50-13-11 9-8 64-16 24-30-26 14-40-1-63-1 7 44-28 76-62 105-40 31-97 28-136 54-36-18-16 8-20 15zm361-143c26-36-41 9 0 0zm198-81c11-31-25-72 10-81 3 19 1 45 6 60-26-14-5 19 11 5 18 3-5-24 6-25-17-8-14-34 4-21-6-27-12-53-31-69-22 27 0-35-39-29-28-9-15 43-37 32 0 18-8 29 4 32-19 0-22 14-8 21 20 4 7 40 17 42-12 2 6 35 7 4 21-6 23-15 11-37-27-12 22-38 8 1 15 17 7 45 28 66l3-1zm-253-12c19-14-12-11-12-12-30 15 11 17 12 12zm115-77c30-7 1-59 8-17-1 4-24 26-8 17zm6-63c0-23 19-24 28-6-10-25-27-47-31-11-11 3-9 21 3 17zM32 1243c-19-8-21-45 7-18 26 2 5 31-7 18zm296-155c-45-19 6-24 3 2zm-69-57c-13-21-17-58 0-20-4 3 15 36 0 20zm-47-62c-21-13-11-21 8-13 3 5-2 24-8 13zm277-84c-17 3-45-62-17-28 4-16 34-5 4 2 4 6 35 29 13 26zm-219-44c-3-24-24-2-38-12-3-13 76-6 101-25 29-8 53-72 30-13-21 14-11 35-40 27-31-7-31 19-53 23zm73-129c2-7-28-26-5-24 13-24 22-27 31-3 19 0 3 27 30 21-23 2-36-9-56 6z"/><path fill="#5b3164" d="M96 1305c-10-16-8-41-34-14-11 17-20-5-10-19-5-6 41-24 44-1 51 5-20 15 9 36-3 2-8 2-9-2zm24-12c-13-3 20-5 3-19 32-7-17-21 12-18-1-17 11-3 11-4 33 0 29-29 11-20 19-44-44 7-40-18 10-8 16-16 31-27 0 25 43 27 47-1 27-6 31-37 6-55 8-23 45-8 26-46 0-29-20-37-18-65-6-1 1-59 11-17 7 50 40 88 75 122 46 34-2 87-35 110-33 39-96 22-127 57l-5 1zm447-58c-21-12-23 2-31-21-20-25-75-45-71-65-22 4-43 31-6 20-25 17-53 7-76 19-27-15-13-24 10-28 7-5 14-44 25-14-11 40 41-25 14-31 12-17 8-10 8-31 30 3 34-38 7-22-12-20-38-22-2-39 14 36 37-5 40-30 4-27 32-10 33-20 6 33-33 4-26 27 22 10-11 54 15 25 1-37 18-5 21 8 1-23 2-30 9-48-5-19-2-69 13-25 22 15-7 32 5 31 0 7-15 33 2 11-4 25 12 7 18 42 20 5 8 52 35 37 23-17 15 58 27 11-19-13 54 4 20 11-14-2 22 21 0 27 7 31 21-18 33-21-5-29 16-56 7-87 11-9 2-5-8-27 9-10-29-53 3-16 21 35 16 59 22 97-2 47-50 88-67 120 19 26-27-25-13 15 7 29-43 25-38 0 30-20-24-9-14 10-22 2 0 12-15 14zm-156-137c3-24 52-42 18-8-4 4-12 12-18 8zm7-29c-19-12-25-38 0-33-11 8 26 32 0 33zm148-102c-16-18-6-54 3-27 7-12 15 0 8 10-18-9 1 28-11 17zm-5-51c-24-14-68-78-44-96 24 8 47 13 72 11 32 10 48-24 70-33 13-32 43-24 15 4-27 29-58 52-69 87 4-41-32 30-2 8-8 36-22 1-42 19zm-290-76c0-20-32-7-44-10 39-20 101-5 134-46 28-56-3 39-35 31-30-4-35 17-55 25zm72-128c2-7-28-26-5-24 8-17 25-32 27-3 25-4 5 27 34 21-23 2-36-9-56 6z"/><path fill="#302f5f" d="M120 1293c-13-2 15-8 7-19 17-3 44-5 12 12-3 8-12 7-19 7zm-45-21c-31-3 35-24 7 2h-5zm111-9c-1-24 34-20 11-27 19-10 51-3 52-32-4-19-8-23-22-13 3-26 16-52 20-77 3-59 56 20 66 38-1 48-47 83-87 100-14 3-26 12-40 11zm415-34c-12-17 22-40-16-25 4 25-17-10-10 16-38 17-64-39-99-51-20-7 9-33-24-15-29 17-4 23-42 25-35 18-56-20-17-19 7-5 14-44 25-14-11 40 41-25 14-31 11-13 11-29 34-40 10-26-8-17-18-16 18-21 32-42 40-69 2-24 30-7 30-17 6 33-33 4-26 27 22 10-11 54 15 25 1-37 18-5 21 8 1-23 2-30 9-48-5-19-2-69 13-25 22 15-7 32 5 31 0 7-15 33 2 11-4 25 12 7 18 42 20 5 8 52 35 37 22-17 15 58 27 11-17-14 54 5 20 11-14-2 22 21 0 27 7 31 21-18 33-21-5-29 16-56 7-87 11-9 2-5-8-27 9-10-29-53 3-16 21 35 16 59 22 97-2 47-50 88-67 120 18 25-22-23-18 15-9 8-24 8-28 18zm-182-136c4-25 39-25 7-1 2-1-13 7-7 1zm26-39c-25-14-19-27 9-23 0 8-4 21-9 23zm121-87c-16-18-6-54 3-27 7-12 15 0 8 10-18-9 1 28-11 17zm-5-51c-22-3-55-73-21-59 20 18 51 9 74-7 19-14 33-18 4 4 0 24-7 42-18 19-17 22-9 31 0 30-6 27-22-6-39 13zm19-29c-19-26-21 18 0 0z"/></svg>