<svg xmlns="http://www.w3.org/2000/svg" width="32" height="32" viewBox="0 0 921.9 979.2"><path d="M577.5 976.3c-54.6-11-39.3-82.2-18.7-117.2 3.9-17.2-35.2 39-55.7 34.6-46.8 27.4-113.4-30.7-72.8-75.8 9.3-15.5 67.7-38.5 22.9-27-47.8 21-107.4-38.7-72.7-83a213.6 213.6 0 0 1 132.2-56.4c-1.7-39 27.2-80.5 29.6-110.2-40.7 24.2-24.7 91.4-78.8 108-36 23-89.5 59.4-126 17C292.2 634 339 580 375.8 566c22.3-9.3 47.7-12.4 30.8-41.7-8.6-33.2 67.5-63.6 52.4-68.9-33.9 9.8-69.2-13.6-90.7-28.1-41.3 21.2-55 68-81.8 101.4-19.7 1.3-18.4-28.2-22.8 7.4-11.7 88.5-31.7 182-3.1 269.3 16.9 14.4 16.3 76.8-7.4 33.5-40.7-66.1-38.4-147.3-39.6-222.3 4.7-111.1 42-218.9 91.5-317.6 36.3-55.6 83.4-110.6 146.4-135.8 37.2-32.3 92.8 6.5 121.5-32.4 32-49.2-53.8-72.4-81.4-35.3-44 24.2-66.6 72.4-107.8 100.7-90.4 75.2-187.7 148.7-243.3 255.4-13.2 17-34.3 107.2-50 49.1 20-122 116.3-212.2 210.1-283.9 66-51.4 127.9-108.7 199.1-152.9C527.4 34 623.2 85 599 22 581.4 9 533.7-2 581.2.3 643 0 704.8-.5 766.6.8c-19 18.6-30.5 44.2-58 32.7-57.9 21.4-10.3 70.2 23.6 89 38 34.4 74.1 70.7 111.8 105.6 51.6 50.9 104.2 105.4 123.5 177.4 36.8 100.4 37 208.5 43.4 313.8 9.1 52.5-29 86.5-17.1 139.5 9 24-13.5 77.8-18.2 25.6-8.3-81.6 3.7-166.5-28.4-244.4C907 522.8 843 413 756.2 324c-38.6-44.7-80-88.7-130.7-119.6-35.5 13.7-23.1 70.9 9.2 91.9 10.8 48 70.3 28.8 84 75-5.9 55.2 59.8 47.3 81 88.5 36.6 52.7-37.3 93-82.6 71.2-38.7-8.5-72-32.9-93.2-66 15.3 34.6 23.5 82.6 73.1 68 45.5 13.7 91.7 53.7 94.5 103.7 1.1 58.8-74.2 67.6-107 28.1-21-5-44.8-70-47.8-49.3-7 30.3-19.3 72.9 28 63.1 52.7 24 111.9 58.2 125.8 119.2 11.3 47-55 69.1-83.3 39.6 17.6 31.6-.8 82.2-41.7 78-8 31.7-31.3 71-73.1 62.5l-5.4-.3zM630.1 565c18.4-21.7 11.4-83.3-15-82.2-21.6 22.2-53 55.5-3.9 68.8 5.7-1.1 17.4 28 19 13.4zm321-49.6c-12.8-86-41.8-172.6-103.9-236-46-46.4-78-105.4-132-143.7-23.6-28.8-91.5-36.8-88.3 13.3-18.3 50.7 55.9 55.5 80.8 89.8 107.9 67 185.7 172.4 242.8 284 3.7 3.4-2.3-15 .6-7.4zm-653.4-70c9.4-31 96.2-52.6 32.9-68.4-22.4-25.2-41.5 78.1-39.2 77zm330.8-100.7c58.7-12-55.2-73.5-18-12.8 4.2 8.6 5.9 26.2 18 12.8zm-89.9-6.7c6-25 13-66.6-7.6-20.4-18.1 7.2 1 38.3 7.6 20.4zm-35.2-64.6c46.4-21.7 39.4-65.7 25.1-104-45.4 1.7-84.3 25.6-118.1 55-12.8 8-55 54.4-13.5 30.2 41.4-26.2 83.8 3.2 106.5 18.7z" style="fill:#f5921b" transform="translate(-90.6 .1)"/><path d="M585.5 976.4c-58.5-2.5-49-76.2-28.3-112.2 15.5-39-39.3 38.4-61.8 30.2-41 21.5-100-29.2-67.7-69.8 32.5-44.2 3.3 56.6 55.8 32.9 48.4 4.9 87.7-83 20.2-79-38.7 4.6-88.7 32.4-118.3-7.8-42.7-43.4 19-87.6 57.7-101.8 41-24 81-7.5 124.3-7.5 35-6.7 66.7-95 7.5-85-21 2-61.5 61.9-47.5 9 11.2-16.8 30.5-58.2 1.4-48.3-12.5 12.8-57.8 54.4-13.5 26.2 7.4 45.5-33.3 76.7-69.6 95.7-37.8 31.3-100.4 37.3-124.5-14-14.8-32 41.7-85.1 40-24.5 19.1 44.8 105.4-22.1 61.2-54.8 6.2.8 78 28.4 22.4 6.4-44.6-12-46.4-80.4 7.7-63.1 28-15.9 43.3-74.4-6.4-52.7-44.8 10.2-73-60.2-105.5-6.8-30 16.5-30.8 82.4-66.5 76.7-12.2-27.6-13.8 45.8-18 61.1C246.7 668 233.5 755 271 830.6c4.6 61.9-44.8-33.3-45-57.1a647.9 647.9 0 0 1 28.8-356C279.4 343.5 312 269.6 372 217c36-39 86-61.3 137.1-70.5 33.5 15.2 74-7 72.3-43.6-28-50.4-83.3-16.2-115.4 9.6-36 42.1-75.3 81.2-119.7 114.6-83.8 68.2-167.6 142.2-214.5 241.8-8.2 20.1-30.6 83.8-41.2 31.8 19.8-122 116.2-212.2 210-283.9C369 164 432.4 103.5 507.3 59.8c30.7-24.8 99.4 28.3 98.9-34-20.9-14.5-70.4-28-15.6-25.6 58.8-.6 117.7.1 176.5.3-20.4 17-30.5 44.7-59.4 32.1-60.7 25.3-4.5 73.1 29.2 93.7 62 60.4 128.2 117.1 183.4 184.3 69.2 101.2 82.1 227.8 86.9 347 1.2 46.6 16 104.3-12.6 141.5-10.1 30.2 16 98.5-15.2 106.8-16-85.1 3.3-175.2-29.5-257.7C910 527.8 845 415.2 756.2 324c-37.9-44-78.7-87-127.9-118-34.2 2.9-32.6 65.8.9 83.3 12.9 38.3 42.3 44 72.8 59.7 20 19 27.3 66.6-11.5 64.7-24.2 38.6-3.7 113.6 50.2 77.3 33.4-8.2 30.6-80.7 59-29 34 50.9-37.5 87.4-80.3 68.5-40.5-5.8-74.9-41.3-97.4-65.5 19.2 32.7 23.4 82.7 72.6 67.4 20.2 2.8 75.5 39.1 25.2 28.4-34.6 21.2-52.7 77.6-9.2 100.7 29.5-1.2 34.9-44.4 56.8-61.2-10.8-51.5 53 51.9 8.7 71.7-34.4 39.8-91.5-.6-115.5-33-14.3-18.8-29.2-56.2-25.5-9-18.6 27-4.9 58.7 29.7 49.2 66.2 9.2 29.2 70 44.7 112.5 8.5 39.4 70.5 51.7 61.4-2 2-23.8-35.9-73.4-.5-33.4 41 33.2 13.5 115.8-42.6 86.2-26.3-10.5-49.7-48.8-65-3.7 9.9 36.4-17.6 34.7-39.8 17.5-19.1 17.2-77.7 74.6-15.9 70.8 22.8.2 68.1-10.8 38.7 25.7-12.5 19.8-38.4 26-60.3 23.6zm51-181c48.3-11.2 43.1-80-9-71.9-37.4 1.2-32 92.5 9 71.9zM454 754c39.3-6.4 43.6-82-4.4-55.1-37 5.9-43.4 73 4.4 55.1zm176.9-190c19.5-23.8 8.9-84.8-18.2-85.2-22.2 21.9-49.2 63.3-1.8 73.4 6.6.3 19 31.3 20 11.8zM951 515.3c-12.8-86-41.8-172.6-104-236C800.7 232 767.9 172 712.9 133.2c-30.7-32-98.8-29.2-87 27.6-9 39.4 57.6 43.4 76.6 74.5 110.3 67.4 190.3 173.7 248 287.4 3.8 3.4-2.2-15 .7-7.4zm-359.8-55c47.3-37-39-98.3-67.7-56.8-36.1 31.5 42.1 71.5 67.7 56.7zm-293.6-15c7.1-28.4 77.8-53 69.5-58.4-25.5 5.7-55.3-38.8-59.3 7.7-1 7-37.4 92.3-10.2 50.8zm159.3-30c24.3-13.7 9.6-50.6 20.3-74.8-12.4-26.7-80.4 15.6-46.8-30.6-9-26.8 60.6-63.7 3.6-53.6-19 3.1-64.3 6.5-19.7-5.4 33.6-19 70 11.9 87 24.4 40.7-21 49.8-59.2 29.6-98.7-24.8-17-73.8 12.2-101 31.4-37.2 27.7-69.3 65.8-84 110.2 5.8 31 55.8 36 21.6 61 34.1-21 61.7 9.8 69 39.6 7 2.5 14.2-.4 20.4-3.5zm168.5-67.8c65.9-5.4-43.8-79.2-18-22.8 4.4 5.8 5.7 34.8 18 22.8zm-87.6-5.8c7.2-24.4 15.6-75.9-6.9-25.2-15.3 7.3-5 36 6.9 25.3zM667 914.1c-13.6-32.2 6.3-62 38.8-48 12.4 22.3-14.3 53.8-38.8 48z" style="fill:#eb551c" transform="translate(-90.6 .1)"/><path d="M587.2 972c-29.8-21 29.8-30.8 29-7.7-10.5-.8-18.8 13.6-29 7.7zm79.8-71.9c5-36 44.1 19.4 0 11.1v-11zm315.3 7.4c-14.9-42.7-9-92.7-11.4-138.5-1.6-108-51.4-208.4-103.7-300.4-45.7-79.4-110.5-145.3-173.2-211.2-28.5-19.6-77.2-87.2-91.6-23.5.7 43.8 46.6 75.3 67.7 112.4 22.1 3.5 22.7 30.2-.2 17-34.3 20.3-.5-44-41.3-52.3-51.7-34.4-2.1 43.7-15 57.2-28-16.7-92.7 14-71.7-41.2 5.2-25.2 8.7-52.3-9.4-13.5-20 39-26.3-8.8-12.8-27.2-58.5 8.2 29.7-36.1 23.7-63-11.4-28.5-3.6-69.9-46.2-48.7-39 8.6-74.5 36.5-102.7 65a397.6 397.6 0 0 0-66.6 104.2c11.8 18.5 19.3 49.5-9.3 24.3-9.7 24.3-34.7 85.3-27.2 85.9 21.4-27.4 59.8-78.3 95.9-52.3-.9 33.6-65.1 43.9-74.6 85-5.7 32.2-39.2 49.7-45.8 34C252.8 606 237 694.1 253 780.2c3.3 17.2 39.3 90.2 4.6 66.1-44.8-67.4-43-152-44-229.7 4.5-111 42.2-218.4 91.1-317.2 41-60.8 93.3-124.1 167.5-142.5 38.2-22.2 106.4 15.6 110.2-52.4-31-56.8-96.1-12.6-127.7 19.4-67.8 84.6-165 138.7-236.9 219.5a549.1 549.1 0 0 0-107.5 174.9c-40.1 4.2-6-73.6 5.2-97C175.7 295.4 300 223 401.8 134.5c44-28 81.7-75.4 135.3-82.8 25.7 18.1 90 3 61.2-30.9-14.8-13-66.5-22.5-18-20.4 61.6.4 123.8-2 185.2 1.3-19.2 14.2-29 45.7-54.3 29.8-65.3 23.2-10.4 74.3 25.7 94.9 62 60.4 128.2 117.1 183.4 184.3 69.2 101.2 82.1 227.8 86.9 347-.2 43.8 17.5 101.2-11 135.7-13 33.6 13.1 92.8-14 114.2zM951 515.3c-12.8-86-41.8-172.6-104-236-45.6-45.9-77-104.8-130.9-142.5-22.2-29-87.5-40.3-90 7-20.3 54.7 54.7 60 82.2 95.5 107.5 67.2 185.2 172 242 283.4 3.8 3.4-2.2-15 .7-7.4zM635.6 833.2c-36.4-25.4 78.3-30.5 18.7-2.8-6 1-12.4 4.5-18.7 2.8zm-70.3-60.5c-37.8 2-12.7-35-21.1-58.8 46.3-12 15.8 45.5 21 58.8zM380 762.3c-44.7-63.1 55.7 8 0 0zm378-77.2c-7-26.3 60.4-60.8 18.5-14.4-5.1 3.9-10.5 16.5-18.5 14.4zM433.5 549.7c-31.2-49.6 55-.5 0 0zM648 541c-4.4-17.3-43.3-104-13-50.4 2.6 12 31.3 48.5 13 50.4zm-107.8-44c-33.9-46.7 61.2 4.2 0 0z" style="fill:#1f5832" transform="translate(-90.6 .1)"/></svg>