<svg xmlns="http://www.w3.org/2000/svg" width="32" height="32" viewBox="0 0 1050.6667 1413.3333"><path style="fill:#ff0223;stroke:none;stroke-width:1.33333" d="M330.66668 622.66665c29.56443-144.98525 78.95599-301.43927 207.35758-389.05438 57.82941-44.10128 124.63274-74.16614 184.64243-114.94561 28.34805 134.43297 69.19477 268.13938 64.22207 407.07258 2.99041 106.01153 14.98135 214.24278.8917 319.02987-65.35098-4.14029-142.3932-19.52492-200.53982 28.24719-104.72565 68.93041-116.29292 211.7273-84.53332 322.649 21.22622 87.6583 67.08257 192.4041 166.34388 209.2906 60.19918 5.3171 123.97232 11.1799 180.42002-16.9389 106.61474-47.3864 170.35028-160.9117 190.92738-271.6828 15.0074-94.8564-24.2231-215.32619-127.47063-239.89802-67.59493 8.24027-102.50344-48.91471-88.82129-110.11612-10.50709-165.87727-3.68863-334.12885-43.85009-496.75781-6.14944-56.83591-33.80672-117.83447-19.11195-173.301318 25.03742-17.543568 76.23256-62.380182 39.01852-85.361515-41.36737 14.22059-78.49543 14.319674-87.66352 66.510879-43.66901 56.784934-122.6872 77.493434-175.2781 128.039094-91.15503 65.04432-161.43367 158.07419-192.1974 266.34508-26.75907 63.38214-19.9228 176.27304-117.45816 146.05137-88.17375-9.79365-172.36971 49.08956-200.427106 131.84848C-18.182673 874.81869-6.5711859 1034.5661 99.009449 1126.695c86.336481 83.0212 228.973831 57.1264 308.704541-21.6706 50.85574-50.7904 81.75695-118.8177 103.89539-186.35126 26.66541-93.69471 6.72462-215.91198-86.96621-264.71457-28.84116-16.52101-61.05604-26.96402-93.97649-31.29192zm76 97.33333c44.981 13.5207 51.01721 69.53395 67.73507 116.2558 50.36047 29.20701 27.53439 111.38525-16.37748 134.6957-22.24904-21.28029-21.52966-97.41856-18.35412-89.22795-49.81706-40.99154-7.95672-79.77351-37.90317-126.1867-12.81494-28.12269-35.54094-111.50079 6.38456-48.18394l.59725 6.52062zm466.66668 180c67.58516 22.75442 125.88713 87.26085 114.14116 162.41562 2.92716 28.4423-40.89547 110.1587-58.04769 58.9168 11.84918-43.145 31.7764-89.3971-3.73188-123.76533-14.24964-33.90723-25.61919-70.98928-52.36159-97.56709z"/></svg>