<svg xmlns="http://www.w3.org/2000/svg" width="32" height="32" viewBox="0 0 132.7 203.5"><path fill="#aa554f" d="M52 202c-21-12-31-35-38-57-6-18-16-37-13-57 3-12 14-20 23-26 5-3 20-8 15-13-8-2-15-7-21-12-10-15 1-3-2-6 4 8 13-3 17 4 7 1 14 5 19 4 1-6-9-12-6-20 3-7 12-8 16-1 6 5 6 17 8 21l15-19c4-9 14-4 18-11 8-2-1 10 2 15 4 10-9 20-1 29 16 5 20 13 21 17 11 15 8 34 3 50-6 15-16 28-22 42-5 12-10 24-19 34-10 7-24 8-35 6zm30-6c-3-4-3 4 0 0zm-12-3c-2-4-2 2 0 0zm-11-6c0-5-2 4 0 0zm30-1c-2-4-1 3 0 0zm-13-4c-2 1 3 3 0 0zm-10 0c-2-6-7-1 0 0zm20-4c-2-4-4 2 0 0zm10-1c-2-5-1 5 0 0zm-30 0c-2-4-2 2 0 0zm-10-7c-1-5-2 4 0 0zm12-2c-2-3 1 4 0 0zm4-2c-4 0 3 3 0 0zm19 0c-3-2-1 4 0 0zm9-1c-3-5-2 4 0 0zm-54-1c-3-5-2 4 0 0zm36-1c-3-5-2 4 0 0zm-20-5c-4 0 3 3 0 0zm10-2c-5-6 4 10 0 0zm25 0c-6-1 0 6 0 0zm-44 0c-1-6-3 3 0 0zm32-2c3-3 4-9 0-4-12-4 2 8 0 4zm7-2c-2 1 3 3 0 0zm-26-2c-2-4-4 2 0 0zm2-2c-4 0 3 3 0 0zm-26-2c-4 1 3 3 0 0zm66 1c-3-5-2 5 0 0zm-32-2c-2 1 3 3 0 0zm23 0c-4-3-2 5 0 0zm-41-2c-2 1 3 3 0 0zm13-2c-5-4-2 2 0 1zm-22 0c-1-6-3 3 0 0zm35-3c-5-3 3 3 0 0zm21 1c-1-7-6 1 0 0zm8-1c-3-5-2 5 0 0zm-20-1c2-7-6 3-1 1zm-19 0c-3-5-2 4 0 0zm-13-4c-4 0 3 3 0 0zm22 1c-4-6-9 5 0 0zm-33-2c-2-4-2 2 0 0zm65-2c-4 0 3 3 0 0zm-74-2c-2 1 3 3 0 0zm60-1c-3-5-2 5 0 0zm8 1c0-6-3 2 0 0zm8-1c-2-4-1 5 0 0zm5-1c0-5-2 4 0 0zm-54-1c-2-6-5 3 0 0zm23-1c-3-5-2 4 0 0zm7-1c-1-4-1 3 0 0zm-43-1c-2-4-4 2 0 0zm2-3c-4 1 3 3 0 0zm23-1c-6-9-1 4 0 0zm30-1c-4-2-2 4 0 0zm7-1c1-5-3 4 0 0zm-70 0c-2-4-4 2 0 0zm49-1c-3-5-2 4 0 0zm11 0c0-6-3 2 0 0zm18-2c-3-4-1 6 0 0zm-63 1c-2-4-2 2 0 0zm-25-1c-2-4-4 2 0 0zm92-3c-4-3 0 4 0 0zm-22-4c0-5-4 5 0 0zm-58 0c-2-4-2 2 0 0zm20-1c-3-5 1 4 0 0zm47-1c-2-9-1 8 0 0zm-65-2c-4 0 3 3 0 0zm73 0c-2-8-3 7 0 0zm-36 1c-3-6-4 3 0 0zm18-1c-3-5-2 4 0 0zm-67-3c-2 1 3 3 0 0zm90-2c-3-6-2 5 0 0zM29 94c-2 3 2 3 0 0zm59 3c-2-4-2 2 0 0zm12-1c-3-4-2 5 0 0zm-43-1c-2-4-2 2 0 0zm18-1c-4-5-2 1 1 1zm40-2c-4-6 1 5 0 0zm-56-2c-4 1 3 3 0 0zm38 2c-1-4-1 3 0 0zm-74-3c-3-5-2 5 0 0zm22 1c-3-5-2 4 0 0zm3-2c-1-5-2 4 0 0zm74-1c-2-6-1 6 0 0zm-53 0c-2-6-5 3 0 0zm40-2c-5-2 1 5 0 0zm-72 0c1-5-3 4 0 0zm54 1c4-2 3-12 1-5-3 3-13-2-5 3 1 1 4 4 4 2zm35 0c0-7-3 3 0 0zm-21-4c-2 3 2 3 0 0zm-40 1c-1-6-3 3 0 0zm64-2c-4 0 3 3 0 0zM18 81c1-5-3 4 0 0zm52-1c-1-6-3 3 0 0zm-40-2c-4-3 0 4 0 0zm60-1c-3-5-1 6 0 0zm-38-3c-4 2 3 4 0 0zm5 2c-1-5-2 4 0 0zm27-2c8 0 4-12-1-4-1 2-3 10 1 4zm33 1c-3-5-4 4 0 0zM16 72c-4-1 0 5 0 0zm30 0c-3-4 1 6 0 0zm28 0c5-6-7-7-2 0 0 2 4 3 2 0zm30 0c0-5-8-6-3 0 0 2 3 4 3 0zm-60 1c-3-5-2 4 0 0zm35-3c-2-3-2 1-1 2h1zm-52 1c-3-5-2 4 0 0zm11-4c-4 2 3 4 0 0zm69 1c0-11-5 5 0 0zm12 1c0-6-3 2 0 0zm-94-3c1-4-4 4 0 0zm39-2c-2 3 2 3 0 0zm-8-3c-5-7 0 11 0 0zm7 2c-4-3 0 4 0 0zm-27-3c-4-1 0 5 0 0zm53 1c-3-6-3 4 0 0zm18-2c-6-2 3 5 0 0zm-60-1c-3-2-1 4 0 0zm25-2c-4-1 4 6 0 0zm16 2c-3-5-2 4 0 0zm6-2c-4 1 3 3 0 0zm-28-3c-3-3-2 4 0 0zm14-1c-2-4-4 2 0 0zm22-10c-2-5-3 3 0 0zm-10-2c3-4 12-14 8-16-3 6-11 11-10 18l1-1z"/><path fill="#aa1214" d="M42 56c8-10 21-6 31-7 9-1 19 0 28 2 8 4 17 8 22 14-3 0-8 5-4 4 3-4 6 8 6 1 9 12 8 28 5 41-1 6-4-6-2 3 1 10-7 18-11 27-5 6-6 14-11 19 0 9-7 14-14 16-10 4-21-1-24-11-10-23-9-49-15-74-2-12-5-24-11-35Zm54 119-36-67 36 67zm-17 1c-3-5 1 4 0 0zm-7-10c-5-3 3 5 0 0zm11-1c-1-11-4 6 0 0zm10 0c-7-1-3 7 0 0zm7 0c-3-5-2 5 0 0zm-12-4c-4 0 3 3 0 0zm-13-1c-2-2-8-16-7-8 1 2 2 11 7 8zm22-3c-4-7-3 7 0 0zm-20-1c-1-5-2 4 0 0zm9-3c9-5-3-18-3-22-5 6-14-10-9 0 5 5 20 13 9 19-4-1-10-6-4 1 1 1 5 6 7 2zm7 0c-5-7 0 6 0 0zm10-2c-6-2 2 5 0 0zm5 0c-2-4-2 2 0 0zm-42-1c-1-6-3 3 0 0zm42-3c-2-7-2 5 0 0zm-9-3c-5-3-2 7 0 0zm-26-1c-4-8-8 2 0 0zm22-2c-4 1 3 3 0 0zm18 2c2-6-6-7-2-1 0 0 2 3 2 1zm-21-1c-2-4-2 2 0 0zm-19-6c-3 2 3 3 0 0zm32 3c-2-8-9 2 0 0zm-11-3c4 0 1-9 0-3-6-1-4 10 0 3zm-33-3c-5-4 2 5 0 0zm27-2c-2 1 3 3 0 0zm22 1c-2-4-2 2 0 0zm6 0c-1-6-3 3 0 0zm-15-6c-7-1 2 7 0 0zm-21 2c-1-4 0 4 0 0zm23-1c-3 1 0 4 0 0zm7 0c-5-5-3 4 0 0zm8-1c-4-3-2 6 0 0zm4-1c-5 1 1 6 0 0zm-30 0c1-9-11 3 0 0zm-24 0c-2-7-5 2 0 0zm17-2c0-6-6 0 0 2 1 1 3-1 0-2zm14-1c-2-5-3 3 0 0zm18-2c-3-4-1 3 0 0zm-36-2c-5-9-4 5 0 0zm27 1c3-2-4-9-2-3-3 4-1 4 2 3zm-20-1c-2-4-4 2 0 0zm29-2c1-6-3 5 0 0zm-20-1c-3-7-4 4 0 0zm28-1c-3-10-4 7 0 0zm-44 0c-2-4-4 2 0 0zm-1-4c-1-6-3 3 0 0zm15-1c1-5-3 4 0 0zm13-3c-3-12-9 8 0 0zm5-1c6 6 3-10 0-2-1 1-2 6 0 2zm11-1c2-8-8 0 0 0zm-35-1c-4-6-5 3 0 0zm-5-1c-2-4-2 2 0 0zm45-5c-2-7-2 5 0 0zm-41 0c-3-5-2 4 0 0zm12-1c1-6-5 5 0 0zm14 0c-3-5-2 4 0 0zm-37-1L48 59Zm20-4c-5 1 2 6 0 0zm18 1c-6-6 1 6 0 0zm8-1c-2-3-4 2 0 0zm-46-3c-2 1 3 3 0 0zm-8-1c-1-5-10-6-3-1 0 2 2 4 3 1zm53 0c-2-7-3 5 0 0zm-30-2c6-1 1-12-1-4-10 5-9-11-2-11 0-6-10-1-7 4-3-3-7-5-3 0 4 4 5 16 13 11Zm17 1c-2-7-2 5 0 0zm18-1c-3-9-3 6 0 0zm-21-2c-2-4-1 5 0 1zm23-2c-4 0 3 3 0 0zm-59-1c-2-7-2 5 0 0zm20-2c-1-7-3 4 0 1zm-37-3c-2-7-2 6 0 0zm4 1c-2-7-2 5 0 0zm60 0c-2-7-6 3 0 0zm-42-4c5-5-8-11-4-3 0 2 4 8 4 3zm29 0c2-5-8-7-4-1 0 1 4 6 4 1zm-5 0c-3-5-2 5 0 0zm7-7c-6 1 5 7 1 0zm-50-4c-5-5-1 11 0 2v-2zm8 3c-7-9 1 9 0 0zm24-4c-2-8-1 8 0 0zm20 1c-6-9-1 5 0 0zm-61-1c0-9-4 5 0 0zm25-4c-4-1 5 7 0 0zm22-1c-4 2 3 4 0 0zm-28-2c-3-3-2 4 0 0zm13-3c-4 2 3 4 0 0z"/><path fill="#5a541a" d="M34 47c-8-2-20-11-20-17 4 3 12 9 15 1 4 8 16 8 23 10 4-8-11-16-4-24 7-9 15-1 18 7 5 5 0 18 3 19 5-7 9-14 14-19 4-4 8-14 12-7 3-2 10-14 11-5-3 10 1 21-2 31-4 9-22 5-11-4 4-4 12-11 8-16-5 4-7 12-12 17-3 5-15 8-14 0-6 8-17 7-25 11-5 1-11-2-16-4Zm20 1c-3-6-2 4 0 0zm3-3c-3-5-3 4 0 0zm45-3c-4-4-4 8 0 1v-1zm1-4c-2-3-3 4 0 0z"/><path fill="#8f1516" d="M52 202c-21-13-32-36-39-59-6-18-15-36-12-56 5-13 17-22 30-28 8-4 18-6 27-6 1 9-15 0-13 10-2 7 11 5 7 11 4 4 8 12 15 13-3-6 3-8 3-1 0 6 9 15 11 12-3-3-11-11-6-15 4 9 14 18 23 19 1-3 2-12 4-4 0 8 9 12 14 15-4-5-8-18-2-20 3 2-2 16 3 10 1-8 17-5 10-16-1-4-2-19 2-10 4 10 3 20 3 30-6 6-4 14-8 20-7 14-16 27-21 42-5 11-10 25-22 31-10 3-20 4-29 2zm31-6c-6-6-3 6 0 0zm-13-3c-3-5-2 4 0 0zm-10-6c0-6-4 0-1 1zm15 0c-4-4 1 4 0 0zm15-2c-4-3-1 4 0 0zm-12-1c-1-7-6 3 0 0zm-12-2c-3-9-7 2 0 0zm-16-3c-3-5-2 4 0 0zm37-2c-5-5-3 7 0 0zm9-3c-6 0 4 5 0 0zm-30 3c-1-6-4 2 0 0zm13-1c5-7 18-2 20-12-5-4-1-9-7-9-6-1-4-8 1-5 1-6 0-12 2-17-3-4-13 1-6 4-7 3-6-4-6-7-4-5-4 5-7 0-8-3 4 6 6 7 7 3 4 16-3 10-9-2 8 7-2 7-4 1 2 16-2 5-3-5-6-2-3 2 1 6 1 13 7 15zm0-10c6-3 0 9 0 0zm8 2c-8-7 10-2 1 0zm-15-1c-3-1 2-2 0 0zm12-10c2-5 4 4 0 0zm-28 12c-3-3 0 3 0 2zm14 0c-5-8 0 6 0 0zm-25-7c-4 3 4 3 0 0zm17 4c0-5-1 3 0 0zm-13-1c-2-3 0 3 0 0zm-8-2c-5-4 1 5 0 0zm24-1c-4-1 3 3 0 0zm4-3c-3 5 4 4 0 0zm-10 2c-2-6-2 5 0 0zm3-3c-4 2 4 3 0 0zm-24-1c-1-5-1 3 0 0zm65 1c-1-6-4 4 0 0zm-58-1c0-3-2 1 0 0zm8-1c-1-6-2 4 0 0zm16-8c-5 2 3 5 0 0zm35 5c2-6-6 0 0 0zm-44-2c-3-2-3 3 0 0zm12-3c1-9-3 7 0 0zm28 3c-3-8-6 3 0 0zm8 0c0-3-2 1 0 0zm-65-3c0-8-3 5 0 0zm23 2c-1-6-4 2 0 0zm-8-1c-1-8-9 1 0 0zm50-2c-1-6-2 4 0 0zm-22 0c-2-7-5 3 0 0zm-26-2c-1-7-3 3 0 0zm39 0c-3-4-3 5 0 0zm-50 0c-3-2-3 3 0 0zm0-4c0-4-2 1-1 1zm24 2c-3-8-8 2 0 0zm12-1c-2-6-12 2-4 1 2 1 4 0 4-1zm28 1c3-8-8-2 0 0zm-10-2c-2-6-7 1 0 0zm-67-1c-1-5-4 3 0 0zm38-3c2-8-4 4 0 0zm31 2c-1-8-8 3 0 0zm-50-5c1-5-5-2-4 0-1 3 4 2 4 0zm-27 1c-3-5-2 4 0 0zm33-2c-3-4 1 4 0 0zm38 1c-2-3-1 4 0 0zm-36-4c-3 2 4 3 0 0zm-13 2c-3-5-2 4 0 0zm54 0c-3-5-2 4 0 0zm6-1c-3-3 0 4 0 0zm6 1c-1-6-4 2 0 0zm-83-1c-2-6-4 4 0 0zm67-2c0-7-3 5 0 1zm-59-1c-4 1 3 2 0 0zm62-1c-4 1 1 4 0 0zm-73 1c0-5-1 3 0 0zm80-1c-2-6-5 5 0 0zm8-1c-5-2 0 5 0 0zm5 2c0-5-5 2 0 0zm-90-2c-1-4 0 3 0 0zm62 1c0-3-2 1 0 0zm-2-2c-1-8-8 5-1 0h1zm-37-2c-2 1 3 2 0 0zm12 2c-1-10-6 2 0 0zm19 0c-3-9-7 2 0 0zm12-3c-2-6-4 4 0 0zm6 0c-2 0-1-1 0 0zm-81 0c0-3-2 1 0 0zm30 0c-1-6-3 2 0 0zm-7-1c-2-4-3 3 0 0zm10-3c-4 2 3 2 0 0zm60 2c-2-5-2 3 0 0zm-81-1c-1-5 0 4 0 0zm46-2c-1-7-13-2-4 2 1 1 4 0 4-2zm27 0c-4-9-6 9 0 0zm-63-2c-4 2 4 3 0 0zm42 3c-3-5-2 4 0 0zm14-2c5-7-13-2-4-2 1 1 3 6 4 2zm-65-2c-1-6-2 4 0 0zm88 0c-2-10-4 5 0 0zm-63 0c-3-5-2 4 0 0zm-33-4c1-7-5 4 0 0zm51 0c-1-6-4 2 0 0zm15-3c-4 2 3 3 0 0zm-32 2c1-6-3 2 0 0zm-41-1c-2-4-3 3 0 0zm29 0c-3-5-2 4 0 0zm72 0c-3-5-2 4 0 0zm-74-2c-1-6-4 2 0 0zm22-1c-1-7-5 3 0 0zm-50-3c-2 2 3 3 0 0zm31 2c-1-6-2 4 0 0zm72 0c2-6-5-4-2 1l2-1zm-35-2c-5-5-1 6 0 0zm-48-1c0-6-5 2 0 0zm25 1c0-3-2 1 0 0zm-53-2c-3-1-1 3 0 0zm45 0c0-6-7 1 0 0zm13-2c-6 0 3 3 0 0zm-41-2c1-7-4 4 0 0zm-19-1c-3-2-3 3 0 0zm46 0c-1-6-4 2 0 0zm2-5c-4 2 4 3 0 0zm-36 0c-3-5-1 5 0 0zm23 0c-4-7-4 6 0 0zm-10-2c-4-1 0 4 0 0zm12 0c-2-4 0 5 0 0zm-36-2c-4-1 3 3 0 0zm-7-2c-1-6-3 1 0 2Zm33 1c1-7-5 4 0 0zm91-4c-4-1 3 3 0 0zM19 80c-2-5-3 5 0 0zM8 79c-6-1 1 5 0 0zm22 0c0-6-3 1-1 1zm23 2c-1-5-13-11-7-2 2 1 4 3 7 2Zm-37-7c3-4-5 2 0 0zm10-5c-4 2 4 3 0 0zm13 1c1-6-3 4 0 0zm-3 1c-3-5-2 4 0 0zm-10-6c-7-2 1 6 0 0zm7-2c-4-1-1 5 0 0zm4-2c-4-5-2 5 0 0zm69 42c-6-4 4-3 0 0zm1-13c-5-4 4-1 0 0zm-20-1c-10-6 6-2 0 0zm36-1c-4-2 3-4 0 0zm-32-7c0-5 5 1 0 0zm-19-7c-9-4 4-2 0 0zm48-5c-6-3 8-7 1-2-1 0-1 5-1 2zm-73-2c2-5 2 4 0 0zm3 0c2-5 2 4 0 0zm2-5c2-6 2 4 0 0zm60-2c-6-2 1-3 1 0zm-14-7c-8-2-4-7 1-2 2 1 1 3-1 2zm4 1c3-5 4 4 0 0zm-33-1c-8 1-5-8 1-3 3 1 3 4-1 3zm7 0c-1-7 4 2 0 0zm4-2c-6-2-4-5 1-2 3 1 0 2-1 2Zm-22-7c-1-4-11-14-6-15 3 5 9 9 6 15Z"/><path fill="#701315" d="M52 202c-21-12-31-35-38-57-7-18-15-41-14-57 1-1 4-10 4-5-3 4 7 9 3 0 1-4 8 3 4-2-4-9 6-18 11-9 4 5 11-2 4-2s4-6 4 1c4 6-3 6-4 9-9 0 3 11 1 4-3-5 12-1 4 0-2 7 4 0 7 5 5 3-4 4 2 5 5 5-1 21 11 15-1 5 6 7 6 9-4-2 3 9-3 3-3 5 5 11 2 16 2 4 7 4 2 7-2 9-12-11-11 0 3 5-1 9-2 12 1-4 10-4 7-3-2 1 2 9-3 6 0 7-2 13 5 18 1 3 7 7 6 1 4 10 14 16 25 13 4 0 4-11 8-6 0 11-13 15-21 17-7 2-14 2-20 0zm31-6c-6-5-5 5 0 0zm-13-3c-3-4-2 3 0 0zm-10-6c-1-6-4 4 0 0zm-5-3c-2-4-1 3 0 0zm-5-6c-3-3-1 5 0 0zm-4-14c-2-7-2 5 0 1zm2 0c-4 1 3 3 0 0zm-7-1c-5-3 1 5 0 0zm-3-6c-1-6-1 4 0 0zm4 0c-3-4 0 4 0 0zm7 0c-2-4-2 4 0 0zm-5-9c-7-14 0 12 0 0zm11-7c-8-4-3 4 0 0zm-19-1c-2-4-4 2 0 0zm5-1c0-6-3 2 0 0zm11-2c6-2-3-11 0-3-6-8-4 5 0 3zm-24-2c-3-5-2 4 0 0zm9-2c6 6 7-9 2-3-2 1-7 4-2 3zm-4-2c-3-5-4 5 0 0zm-3-3c-1-4-1 3 0 0zm3-2c-1-4 0 4 0 0zm12 1c-2-4-4 2 0 0zm3-1c-1-4-1 3 0 0zm4-2c0-3-3-13-3-4-4 1 6 10 3 4zm-28-2c-2-4-2 2 0 0zm23-4c-2-8-4 10 0 1zm-4 3c-2-4-2 2 0 0zm-7-2c0-5-3 4 0 0zm1-5c-3-8-2 6 0 0zm-8-4c-3-9-3 6 0 0zm11-1c-5-3 3 5 0 0zm-18-1c-2-3-3 3 0 0zm15-4c-6-5-2 2 1 1zm-15 0c-1-6-1 5 0 0zm19-3c-2-7-4 5-1 1zm-28-1c-3 0-1 3 0 0zm14-3c-3-4 0 4 0 0zm4-1c-1-7-4 5 0 0zm-6-1c-3-2-4-10-5-3 0 2 3 6 5 3zm-14 0c-2-3-3 3 0 0zm2-7c-6-7 0 10 0 0zm23 1c-4-4-2 5 0 0zm-16-2c-4-2 0-9-4-12 2-2 8 10 7 1-3-4-10-9-9 0 1 4 1 11 6 11Zm-7-10c-1-6-2-2 0 2zm60 108c1-6 4 6 0 0zm-5-1c-1-5 5-4 0 0zm27-2c0-9 7-2 0 2l-1-1zm-33-4c0-6 8 5 1 1l-1-1zm-9-6c-5-1 4-7 1-1 2 1 1 4-1 1zm6-11c-2-6 3-2 1 0zm47-2c-2-4 5-9 3-5-2 1 0 5-3 5zm3-9c-5-5 9-10 4-12 2-2-7 0-2-3 9-6 11-18 17-26 4-6-1-15 4-19 1 6-1 20-3 22-4-5 0 7-2 9-3 9-10 16-12 25-1 2-3 5-6 4zm14-22c2-7-8 1 0-1zm-53 12c1-5 4 4 0 0zm-24-32c3-2 3-10 4-3 0 2-1 6-4 3zm21-1c3-3 2 3 0 0zM55 97c-4-5 4 2 1 0zm1-4c-2-7 6 3 1 0zm-11-3c-2-2-6-1-2-5 2-1 5 7 2 5zM6 78c5-5-2 4 0 0zm15-12c1-4 8-3 1 0zm9-5c2-6 16-6 5-2-1 1-4 4-5 2Zm28-17c-2-5-12-16-7-18 1 6 11 12 7 18Z"/><path fill="#32180d" d="M52 202c-21-12-31-35-38-58L3 114c1-6 4 8 5 10l13 32c2 10 9 19 17 23 0 5 1 10 5 5 5 4 6 13 12 17 7 5-2 2-3 1zm63-61c2-3 3 2 0 0zM54 38c-3-2-7-16-2-11 0 5 10 13 4 14l-2-3z"/></svg>