<svg xmlns="http://www.w3.org/2000/svg" width="32" height="32" viewBox="0 0 749 602.1"><path fill="#f7d5a8" d="M480 601c-65-3-129-28-174-75A284 284 0 0 1 24 373C-21 278-2 156 75 83a298 298 0 0 1 385-23c49 37 85 91 93 153 15 42 69 37 97 65 49 32 101 80 99 143-9 60-51 110-100 142-50 31-111 42-169 38Zm55-216c34-35-32-74-64-56-34 27 14 71 47 58l17-2Z"/><path fill="#f6b05b" d="M488 601c-67-2-135-27-182-76-104 8-217-39-270-133-55-91-45-219 30-297a295 295 0 0 1 386-39c53 38 94 96 102 162-28 29-67-20-102-7-63-5-137 4-178 58-25 37-15 89 15 120 65 78 169 114 268 120 54 3 114 1 158-34 35-28 33-79 11-114-27-49-77-78-123-106 64 28 131 77 143 150 1 70-50 130-108 163-46 25-98 35-150 33Zm63-98c-45 7-40-51-43-80 1-16-13-31-12-6 20 33 7 86-39 66-31 3-68-32-26-49 23-32 62-67 102-38 32 23 57 55 80 87 19 31-50 17-62 20Zm106-22c-49 12-56-57-97-68-34-23-11-68 27-59-15-8-77 1-37-26 10-21-35 23-43-9-13-23 11-47-11-68 25-32 88-10 102 25 18 26-67 38-17 38 30 0 31-47 64-25 34 4 65 63 12 55-16-3-74 2-31 8 36 3 99-12 102 41 7 37-29 37-50 20-31-9-90-42-108-34 30 6 40 26 70 29 33 1 87 41 42 69-7 4-16 8-25 4Zm-271-31c-32-3-86-42-69-73 38-12 78-9 116-20 34-11 49 31 16 44-20 17-35 44-63 49zm-70-83c-43 6-62-58-36-86 34-12 64 25 99 25 24 8 56 20 70 38-27 27-78 8-115 18l-18 5zm134-32c-36-29-82-41-124-57-49-20 11-69 42-47 30 7 44 56 73 52-21-12-76-61-27-68 41-4 80 26 83 67 13 26-11 55-31 44 1 8-10 17-16 9z"/><path fill="#fb9721" d="M488 600c-67-2-135-27-182-76A280 280 0 0 1 19 356c-41-102-7-229 83-294 109-85 278-81 378 16 37 35 63 83 74 132-4 43-49-4-74 3-65-11-142-7-193 40-32 30-40 83-12 118 57 87 164 128 264 138 59 5 123 4 174-29 36-28 39-82 16-119-21-37-55-63-90-86 53 30 109 79 107 146-16 91-98 162-189 174-22 4-46 5-69 5zm49-101c-40-12-14-68-29-97-36-5 8 46-6 66-16 31-73 16-89-10 10-24 41-43 61-64 40-24 78 17 103 44 11 20 33 40 39 59-25 8-52 3-79 2zm123-16c-40 4-56-37-79-60-16-5-58-47-21-43 36 17 72 33 112 41 43 14 26 57-12 62zm-275-35c-30-1-91-46-60-71 41-9 84-11 125-19 43 20-23 58-39 78-8 6-16 11-26 12zm325-23c-48-25-101-37-151-58-6-15 40-11 52-14 35 7 87-17 108 22 9 14 20 52-9 50zm-396-62c-37 8-53-42-39-70 34-33 82 26 124 22 21 4 73 38 23 40-36 3-79 0-108 8zm231-13c-10-46 67-22 71-61 26-15 98 36 52 53-42-2-81 6-123 8zm-95-17c-32-26-71-40-110-51-34-4-43-44-6-51 37-13 62 25 86 46 13 14 60 41 37 56zm71-2c-33-13 4-58-21-76 18-36 64-6 89 6 32 37-38 47-56 68-4 2-8 3-12 2zm-45-9c-21-35-71-61-80-97 30-23 84 2 93 39 8 16 16 60-13 58z"/><path fill="#f98a0c" d="M483 598c-62 0-124-24-170-66-39-18-84 0-122-21A260 260 0 0 1 13 186 278 278 0 0 1 260 2C379-9 505 62 544 177c16 24 11 71-25 43-69-17-148-22-210 15-41 24-67 78-43 122 45 83 137 129 227 147 66 11 136 15 199-11 36-14 61-55 50-94-12-52-54-92-97-121 51 30 105 80 101 146a227 227 0 0 1-203 173c-20 2-40 3-60 1z"/><path fill="#bf7522" d="M418 589c-42-11-81-34-112-65A280 280 0 0 1 19 356c-41-102-7-230 83-295 111-85 285-79 384 23 36 38 65 87 66 140-7-62-41-119-90-158-43-34-96-55-150-60 21 45-80 43-69 4-24-5-61 11-88 22A255 255 0 0 0 4 268c3 120 98 233 218 247 25 8 95 15 56-25-28-43-44-95-34-146 7-45 26-97 73-115 8-3-38 23-42 39-47 75-34 179 25 245 32 38 77 66 126 78-2 0-9 1-8-2zm291-107c44-24 43-89 15-126-21-35-53-62-88-83 54 31 112 80 110 148-1 24-12 52-37 61z"/></svg>