<svg xmlns="http://www.w3.org/2000/svg" width="32" height="32" viewBox="0 0 600 600"><path fill="#f2af91" d="M472 505c-21 20-44 40-74 46a241 241 0 0 1-254-57c-35-37-55-87-64-137-5-31-4-62 3-92 3-28 15-54 27-80-13-18-29-36-29-60-2-24 20-42 41-51 10-14 21-31 40-23 18-12 41-22 63-12 31 7 19 53 51 54 33-3 68 0 100 9 34 11 68 26 93 52a228 228 0 0 1 3 351z"/><path fill="#f99055" d="M476 499c-20 18-40 38-66 46-24 5-47 20-72 13-17 9-43 0-63 1-22-7-44-9-64-22-8-10-37-17-34-23 2-5-32-14-25-27-20-2-27-27-40-43-7-16-15-33-21-51-7-23-11-48-11-73-3-28 6-55 10-82 3-22 36-50 11-67-24-25-24-73 9-90 19-6 31-20 47-27 24-10 52-29 77-8 21 17 17 62 55 48 30 0 60 2 88 10 27 12 55 20 76 40 21 16 38 36 54 55 12 21 24 43 32 67 8 22 10 45 9 69a219 219 0 0 1-72 164z"/><path fill="#f97b45" d="M490 483c-15 16-31 31-49 40-1 3-28 2-34 8 8 14-15 1-21 12-16 1-30 0-51 3 4-13-23-16-4-1-2 9-20-6-29 1-15-5-35-3-47-8 15-5-6-16 0-3-14-2-25-23-37-13-12-10-29-14-34-27-5-10-21-1-14-10 3-6-17-10-10-20-18-9 4 21-11 5-11-5-18-39-22-31 0 10-20-14-3-7-6-7-23-25-12-22-3-14-17-28-18-38 5-4-4-15-7-7-4-15 2-22-4-36 12 5-9-15 4-20-9-12-4-24 7-25 9-12-14-34 4-32 8-8 2-12-3-5-5-9 12-13 6-24 2-18 20-38 5-53-10-14-27-35-20-57 5-21 28-35 47-38 7 10 19-7 11-8 17-15 40-25 62-29 23 0 41 18 45 40 5 24 31 21 47 20 5-7 24 7 32-1 11 12 27 0 44 7 10 8 25 8 29 18 17 6 38 21 53 34 19 10 28 38 43 45 10 14-10 1 3 14 7 7 2-15 7 2 11 13-11 2 3 15 8 15 13 34 20 46-1 8 16 20 7 34-2 7 8 12-1 17 13 4 0 31-1 43-10 12 12 9-1 21-5 17-10 36-20 53-7 13-16 26-26 37zM231 325c13-25-10-2-6 8 3-1 5-5 6-8zm-42 33c-13-3 4-15-14-7-28-10 16 26 14 7zm25-27c-8-16-17 8 0 4zm10-21c18-19-29-13-5 1 2 5 5 1 5-1zm-24 23c-11-11-31 12-38-9-26-22-14 26 7 17 10-4 25-3 31-8zm-7-11c-11-13 7-19 3-2 17-5-11-25 13-26 11-14-10-29-13-9-5-15-27-2-10 9 5 18-14 6-6-4-10 1-2-19-12-5 11 10 2 34 17 35-2 7 15 7 8 2zm-16 0c-8-8-13-23-25-24 1-7 20-2 10-11-18-4-18 29-1 30 9-8 9 21 16 5zm-9-44c3-14-30 6-7-1 5 5 0 13 7 1zm11-23c-21-13-16 13 0 0zm-46-128c4-15-2-8-5 0-18-8 1 17 5 0z"/><path fill="#fa8731" d="M475 468c-4-4-4-19-10-3-5 5-14 10-13 18-18-1-7 9-8 14-13-12-15 15-28 11 5-17-7 6-8 2-18 3-34 11-51 16-6-9-14-7-18 1-7 4-46 5-22-5 14-6 13-9-2-9 3 10-29 12-8 18 7 18-25-17-31-1-8-15-35 6-34-9 23-1-13 0-19-5-10-4-32-37-34-18 19-1 12 17-2 4-2-15-32-21-26-35-8-9-13-1-9 4-15-4-16-35-27-34 9 14-20-12-1-3-16-16-13-42-29-57-1-5 1-20-8-13-4-16-1-19 10-9-14-6-19-42-5-15 7-7-20-21-5-31-9-10-3-23 7-27 10-13-16-30 6-31 15-19-19 4-2-13 3-8 8-19 15-25-16-3 14-34-8-41-5-16-28-36-19-58 5-22 28-33 47-38 18 5 17-16 31-22 20-4 40-26 62-11 18 11 27 30 14 42 7 9 29 24 43 15 15 9 30-6 41 5 20 4 40 10 58 15 4 8 36 3 45 19 12 5 22 9 23 26 2 13 45 27 27 30 8 12 13 40 26 44 5 5-5 28 7 28 6 13 6 35 14 52-10 12 0 26-1 39-14-3 1 22 4 9 4 24-13-2-17 11 6 19-7 38-10 52-7 7-14 20-22 28-5 2 5 14-3 10zm4-18c8-24-18 1-3 3zm-36-289c-4-13-21-13-5-2 1 1 6 8 5 2zM231 325c9-15 1-16-5-2-6 12 0 15 5 2zm-40 34c-12-7 0-14-16-9-29-10 13 26 16 9zm23-29c-8-17-17 11 0 5zm10-20c18-17-28-16-7 1 2 0 7 5 7-1zm-27 21c-7-5-8-33-3-15 6 12 14-10 3-12 5-10 24-14 11-29-9-2-11 20-18 2-26-3 10 29-10 25 1-11-3-11-5-20-7-8-9 13 0 17-1 15 5 21 16 28-13 16-27-1-40-8-16 3 11 33 25 21 4-9 30 3 21-9zm-20-9c-8-8-13-23-25-24 3-5 20-4 10-11-18-4-18 29-1 30 9-7 9 21 16 5zm-9-44c3-14-30 6-7-1 5 5 0 13 7 1zm11-23c-21-13-16 13 0 0zm61-163c-2-9-13-34-11-11-4 3 12 22 11 11zm-107 35c4-15-2-8-5 0-18-8 1 17 5 0zm268 397c-7 1-29 3-9-5 2-6 18 4 9 5zm99-293c-7-9-17-24-1-8 2 1 6 10 1 8z"/><path fill="#fb702a" d="M475 468c-4-4-4-19-10-3-5 5-14 10-13 18-18-1-7 9-8 14-11-14-28 27-27 5-8 9-26 9-41 19-10-1 13-15-5-5-9 16-32-5-32 11-10 0-47 5-19-6 25-6-20-19-6-2-13 1-28-4-13-14-10-5-13 16-16 16 13-6 27 4 6 6-14-1-42-3-48-16 8-5 16 4 3-7-15 7-43-17-12-5-4-11-30-15-34-23 1-20-23 3-14-19-6-6 1-19-12-15-13-8 21-34 0-24-4 9-8-12-14 3-10 5-3-25 12-13 12 8 20-10 16-13 9-8 21-13 21-28 8 0-7 30 9 19-6-6 14-38-2-33-9 7-21 2-19 19-10 26-11-24 8-20 15-3 38-32 29-42-7 5-17 41-17 16 4-10 27-37 10-43 0 17-10 16-10 1-12-7-2-17 1-5 13 0 3-14-3-12 10-11-24-9-31-1-22-8 21-11 29-9 11-9-12-10-11-21-12-1-7-18-24-14-18-14-23 21-33 0-10 16-15-23-19 0-16-5-16-38-3-36 1-8 23 2 11-8-8-2-19-25-1-23 10-2 16-15 3-8-18 0-1-18 10-7 8-7-19-21-1-19 7 21 17-4 1-7l-32-2c9-13 30-24 37-35-17 8 3-9 1-14 10-8 24-16 36-15 12-16 30-6 42-2 15 11 23 28 10 39 7 9 29 24 43 15 15 9 30-6 41 5 20 4 40 10 58 15 4 8 36 3 45 19 12 5 22 9 23 26 2 13 45 27 27 30 8 12 13 40 26 44 5 5-5 28 7 28 6 13 6 35 14 52-10 12 0 26-1 39-14-3 1 22 4 9 4 24-13-2-17 11 6 19-7 38-10 52-7 7-14 20-22 28-5 2 5 14-3 10zm4-18c8-24-18 1-3 3zm-201 68c-7-6-33-7-13 1 1 3 22 2 13-1zm2-10c-10-3-27-16-31-7 11 3 26 12 35 10l-1-1zm-48-27c-5-3-31-15-17-1 6-7 20 14 17 1zm-3-64c-13-5-19 25-3 7 3 0 6-5 3-7zm-29-5c7-10 9-33-4-15 6 6-7 30 4 15zm243-251c-4-13-21-13-5-2 1 1 6 8 5 2zM233 372c-4-12 8-25 4-33-13 6-9 19-9 28-4 4 2 15 5 5zm17-32c-10-18-8 22 0 0zm5-34c0-26-16-3-1 2zm-11-31c-6-6-14-36-12-12 1 4 10 27 12 12zm-28-36c13-20-37-15-7-7 2 3 2 17 7 7zm-10-25c-32-10 7 16 0 0zm-18-3c-11-13-21 10-4 3 2 1 6 1 4-3zm52-119c-1-5-11-32-12-18-2 6 7 29 12 18zm-68 10c2-10-7-7-6 1-12-10-2 16 3 2l3-1v-2zm16-42c-8-10-26 25-6 6 2-3 7-1 6-6zm213 464c-9-2-28 3-8-5 2-6 17 5 8 5zm99-293c-7-9-17-24-1-8 2 1 6 10 1 8zM197 348c-10-6 20-22 5-5l-4 3-1 2zm9-24c-9 0 6-16-4-21 11-2 15 21 4 21zm-23-91c-14-13-18 15-23-6 6-3 28-1 23 6zm-61-53c-21-2 4-25 0 0zm3-87c-7 8-30 31-22 7 9-9 7-18 25-22 11-6 3 15-3 15z"/><path fill="#fb6918" d="M451 435c-10 5-22 0-13-10-3-9-23 31-21 5 0-9 22-28 2-13-7 8-10 13-19 19 2 5 19-5 8 8-9-5-9 22 1 5 17 1-13 20-19 27-8 9-28 9-8-1 11-4 16-20 1-7-12 4-32 2-43 12-18-6 13-21-5-15-7 16-27-20-28-1 16-2 30 25 9 18 10-14-39-16-18-3-8 8-23-10-17-18-16 1-14-13-9-24-10-8-22 3-10 12-3 10 23 21 8 22-7-7-46 7-21-9 18 4 6-8 2-9-10-7 9-37-10-27 0 10-11 1-14 0 23-3-1-24 7-39 1-13-5-34 8-42-6 11 6 32 7 10-5-5 10-28-7-18-4 3 3-12-7 1-4 10-21 14-9-2 15-10 12-35 2-27 4-19 14-35 29-41-3-7-21 10-19-10-4-19-17 8-4 14 6 18-13 2-8-5-11 4-13-31-1-16-2-15 34-10 13-23-14-3-9 26-20 9 15-16-25-12-38-15-11-9-24 5-30-11-13 7-20-9-28-14-11 18-7-10 7-9 29-3-12-19 1-30 7 11 18 15 6 2-1-7 19-15 12-29 20 2 0-24-9-16-8-6-33 2-13-12 11-12 29-16 27-32 4-7 27-16 26-16-6 15-24 19-22 31-15 10 21-4 28-2 11-1 6 18-6 7-1 15 18 16 20 1 14-2 13-19 21-23 6 9 10 38 27 28 15 3 29 18 18 27 7 1 15-10 7 4 13 6 11 14 22 6 7 11 22-5 34-2 0-7-23-10-4-14 8 6 35 12 11 12 3 9 37 27 15 9-10-16 8 2 14-7 12 12 30 12 31 24 18-10 32 14 47 16 12 13 15 34 6 26-1 5 33 16 10 13-4 8-7-10-14-11 0-11-11-28-20-28 5 10 11 19-3 17 5 20 15-12 17 11 7 10 3 22 9 21 10-4 18 28 23 42 6 11-12 22-4 8-10-16-8 18 0 22-13 5-1 15-4 17-9 2-1 38-13 23-2-11-14-12-11-25-8-7 7-22 5-4 4-7-11-28 6-19-3 16 17 14 7 0-1-11-10-18-11-5-14 1-19 29-13 33-1 13 14 12 8 24 14 5 21 27 18 39-13 6 4 14 8 4 7 7-8 14-11 26-6 9-14-17-23 2 0 9 20 7 10 23 0 9 24-16 9 4zm-59 7c9-15-14-15-6 1-6 12 7 14 6-1zm50-71c9-10 0-21-2-4-7 5-2 17 2 4zm-140 89c-15-1-18-24-19-29-13 10 9 37 19 29zm161-203c2-13-13-21-11-5 3 4 7 15 11 5zm-26-7c-2-11-14-23-14-3 2 0 21 12 14 3zM266 425c-13-20-10 11 0 0zm-14-13c-11-14 8-24 5-40-13-18 0 18-12 14-10 13-3 26 7 29v-2zm16-18c-16-20-6 17 0 0zm79-108c8-5 19-32 8-27 6 9-27 33-8 27zm-78 44c12-22-17-1-4 7 3-1 5-4 4-7zm61-71c-13-5-11 18 1 1zm17-18c-4-17-12-5-25-10-1 15 22-1 15 18 3 4 10-5 10-8zm-98 82c-8-19-8 23 0 0zm76-78c-24-5 5-20 12-26-2-14-17 15-12-7 9-22-48-12-18-8 1 5-21 13-13-3 0-12 19-10 3-23-9 11-14-7-26 1 13-14-20-6-4 0-10-4-20 9-9 14-13 3 6 19 3 2 6-5 16-23 16-5-1 11 9 24-3 9-12 1-9 24-26 22-11 12 14 4 12 15 6-12 16-3 8 6-2-11-16 10-22 3 0 14 19-10 22 5 11 15 19-9 29 5 5 16 22-2 28-10zm-12-22c-19 1-18-6-1-10 2-33 16 13 1 10zm-18 10c-10 2-22 4-24-10-17 8 1-16 7 3 8 12 11-14 17 3 6-1 4 5 0 4zm-39 74c5-20-18-21-17-9 12-15 3 22 17 9zm116-128c-12-13-10 23 0 0zm-87 86c-13 0-33-24-23-2 5 0 23 10 23 2zm57-61c2-10 11-25-2-32-5 11 3 20-4 24-5 6 5 21 6 8zm-86 55c-9-8-25 0-4 4 2 0 5-2 4-4zm77-80c-1-17-19 4-2 3l2-3zm-14-4c-7-18-13-12-11-7-18-7 8 30 0 7 3-9 5 13 11 0zm-26-8c-10-9-1-18 8-9 6-5-18-23-17-9-11-14-2 8-15-2-24 10 6 22 20 18 2 3 10 9 4 2zm-47 35c-10-1-10-22-12-4-18 16 26 12 12 4zm-35 14c-10-16-30 4-7 3 2 0 10 1 7-3zm31-47c-12 0-34 23-11 8 2-5 13-3 11-8zm-53 41c-16-13-21 14-2 4l2-2v-2zm20-23c-8-3-40-8-26 2 8-5 21 3 26-2zm-41 23c-6-12-22 4-2 4l1-2zm9-110c0-12-14-13-11 0-18-6-5 20 5 6 4 1 9-2 6-6zm-27 5c-5-11-25 5-5 3 3 3 6 0 5-3zm206 389c-11 4-28 8-9-2 3-8 25 0 9 2zm110-137c-5-8-7-22 5-14 17-14-4 11-5 14zm4-25c-13 5-9-28 1-9 5 3 8 7-1 9zM239 480c-14 3-21-24-8-6 2 1 20 6 8 6zm227-250c-14-7 3-26 2-5 0 1 0 5-2 5zM237 459c-15-10 6-20 3-1h-1zm-12 4c-5-12-22-26-1-31-4 9 8 25 1 31zm-18-1c-15-17 9-24 0 0zm2-37c-24 6 11-45-3-12-1 6 12 12 3 12zm12-20c-9-12 10-22 2-3 4-2-4 9-2 3zm-30-25c-4-10 11-35 6-10-2 3-1 11-6 10zm27-47c-6-10 15-25 4-5 0-1-1 8-4 5zm-12-10c-3 1-1-28 5-13 1 4 1 12-5 13zm16-26c-13-11 11-23 0 0zm-16-52c2-9-21-20-5-13 7-6 11 14 5 13zm28-192c-7-2-12 14-23 2-8-8 30-10 23-2Zm-31 16c-12-4-23 17-33 7 6-8 40-20 37-7l-2 1zm-4-15c-19 3 6-24 3-2zm-97 59c-10-15 31-25 9-9-4 2-5 9-9 9z"/><path fill="#fa590c" d="M387 425c-8-15 18-14 0 0zm-32 18c-11 8-28-3-7-2 3 0 19-3 7 2zm42-44c2-7-5-13-7-19 13-11-13-49-5-21 9 10-7 26-9 32 8-9 17-1 8 9l-17 1c5-10-5-17-5-3-18 5-21 10-41 17-11 0-21 6-29-4-15 5-21-22-31-32 0-14 8 7 14 1-2 18 11 19 12 1 17-5 3-20-2-9 16 8-28-2-4-4 11-10-13-25-8-3-5-1-3-23-17-24 5-2 14-4 14 7 19 0-6-19 5-28-20-9 22-10 5-22-9 12-20 7-7-3 10-9 17-1 16 7 12 2 23 4 7-8-23-9 28-16 16 7 6 4 20-5 29 4 11-12 27-19 33-6-4 22-21-17-19 10-14 7 9 0 13 7 17-6-1 21 18 14 17 0 3 21 20 22-7 17 9 34-9 47zm-18-28c-4-15-26 13-4 3 2 2 5 0 4-3zm-41 23c-23-12 0 20 0 0zm32-37c-2-6 11-26-6-16 0 5-3 35 6 16zm-60 52c-5-20-21 4-2 5l1-2zm-16-7c-18-23-8 24 0 0zm8-13c-17-21-11 19 0 0zm59-61c-11-12-15-5-17-1-20 17 14 5 17 1zm-36 28c-22-8 2 19 0 0zm9-38c-9 5-15 8-24 7-1 20 24 1 24-7zm-8-5c-6-11-39-1-25 9 9-5 12-10 24-7zm-29 11c-8-16-24 8-6 1-1-1 11 5 6-1zm114 61c3-6 7-39 8-13-1 5-3 12-8 13zm-53 40c-19-1 12-23 4-2zm3-12c-22-5 15-17 0 0zm-22 19c-12 3-18 23-31 10 9-2 17-8 20-13 15 2 17-9 9-17 5-6 17 22 2 20zm-32-1c-30-9 18-9 0 0zm96-110c-14-2-8-39 2-14-1 5 9 14-2 14zm-126 97c-14 0-7-19 2-4 4 0 0 5-2 4zm116-120c-5-1-20-9-11-15 3 3 17 11 11 15zm-64-7c-8 15-20-10-22-15 12-2 28-18 40-10 1 15-12 9-12 13 3 3-2 12-6 12zm5-11c-4 1-25-9-13 4 5 6 11 3 13-4zm19-26c-18 3-18-2-2-6 8 0 14 5 2 6zm-96 75c-22 7 18-26 3-2l-1 2zm50-61c-9 3-30-6-10-7 7 0 28 5 10 7zm-15 10c-10 13-20-18-24 5 3 4-15 15-5-2-5-22 43-7 29-3zm-51-125c-12 3-11-3-13 10-11-1-28 8-29 17-21-9-20 17-39 16-9 13-16-13-25 6-8 5-8-22 8-14 11-9 14-30 17-28 3-10 18-20-2-17-10-18 13 1 6-15 7-5 13 15 11-4-18-20 27-23 29-8 5-23 12 9 25 1 13-3 30-26 39-2-3 10-25-10-12 9 7 11-8 24-15 29z"/></svg>