<svg xmlns="http://www.w3.org/2000/svg" width="32" height="32" viewBox="0 0 268.1 273.1"><path fill="#f5cbab" d="M142 271c-30-5-56-20-82-35a221 221 0 0 1-55-91c-4-21-8-45 0-65 7-15 23-24 33-38 9-11 20-21 34-26C93-1 123-4 148 6c17 2 31 11 45 20 23 18 42 40 56 65 17 22 22 50 18 76-3 18-4 39-18 52-18 6-11 35-32 32-19 3-31 25-53 22l-22-2Z"/><path fill="#e8b48f" d="M144 271c-30-6-59-20-85-37-14-12-25-27-33-44-16-27-26-57-25-88-2-20 13-35 27-47 12-11 21-26 36-34 14-7 27-18 44-19 9-1 33-2 33 5-13-3 1 4-10 7 7 7-9 1-2 8-13-2-26 8-14 19 9 9-7-2-7 9-6 3-17-16-12-1 11 4 11 21 10 30 15-7 1 15 16 17 13 2 6 20 16 28 9 14 18 33 34 40 6 4 15-9 12 6 9 13 7-20-5-15-15-11-22-31-23-49-12-9-14-24-12-39 0-7-11-28 2-13 13 10 10 26 23 36-2 18 8 34 21 45 14 7-6-13-6-19-11-4-8-28 0-11 10 9 19 16 26 28 13 9 23-4 13-16-3-15-17-26-18-41 8 5 15 23 22 33 2 9 4 18 13 15 3 10 12-17 7-19 4-10-17-30-12-33 12 18 26 34 29 56 7 15 2 32 1 48-4 17-6 37-22 46-14 9-8 35-31 30-17 7-32 24-53 21l-15-2Zm63-92c-2-9-19-17-7-5 3-1 5 10 7 5zm-83-58c2-20-19-24-29-36-4-11-13 6-11-8-7-2-12-12-16-12-7 11 9 23 16 32 15-2 19 20 33 24 2 0 9 7 7 0zM112 18c4-13-15 5 0 0zm7-10c12-7-20-1-3 1zm75 57c-10-9-3-14 3-3 6 6 1 11-3 3zm27-6c-16-19-36-35-58-47 17 5 34 16 46 29 8 7 19 16 20 26l-8-8zm-66-7c-8-5-15-31-2-13 6 3 16 28 2 13zm20-13c-8-1-12-16-2-6 1 1 11 11 2 6z"/><path fill="#ce9667" d="M142 270c-29-5-56-20-81-35-13-12-25-25-33-42-9-15-17-32-22-50-5-20-6-41-1-61 8-15 23-25 33-38s24-21 37-29c6-4 23-12 25-9-14 5-27 17-34 29-3 10 16 26 18 36-13-7-22-23-36-28 9 12-9 1-13 12-15 8-25 23-26 40 10-2 10 23 21 7 6-10 15 12 21 2-2 9 28 28 16 11 5-10-15-12-3-19 10 10 25 16 35 27 6 5 18 16 17 2 16 9 22 29 36 41 10 5 23 15 31 18-6-6-7-15 2-6 6 6 5 16 13 8 9-2 21 13 15-4-3-14-28-19-22-32 10 9 28 13 37 19 16-2 5-25 7-33 10 20 21-7 20-17 2-8-13-28-7-27 11 14 17 33 19 51-1 24-2 49-14 70-15 8-20 25-28 36-22-2-33 22-54 22-10 1-20 1-29-1Zm6-55c4-6-24-18-13-5 6 0 7 8 13 5zm42-8c-4-5-20-23-22-18 5 7 14 18 22 18zm-60-6c-7-9-14 7 0 0zm-28-28c-13-14-7 9 0 0zm9-6c6-13-14 3 0 0zm-16-6c14 3 18-28 4-11-6 1-18 16-4 11zm-22-7c9 2 16-14 3-8-6 1-24 2-11 10 3 1 6 0 8-2zm-63-41c7-4-4-25-5-7-1 4-2 14 5 7zm164 37c-4-7-18-27-8-29 4 5 30 36 8 29zm-14-33c-4-7 1-28 3-10 3 2 1 15-3 10zM19 83c-5-18 14 8 0 0zm128-9c-3-10 4-12 3 0 1 2-2 4-3 0z"/><path fill="#a26c3d" d="M145 270c-29-5-57-18-82-35-16-11-26-28-36-44-10-18-19-37-22-57-2-17 5 15 3-3 7-2 19 22 17 1 15 1 16 18 26 25 3 8-14-1-3 9 14 9 25 23 42 27s27 19 42 23c10 1 16 15 2 8-15-5-27-20-44-17 7 8 26 14 35 24l42 21c8-2 17 6 15-8 4-12-17-22-25-31-15-16 19-4 21 5 8 8 25 18 34 16-5-13-20-27-22-36 7 2 19 23 23 16-7-20 8 4 11 6 3-9-11-28-3-32 7 4 7 22 15 7 3-9 2-22 14-15 2-21 15-41 7-62-2-7-9-27 0-11 5 16 12 33 9 50 0 19-5 38-12 55-12 9-23 21-26 36-21-2-33 17-52 22-10 2-21 2-31 0zM43 171c-8-16-9 9 0 0zm-3-19c-10-12-11 4 0 0zm101 20c-11-17 15 9 0 0zm-22-9c-10-8 1-22 10-11 12 8-3 12-10 11zm-28-17c-4-7-22-18-8-26 10 6 35 14 14 26-1 1-6 3-6 0zm82 0c-9-13 12 2 1 1l-1-1zm-120-9c-1-12 12 6 0 0zm9-88c-11-3-11-24-1-10 3 2 11 14 1 10zm-23-5c6-11 12-5 2 2-4 4-4 1-2-2z"/></svg>