<svg xmlns="http://www.w3.org/2000/svg" viewBox="0 0 678 700"><path style="fill:#f3870e;stroke:none" d="M402.2498 56.40175c13.19101-12.583438 72.54851-10.318984 27.64475-26.451812C364.77802 11.580587 297.1539-8.4324796 228.90342 4.6928557 152.40985 16.439109 76.973275 60.258695 43.927951 132.58987c-49.9436215 105.7335-53.985458 229.5382-23.797995 341.52338 10.709271 49.66313 44.736292 89.20444 70.130596 131.88808 23.320548 29.30532 57.020368 47.81924 85.479838 71.65359 24.23043 19.54287 56.65363 14.91027 85.50941 19.73183 38.10432.20087 75.2182-10.26329 110-24.945 53.31834-6.29834 109.21255-15.29513 153-49.001 55.77844-31.9202 95.42686-85.03767 119.24591-143.85504 28.39599-68.84087 43.98521-147.3448 24.80109-220.59609-20.53802-72.09807-52.20074-148.01628-118.34227-189.562506-25.00707-21.013437-57.47393-14.63905-86.89481-20.159861-20.85784-1.796422-40.71918 2.764276-60.80992 7.134497Zm-44-10c2.71391-.241143 16.02702 17.063107 14.1866 15.795868-1.05391 15.662362 4.67016 14.750127-16.4716 22.812132-18.50443 7.603429-52.13024 21.90939-65.715 5.392 16.80285-7.7384 31.07012-10.801319 41.61503-20.923316-10.84595-16.231669 13.70605-15.116075 26.38497-23.076684Zm-139 84c-5.26712 23.40977-22.28556 46.94788-18 69-12.44832 11.60088-2.65565 19.00415-3 21-3.4065 6.0403-10.38867 18.09267-10 33 4.52743 5.35295-12.99976 26.92976-7.04428 42.65271-.8997 21.49506-3.40854 39.02682-6.79902 60.21374 1.05394 17.75835-1.79012 27.48172 6.8433 45.13355-13.11035 13.94523 2.41186 45.84225 1 60 1.46486 3.59949-4.81984 25.36958 6 27-2.51886 24.10074 7.44553 56.48974 24.22678 79.11517 6.61627 12.1175 35.10145 45.53828 25.17375 43.51156-28.00703-34.10092-44.63296-74.53817-63.40053-113.62673-1.45398-14.55056-6.77148-46.91639-13.61933-65.90333 5.59487-2.5854 4.77437-23.9052 1.81714-28.37579-1.63758 1.19042-2.36003-15.30702-5.19781-16.72088 4.17244-9.89973 3.90745-18.06092 3.13366-28.53324-17.92702-11.4481 14.18793-5.49711 2.884-30.78667-3.72614-12.7077-.0825-29.53407 3.44078-41.29442-2.87102-19.7074 7.54553-35.87319 7.95731-48.70555-3.8216-5.73971-2.93198-29.45784-1.41575-25.68012.6549-13.24303 6.78133-7.48347 9.23099-21.43664 12.43307-2.83329-3.10829-12.36635 6.68349-22.17002-.86724-10.66016 25.05808-13.70727 14.08552-20.39334 7.04537-6.27931 6.464-11.06095 16-17zm-45 86 1 1zm17.333 8.667.334.666z"/></svg>