<svg xmlns="http://www.w3.org/2000/svg" viewBox="0 0 152.8 152.8"><path style="fill:#67202c;stroke-width:0;stroke-miterlimit:4;stroke-dasharray:none;fill-opacity:1" d="M64 151.59165c-1.54-.60574-3.418914-1.12166-4.175365-1.1465-.756451-.0248-2.736451-.73436-4.4-1.57673-1.663549-.84236-4.824635-2.32424-7.024635-3.29306-6.293503-2.77149-14.256127-8.38252-20.173428-14.21565-4.864165-4.79497-6.935741-7.38492-11.585581-14.48467C14.164986 113.09448 9.733908 103.65537 8.7192024 100c-.5496344-1.98-1.3057193-4.008232-1.6801889-4.507176C3.6524144 90.98048 1.3835198 67.109605 3.2092346 55.2 8.3947104 21.37381 36.976578-.77985 64.745201 7.5037864c6.287046 1.875484 8.815689 1.6427816 18.330415-1.6868844C93.996984 1.994981 105.19428 1.611083 115.2 4.7155211c8.71548 2.7041212 9.7642 3.4196165 14.44361 9.8542909 2.3319 3.206603 5.57584 7.630188 7.20876 9.830188 5.96878 8.041638 8.06541 13.712254 11.53581 31.2 2.95228 14.876937 3.88371 24.141968 2.87345 28.582448-1.45354 6.388936-5.06426 15.287512-7.22971 17.817552-.75318.88-2.55628 3.76-4.00688 6.4-1.4506 2.64-3.75966 6.09246-5.13125 7.67214-1.37158 1.57968-4.62413 5.42814-7.22786 8.55214-2.60374 3.12401-6.38374 6.7395-8.4 8.03442-7.75789 4.98246-14.52689 8.9413-15.28823 8.9413-.43676 0-2.67472 1.32186-4.97326 2.93746-8.737344 6.14132-27.640397 9.95072-35.00444 7.05419z"/></svg>