<svg xmlns="http://www.w3.org/2000/svg" viewBox="0 0 265 248"><g style="stroke-width:1.00157;stroke-miterlimit:4;stroke-dasharray:none"><path style="fill:#fcdc75;stroke-width:1.00157;stroke-miterlimit:4;stroke-dasharray:none" d="M131.1 219.2c-18.5-.4-38.1-3.8-55.7-9.7a81.8 81.8 0 0 1-41.3-29.7 104.7 104.7 0 0 1-27.6-59c-4-28 5.1-56.3 25.4-76.5a143.3 143.3 0 0 1 57-37.2c26.4-2.5 42.6-1.4 55 14.2 7.9 12.2 9.5 25.5 27.4 20.6a522 522 0 0 1 57.2 2.5c25.6 11 29.5 24.2 34 43.2.7 28.4-10.2 61-27 84a245.4 245.4 0 0 1-33.5 27c-25.4 14.9-44.6 20.9-70.9 20.6z"/><path style="fill:#ce433d;stroke-width:1.00157;stroke-miterlimit:4;stroke-dasharray:none" d="M111.4 245.5a121.4 121.4 0 0 1-86.8-53.6C8 167.3-1 136.5 4.6 106.9 5 71.2 26.8 38.2 57.1 20.3 75.9 6.8 101-2.2 123.7 5.7A257 257 0 0 1 167 33.2c20.8 15.2 48 3.2 70.3 13.1 23.2 12.7 29.2 42.3 26 66.6a131.8 131.8 0 0 1-39.1 86.3c-18.9 20-42.8 36-69.2 44.2-14.2 3.7-29 3.7-43.5 2zm45.1-29c28.2-4.9 53-21 73.5-40.2 12.7-11.5 19-28.6 24.7-44.4 6.7-23.6 10.4-52.3-6.1-73-9.5-13.3-26.7-15.9-41.9-14.8-13.7.4-27.4-1-41 0-17-.8-17.4-22.9-30.4-30.4-14.5-9.7-33.4-7.9-49.8-5-29.9 12.5-57.7 34.1-71.5 64-4.4 13.2-8.4 27-8 41C7.4 138 18 161.3 34 179.7a84.6 84.6 0 0 0 49.6 31.6c23.7 6.1 48.5 9.5 72.8 5zm-62-59.5c-12.2-2.8-4-19.6-12-26.7-1-9.2 8-7.3 11.2-3.6 4.3-4.9-8.6-18.4 5-17.6 17.4-5-20.3-15.9-5-26.6-2.9 6.8 4.8 10.4 9.3 5 5 10.7 9.3 1 6.4-4.8 4.6-5.6 4.5-15.6-3.8-7.6-4.7 4-12 3-4.1-1.7 11.3-6.5 23.7-15.8 37.3-13.8 1.2 4.7-9.5 22 .8 15.5 6.3-6.7 22.1 14 21.1-4-4.2-3.8-15.5.6-4.5-5.2 5.7-5-15.6-7.8-4.7-13 6.2 4.7 19.8 8.3 22.1 10.9.3 6.9 18.8-3.4 15.5 9.9.4 13.9 1.3 29.1-4.3 42-6.4 12.8-14.8 26.3-28 32.8-9.4 3.3-28.2 15.4-32.7 1 5.1-4.9 8.6-11.5-1.6-10-4.4-3.2-20-8.4-9.7.9 12.3 13.5-7 22-18.3 16.6zm52.5-14.6c4.3-1.6 20.8-4.1 11.4-9.9-9 12-32-15.2-33.4-.3 9.1-1 18.4 9.7 22 10.2zm14.5-19c5.7-1.4 18.4-13.8 4.7-11.1-5.2 1.7-18.2 15.6-10.4 2.4 1.3-6 .5-23.5 9.5-12 2.9-17.6-20.7-14.5-20.3 1.2-7.2 9.8-5 30 11.2 23.3a16 16 0 0 0 5.3-3.8zm18.1-16.5c6.6-4.2-12.2-6.1.4-7.8 13.2-9.4-9.2-17.2-13.2-24.7-14.1 7.8 3.3 15 9.8 18.6-10.6 1.3-12.8 23 .7 15.3zm-49.2-9.4c-.4-5.8-9.5-9-11.3-11.5-8.3 3 8.8 15.7-1.1 15.5 3.4 6 15.6 4.3 12.4-4zm9.4-.7c7.6-2.4 8.6-27 1.8-13-7.7 3-12.8 14.2-4.4 18.4 1.7-1.2 2.3-3.5 2.6-5.4z"/></g></svg>