<svg xmlns="http://www.w3.org/2000/svg" viewBox="0 0 249.60001 222"><path style="fill:#fdfdfd;stroke-width:.8" d="M0 112V0h249.60001v224H0V112zm153.49605 107.28538c11.20998.41159 21.13652-1.94305 31.70396-5.34289 16.99789-4.11066 30.3929-17.06911 41.97197-29.5277 15.94751-19.18932 22.36111-45.78489 16.62546-70.13271-1.27078-10.28623-4.72458-19.929646-10.75253-28.365464C222.30768 70.154172 207.95929 57.391734 193.82723 44.8c-8.11254-6.010538-15.19247-12.684242-23.53758-18.671574-18.61733-13.159589-40.12185-23.7893861-63.41983-23.7623806C95.608411.3783486 86.151388 5.7840535 76.075567 9.046469c-10.805988 3.188205-20.21146 10.244653-25.702946 20.175974-6.145715 10.93119-14.082481 20.52522-22.291929 29.938369-7.13673 9.530505-10.071186 21.46907-12.861703 32.77642-2.672157 11.798758-5.7878561 23.484198-7.2142336 35.561908-.032708 11.47828 1.1423316 24.05509-6.2390539 33.19303 10.1097095-9.01918 6.0018169 13.73029 12.3184945 17.78323 10.100305 19.34418 31.243906 28.41299 50.949164 34.81244 11.491436 4.19682 23.053061 6.42946 35.29461 7.10181 17.72368.0404 35.46888-.12344 53.16808-1.10427z" transform="scale(1.0115 1.00366)"/><path style="fill:#f64500;stroke-width:.8" d="M88.000004 218.5339c-17.63036-3.17401-34.759736-9.53158-50.769493-17.58559-14.702291-8.76132-28.9124829-24.39805-27.5329733-42.62834 2.4022213-11.17981 12.8827253-18.97624 19.7024633-27.14541 13.13644-1.13658 15.061498-15.24516 24.576351-21.95769 12.692131-6.18997 6.552546-21.234045 13.613913-30.464562 4.18383-10.362236-4.324429-22.979572 3.609738-32.570551 5.731631-10.72922 14.368139-19.713904 16.093087-32.30878-5.457077-16.0885403 18.52443-10.9563814 27.97432-10.2950985 30.33875 3.2852673 55.47839 22.5295625 78.04705 41.5960275 9.81654 8.270286 19.13118 17.35553 27.97831 26.680148 7.67391 9.41887 15.9794 19.242619 19.32631 31.097546 5.39673 20.74365 7.05751 43.60462-3.07554 63.25295-8.68571 20.27438-26.51776 35.82721-46.17333 45.12985-12.89775 4.58309-26.37258 7.20911-40.1002 7.16325-21.00784 1.93348-42.25169 1.63984-63.270006.0362z" transform="scale(1.0115 1.00366)"/><path style="fill:#3a2811;stroke-width:.8" d="M4.1438818 157.85147c7.0524662-8.30991 3.5367956-22.57637 4.8594791-33.55494 2.4152881-12.98215 5.8392301-25.666184 8.3746801-38.569489 3.277152-10.909418 6.965876-21.527501 14.902075-30.072431 7.654623-7.760142 13.39188-17.12274 20.061028-25.447789 3.250245-9.039278 12.337111-15.393959 20.790917-19.402645 9.655567-6.6673583 19.954912.627237 12.22068 10.940458-2.727787 10.815378-11.080263 17.934084-15.790923 27.703895-4.08988 10.37856 3.750638 22.797952-3.595204 32.13966-2.44926 10.944603-1.448258 22.571151-13.124151 28.908891-7.118068 9.13618-13.593933 19.48831-24.742783 22.78099-7.842767 7.58229-14.991625 20.10397-23.9557982 24.5734z" transform="scale(1.0115 1.00366)"/></svg>