<svg xmlns="http://www.w3.org/2000/svg" viewBox="0 0 372 377"><path style="fill:#e67316;stroke-width:0;stroke-miterlimit:4;stroke-dasharray:none;fill-opacity:1" d="M167 375.36067c-36.15037-4.91636-70.961382-19.85537-100.403149-41.23601-24.669001-19.10286-44.071294-45.1765-52.314829-75.5252-14.6063049-39.32411-17.3726563-83.07629-5.5358368-123.45231C18.047732 93.94038 46.9951 60.915606 80.006084 36.164948 103.5924 16.881274 133.34203 5.8990723 163.28961 1.8677599c26.62341-1.304213 54.06463-.9268865 78.77977 10.4271621 32.20991 12.397353 63.48987 29.313948 86.19552 55.924545 19.08887 20.133445 28.35787 47.216863 35.63359 73.432113 10.87572 39.33711 8.31118 82.24887-6.15965 120.30652-13.67413 28.12108-31.56216 54.82597-57.21288 73.38896-30.21935 21.38325-64.52053 40.11741-102.53931 40.2988-10.32106.37707-20.67442.26572-30.98665-.28519zm-96.926114-50.77164c7.694042-3.92417-18.772601-21.81028-5.65143-5.4203.177263.26702 7.927381 10.36521 5.65143 5.4203zM56 306.16667c2.021374-6.53372 8.576915 7.65174 5.198026-4.89245-5.649216-8.22823-20.316971-18.73291-24.459644-22.44705 7.200964 9.60063 13.513633 15.56588 14.334422 25.44499.412369.56255 5.045854 6.38596 4.927196 1.89451zm-20.015313-35.29423c-3.886928-12.22759-4.05188 12.0701 0 0zm-.497894-11.25225c1.580638-7.76951-12.25111-23.67299-8.018596-8.06132-.719909 3.40088 11.32947 16.30437 8.018596 8.06132zm-7.100845-46.18357c7.791672-3.04498-6.55655-27.8713-2.159105-9.33478.262357 1.06435-1.174944 15.05073 2.159105 9.33478zm-5.31277-33.07072c-5.916902-6.32606 2.924808 11.61249 1.364684 2.37525zM23 171.56343c-4.374156-10.2416-3.123321 6.64337 0 0zm63.990179-16.0516c.08805-7.64046-9.7111 5.40514 0 0zM71.266949 153.75c1.907826-12.7464-11.961906-17.8291-8.680715-5.36458 2.331051 1.78505 6.000095 8.92421 8.680715 5.36458zm35.567941-2.24844c5.67877-4.17243-7.797079-9.16252-.68492-18.94725-2.50613 6.72936-12.478504 27.24159-16.052802 9.68679 7.60688-11.28306-5.108051-14.15384-7.173893-2.82999-8.471051 12.84455 12.804977 12.43279 23.911615 12.09045zM22.380794 147.25c-5.52984-12.18463-3.472482 9.82568 0 0zM59 144.44001c-7.272014-4.3256-7.604186-28.787-11.641549-10.66848C37.790544 132.20974 56.108236 149.04448 59 144.44001Zm61.54045-6.82267c2.45219-5.54277 25.38545-17.48388 7.7573-11.87268-3.5489 2.26552-25.4425 17.14347-7.7573 11.87268zm-58.717127-6.80094C57.460856 118.39041 63.362661 107.07047 47.767927 108c-11.405076-1.00205 13.751195 12.78623 11.854457 21.41339.06328 5.9218 4.583556 12.46224 2.200939 1.40301zM99 126.32874c11.99583-7.52317-7.388078-21.38914-6.174053-9.16482 4.818854-.36963 4.567123 14.53394 6.174053 9.16482zm-21.345012-12.15748c.845648-14.469003-24.674876-5.46443-9.063031-.67126-.33034 2.7176 13.193616 4.26385 9.063031.67126zm38.465022-12.54352c-1.89604-5.887026 2.29227-18.236285-9.45783-21.414836-5.89535-.28561-2.32493 17.823291 5.82547 19.869716-.73848 10.20842 6.66456 13.07526 3.63236 1.54512zm13.2512 3.89158c-1.2493-9.385726 15.19231-25.151575.20123-29.908745.99011 9.548128-2.00261 15.813131-8.35684 24.389425 10.00459-3.213799 1.92979 9.78209 8.15561 5.51932zM75.717772 91.912382c-10.336175-10.701787-1.860297 11.394538 2.546174 3.067283ZM63.304719 84c6.642751-14.770215-6.000735.259634-6.480833 4.238409 2.158362-1.40394 3.81501-3.722844 6.480833-4.238409ZM90 69.106989c-3.568915-8.979701-4.121633-11.673921-13.440302-4.445707C61.840248 66.26415 89.895328 67.097381 90 69.106989Zm25.74036-4.313923c1.64978-13.588051-27.180702-4.245422-13.21042-.821194 6.05134-9.602899 14.7471 15.915168 13.21042.821194zM229 67c10.43846-1.218499 9.98003-5.057476 5.29736-12.196902 4.02357-11.887674-14.2529-27.942588-18.97273-8.513353C197.69376 43.605286 199.34765 64.891474 215.16466 64c4.87683.727723 8.81414 8.272895 13.83534 3ZM101.82628 38.994668c5.65869-11.910449-13.274017 6.586652 0 0zm26.97338-12.399654c8.64896-4.946329 10.43313-13.742063-1.40275-8.275056-8.00343-3.235909-7.22501 15.878301 1.40275 8.275056zM149 21.160515c-11.58187-2.88828 8.42558-13.5107915-8.27374-7.751115-4.68387 2.743006 5.62347 11.071963 8.27374 7.751115zM153 10c-1.49294-3.1602005-2.25683 3.434482 0 0z"/></svg>